<svg width="382" height="227" viewBox="0 0 382 227" fill="none" xmlns="http://www.w3.org/2000/svg">
<path d="M99.8727 80.2561C102.919 78.0092 107.655 72.9526 109.013 66.3293C109.976 61.629 109.475 57.6858 109.366 56.9287C110.495 58.3376 120.521 70.4223 137.846 71.228C154.888 72.0215 171.947 61.5764 176.77 45.6415C177.32 48.3904 180.532 62.8355 194.807 68.9689C212.011 76.3615 255.566 48.6495 255.566 48.6495C255.566 48.6495 249.519 62.6492 255.566 71.228C264.042 83.252 290.608 88.4948 317.273 78.0011C314.416 80.1873 310.592 83.4868 307.013 87.9928C302.532 93.6323 294.468 103.778 297.337 114.122C300.148 124.259 328.665 135.19 328.665 135.19C328.665 135.19 297.616 135.506 287.843 144.222C277.71 153.258 278.169 164.303 278.35 166.797C276.486 165.55 264.865 157.999 249.869 160.024C234.716 162.072 222.361 173.052 220.44 187.116C217.314 176.27 207.76 167.614 195.757 165.295C178.893 162.032 153.036 188.622 153.036 188.622C153.036 188.622 153.565 178.485 149.153 171.027C146.718 166.91 142.899 162.619 139.745 160.777C128.689 154.323 100.498 163.21 73.2914 184.857C84.3095 167.683 92.7939 148.55 82.7845 138.955C70.9216 127.583 36.2666 128.421 36.2666 128.421C38.6436 127.838 55.1924 123.559 61.8989 110.357C67.9563 98.4338 50.5555 74.564 50.5555 74.564C50.5555 74.564 90.6232 87.09 99.8727 80.2561Z" fill="#FC9422"/>
<path d="M101.245 82.2769C99.9833 83.099 98.5956 83.7197 97.2894 84.028C96.621 84.2294 95.9827 84.3362 95.3438 84.4431C94.6951 84.5705 94.0868 84.6034 93.4646 84.6733C91.002 84.8788 88.6841 84.7966 86.4216 84.6281C84.1582 84.4595 81.9642 84.1636 79.8008 83.8183C77.6353 83.4772 75.5072 83.0702 73.4019 82.6263C69.1887 81.7385 65.0641 80.6944 60.9919 79.5599C56.9229 78.3967 52.93 77.1636 48.9408 75.803L51.0052 73.8998L51.0119 73.9122C54.5889 78.7461 57.6639 83.7197 60.2354 88.9522C61.4929 91.5747 62.629 94.2506 63.4545 97.0292C64.2899 99.8079 64.8531 102.693 64.7421 105.715C64.6866 107.227 64.3957 108.781 63.8066 110.322C63.5136 111.128 63.1273 111.777 62.7597 112.46C62.3868 113.138 62.0399 113.824 61.5655 114.466C59.8714 117.113 57.6354 119.538 55.0488 121.675C52.4675 123.817 49.5444 125.679 46.4103 127.261C43.2518 128.832 39.9528 130.131 36.3147 131.113L35.1583 125.601H35.1718C40.0793 125.531 44.7432 125.724 49.519 126.102C54.2653 126.489 59.0121 127.089 63.7247 128.051C68.4269 129.017 73.1348 130.315 77.5612 132.432C79.7645 133.493 81.8937 134.771 83.7542 136.366C85.6407 137.949 87.1616 139.93 88.1318 141.948C90.0479 146.046 90.1526 150.235 89.6719 154.14C89.1643 158.069 88.0286 161.826 86.6176 165.46C83.7734 172.727 79.8838 179.567 75.6591 186.217L69.6139 182.744C76.5635 177.199 84.0711 172.061 92.2284 167.548C100.41 163.084 109.184 159.093 119.213 156.852C121.722 156.306 124.331 155.903 127.052 155.73C129.766 155.558 132.637 155.636 135.564 156.265C137.022 156.561 138.489 157.054 139.873 157.699C140.563 158.044 141.237 158.402 141.835 158.801C142.413 159.195 142.949 159.59 143.443 159.993C145.408 161.596 146.943 163.273 148.367 165.016C149.775 166.771 151.023 168.534 152.09 170.515C153.167 172.509 153.916 174.531 154.479 176.55C155.037 178.568 155.404 180.586 155.636 182.604C155.747 183.615 155.838 184.622 155.881 185.634C155.927 186.665 155.95 187.623 155.908 188.749L148.966 186.748C151.495 184.203 154.049 181.881 156.756 179.563C159.459 177.261 162.263 175.029 165.242 172.904C168.214 170.779 171.357 168.76 174.783 166.939C176.505 166.039 178.282 165.172 180.204 164.428C182.106 163.668 184.128 162.998 186.344 162.545C188.543 162.093 190.931 161.814 193.452 162.011C194.079 162.073 194.712 162.167 195.338 162.254C195.972 162.344 196.426 162.484 196.979 162.599C198.049 162.821 199.071 163.137 200.097 163.454C204.19 164.736 207.824 166.73 210.965 169.052C217.237 173.746 221.312 179.937 223.226 186.431L215.578 186.785C216.007 183.965 216.782 181.178 217.939 178.477C219.149 175.793 220.747 173.216 222.701 170.807C226.627 166.006 232.169 161.958 238.801 159.405C242.127 158.155 245.707 157.296 249.379 156.898C253.05 156.495 256.807 156.585 260.417 157.12C264.031 157.65 267.493 158.603 270.733 159.849C273.981 161.103 276.988 162.623 279.809 164.494L273.547 166.972C273.209 161.608 274.303 156.281 276.899 151.299C278.202 148.821 279.871 146.445 281.928 144.287C283.005 143.23 283.973 142.199 285.449 141.118C286.843 140.098 288.348 139.317 289.86 138.61C292.902 137.229 296.034 136.292 299.165 135.532C302.3 134.771 305.449 134.22 308.599 133.764C311.749 133.32 314.902 132.983 318.058 132.737C321.236 132.494 324.328 132.321 327.616 132.264L326.056 137.829C322.372 136.374 318.955 134.845 315.518 133.176C312.107 131.503 308.76 129.724 305.546 127.722C302.348 125.699 299.218 123.529 296.532 120.734C295.211 119.324 293.957 117.766 293.175 115.834L292.912 115.099L292.789 114.729L292.717 114.404L292.44 113.097C292.231 112.226 292.236 111.346 292.135 110.474C292.001 106.968 292.829 103.557 294.114 100.379C295.422 97.1978 297.229 94.2342 299.213 91.4226C300.211 90.021 301.262 88.6604 302.311 87.3328C303.336 86.0256 304.509 84.6116 305.712 83.3169C308.139 80.6903 310.853 78.2322 313.806 75.9756L317.851 80.5218C310.238 83.4813 301.971 85.5365 293.42 86.1777C284.902 86.8354 276.039 86.1654 267.881 83.4607C263.834 82.0878 259.94 80.2299 256.69 77.6897C255.071 76.4237 253.611 75.0015 252.398 73.4395C252.112 73.0367 251.787 72.6708 251.539 72.2351L250.784 70.9403C250.509 70.5087 250.365 70.0648 250.177 69.6209C250.008 69.1811 249.802 68.7372 249.671 68.2932C248.629 64.7295 248.642 61.211 249.144 57.8404C249.384 56.151 249.777 54.4945 250.233 52.8545C250.706 51.198 251.247 49.636 251.977 47.9507L256.277 50.343C249.199 54.5562 241.932 58.3624 234.332 61.8645C230.544 63.6197 226.668 65.268 222.67 66.7518C218.679 68.2398 214.579 69.6003 210.232 70.5375C208.077 71.0308 205.828 71.3637 203.544 71.5816C201.244 71.7583 198.852 71.7254 196.467 71.298C195.875 71.1582 195.273 71.0637 194.691 70.891L192.965 70.295C191.965 69.8182 190.967 69.362 190.001 68.8564C189.096 68.2891 188.123 67.7794 187.28 67.1546C186.454 66.5216 185.541 65.9462 184.803 65.2515L183.643 64.2403C183.266 63.8951 182.934 63.5251 182.578 63.1716C181.851 62.4646 181.233 61.7042 180.605 60.9479C179.949 60.2039 179.438 59.4024 178.848 58.6296C178.346 57.824 177.788 57.0348 177.344 56.2086C175.421 52.9449 174.08 49.5209 173.128 45.9777L173.127 45.9736L178.37 46.138C177.573 49.2085 176.32 52.2174 174.613 55.0864C172.806 57.9103 170.593 60.5862 167.964 63.0113C165.315 65.4242 162.187 67.5205 158.754 69.2469C155.319 70.9691 151.547 72.342 147.535 73.1065C143.536 73.8875 139.347 74.1465 135.219 73.8053C131.085 73.4888 127.049 72.4982 123.402 71.0308C119.747 69.5634 116.439 67.6685 113.55 65.4776C110.661 63.2703 108.121 60.8903 106.014 58.1158L111.135 56.6813V56.6854C111.606 58.9749 111.742 61.1863 111.64 63.4594C111.585 64.5897 111.485 65.7201 111.288 66.8587C111.059 68.0178 110.787 69.1811 110.37 70.3074C109.587 72.5763 108.42 74.7507 106.911 76.7607C106.161 77.7719 105.319 78.7379 104.368 79.6463C103.425 80.5629 102.416 81.4343 101.245 82.2769ZM96.4991 78.2405C98.0683 77.0074 99.473 75.4125 100.704 73.8094C101.315 72.9997 101.908 72.1776 102.404 71.3185C102.931 70.4718 103.384 69.5963 103.763 68.7043C104.165 67.8164 104.44 66.9039 104.693 65.9873C104.934 65.0378 105.14 64.0636 105.283 63.0853C105.563 61.137 105.687 59.1023 105.598 57.1828L105.597 57.1786L104.039 48.3166L110.718 55.7441C112.69 57.9391 115.108 60.06 117.733 61.844C120.364 63.6443 123.213 65.2145 126.285 66.3408C129.35 67.4753 132.602 68.174 135.905 68.4289C139.211 68.6755 142.575 68.4535 145.827 67.7959C152.325 66.4271 158.304 63.4347 163.004 59.4558C165.355 57.4582 167.404 55.2262 169.121 52.8257C170.794 50.4006 172.104 47.8192 173.168 45.1474L176.99 35.5455L178.411 45.3118C179.392 51.757 182.288 58.309 187.698 63.1593C188.331 63.7964 189.106 64.3185 189.827 64.8816C190.557 65.4406 191.402 65.8845 192.181 66.3983C193.014 66.8464 193.889 67.2574 194.735 67.6767L195.982 68.1247C196.409 68.2562 196.877 68.3302 197.323 68.4371C201.03 69.0989 205.233 68.5851 209.206 67.6602C217.23 65.7653 224.813 62.4564 232.066 58.8927C239.276 55.255 246.285 51.2226 252.852 46.9601L259.73 42.5003L257.153 49.3565C256.636 50.7294 256.171 52.279 255.83 53.7711C255.493 55.2796 255.212 56.7964 255.077 58.3008C254.77 61.3137 254.986 64.3143 255.903 66.9943C256.012 67.3273 256.182 67.6356 256.314 67.9603C256.46 68.2768 256.567 68.6138 256.777 68.8934L257.323 69.7771C257.489 70.073 257.77 70.3608 257.984 70.6526C258.935 71.8076 260.084 72.8723 261.379 73.8341C263.952 75.7783 267.131 77.2868 270.538 78.4008C277.401 80.6081 285.159 81.2616 292.73 80.6369C300.329 80.0491 307.781 78.187 314.693 75.4824L335.004 67.5246L318.738 80.0244C316.082 82.0673 313.648 84.2828 311.474 86.6504C310.372 87.8506 309.405 89.0221 308.375 90.3416C307.359 91.6363 306.379 92.9147 305.466 94.2095C303.653 96.795 302.069 99.4338 300.97 102.138C299.893 104.839 299.261 107.597 299.375 110.281C299.47 110.943 299.445 111.621 299.617 112.271L299.828 113.249L299.878 113.496L299.95 113.685L300.083 114.063C300.486 115.086 301.33 116.196 302.338 117.253C304.384 119.386 307.159 121.347 310.059 123.159C312.985 124.972 316.132 126.637 319.361 128.207C322.579 129.761 325.97 131.261 329.273 132.556L342.711 137.825L327.711 138.121C324.83 138.179 321.761 138.351 318.798 138.586C315.814 138.828 312.848 139.153 309.923 139.572C307.006 140 304.119 140.518 301.354 141.196C298.594 141.87 295.927 142.696 293.614 143.761C292.476 144.295 291.388 144.871 290.518 145.52C289.712 146.091 288.81 147.02 287.954 147.867C286.293 149.618 284.949 151.554 283.886 153.589C281.768 157.654 280.848 162.221 281.151 166.623L281.624 173.504L274.889 169.102C270.36 166.142 264.732 163.931 259.031 163.104C253.304 162.254 247.403 162.944 242.161 164.934C239.54 165.924 237.127 167.276 234.946 168.838C232.78 170.409 230.799 172.176 229.212 174.17C227.608 176.155 226.282 178.284 225.273 180.512C224.316 182.76 223.668 185.087 223.301 187.446L220.62 204.702L215.653 187.804C214.061 182.391 210.643 177.261 205.634 173.524C203.129 171.679 200.292 170.121 197.179 169.155C196.399 168.921 195.626 168.666 194.818 168.51C194.437 168.431 193.982 168.296 193.661 168.263L192.687 168.131C191.347 168.025 189.848 168.181 188.317 168.497C186.784 168.801 185.212 169.311 183.665 169.932C182.113 170.532 180.586 171.272 179.084 172.057C176.083 173.648 173.198 175.493 170.433 177.474C167.66 179.447 165.004 181.56 162.436 183.743C159.89 185.921 157.361 188.227 155.106 190.496L147.818 197.829L148.163 188.494C148.193 187.705 148.178 186.748 148.136 185.864C148.099 184.964 148.016 184.059 147.917 183.159C147.712 181.363 147.387 179.583 146.909 177.861C146.431 176.139 145.801 174.474 144.973 172.941C144.152 171.399 143.033 169.804 141.847 168.333C140.65 166.857 139.313 165.427 137.906 164.284C137.556 164 137.207 163.746 136.868 163.511C136.542 163.293 136.204 163.129 135.873 162.956C135.174 162.64 134.407 162.356 133.519 162.184C131.777 161.805 129.745 161.707 127.65 161.847C125.552 161.982 123.394 162.303 121.246 162.776C116.942 163.713 112.692 165.143 108.574 166.816C104.459 168.505 100.452 170.425 96.5972 172.546C88.8754 176.78 81.6634 181.671 74.9679 186.974L58.1197 200.316L68.9232 183.5C73.0607 177.063 76.8279 170.47 79.5042 163.713C80.8353 160.342 81.8688 156.922 82.3199 153.544C82.7679 150.181 82.5885 146.827 81.2714 144.007C80.5854 142.602 79.6649 141.385 78.3805 140.291C77.1002 139.186 75.5207 138.208 73.7742 137.361C70.2714 135.663 66.1546 134.471 61.9098 133.596C57.6561 132.708 53.2339 132.132 48.7733 131.754C44.3371 131.384 39.736 131.191 35.3828 131.236L35.3745 131.24L8.34302 131.66L34.2187 125.724C37.1822 125.046 40.2002 124.002 42.9785 122.752C45.7632 121.482 48.3652 119.97 50.6712 118.223C52.984 116.484 54.9965 114.494 56.5635 112.295C57.0058 111.765 57.3273 111.186 57.6789 110.618C58.0284 110.051 58.4121 109.467 58.6175 108.958C59.093 107.889 59.4052 106.713 59.5182 105.484C59.7547 103.018 59.429 100.408 58.8 97.8225C58.1876 95.233 57.2573 92.6557 56.1969 90.1032C54.0325 85.0186 51.2717 79.9915 48.1101 75.2399L48.1049 75.2316L46.0359 72.2187L50.1698 73.3326C54.1481 74.4013 58.2327 75.3714 62.3054 76.2469C66.3786 77.1389 70.4762 77.9404 74.5831 78.5775C78.6812 79.2106 82.8177 79.6997 86.824 79.8024C88.8173 79.8477 90.7909 79.7942 92.5613 79.5435C94.3275 79.3133 95.8437 78.7831 96.4991 78.2405Z" fill="#272525"/>
<path d="M142.536 51.6526L126.472 25.2579C125.633 23.8802 126.363 22.2252 128.102 21.5574C129.841 20.8937 131.931 21.4734 132.77 22.8511C132.864 23.0065 132.944 23.1787 132.999 23.3383L142.536 51.6526Z" fill="#272525"/>
<path d="M214.297 49.1653L227.314 21.7352C227.994 20.3043 230.01 19.5805 231.817 20.1191C233.624 20.6578 234.538 22.257 233.858 23.6878C233.782 23.852 233.678 24.0161 233.57 24.1592L214.297 49.1653Z" fill="#272525"/>
<path d="M39.2655 101.618L2.8782 96.4352C0.977629 96.1637 -0.286242 94.7228 0.0558985 93.2177C0.397087 91.7127 2.21438 90.7094 4.11495 90.9809C4.32861 91.0111 4.55226 91.0602 4.74927 91.1205L39.2655 101.618Z" fill="#272525"/>
<path d="M293.516 55.14L318.229 40.3839C319.774 39.4604 321.97 39.7056 323.134 40.9315C324.298 42.1533 323.989 43.8941 322.444 44.8177C322.234 44.9443 321.995 45.0547 321.765 45.1364L293.516 55.14Z" fill="#272525"/>
<path d="M119.552 182L109.64 209.972C109.122 211.435 107.144 212.298 105.221 211.905C103.299 211.512 102.159 210.009 102.677 208.549C102.735 208.383 102.821 208.212 102.915 208.064L119.552 182Z" fill="#272525"/>
<path d="M83.8912 64.6863L59.5823 42.6061C58.3129 41.4507 58.4633 39.7011 59.9178 38.6973C61.3723 37.6894 63.581 37.8082 64.8505 38.9595C64.9937 39.0906 65.1276 39.2423 65.2351 39.3857L83.8912 64.6863Z" fill="#272525"/>
<path d="M307.552 155L345.178 165.415C347.003 165.923 347.983 167.548 347.369 169.049C346.755 170.549 344.778 171.356 342.954 170.848C342.764 170.797 342.566 170.724 342.396 170.65L307.552 155Z" fill="#272525"/>
<path d="M243.552 176L269.713 200.392C270.98 201.574 270.791 203.34 269.292 204.336C267.794 205.337 265.551 205.189 264.284 204.007C264.153 203.886 264.027 203.742 263.927 203.605L243.552 176Z" fill="#272525"/>
<path d="M191.441 185L196.515 212.79C196.795 214.323 195.47 215.743 193.557 215.97C191.645 216.193 189.868 215.133 189.588 213.6C189.555 213.418 189.546 213.221 189.557 213.047L191.441 185Z" fill="#272525"/>
<path d="M327.707 100.549L362.902 91.5738C364.74 91.1064 366.71 91.9055 367.3 93.3644C367.892 94.8232 366.881 96.3838 365.043 96.8512C364.836 96.904 364.608 96.9417 364.4 96.9643L327.707 100.549Z" fill="#272525"/>
<path d="M53.5522 150L20.7432 163.672C19.03 164.389 16.894 163.89 15.9729 162.561C15.0518 161.232 15.6938 159.578 17.4074 158.861C17.6003 158.784 17.8175 158.714 18.0184 158.662L53.5522 150Z" fill="#272525"/>
</svg>
