<svg width="63" height="56" viewBox="0 0 63 56" fill="none" xmlns="http://www.w3.org/2000/svg">
<path d="M34.0065 44.8472L3.99987 2.99981L35.767 35.8531L34.0065 44.8472Z" fill="url(#paint0_linear_948_10)"/>
<path d="M53.1558 53.7993L35.767 35.8534L37.3776 28.2452L60.8669 47.0526L53.1558 53.7993Z" fill="url(#paint1_linear_948_10)"/>
<path d="M60.8672 47.0527L37.3778 28.2453L35.7672 35.8535L4.0001 3.00018L31.9233 15.8428L33.2998 9.34891L61.106 22.744L60.8672 47.0527Z" fill="url(#paint2_linear_948_10)"/>
<path d="M60.8672 47.0527L37.3778 28.2453L35.7672 35.8535L4.0001 3.00018" stroke="#0C0F14" stroke-width="2.34098" stroke-miterlimit="10"/>
<path d="M35.7676 35.8534L53.1564 53.7993L60.8675 47.0526L61.1063 22.7439L33.3002 9.34879L31.9237 15.8427L4.00047 3.00005L34.0071 44.8474L35.7676 35.8534Z" stroke="#0C0F14" stroke-width="2.34098" stroke-miterlimit="10"/>
<defs>
<linearGradient id="paint0_linear_948_10" x1="34.3782" y1="39.6939" x2="23.0543" y2="25.0858" gradientUnits="userSpaceOnUse">
<stop stop-color="#FE6303"/>
<stop offset="1" stop-color="#FE1203"/>
</linearGradient>
<linearGradient id="paint1_linear_948_10" x1="55.6037" y1="49.1059" x2="41.7488" y2="36.1051" gradientUnits="userSpaceOnUse">
<stop stop-color="#FE6303"/>
<stop offset="1" stop-color="#FE2103"/>
</linearGradient>
<linearGradient id="paint2_linear_948_10" x1="50.1876" y1="30.1689" x2="4.09111" y2="7.26514" gradientUnits="userSpaceOnUse">
<stop stop-color="#FE5D03"/>
<stop offset="1" stop-color="#D70000"/>
</linearGradient>
</defs>
</svg>
