<svg width="2857" height="2852" viewBox="0 0 2857 2852" fill="none" xmlns="http://www.w3.org/2000/svg">
<g clip-path="url(#clip0_409_6969)">
<path d="M2857 1433.5C2857 1490.33 2853.61 1547.66 2846.91 1603.85L1462.91 1439.01C1463.31 1435.52 1463.31 1431.27 1462.91 1427.84L2846.54 1260.06C2853.48 1317.26 2857 1375.63 2857 1433.5ZM2764.63 1940.3C2723.77 2048.4 2669.76 2151.52 2604.03 2246.8L1456.7 1455.34C1458.44 1452.8 1459.85 1450.14 1460.89 1447.42L2764.63 1940.3ZM2763.59 923.915L1460.83 1419.43C1459.82 1416.74 1458.38 1414.05 1456.61 1411.48L2602.53 617.993C2668.38 713.095 2722.58 816.027 2763.59 923.915ZM2375.95 2504.89C2289.73 2581.57 2194.36 2647.74 2092.45 2701.54L1441.65 1468.89C1444.5 1467.39 1447.19 1465.53 1449.7 1463.26L2375.95 2504.89ZM2373.93 360.34L1449.63 1403.68C1447.13 1401.47 1444.44 1399.58 1441.59 1398.08L2089.94 164.142C2192.01 217.764 2287.56 283.776 2373.93 360.34ZM1768.73 2825.03C1657.16 2852.65 1542.03 2866.79 1426.57 2867L1423.73 1473.05C1427.43 1473.05 1430.73 1472.65 1433.82 1471.92L1768.73 2825.03ZM1765.92 41.2954L1433.67 1395.05C1430.61 1394.32 1427.34 1393.95 1423.64 1393.95H1420.58L1420.58 5.03556e-05H1423.64C1539.13 5.03556e-05 1654.31 13.8875 1765.92 41.2954ZM1413.7 1395.02C1410.82 1395.72 1408.19 1396.76 1405.59 1398.14L752.161 166.864C854.378 112.599 963.14 70.8445 1075.39 42.7636L1413.7 1395.02ZM1413.6 1471.95L1084.35 2826.44C971.888 2799.09 862.758 2757.98 760.021 2704.27L1405.71 1468.95C1408.31 1470.3 1410.91 1471.31 1413.6 1471.95ZM1397.73 1463.39L475.575 2508.65C389.232 2432.45 312.157 2345.91 246.459 2251.45L1390.76 1455.62C1392.71 1458.43 1395.07 1461.06 1397.73 1463.39ZM1397.39 1403.89C1394.83 1406.18 1392.5 1408.78 1390.54 1411.63L241.504 622.642C306.682 527.694 383.299 440.667 469.214 363.95L1397.39 1403.89ZM1386.41 1447.48L84.8138 1945.99C43.4315 1837.89 15.2622 1724.77 1.10108 1609.75L1384.43 1439.37C1384.76 1442.25 1385.44 1444.91 1386.41 1447.48ZM1386.38 1419.52C1385.37 1422.18 1384.7 1424.94 1384.37 1427.9L0 1266.24C13.4271 1151.16 40.8624 1037.89 81.5412 929.544L1386.38 1419.52Z" fill="url(#paint0_radial_409_6969)"/>
</g>
<defs>
<radialGradient id="paint0_radial_409_6969" cx="0" cy="0" r="1" gradientUnits="userSpaceOnUse" gradientTransform="translate(244.5 1413.5) rotate(0.991515) scale(1184.68 1188.82)">
<stop stop-color="#7C2CDE"/>
<stop offset="1" stop-color="#9947FE"/>
</radialGradient>
<clipPath id="clip0_409_6969">
<rect width="2857" height="2852" fill="white"/>
</clipPath>
</defs>
</svg>
