<svg width="158" height="106" viewBox="0 0 158 106" fill="none" xmlns="http://www.w3.org/2000/svg">
<g filter="url(#filter0_f_1066_6)">
<path d="M28.5765 83.0656L28.0389 79.9474L27.9693 79.9594L27.9003 79.9745L28.5765 83.0656ZM23.0075 84.1625L19.9187 83.4761L18.8907 88.102L23.5574 87.2785L23.0075 84.1625ZM26.2983 68.9745L29.3942 69.6281L29.3946 69.6263L26.2983 68.9745ZM27.6483 62.2243L24.5513 61.5761L24.5454 61.6041L24.54 61.6322L27.6483 62.2243ZM29.0827 55.0522L25.9857 54.4039L25.9798 54.432L25.9744 54.4601L29.0827 55.0522ZM31.6984 41.2142L34.8218 41.7207L35.4698 37.7248L31.4357 38.061L31.6984 41.2142ZM27.7327 41.7205L28.2262 44.8459L28.2505 44.8421L28.2748 44.8379L27.7327 41.7205ZM24.3576 42.3111L24.8269 45.4403L24.8885 45.4311L24.9496 45.4194L24.3576 42.3111ZM21.4887 42.733L18.3564 42.2855L17.7597 46.462L21.9362 45.8654L21.4887 42.733ZM21.995 39.1892L25.1274 39.6366L25.1284 39.6291L25.1295 39.6215L21.995 39.1892ZM22.7544 34.2109L25.8755 34.7311L25.888 34.6561L25.8969 34.5806L22.7544 34.2109ZM23.5982 27.9669L22.926 24.875L20.7928 25.3387L20.469 27.4975L23.5982 27.9669ZM28.9984 26.87L28.4637 23.7513L28.428 23.7575L28.3924 23.7644L28.9984 26.87ZM36.8455 25.6043L37.3307 28.7311L36.8455 25.6043ZM48.9959 23.6636L52.0736 24.3981L53.1763 19.7773L48.4875 20.5406L48.9959 23.6636ZM45.7051 38.0922L42.6129 37.4216L42.609 37.4395L42.6053 37.4573L45.7051 38.0922ZM42.9207 52.0989L39.8137 51.5L39.8102 51.5181L39.807 51.5362L42.9207 52.0989ZM40.3893 66.2744L37.2733 65.7245L37.2707 65.7394L37.2682 65.7542L40.3893 66.2744ZM38.0268 80.8718L38.9481 83.8988L40.8445 83.3217L41.1525 81.3634L38.0268 80.8718ZM33.5548 82.053L34.2737 85.1344L33.5548 82.053ZM27.9003 79.9745C26.1443 80.3586 24.3302 80.716 22.4576 81.0465L23.5574 87.2785C25.51 86.9339 27.4085 86.5601 29.2526 86.1567L27.9003 79.9745ZM26.0964 84.8489C27.2238 79.7753 28.3231 74.7017 29.3942 69.6281L23.2023 68.3209C22.1359 73.3726 21.0413 78.4243 19.9187 83.4761L26.0964 84.8489ZM29.3946 69.6263C29.8492 67.467 30.3031 65.1969 30.7566 62.8163L24.54 61.6322C24.0934 63.9768 23.6474 66.2068 23.202 68.3226L29.3946 69.6263ZM30.7454 62.8725C31.2554 60.4355 31.7373 58.0261 32.191 55.6442L25.9744 54.4601C25.5281 56.8034 25.0537 59.1754 24.5513 61.5761L30.7454 62.8725ZM32.1798 55.7004C32.6899 53.2634 33.1718 50.854 33.6254 48.4721L27.4089 47.288C26.9625 49.6313 26.4881 52.0033 25.9857 54.4039L32.1798 55.7004ZM33.6254 48.4721C34.0801 46.0849 34.4791 43.8343 34.8218 41.7207L28.5751 40.7077C28.2428 42.7568 27.8542 44.95 27.4089 47.288L33.6254 48.4721ZM31.4357 38.061C29.995 38.181 28.5797 38.3615 27.1905 38.6031L28.2748 44.8379C29.4732 44.6294 30.7018 44.4724 31.9612 44.3675L31.4357 38.061ZM27.2392 38.595C26.1341 38.7695 24.976 38.9723 23.7655 39.2029L24.9496 45.4194C26.1017 45.2 27.1937 45.0089 28.2262 44.8459L27.2392 38.595ZM23.8882 39.182C22.7677 39.3501 21.8191 39.4895 21.0413 39.6007L21.9362 45.8654C22.7334 45.7515 23.6974 45.6097 24.8269 45.4403L23.8882 39.182ZM24.6211 43.1805C24.7336 42.393 24.9024 41.2117 25.1274 39.6366L18.8626 38.7417C18.6376 40.3167 18.4689 41.498 18.3564 42.2855L24.6211 43.1805ZM25.1295 39.6215C25.3503 38.0206 25.5989 36.3905 25.8755 34.7311L19.6333 33.6907C19.3473 35.4063 19.0897 37.0951 18.8605 38.7568L25.1295 39.6215ZM25.8969 34.5806C26.1174 32.7066 26.3939 30.659 26.7273 28.4363L20.469 27.4975C20.1274 29.775 19.8415 31.89 19.6119 33.8412L25.8969 34.5806ZM24.2703 31.0589C25.5315 30.7847 27.306 30.424 29.6043 29.9756L28.3924 23.7644C26.078 24.216 24.2524 24.5866 22.926 24.875L24.2703 31.0589ZM29.533 29.9887C31.4782 29.6552 34.0754 29.2362 37.3307 28.7311L36.3603 22.4776C33.0903 22.985 30.4561 23.4098 28.4637 23.7513L29.533 29.9887ZM37.3307 28.7311C40.6037 28.2232 44.6622 27.5749 49.5043 26.7867L48.4875 20.5406C43.6542 21.3274 39.6124 21.973 36.3603 22.4776L37.3307 28.7311ZM45.9181 22.9292C44.7321 27.8992 43.6303 32.7301 42.6129 37.4216L48.7974 38.7629C49.805 34.1166 50.8971 29.3284 52.0736 24.3981L45.9181 22.9292ZM42.6053 37.4573C41.6466 42.1382 40.7161 46.8191 39.8137 51.5L46.0276 52.6979C46.9254 48.041 47.8511 43.3841 48.805 38.7271L42.6053 37.4573ZM39.807 51.5362C38.9624 56.2095 38.1178 60.9389 37.2733 65.7245L43.5054 66.8243C44.3484 62.0471 45.1914 57.3262 46.0344 52.6617L39.807 51.5362ZM37.2682 65.7542C36.479 70.4894 35.69 75.3647 34.901 80.3801L41.1525 81.3634C41.9386 76.366 42.7246 71.5097 43.5105 66.7946L37.2682 65.7542ZM37.1055 77.8447C35.894 78.2134 34.4731 78.5896 32.8358 78.9716L34.2737 85.1344C36.0115 84.729 37.572 84.3176 38.9481 83.8988L37.1055 77.8447ZM32.8358 78.9716C31.2055 79.352 29.6066 79.6771 28.0389 79.9474L29.1141 86.1837C30.8089 85.8915 32.5289 85.5416 34.2737 85.1344L32.8358 78.9716ZM85.2203 61.8024L82.2296 60.7692L82.2239 60.7855L82.2185 60.8018L85.2203 61.8024ZM81.4233 70.4933L78.652 68.9663L78.6399 68.9881L78.6282 69.0102L81.4233 70.4933ZM76.2763 77.7498L78.5449 79.9555L78.56 79.9399L78.5749 79.9242L76.2763 77.7498ZM69.6948 82.6437L71.1099 85.4738L71.123 85.4673L71.136 85.4606L69.6948 82.6437ZM55.2662 82.9812L53.7817 85.7755L53.7994 85.7849L53.8171 85.7941L55.2662 82.9812ZM50.7942 79.0998L48.1614 80.855L48.1954 80.906L48.2314 80.9556L50.7942 79.0998ZM48.2628 73.2778L45.1932 74.0452L45.1955 74.0544L45.1978 74.0637L48.2628 73.2778ZM48.4316 56.4866L45.3289 55.866L48.4316 56.4866ZM51.3004 46.6144L48.3662 45.4304L48.3572 45.4527L48.3485 45.4751L51.3004 46.6144ZM55.9412 37.4172L53.2464 35.7589L55.9412 37.4172ZM61.7633 29.7388L59.497 27.5307L59.4823 27.5458L59.4678 27.5611L61.7633 29.7388ZM68.5979 24.5074L70.0903 27.2975L70.1152 27.2842L70.14 27.2704L68.5979 24.5074ZM81.5077 24.0855L79.6867 26.6732L79.7087 26.6887L79.731 26.7038L81.5077 24.0855ZM85.3891 28.4732L82.6112 29.9883L82.6112 29.9883L85.3891 28.4732ZM87.5829 35.0546L84.4676 35.6085L84.4747 35.6487L84.4829 35.6887L87.5829 35.0546ZM61.0883 68.2995L58.283 69.7631L58.283 69.7631L61.0883 68.2995ZM70.2011 68.1307L68.2147 65.6677L70.2011 68.1307ZM74.6731 62.8993L77.3928 64.5164L77.4022 64.5006L77.4114 64.4847L74.6731 62.8993ZM77.5419 55.9803L80.5946 56.8129L80.5969 56.8042L80.5993 56.7956L77.5419 55.9803ZM77.12 42.6486L74.3281 44.1377L74.3472 44.1734L74.3671 44.2086L77.12 42.6486ZM68.0072 42.4799L70.2446 44.7173L70.265 44.6969L70.2849 44.6762L68.0072 42.4799ZM63.9571 48.3019L61.127 46.8869L61.1201 46.9008L61.1133 46.9147L63.9571 48.3019ZM61.1726 55.8116L64.2268 56.6387L61.1726 55.8116ZM85.1781 42.9862C85.1781 45.8477 84.9397 48.8044 84.4574 51.8586L90.7083 52.8456C91.2386 49.487 91.5064 46.1998 91.5064 42.9862L85.1781 42.9862ZM84.4574 51.8586C83.9804 54.8799 83.2382 57.8495 82.2296 60.7692L88.211 62.8355C89.34 59.5676 90.1728 56.237 90.7083 52.8456L84.4574 51.8586ZM82.2185 60.8018C81.2656 63.6605 80.0766 66.381 78.652 68.9663L84.1946 72.0203C85.8076 69.093 87.1499 66.0195 88.2221 62.803L82.2185 60.8018ZM78.6282 69.0102C77.2875 71.537 75.734 73.7186 73.9776 75.5754L78.5749 79.9242C80.7562 77.6183 82.634 74.9622 84.2184 71.9764L78.6282 69.0102ZM74.0076 75.5441C72.2698 77.3315 70.3531 78.7526 68.2536 79.8268L71.136 85.4606C73.8742 84.0596 76.3451 82.2182 78.5449 79.9555L74.0076 75.5441ZM68.2797 79.8136C66.3848 80.761 64.286 81.2515 61.932 81.2515L61.932 87.5798C65.2032 87.5798 68.2796 86.8889 71.1099 85.4738L68.2797 79.8136ZM61.932 81.2515C59.7302 81.2515 58.0289 80.845 56.7152 80.1683L53.8171 85.7941C56.2162 87.0299 58.9587 87.5798 61.932 87.5798L61.932 81.2515ZM56.7507 80.1869C55.3716 79.4543 54.2516 78.4795 53.357 77.244L48.2314 80.9556C49.6993 82.9828 51.5606 84.5956 53.7817 85.7755L56.7507 80.1869ZM53.4269 77.3447C52.5212 75.986 51.8121 74.3805 51.3279 72.4919L45.1978 74.0637C45.8386 76.5627 46.8171 78.8385 48.1614 80.855L53.4269 77.3447ZM51.3325 72.5103C50.8395 70.5382 50.5832 68.3795 50.5832 66.0213L44.2549 66.0213C44.2549 68.8382 44.5611 71.5171 45.1932 74.0452L51.3325 72.5103ZM50.5832 66.0213C50.5832 63.2773 50.894 60.3085 51.5343 57.1071L45.3289 55.866C44.6191 59.4149 44.2549 62.8025 44.2549 66.0213L50.5832 66.0213ZM51.5343 57.1071C52.174 53.9087 53.0799 50.7915 54.2524 47.7537L48.3485 45.4751C47.0459 48.85 46.0392 52.3143 45.3289 55.866L51.5343 57.1071ZM54.2347 47.7984C55.4626 44.7555 56.9296 41.8485 58.636 39.0756L53.2464 35.7589C51.3528 38.8361 49.7259 42.0606 48.3662 45.4304L54.2347 47.7984ZM58.636 39.0756C60.3365 36.3123 62.1469 33.9319 64.0588 31.9166L59.4678 27.5611C57.2171 29.9335 55.1461 32.672 53.2464 35.7589L58.636 39.0756ZM64.0296 31.947C65.9667 29.9589 67.989 28.4215 70.0903 27.2975L67.1055 21.7173C64.3691 23.1809 61.835 25.1311 59.497 27.5307L64.0296 31.947ZM70.14 27.2704C72.1217 26.1643 74.0977 25.6465 76.1075 25.6465L76.1075 19.3182C72.9421 19.3182 69.9117 20.1505 67.0558 21.7445L70.14 27.2704ZM76.1075 25.6465C77.6189 25.6465 78.7644 26.0242 79.6867 26.6732L83.3286 21.4979C81.2134 20.0094 78.7587 19.3182 76.1075 19.3182L76.1075 25.6465ZM79.731 26.7038C80.8448 27.4596 81.8127 28.5244 82.6112 29.9883L88.1669 26.958C86.9403 24.7093 85.3206 22.849 83.2844 21.4673L79.731 26.7038ZM82.6112 29.9883C83.4291 31.4878 84.0649 33.3436 84.4676 35.6085L90.6982 34.5008C90.2008 31.703 89.374 29.1712 88.1669 26.958L82.6112 29.9883ZM84.4829 35.6887C84.942 37.9332 85.1781 40.3629 85.1781 42.9862L91.5064 42.9862C91.5064 39.9842 91.2363 37.1262 90.6829 34.4206L84.4829 35.6887ZM56.9116 63.2368C56.9116 65.6244 57.2933 67.8663 58.283 69.7631L63.8936 66.8358C63.5332 66.1451 63.2399 65.0118 63.2399 63.2368L56.9116 63.2368ZM58.283 69.7631C58.8637 70.8762 59.7124 71.8375 60.8611 72.498C61.9963 73.1508 63.2402 73.4043 64.4634 73.4043L64.4634 67.076C64.2853 67.076 64.1699 67.0577 64.1037 67.0418C64.0402 67.0266 64.0166 67.0125 64.0156 67.012C64.0138 67.011 64.013 67.0104 64.0121 67.0096C64.011 67.0088 64.0066 67.0052 63.9988 66.9968C63.984 66.9808 63.9451 66.9346 63.8936 66.8358L58.283 69.7631ZM64.4634 73.4043C67.3244 73.4043 69.927 72.4166 72.1874 70.5937L68.2147 65.6677C66.9875 66.6574 65.7649 67.076 64.4634 67.076L64.4634 73.4043ZM72.1874 70.5937C74.2468 68.9329 75.9786 66.8948 77.3928 64.5164L71.9534 61.2822C70.8925 63.0664 69.6429 64.516 68.2147 65.6677L72.1874 70.5937ZM77.4114 64.4847C78.791 62.1018 79.8505 59.5412 80.5946 56.8129L74.4893 55.1478C73.8833 57.3696 73.0302 59.4217 71.9347 61.3139L77.4114 64.4847ZM80.5993 56.7956C81.3339 54.0408 81.7186 51.3743 81.7186 48.8082L75.3903 48.8082C75.3903 50.7423 75.1 52.8572 74.4846 55.165L80.5993 56.7956ZM81.7186 48.8082C81.7186 45.9759 81.1577 43.3559 79.8729 41.0887L74.3671 44.2086C74.9949 45.3165 75.3903 46.8028 75.3903 48.8082L81.7186 48.8082ZM79.9119 41.1596C79.2213 39.8647 78.2389 38.7649 76.9293 38.0094C75.6296 37.2596 74.1892 36.9531 72.7324 36.9531L72.7324 43.2815C73.3006 43.2815 73.6041 43.3969 73.7669 43.4909C73.9199 43.5792 74.1187 43.7451 74.3281 44.1377L79.9119 41.1596ZM72.7324 36.9531C69.9792 36.9531 67.6337 38.3089 65.7295 40.2835L70.2849 44.6762C71.4184 43.5008 72.223 43.2815 72.7324 43.2815L72.7324 36.9531ZM65.7698 40.2425C63.9626 42.0497 62.4268 44.2873 61.127 46.8869L66.7872 49.717C67.85 47.5914 69.0142 45.9477 70.2446 44.7173L65.7698 40.2425ZM61.1133 46.9147C59.8931 49.4159 58.8974 52.1085 58.1185 54.9844L64.2268 56.6387C64.9104 54.1144 65.771 51.8006 66.801 49.6892L61.1133 46.9147ZM58.1185 54.9844C57.3311 57.8917 56.9116 60.6493 56.9116 63.2368L63.2399 63.2368C63.2399 61.3242 63.5516 59.1316 64.2268 56.6387L58.1185 54.9844ZM86.2862 84.5844L83.1923 83.9214L82.2362 88.3831L86.7499 87.7144L86.2862 84.5844ZM91.0114 61.6336L94.1159 62.2451L94.1222 62.2128L94.1279 62.1804L91.0114 61.6336ZM92.7833 51.6771L89.6694 51.1155L92.7833 51.6771ZM94.4709 41.4673L91.3497 40.9472L91.3455 40.9725L91.3417 40.998L94.4709 41.4673ZM95.9053 31.6795L92.7718 31.2397L92.7685 31.2634L92.7655 31.2871L95.9053 31.6795ZM96.9178 22.9886L97.1919 19.8364L94.0396 19.5622L93.7655 22.7145L96.9178 22.9886ZM101.305 23.3261L101.088 26.4828L101.142 26.4865L101.196 26.4884L101.305 23.3261ZM105.862 23.5793L105.61 26.7334L105.63 26.735L105.651 26.7364L105.862 23.5793ZM110.925 23.748L113.994 24.5155L114.977 20.5839L110.925 20.5839L110.925 23.748ZM110.671 25.0137L107.558 24.4477L107.558 24.4477L110.671 25.0137ZM110.249 27.2919L113.352 27.9124L113.356 27.8937L113.359 27.875L110.249 27.2919ZM109.659 30.1607L106.563 29.5089L106.546 29.5877L106.533 29.6672L109.659 30.1607ZM109.068 33.3671L105.972 32.7152L105.963 32.758L105.955 32.8011L109.068 33.3671ZM107.549 41.7205L104.436 41.1545L103.631 45.5813L108.07 44.8416L107.549 41.7205ZM108.056 41.6361L108.576 44.7572L109.983 44.5227L110.739 43.3131L108.056 41.6361ZM110.418 37.9235L107.772 36.1894L107.764 36.2009L107.757 36.2124L110.418 37.9235ZM117 27.6294L119.646 29.3634L119.66 29.343L119.673 29.3224L117 27.6294ZM119.7 23.3261L119.447 20.172L117.852 20.2997L117.009 21.6607L119.7 23.3261ZM136.575 21.4698L139.112 23.3619L143.773 17.1138L136.075 18.3454L136.575 21.4698ZM128.897 31.9327L131.452 33.7996L131.457 33.7917L131.463 33.7837L128.897 31.9327ZM125.606 36.4891L123.031 34.6499L123.009 34.6809L122.988 34.7124L125.606 36.4891ZM122.4 41.1298L124.988 42.9508L124.988 42.9508L122.4 41.1298ZM119.362 45.5175L116.746 43.7382L116.721 43.7747L116.697 43.8118L119.362 45.5175ZM116.915 49.3989L114.225 47.7334L113.551 48.8217L113.824 50.0723L116.915 49.3989ZM126.45 82.053L126.313 85.2142L130.831 85.4107L129.467 81.0987L126.45 82.053ZM122.484 81.9687L122.353 85.1301L122.418 85.1328L122.484 85.1328L122.484 81.9687ZM113.793 81.9687L113.793 85.1328L113.852 85.1328L113.91 85.1307L113.793 81.9687ZM109.068 82.053L105.934 82.487L106.325 85.3137L109.177 85.2153L109.068 82.053ZM107.381 70.5777L104.247 71.013L104.25 71.0376L104.254 71.0621L107.381 70.5777ZM105.777 59.0179L108.912 58.5839L107.948 51.6236L103.375 56.9587L105.777 59.0179ZM104.259 60.7899L101.856 58.7306L101.353 59.3178L101.177 60.0709L104.259 60.7899ZM102.909 67.0338L99.8087 66.3997L99.8017 66.4337L99.7955 66.4678L102.909 67.0338ZM101.559 74.2059L98.453 73.5999L98.4508 73.6114L98.4486 73.6228L101.559 74.2059ZM99.9554 82.5593L100.419 85.6893L102.63 85.3617L103.06 83.1681L99.9554 82.5593ZM89.3801 85.2474C91.0711 77.3561 92.6497 69.6886 94.1159 62.2451L87.9069 61.0221C86.4479 68.4291 84.8764 76.0622 83.1923 83.9214L89.3801 85.2474ZM94.1279 62.1804C94.6895 58.9793 95.2793 55.6654 95.8972 52.2386L89.6694 51.1155C89.0498 54.5515 88.4582 57.8753 87.8948 61.0869L94.1279 62.1804ZM95.8972 52.2386C96.5214 48.7772 97.089 45.3433 97.6 41.9367L91.3417 40.998C90.8401 44.3416 90.2827 47.7141 89.6694 51.1155L95.8972 52.2386ZM97.592 41.9875C98.161 38.5732 98.6455 35.2679 99.045 32.072L92.7655 31.2871C92.3775 34.3913 91.9057 37.6113 91.3497 40.9472L97.592 41.9875ZM99.0387 32.1193C99.4947 28.8707 99.8393 25.9172 100.07 23.2627L93.7655 22.7145C93.5463 25.2352 93.2159 28.0757 92.7718 31.2397L99.0387 32.1193ZM96.6437 26.1409C97.9603 26.2554 99.4422 26.3693 101.088 26.4828L101.523 20.1695C99.9061 20.0579 98.4629 19.9469 97.1919 19.8364L96.6437 26.1409ZM101.196 26.4884C102.787 26.5433 104.258 26.6252 105.61 26.7334L106.114 20.4252C104.653 20.3083 103.086 20.2215 101.414 20.1639L101.196 26.4884ZM105.651 26.7364C107.409 26.8536 109.167 26.9122 110.925 26.9122L110.925 20.5839C109.307 20.5839 107.69 20.53 106.072 20.4221L105.651 26.7364ZM107.855 22.9806C107.77 23.3196 107.669 23.8381 107.558 24.4477L113.785 25.5797C113.899 24.9518 113.966 24.6265 113.994 24.5155L107.855 22.9806ZM107.558 24.4477C107.447 25.0588 107.308 25.8121 107.14 26.7088L113.359 27.875C113.529 26.9716 113.671 26.2061 113.785 25.5797L107.558 24.4477ZM107.147 26.6713C106.981 27.5023 106.786 28.4479 106.563 29.5089L112.755 30.8126C112.982 29.736 113.181 28.769 113.352 27.9124L107.147 26.6713ZM106.533 29.6672C106.373 30.6825 106.186 31.6985 105.972 32.7152L112.164 34.0189C112.4 32.8981 112.607 31.7765 112.784 30.6542L106.533 29.6672ZM105.955 32.8011C105.505 35.2761 104.999 38.0606 104.436 41.1545L110.663 42.2865C111.225 39.1927 111.731 36.4082 112.181 33.9331L105.955 32.8011ZM108.07 44.8416L108.576 44.7572L107.535 38.515L107.029 38.5994L108.07 44.8416ZM110.739 43.3131C111.291 42.4299 112.07 41.2054 113.08 39.6345L107.757 36.2124C106.741 37.7917 105.945 39.0423 105.372 39.9591L110.739 43.3131ZM113.065 39.6575C114.147 38.0058 115.256 36.271 116.392 34.4534L111.026 31.0994C109.912 32.882 108.827 34.5786 107.772 36.1894L113.065 39.6575ZM116.392 34.4534C117.506 32.6709 118.591 30.9743 119.646 29.3634L114.353 25.8954C113.271 27.5471 112.162 29.2819 111.026 31.0994L116.392 34.4534ZM119.673 29.3224C120.745 27.6293 121.651 26.1851 122.39 24.9916L117.009 21.6607C116.286 22.8297 115.392 24.2544 114.327 25.9364L119.673 29.3224ZM119.952 26.4802C122.786 26.2535 125.619 25.9985 128.452 25.7152L127.823 19.4183C125.031 19.6975 122.239 19.9487 119.447 20.172L119.952 26.4802ZM128.452 25.7152C131.327 25.4277 134.202 25.054 137.075 24.5943L136.075 18.3454C133.324 18.7857 130.573 19.1433 127.823 19.4183L128.452 25.7152ZM134.039 19.5778C131.386 23.1346 128.816 26.6359 126.331 30.0816L131.463 33.7837C133.928 30.3667 136.477 26.8928 139.112 23.3619L134.039 19.5778ZM126.342 30.0658C125.266 31.5381 124.163 33.0662 123.031 34.6499L128.181 38.3282C129.3 36.7618 130.39 35.2523 131.452 33.7996L126.342 30.0658ZM122.988 34.7124C121.929 36.273 120.87 37.8051 119.812 39.3089L124.988 42.9508C126.067 41.417 127.146 39.8553 128.225 38.2657L122.988 34.7124ZM119.812 39.3089C118.735 40.8403 117.712 42.3168 116.746 43.7382L121.979 47.2967C122.925 45.9056 123.928 44.457 124.988 42.9508L119.812 39.3089ZM116.697 43.8118C115.79 45.2289 114.966 46.5363 114.225 47.7334L119.606 51.0643C120.327 49.8989 121.134 48.6187 122.027 47.2231L116.697 43.8118ZM113.824 50.0723C115.081 55.8465 116.569 61.4276 118.289 66.8146L124.317 64.8905C122.661 59.7021 121.224 54.3141 120.007 48.7254L113.824 50.0723ZM118.289 66.8146C119.975 72.0995 121.69 77.4971 123.433 83.0073L129.467 81.0987C127.722 75.5836 126.006 70.1808 124.317 64.8905L118.289 66.8146ZM126.587 78.8919C125.246 78.8335 123.878 78.8045 122.484 78.8045L122.484 85.1328C123.79 85.1328 125.066 85.16 126.313 85.2142L126.587 78.8919ZM122.616 78.8072C121.224 78.7492 119.858 78.7201 118.519 78.7201L118.519 85.0485C119.766 85.0485 121.044 85.0756 122.353 85.1301L122.616 78.8072ZM118.519 78.7201C116.851 78.7201 115.237 78.7489 113.676 78.8067L113.91 85.1307C115.388 85.076 116.923 85.0485 118.519 85.0485L118.519 78.7201ZM113.793 78.8045C112.236 78.8045 110.624 78.8333 108.959 78.8908L109.177 85.2153C110.775 85.1602 112.313 85.1328 113.793 85.1328L113.793 78.8045ZM112.202 81.6191C111.694 77.9444 111.129 74.1024 110.508 70.0932L104.254 71.0621C104.87 75.0407 105.43 78.849 105.934 82.487L112.202 81.6191ZM110.515 70.1424C109.952 66.0926 109.418 62.2398 108.912 58.5839L102.643 59.4519C103.15 63.1087 103.684 66.9624 104.247 71.013L110.515 70.1424ZM103.375 56.9587L101.856 58.7306L106.661 62.8491L108.18 61.0771L103.375 56.9587ZM101.177 60.0709C100.775 61.7962 100.318 63.9078 99.8087 66.3997L106.009 67.6679C106.511 65.2096 106.955 63.1586 107.34 61.5088L101.177 60.0709ZM99.7955 66.4678C99.3477 68.9305 98.9002 71.3078 98.453 73.5999L104.664 74.8119C105.117 72.4914 105.569 70.0873 106.022 67.5998L99.7955 66.4678ZM98.4486 73.6228C97.9441 76.3138 97.4113 79.0897 96.8504 81.9505L103.06 83.1681C103.625 80.2913 104.161 77.4982 104.669 74.789L98.4486 73.6228ZM99.4917 79.4293L85.8225 81.4544L86.7499 87.7144L100.419 85.6893L99.4917 79.4293Z" fill="#F8DEB4"/>
</g>
<path d="M28.5765 83.0656L28.0389 79.9474L27.9693 79.9594L27.9003 79.9745L28.5765 83.0656ZM23.0075 84.1625L19.9187 83.4761L18.8907 88.102L23.5574 87.2785L23.0075 84.1625ZM26.2983 68.9745L29.3942 69.6281L29.3946 69.6263L26.2983 68.9745ZM27.6483 62.2243L24.5513 61.5761L24.5454 61.6041L24.54 61.6322L27.6483 62.2243ZM29.0827 55.0522L25.9857 54.4039L25.9798 54.432L25.9744 54.4601L29.0827 55.0522ZM31.6984 41.2142L34.8218 41.7207L35.4698 37.7248L31.4357 38.061L31.6984 41.2142ZM27.7327 41.7205L28.2262 44.8459L28.2505 44.8421L28.2748 44.8379L27.7327 41.7205ZM24.3576 42.3111L24.8269 45.4403L24.8885 45.4311L24.9496 45.4194L24.3576 42.3111ZM21.4887 42.733L18.3564 42.2855L17.7597 46.462L21.9362 45.8654L21.4887 42.733ZM21.995 39.1892L25.1274 39.6366L25.1284 39.6291L25.1295 39.6215L21.995 39.1892ZM22.7544 34.2109L25.8755 34.7311L25.888 34.6561L25.8969 34.5806L22.7544 34.2109ZM23.5982 27.9669L22.926 24.875L20.7928 25.3387L20.469 27.4975L23.5982 27.9669ZM28.9984 26.87L28.4637 23.7513L28.428 23.7575L28.3924 23.7644L28.9984 26.87ZM36.8455 25.6043L37.3307 28.7311L36.8455 25.6043ZM48.9959 23.6636L52.0736 24.3981L53.1763 19.7773L48.4875 20.5406L48.9959 23.6636ZM45.7051 38.0922L42.6129 37.4216L42.609 37.4395L42.6053 37.4573L45.7051 38.0922ZM42.9207 52.0989L39.8137 51.5L39.8102 51.5181L39.807 51.5362L42.9207 52.0989ZM40.3893 66.2744L37.2733 65.7245L37.2707 65.7394L37.2682 65.7542L40.3893 66.2744ZM38.0268 80.8718L38.9481 83.8988L40.8445 83.3217L41.1525 81.3634L38.0268 80.8718ZM33.5548 82.053L34.2737 85.1344L33.5548 82.053ZM27.9003 79.9745C26.1443 80.3586 24.3302 80.716 22.4576 81.0465L23.5574 87.2785C25.51 86.9339 27.4085 86.5601 29.2526 86.1567L27.9003 79.9745ZM26.0964 84.8489C27.2238 79.7753 28.3231 74.7017 29.3942 69.6281L23.2023 68.3209C22.1359 73.3726 21.0413 78.4243 19.9187 83.4761L26.0964 84.8489ZM29.3946 69.6263C29.8492 67.467 30.3031 65.1969 30.7566 62.8163L24.54 61.6322C24.0934 63.9768 23.6474 66.2068 23.202 68.3226L29.3946 69.6263ZM30.7454 62.8725C31.2554 60.4355 31.7373 58.0261 32.191 55.6442L25.9744 54.4601C25.5281 56.8034 25.0537 59.1754 24.5513 61.5761L30.7454 62.8725ZM32.1798 55.7004C32.6899 53.2634 33.1718 50.854 33.6254 48.4721L27.4089 47.288C26.9625 49.6313 26.4881 52.0033 25.9857 54.4039L32.1798 55.7004ZM33.6254 48.4721C34.0801 46.0849 34.4791 43.8343 34.8218 41.7207L28.5751 40.7077C28.2428 42.7568 27.8542 44.95 27.4089 47.288L33.6254 48.4721ZM31.4357 38.061C29.995 38.181 28.5797 38.3615 27.1905 38.6031L28.2748 44.8379C29.4732 44.6294 30.7018 44.4724 31.9612 44.3675L31.4357 38.061ZM27.2392 38.595C26.1341 38.7695 24.976 38.9723 23.7655 39.2029L24.9496 45.4194C26.1017 45.2 27.1937 45.0089 28.2262 44.8459L27.2392 38.595ZM23.8882 39.182C22.7677 39.3501 21.8191 39.4895 21.0413 39.6007L21.9362 45.8654C22.7334 45.7515 23.6974 45.6097 24.8269 45.4403L23.8882 39.182ZM24.6211 43.1805C24.7336 42.393 24.9024 41.2117 25.1274 39.6366L18.8626 38.7417C18.6376 40.3167 18.4689 41.498 18.3564 42.2855L24.6211 43.1805ZM25.1295 39.6215C25.3503 38.0206 25.5989 36.3905 25.8755 34.7311L19.6333 33.6907C19.3473 35.4063 19.0897 37.0951 18.8605 38.7568L25.1295 39.6215ZM25.8969 34.5806C26.1174 32.7066 26.3939 30.659 26.7273 28.4363L20.469 27.4975C20.1274 29.775 19.8415 31.89 19.6119 33.8412L25.8969 34.5806ZM24.2703 31.0589C25.5315 30.7847 27.306 30.424 29.6043 29.9756L28.3924 23.7644C26.078 24.216 24.2524 24.5866 22.926 24.875L24.2703 31.0589ZM29.533 29.9887C31.4782 29.6552 34.0754 29.2362 37.3307 28.7311L36.3603 22.4776C33.0903 22.985 30.4561 23.4098 28.4637 23.7513L29.533 29.9887ZM37.3307 28.7311C40.6037 28.2232 44.6622 27.5749 49.5043 26.7867L48.4875 20.5406C43.6542 21.3274 39.6124 21.973 36.3603 22.4776L37.3307 28.7311ZM45.9181 22.9292C44.7321 27.8992 43.6303 32.7301 42.6129 37.4216L48.7974 38.7629C49.805 34.1166 50.8971 29.3284 52.0736 24.3981L45.9181 22.9292ZM42.6053 37.4573C41.6466 42.1382 40.7161 46.8191 39.8137 51.5L46.0276 52.6979C46.9254 48.041 47.8511 43.3841 48.805 38.7271L42.6053 37.4573ZM39.807 51.5362C38.9624 56.2095 38.1178 60.9389 37.2733 65.7245L43.5054 66.8243C44.3484 62.0471 45.1914 57.3262 46.0344 52.6617L39.807 51.5362ZM37.2682 65.7542C36.479 70.4894 35.69 75.3647 34.901 80.3801L41.1525 81.3634C41.9386 76.366 42.7246 71.5097 43.5105 66.7946L37.2682 65.7542ZM37.1055 77.8447C35.894 78.2134 34.4731 78.5896 32.8358 78.9716L34.2737 85.1344C36.0115 84.729 37.572 84.3176 38.9481 83.8988L37.1055 77.8447ZM32.8358 78.9716C31.2055 79.352 29.6066 79.6771 28.0389 79.9474L29.1141 86.1837C30.8089 85.8915 32.5289 85.5416 34.2737 85.1344L32.8358 78.9716ZM85.2203 61.8024L82.2296 60.7692L82.2239 60.7855L82.2185 60.8018L85.2203 61.8024ZM81.4233 70.4933L78.652 68.9663L78.6399 68.9881L78.6282 69.0102L81.4233 70.4933ZM76.2763 77.7498L78.5449 79.9555L78.56 79.9399L78.5749 79.9242L76.2763 77.7498ZM69.6948 82.6437L71.1099 85.4738L71.123 85.4673L71.136 85.4606L69.6948 82.6437ZM55.2662 82.9812L53.7817 85.7755L53.7994 85.7849L53.8171 85.7941L55.2662 82.9812ZM50.7942 79.0998L48.1614 80.855L48.1954 80.906L48.2314 80.9556L50.7942 79.0998ZM48.2628 73.2778L45.1932 74.0452L45.1955 74.0544L45.1978 74.0637L48.2628 73.2778ZM48.4316 56.4866L45.3289 55.866L48.4316 56.4866ZM51.3004 46.6144L48.3662 45.4304L48.3572 45.4527L48.3485 45.4751L51.3004 46.6144ZM55.9412 37.4172L53.2464 35.7589L55.9412 37.4172ZM61.7633 29.7388L59.497 27.5307L59.4823 27.5458L59.4678 27.5611L61.7633 29.7388ZM68.5979 24.5074L70.0903 27.2975L70.1152 27.2842L70.14 27.2704L68.5979 24.5074ZM81.5077 24.0855L79.6867 26.6732L79.7087 26.6887L79.731 26.7038L81.5077 24.0855ZM85.3891 28.4732L82.6112 29.9883L82.6112 29.9883L85.3891 28.4732ZM87.5829 35.0546L84.4676 35.6085L84.4747 35.6487L84.4829 35.6887L87.5829 35.0546ZM61.0883 68.2995L58.283 69.7631L58.283 69.7631L61.0883 68.2995ZM70.2011 68.1307L68.2147 65.6677L70.2011 68.1307ZM74.6731 62.8993L77.3928 64.5164L77.4022 64.5006L77.4114 64.4847L74.6731 62.8993ZM77.5419 55.9803L80.5946 56.8129L80.5969 56.8042L80.5993 56.7956L77.5419 55.9803ZM77.12 42.6486L74.3281 44.1377L74.3472 44.1734L74.3671 44.2086L77.12 42.6486ZM68.0072 42.4799L70.2446 44.7173L70.265 44.6969L70.2849 44.6762L68.0072 42.4799ZM63.9571 48.3019L61.127 46.8869L61.1201 46.9008L61.1133 46.9147L63.9571 48.3019ZM61.1726 55.8116L64.2268 56.6387L61.1726 55.8116ZM85.1781 42.9862C85.1781 45.8477 84.9397 48.8044 84.4574 51.8586L90.7083 52.8456C91.2386 49.487 91.5064 46.1998 91.5064 42.9862L85.1781 42.9862ZM84.4574 51.8586C83.9804 54.8799 83.2382 57.8495 82.2296 60.7692L88.211 62.8355C89.34 59.5676 90.1728 56.237 90.7083 52.8456L84.4574 51.8586ZM82.2185 60.8018C81.2656 63.6605 80.0766 66.381 78.652 68.9663L84.1946 72.0203C85.8076 69.093 87.1499 66.0195 88.2221 62.803L82.2185 60.8018ZM78.6282 69.0102C77.2875 71.537 75.734 73.7186 73.9776 75.5754L78.5749 79.9242C80.7562 77.6183 82.634 74.9622 84.2184 71.9764L78.6282 69.0102ZM74.0076 75.5441C72.2698 77.3315 70.3531 78.7526 68.2536 79.8268L71.136 85.4606C73.8742 84.0596 76.3451 82.2182 78.5449 79.9555L74.0076 75.5441ZM68.2797 79.8136C66.3848 80.761 64.286 81.2515 61.932 81.2515L61.932 87.5798C65.2032 87.5798 68.2796 86.8889 71.1099 85.4738L68.2797 79.8136ZM61.932 81.2515C59.7302 81.2515 58.0289 80.845 56.7152 80.1683L53.8171 85.7941C56.2162 87.0299 58.9587 87.5798 61.932 87.5798L61.932 81.2515ZM56.7507 80.1869C55.3716 79.4543 54.2516 78.4795 53.357 77.244L48.2314 80.9556C49.6993 82.9828 51.5606 84.5956 53.7817 85.7755L56.7507 80.1869ZM53.4269 77.3447C52.5212 75.986 51.8121 74.3805 51.3279 72.4919L45.1978 74.0637C45.8386 76.5627 46.8171 78.8385 48.1614 80.855L53.4269 77.3447ZM51.3325 72.5103C50.8395 70.5382 50.5832 68.3795 50.5832 66.0213L44.2549 66.0213C44.2549 68.8382 44.5611 71.5171 45.1932 74.0452L51.3325 72.5103ZM50.5832 66.0213C50.5832 63.2773 50.894 60.3085 51.5343 57.1071L45.3289 55.866C44.6191 59.4149 44.2549 62.8025 44.2549 66.0213L50.5832 66.0213ZM51.5343 57.1071C52.174 53.9087 53.0799 50.7915 54.2524 47.7537L48.3485 45.4751C47.0459 48.85 46.0392 52.3143 45.3289 55.866L51.5343 57.1071ZM54.2347 47.7984C55.4626 44.7555 56.9296 41.8485 58.636 39.0756L53.2464 35.7589C51.3528 38.8361 49.7259 42.0606 48.3662 45.4304L54.2347 47.7984ZM58.636 39.0756C60.3365 36.3123 62.1469 33.9319 64.0588 31.9166L59.4678 27.5611C57.2171 29.9335 55.1461 32.672 53.2464 35.7589L58.636 39.0756ZM64.0296 31.947C65.9667 29.9589 67.989 28.4215 70.0903 27.2975L67.1055 21.7173C64.3691 23.1809 61.835 25.1311 59.497 27.5307L64.0296 31.947ZM70.14 27.2704C72.1217 26.1643 74.0977 25.6465 76.1075 25.6465L76.1075 19.3182C72.9421 19.3182 69.9117 20.1505 67.0558 21.7445L70.14 27.2704ZM76.1075 25.6465C77.6189 25.6465 78.7644 26.0242 79.6867 26.6732L83.3286 21.4979C81.2134 20.0094 78.7587 19.3182 76.1075 19.3182L76.1075 25.6465ZM79.731 26.7038C80.8448 27.4596 81.8127 28.5244 82.6112 29.9883L88.1669 26.958C86.9403 24.7093 85.3206 22.849 83.2844 21.4673L79.731 26.7038ZM82.6112 29.9883C83.4291 31.4878 84.0649 33.3436 84.4676 35.6085L90.6982 34.5008C90.2008 31.703 89.374 29.1712 88.1669 26.958L82.6112 29.9883ZM84.4829 35.6887C84.942 37.9332 85.1781 40.3629 85.1781 42.9862L91.5064 42.9862C91.5064 39.9842 91.2363 37.1262 90.6829 34.4206L84.4829 35.6887ZM56.9116 63.2368C56.9116 65.6244 57.2933 67.8663 58.283 69.7631L63.8936 66.8358C63.5332 66.1451 63.2399 65.0118 63.2399 63.2368L56.9116 63.2368ZM58.283 69.7631C58.8637 70.8762 59.7124 71.8375 60.8611 72.498C61.9963 73.1508 63.2402 73.4043 64.4634 73.4043L64.4634 67.076C64.2853 67.076 64.1699 67.0577 64.1037 67.0418C64.0402 67.0266 64.0166 67.0125 64.0156 67.012C64.0138 67.011 64.013 67.0104 64.0121 67.0096C64.011 67.0088 64.0066 67.0052 63.9988 66.9968C63.984 66.9808 63.9451 66.9346 63.8936 66.8358L58.283 69.7631ZM64.4634 73.4043C67.3244 73.4043 69.927 72.4166 72.1874 70.5937L68.2147 65.6677C66.9875 66.6574 65.7649 67.076 64.4634 67.076L64.4634 73.4043ZM72.1874 70.5937C74.2468 68.9329 75.9786 66.8948 77.3928 64.5164L71.9534 61.2822C70.8925 63.0664 69.6429 64.516 68.2147 65.6677L72.1874 70.5937ZM77.4114 64.4847C78.791 62.1018 79.8505 59.5412 80.5946 56.8129L74.4893 55.1478C73.8833 57.3696 73.0302 59.4217 71.9347 61.3139L77.4114 64.4847ZM80.5993 56.7956C81.3339 54.0408 81.7186 51.3743 81.7186 48.8082L75.3903 48.8082C75.3903 50.7423 75.1 52.8572 74.4846 55.165L80.5993 56.7956ZM81.7186 48.8082C81.7186 45.9759 81.1577 43.3559 79.8729 41.0887L74.3671 44.2086C74.9949 45.3165 75.3903 46.8028 75.3903 48.8082L81.7186 48.8082ZM79.9119 41.1596C79.2213 39.8647 78.2389 38.7649 76.9293 38.0094C75.6296 37.2596 74.1892 36.9531 72.7324 36.9531L72.7324 43.2815C73.3006 43.2815 73.6041 43.3969 73.7669 43.4909C73.9199 43.5792 74.1187 43.7451 74.3281 44.1377L79.9119 41.1596ZM72.7324 36.9531C69.9792 36.9531 67.6337 38.3089 65.7295 40.2835L70.2849 44.6762C71.4184 43.5008 72.223 43.2815 72.7324 43.2815L72.7324 36.9531ZM65.7698 40.2425C63.9626 42.0497 62.4268 44.2873 61.127 46.8869L66.7872 49.717C67.85 47.5914 69.0142 45.9477 70.2446 44.7173L65.7698 40.2425ZM61.1133 46.9147C59.8931 49.4159 58.8974 52.1085 58.1185 54.9844L64.2268 56.6387C64.9104 54.1144 65.771 51.8006 66.801 49.6892L61.1133 46.9147ZM58.1185 54.9844C57.3311 57.8917 56.9116 60.6493 56.9116 63.2368L63.2399 63.2368C63.2399 61.3242 63.5516 59.1316 64.2268 56.6387L58.1185 54.9844ZM86.2862 84.5844L83.1923 83.9214L82.2362 88.3831L86.7499 87.7144L86.2862 84.5844ZM91.0114 61.6336L94.1159 62.2451L94.1222 62.2128L94.1279 62.1804L91.0114 61.6336ZM92.7833 51.6771L89.6694 51.1155L92.7833 51.6771ZM94.4709 41.4673L91.3497 40.9472L91.3455 40.9725L91.3417 40.998L94.4709 41.4673ZM95.9053 31.6795L92.7718 31.2397L92.7685 31.2634L92.7655 31.2871L95.9053 31.6795ZM96.9178 22.9886L97.1919 19.8364L94.0396 19.5622L93.7655 22.7145L96.9178 22.9886ZM101.305 23.3261L101.088 26.4828L101.142 26.4865L101.196 26.4884L101.305 23.3261ZM105.862 23.5793L105.61 26.7334L105.63 26.735L105.651 26.7364L105.862 23.5793ZM110.925 23.748L113.994 24.5155L114.977 20.5839L110.925 20.5839L110.925 23.748ZM110.671 25.0137L107.558 24.4477L107.558 24.4477L110.671 25.0137ZM110.249 27.2919L113.352 27.9124L113.356 27.8937L113.359 27.875L110.249 27.2919ZM109.659 30.1607L106.563 29.5089L106.546 29.5877L106.533 29.6672L109.659 30.1607ZM109.068 33.3671L105.972 32.7152L105.963 32.758L105.955 32.8011L109.068 33.3671ZM107.549 41.7205L104.436 41.1545L103.631 45.5813L108.07 44.8416L107.549 41.7205ZM108.056 41.6361L108.576 44.7572L109.983 44.5227L110.739 43.3131L108.056 41.6361ZM110.418 37.9235L107.772 36.1894L107.764 36.2009L107.757 36.2124L110.418 37.9235ZM117 27.6294L119.646 29.3634L119.66 29.343L119.673 29.3224L117 27.6294ZM119.7 23.3261L119.447 20.172L117.852 20.2997L117.009 21.6607L119.7 23.3261ZM136.575 21.4698L139.112 23.3619L143.773 17.1138L136.075 18.3454L136.575 21.4698ZM128.897 31.9327L131.452 33.7996L131.457 33.7917L131.463 33.7837L128.897 31.9327ZM125.606 36.4891L123.031 34.6499L123.009 34.6809L122.988 34.7124L125.606 36.4891ZM122.4 41.1298L124.988 42.9508L124.988 42.9508L122.4 41.1298ZM119.362 45.5175L116.746 43.7382L116.721 43.7747L116.697 43.8118L119.362 45.5175ZM116.915 49.3989L114.225 47.7334L113.551 48.8217L113.824 50.0723L116.915 49.3989ZM126.45 82.053L126.313 85.2142L130.831 85.4107L129.467 81.0987L126.45 82.053ZM122.484 81.9687L122.353 85.1301L122.418 85.1328L122.484 85.1328L122.484 81.9687ZM113.793 81.9687L113.793 85.1328L113.852 85.1328L113.91 85.1307L113.793 81.9687ZM109.068 82.053L105.934 82.487L106.325 85.3137L109.177 85.2153L109.068 82.053ZM107.381 70.5777L104.247 71.013L104.25 71.0376L104.254 71.0621L107.381 70.5777ZM105.777 59.0179L108.912 58.5839L107.948 51.6236L103.375 56.9587L105.777 59.0179ZM104.259 60.7899L101.856 58.7306L101.353 59.3178L101.177 60.0709L104.259 60.7899ZM102.909 67.0338L99.8087 66.3997L99.8017 66.4337L99.7955 66.4678L102.909 67.0338ZM101.559 74.2059L98.453 73.5999L98.4508 73.6114L98.4486 73.6228L101.559 74.2059ZM99.9554 82.5593L100.419 85.6893L102.63 85.3617L103.06 83.1681L99.9554 82.5593ZM89.3801 85.2474C91.0711 77.3561 92.6497 69.6886 94.1159 62.2451L87.9069 61.0221C86.4479 68.4291 84.8764 76.0622 83.1923 83.9214L89.3801 85.2474ZM94.1279 62.1804C94.6895 58.9793 95.2793 55.6654 95.8972 52.2386L89.6694 51.1155C89.0498 54.5515 88.4582 57.8753 87.8948 61.0869L94.1279 62.1804ZM95.8972 52.2386C96.5214 48.7772 97.089 45.3433 97.6 41.9367L91.3417 40.998C90.8401 44.3416 90.2827 47.7141 89.6694 51.1155L95.8972 52.2386ZM97.592 41.9875C98.161 38.5732 98.6455 35.2679 99.045 32.072L92.7655 31.2871C92.3775 34.3913 91.9057 37.6113 91.3497 40.9472L97.592 41.9875ZM99.0387 32.1193C99.4947 28.8707 99.8393 25.9172 100.07 23.2627L93.7655 22.7145C93.5463 25.2352 93.2159 28.0757 92.7718 31.2397L99.0387 32.1193ZM96.6437 26.1409C97.9603 26.2554 99.4422 26.3693 101.088 26.4828L101.523 20.1695C99.9061 20.0579 98.4629 19.9469 97.1919 19.8364L96.6437 26.1409ZM101.196 26.4884C102.787 26.5433 104.258 26.6252 105.61 26.7334L106.114 20.4252C104.653 20.3083 103.086 20.2215 101.414 20.1639L101.196 26.4884ZM105.651 26.7364C107.409 26.8536 109.167 26.9122 110.925 26.9122L110.925 20.5839C109.307 20.5839 107.69 20.53 106.072 20.4221L105.651 26.7364ZM107.855 22.9806C107.77 23.3196 107.669 23.8381 107.558 24.4477L113.785 25.5797C113.899 24.9518 113.966 24.6265 113.994 24.5155L107.855 22.9806ZM107.558 24.4477C107.447 25.0588 107.308 25.8121 107.14 26.7088L113.359 27.875C113.529 26.9716 113.671 26.2061 113.785 25.5797L107.558 24.4477ZM107.147 26.6713C106.981 27.5023 106.786 28.4479 106.563 29.5089L112.755 30.8126C112.982 29.736 113.181 28.769 113.352 27.9124L107.147 26.6713ZM106.533 29.6672C106.373 30.6825 106.186 31.6985 105.972 32.7152L112.164 34.0189C112.4 32.8981 112.607 31.7765 112.784 30.6542L106.533 29.6672ZM105.955 32.8011C105.505 35.2761 104.999 38.0606 104.436 41.1545L110.663 42.2865C111.225 39.1927 111.731 36.4082 112.181 33.9331L105.955 32.8011ZM108.07 44.8416L108.576 44.7572L107.535 38.515L107.029 38.5994L108.07 44.8416ZM110.739 43.3131C111.291 42.4299 112.07 41.2054 113.08 39.6345L107.757 36.2124C106.741 37.7917 105.945 39.0423 105.372 39.9591L110.739 43.3131ZM113.065 39.6575C114.147 38.0058 115.256 36.271 116.392 34.4534L111.026 31.0994C109.912 32.882 108.827 34.5786 107.772 36.1894L113.065 39.6575ZM116.392 34.4534C117.506 32.6709 118.591 30.9743 119.646 29.3634L114.353 25.8954C113.271 27.5471 112.162 29.2819 111.026 31.0994L116.392 34.4534ZM119.673 29.3224C120.745 27.6293 121.651 26.1851 122.39 24.9916L117.009 21.6607C116.286 22.8297 115.392 24.2544 114.327 25.9364L119.673 29.3224ZM119.952 26.4802C122.786 26.2535 125.619 25.9985 128.452 25.7152L127.823 19.4183C125.031 19.6975 122.239 19.9487 119.447 20.172L119.952 26.4802ZM128.452 25.7152C131.327 25.4277 134.202 25.054 137.075 24.5943L136.075 18.3454C133.324 18.7857 130.573 19.1433 127.823 19.4183L128.452 25.7152ZM134.039 19.5778C131.386 23.1346 128.816 26.6359 126.331 30.0816L131.463 33.7837C133.928 30.3667 136.477 26.8928 139.112 23.3619L134.039 19.5778ZM126.342 30.0658C125.266 31.5381 124.163 33.0662 123.031 34.6499L128.181 38.3282C129.3 36.7618 130.39 35.2523 131.452 33.7996L126.342 30.0658ZM122.988 34.7124C121.929 36.273 120.87 37.8051 119.812 39.3089L124.988 42.9508C126.067 41.417 127.146 39.8553 128.225 38.2657L122.988 34.7124ZM119.812 39.3089C118.735 40.8403 117.712 42.3168 116.746 43.7382L121.979 47.2967C122.925 45.9056 123.928 44.457 124.988 42.9508L119.812 39.3089ZM116.697 43.8118C115.79 45.2289 114.966 46.5363 114.225 47.7334L119.606 51.0643C120.327 49.8989 121.134 48.6187 122.027 47.2231L116.697 43.8118ZM113.824 50.0723C115.081 55.8465 116.569 61.4276 118.289 66.8146L124.317 64.8905C122.661 59.7021 121.224 54.3141 120.007 48.7254L113.824 50.0723ZM118.289 66.8146C119.975 72.0995 121.69 77.4971 123.433 83.0073L129.467 81.0987C127.722 75.5836 126.006 70.1808 124.317 64.8905L118.289 66.8146ZM126.587 78.8919C125.246 78.8335 123.878 78.8045 122.484 78.8045L122.484 85.1328C123.79 85.1328 125.066 85.16 126.313 85.2142L126.587 78.8919ZM122.616 78.8072C121.224 78.7492 119.858 78.7201 118.519 78.7201L118.519 85.0485C119.766 85.0485 121.044 85.0756 122.353 85.1301L122.616 78.8072ZM118.519 78.7201C116.851 78.7201 115.237 78.7489 113.676 78.8067L113.91 85.1307C115.388 85.076 116.923 85.0485 118.519 85.0485L118.519 78.7201ZM113.793 78.8045C112.236 78.8045 110.624 78.8333 108.959 78.8908L109.177 85.2153C110.775 85.1602 112.313 85.1328 113.793 85.1328L113.793 78.8045ZM112.202 81.6191C111.694 77.9444 111.129 74.1024 110.508 70.0932L104.254 71.0621C104.87 75.0407 105.43 78.849 105.934 82.487L112.202 81.6191ZM110.515 70.1424C109.952 66.0926 109.418 62.2398 108.912 58.5839L102.643 59.4519C103.15 63.1087 103.684 66.9624 104.247 71.013L110.515 70.1424ZM103.375 56.9587L101.856 58.7306L106.661 62.8491L108.18 61.0771L103.375 56.9587ZM101.177 60.0709C100.775 61.7962 100.318 63.9078 99.8087 66.3997L106.009 67.6679C106.511 65.2096 106.955 63.1586 107.34 61.5088L101.177 60.0709ZM99.7955 66.4678C99.3477 68.9305 98.9002 71.3078 98.453 73.5999L104.664 74.8119C105.117 72.4914 105.569 70.0873 106.022 67.5998L99.7955 66.4678ZM98.4486 73.6228C97.9441 76.3138 97.4113 79.0897 96.8504 81.9505L103.06 83.1681C103.625 80.2913 104.161 77.4982 104.669 74.789L98.4486 73.6228ZM99.4917 79.4293L85.8225 81.4544L86.7499 87.7144L100.419 85.6893L99.4917 79.4293Z" fill="#F9F7F3"/>
<defs>
<filter id="filter0_f_1066_6" x="0.394335" y="0.375292" width="157.276" height="105.304" filterUnits="userSpaceOnUse" color-interpolation-filters="sRGB">
<feFlood flood-opacity="0" result="BackgroundImageFix"/>
<feBlend mode="normal" in="SourceGraphic" in2="BackgroundImageFix" result="shape"/>
<feGaussianBlur stdDeviation="10.5472" result="effect1_foregroundBlur_1066_6"/>
</filter>
</defs>
</svg>
