<svg width="1920" height="980" viewBox="0 0 1920 980" fill="none" xmlns="http://www.w3.org/2000/svg">
<path d="M-150.338 438.437C115.927 452.461 382.422 464.789 649.12 475.42C381.861 467.729 114.577 461.754 -152.784 457.475C-152.427 451.123 -151.179 444.771 -150.338 438.437Z" fill="#FFC687"/>
<path d="M-103.591 276.312C85.9429 307.565 275.783 338.063 465.954 367.846C274.866 340.325 83.4718 313.54 -108.253 287.49L-103.591 276.312Z" fill="#FC9422" fill-opacity="0.8"/>
<path d="M-53.0742 183.271C192.072 245.758 440.097 305.228 689.676 361.362C436.785 310.788 181.933 263.457 -74.728 219.406L-64.1304 201.291C-60.4875 195.26 -57.2012 189.171 -53.0742 183.271Z" fill="#FC9422"/>
<path d="M-6.25108 118.071C186.519 174.808 379.9 230.829 573.867 286.077C378.371 232.789 182.315 180.274 -14.3267 128.495L-6.25108 118.071Z" fill="#FC9422" fill-opacity="0.5"/>
<path d="M-2.39028 -14.9999C220.313 72.7634 444.315 159.019 670.202 243.955C441.946 161.639 212.212 80.7556 -19 1.3615C-13.5738 -4.14256 -8.24954 -9.68432 -2.39028 -14.9999Z" fill="#FC9422"/>
<path d="M167.438 -51.3484C396.051 63.1813 628.001 174.94 863.849 284.173C623.67 178.804 380.078 76.1497 133.199 -23.6962C144.408 -32.989 155.388 -42.4326 167.438 -51.3484Z" fill="#FFC687"/>
<path d="M245.111 -107.105C387.465 -25.8259 530.661 54.9066 674.696 135.074C528.138 56.6596 380.714 -21.1889 232.475 -98.4719L245.111 -107.105Z" fill="#FC9422"/>
<path d="M403.351 -188.376C566.42 -57.8782 734.218 70.8043 906.121 197.235C726.92 74.6611 543.488 -45.7403 355.926 -163.928L379.453 -176.291C387.319 -180.373 395.111 -184.533 403.351 -188.376Z" fill="#FC9422"/>
<path d="M482.968 -220.475C605.208 -111.32 728.559 -2.63576 853.023 105.597C725.66 -1.379 597.212 -107.903 467.675 -213.936L482.968 -220.475Z" fill="#FC9422"/>
<path d="M657.456 -265.815C779.708 -119.425 904.443 26.1878 1031.63 171.04C900.176 27.5487 766.263 -115.163 629.892 -257.076L643.553 -261.592L657.456 -265.815Z" fill="#FFC687"/>
<path d="M733.749 -323.516C790.227 -240.22 848.03 -157.301 907.107 -74.7405C936.658 -33.4601 966.514 7.72614 996.702 48.8181C1026.92 89.9477 1057.46 131.002 1088.34 171.943C958.159 10.3085 822.784 -149.818 682.34 -308.38L707.866 -316.184L714.261 -318.125L720.757 -319.935L733.749 -323.516Z" fill="#FC9422"/>
<path d="M922.757 -271C985.298 -158.318 1049.01 -45.8991 1113.92 66.2366C1045.47 -45.0509 975.822 -156.093 905.001 -266.834L922.757 -271Z" fill="#FC9422"/>
<path d="M999.632 -380.479C1025.08 -301.198 1051.96 -221.936 1080.21 -142.919C1108.46 -63.9017 1138.09 14.9081 1169.09 93.4729C1097.71 -62.0356 1020.83 -216.658 938.518 -370.263L969.011 -375.484L984.271 -378.048C989.391 -378.915 994.486 -379.782 999.632 -380.479Z" fill="#FC9422"/>
<path opacity="0.83" d="M1250.31 -321C1254.79 -158.894 1262.03 3.1363 1272.04 165.054C1257.14 3.38136 1239.46 -158.197 1219 -319.643L1250.31 -321Z" fill="#FFC687"/>
<path opacity="0.83" d="M1417.3 -374.076C1388.92 -193.366 1366.14 -12.4861 1349 168.469C1358.53 -12.5992 1362.45 -193.8 1360.77 -375C1379.62 -374.755 1398.47 -374.453 1417.3 -374.076Z" fill="#FC9422"/>
<path opacity="0.83" d="M1716.63 -383.137C1639.9 -226.913 1568.64 -69.8774 1502.92 87.8742C1531.07 8.31041 1557.84 -71.423 1583.24 -151.345C1608.61 -231.192 1632.56 -311.151 1655.15 -391.299C1660.3 -390.715 1665.47 -390.168 1670.62 -389.527L1685.95 -387.435L1716.63 -383.137Z" fill="#FC9422"/>
<path opacity="0.83" d="M1659.27 -221.425C1594.17 -93.5222 1530.39 34.5461 1467.92 162.78C1526.99 34.0553 1584.77 -94.9113 1641.17 -223.907C1647.24 -223.126 1653.25 -222.247 1659.27 -221.425Z" fill="#FFC687"/>
<path opacity="0.83" d="M1930.33 -324.14C1809.68 -178.207 1691.55 -31.5388 1576 115.808C1687.15 -32.764 1795.75 -182.033 1901.77 -332L1930.33 -324.14Z" fill="#FC9422"/>
<path opacity="0.83" d="M2011.99 -261.033C1854.75 -100.869 1702.41 60.8351 1555.01 223.984C1695.79 58.8221 1831.72 -107.92 1962.49 -275.871C1979.1 -271.068 1995.53 -266.031 2011.99 -261.033Z" fill="#FC9422"/>
<path opacity="0.83" d="M2122.37 -210.422C2003.91 -113.78 1886.45 -16.6862 1770 80.8223C1883.39 -18.0245 1995.76 -117.305 2107.11 -217L2122.37 -210.422Z" fill="#FFC687"/>
<path opacity="0.83" d="M2262.42 -171.496C2075.13 -53.6485 1891.94 66.4606 1713 188.737C1798.83 125.667 1883.66 61.9933 1967.32 -2.13276C2050.93 -66.2211 2133.47 -130.856 2214.93 -196L2227.11 -190.081C2231.11 -188.064 2234.98 -185.972 2238.93 -183.917L2262.42 -171.496Z" fill="#FFC687"/>
<g opacity="0.83">
<path opacity="0.83" d="M2259.89 1158.09C2168.77 1089.68 2076.57 1021.86 1983.26 954.611C1936.61 920.988 1889.71 887.509 1842.51 854.193C1795.28 820.841 1747.78 787.614 1700 754.55C1896.7 883.487 2097.7 1010.05 2302.88 1134.18L2281.66 1146.33L2276.34 1149.36L2270.85 1152.28L2259.89 1158.09Z" fill="#FC9422"/>
<path opacity="0.83" d="M2166.26 1251C2060.56 1151.19 1953.82 1051.8 1846.04 952.819C1956.96 1050.44 2068.89 1147.63 2181.85 1244.4L2166.26 1251Z" fill="#FC9422"/>
<path opacity="0.83" d="M1944.44 1148.91C1823.04 1010.18 1696.41 873.065 1565 737.975C1704.72 869.573 1849.3 999.212 1998.65 1126.8L1971.69 1138.01C1962.71 1141.73 1953.72 1145.47 1944.44 1148.91Z" fill="#FFC687"/>
<path opacity="0.83" d="M1749.56 1122.46C1669.31 1001.97 1587.79 881.824 1505 761.998C1591.05 880.919 1678.38 999.502 1766.96 1117.74L1749.56 1122.46Z" fill="#FC9422"/>
</g>
<g opacity="0.83">
<path d="M1594.74 1362.65C1573.24 1273.24 1550.37 1184.05 1526.09 1094.95C1501.78 1005.79 1476.08 916.8 1449 828C1510.57 1004.53 1577.7 1180.35 1650.41 1355.37L1622.64 1359.2L1608.73 1361.08L1594.74 1362.65Z" fill="#FFC687"/>
<path d="M1337 1374.58C1349.94 1212.34 1357.33 1050.11 1359.19 888C1367.16 1049.99 1380.66 1211.89 1399.72 1373.62C1378.83 1374.02 1357.92 1374.34 1337 1374.58Z" fill="#FC9422"/>
</g>
<path d="M1062.65 1327.64C1116.61 1166.98 1167.81 1006.08 1216.2 845C1172.59 1006.45 1131.76 1168.1 1093.72 1329.95L1062.65 1327.64Z" fill="#FC9422"/>
<path d="M909 1304.74C1008.2 1132.79 1101.97 959.849 1190.27 786C1109.18 961.112 1033.57 1137.2 963.466 1314.09C945.251 1311.05 927.113 1307.92 909 1304.74Z" fill="#FFC687"/>
<path d="M878 1160.73C955.266 1050.08 1031.39 939.174 1106.36 828C1034.93 940.041 964.641 1052.35 895.527 1164.92L878 1160.73Z" fill="#FFC687"/>
<path d="M662.736 1169.42C804.974 1034.44 942.37 897.655 1074.79 759.176C1012.82 829.94 952.005 901.245 892.578 972.8C833.151 1044.35 774.981 1116.34 718.043 1188.72L703.989 1184.13C699.313 1182.6 694.798 1180.9 690.176 1179.28L662.736 1169.42Z" fill="#FC9422" fill-opacity="0.8"/>
<path d="M639.423 1091.42C766.18 990.044 891.824 888.14 1016.35 785.742C894.741 889.515 774.136 993.85 654.807 1098.58C649.58 1096.26 644.543 1093.8 639.423 1091.42Z" fill="#FC9422"/>
<path d="M279.12 1149.86C498.078 1024.19 713.088 896.122 924.046 765.74C718.514 899.308 516.981 1035.25 319.6 1173.42C306.022 1165.63 292.545 1157.75 279.12 1149.86Z" fill="#FC9422"/>
<path d="M355 1021.19C507.596 944.017 659.376 866.282 810.366 788C661.821 868.035 514.092 948.636 367.177 1029.8L355 1021.19Z" fill="#FFC687"/>
<path d="M139 1021.98C366.594 934.103 591.029 843.418 812.229 750C704.368 799.122 597.322 848.941 491.116 899.439C384.987 949.899 279.775 1000.98 175.353 1052.78L165.902 1045.24L156.909 1037.51L139 1021.98Z" fill="#FFC687" fill-opacity="0.7"/>
<path d="M-46 999.544C143.025 934.739 331.362 869.237 519.011 803C333.069 871.103 147.814 939.923 -36.7525 1009.44L-46 999.544Z" fill="#FC9422"/>
<path d="M-110 902.208C138.713 839.703 386.33 775.634 632.827 710C388.266 778.31 144.827 848.204 -97.4408 919.644L-110 902.208Z" fill="#FC9422" fill-opacity="0.8"/>
<path d="M-146.39 614.925C120.793 600.807 387.415 583.353 653.272 562.543C388.357 589.252 124.818 619.242 -138.212 652.624C-139.766 646.348 -141.651 640.108 -142.849 633.813L-146.39 614.925Z" fill="#FFC687"/>
<path d="M-155 544.899C60.7482 540.338 276.42 534.966 492.066 528.764C276.649 537.114 61.2831 546.294 -154.006 556.266L-155 544.899Z" fill="#FC9422"/>
<path opacity="0.83" d="M2162.6 992.099C1977.7 880.787 1790.91 770.768 1602 661.936C1794.25 768.501 1988.47 873.791 2184.6 977.788L2173.77 985.051C2170.13 987.46 2166.34 989.761 2162.6 992.099Z" fill="#FC9422"/>
<path opacity="0.83" d="M1224 1259.71C1245.78 1129.54 1266.19 999.288 1285.24 869C1269.75 999.457 1255.61 1129.97 1242.83 1260.54L1224 1259.71Z" fill="#FFC687"/>
<path d="M2083.72 331.697C1911.02 376.189 1738.79 422.315 1567.07 470.071C1737.97 419.486 1908.36 367.271 2078.24 313.425L2083.72 331.697Z" fill="#FFC687"/>
<path opacity="0.83" d="M2420.16 434.234C2121.11 441.623 1822.34 452.367 1524 466.467C1672.98 457.099 1821.88 446.882 1970.65 435.818C2119.25 424.772 2267.74 412.897 2416.11 400.154L2417.56 408.655L2418.48 417.175L2420.16 434.234Z" fill="#FC9422"/>
<path opacity="0.83" d="M2402.2 513.404C2205.15 510.727 2008.18 508.823 1811 507.636C2008.13 506.486 2205.3 504.62 2402.45 502C2402.51 505.789 2402.51 509.596 2402.2 513.404Z" fill="#FC9422"/>
<path opacity="0.83" d="M2387.52 600.768C2255.53 588.44 2123.37 576.98 1991.02 566.349C1858.55 555.717 1725.83 545.935 1593 537C1859.49 548.969 2126.63 557.565 2394.24 562.748L2391.26 581.767L2389.68 591.268L2387.52 600.768Z" fill="#FC9422"/>
<path opacity="0.83" d="M1962.24 687.554C1850.15 655.906 1737.86 625.042 1625.39 595C1738.32 622.93 1851.43 650.038 1964.72 676.361L1962.24 687.554Z" fill="#FFC687"/>
<path opacity="0.83" d="M2307.91 52.9665C2090.27 149.57 1874.3 247.512 1660 346.774C1871.32 245.175 2080.92 142.257 2288.83 38L2307.91 52.9665Z" fill="#FC9422"/>
<path opacity="0.83" d="M2382.15 118.896C2120.83 209.77 1862.39 303.546 1607 400.206C1858.41 299.682 2106.87 196.255 2352.2 90C2362.26 99.5944 2372.25 109.227 2382.15 118.896Z" fill="#FC9422"/>
<path opacity="0.83" d="M2438.52 189.265C2260.48 242.364 2082.97 296.123 1906.02 350.56C2081.29 294.068 2256 236.898 2430.12 179.067L2438.52 189.265Z" fill="#FC9422"/>
<path opacity="0.83" d="M2502.16 278.159C2247.26 330.655 1994.29 386.356 1743.41 445.241C1867.17 413.065 1990.42 380.079 2113.16 346.3C2235.72 312.579 2357.72 278.065 2479.21 242.76L2485.4 251.487L2491.03 260.365L2502.16 278.159Z" fill="#FC9422"/>
<path opacity="0.83" d="M2538.21 345.075C2329.75 380.644 2121.64 417.005 1913.92 454.157C2120.7 414.913 2327.25 374.876 2533.14 334.067C2535 337.724 2536.53 341.418 2538.21 345.075Z" fill="#FC9422"/>
<path opacity="0.83" d="M1480.16 -254.567C1448.87 -136.343 1418.81 -18.006 1390 100.407C1415.04 -18.3076 1438.84 -137.116 1461.41 -256L1480.16 -254.567Z" fill="#FC9422"/>
<path opacity="0.83" d="M2213.35 6.19953C2054.64 96.2248 1896.85 186.834 1740 278.028C1894.43 185.27 2047.92 91.9083 2200.46 -2L2213.35 6.19953Z" fill="#FC9422"/>
</svg>
