<svg width="780" height="980" viewBox="0 0 780 980" fill="none" xmlns="http://www.w3.org/2000/svg">
<path d="M-371.898 506.625C-184.537 533.007 3.09166 558.203 190.969 582.213C2.51359 560.247 -186.066 539.492 -374.804 519.932C-374.159 515.463 -372.884 511.05 -371.898 506.625Z" fill="#FFC687"/>
<path d="M-328.824 394.907C-196.771 428.722 -64.4555 462.024 68.1388 494.839C-65.2437 463.566 -198.888 432.794 -332.811 402.52L-328.824 394.907Z" fill="#FC9422" fill-opacity="0.8"/>
<path d="M-287.358 332.258C-117.923 391.593 53.733 448.973 226.694 504.091C51.048 452.699 -126.185 403.478 -304.9 356.463L-296.288 344.313C-293.34 340.274 -290.64 336.174 -287.358 332.258Z" fill="#FC9422"/>
<path d="M-250.226 289.063C-117.462 341.094 15.7789 392.656 149.481 443.709C14.5771 393.948 -120.771 344.698 -256.579 295.932L-250.226 289.063Z" fill="#FC9422" fill-opacity="0.5"/>
<path d="M-393.192 151.039C-230.963 232.312 -66.3664 311.618 100.997 389.132C-69.4396 314.36 -242.298 241.515 -417.489 170.662C-409.535 164.067 -401.743 157.366 -393.192 151.039Z" fill="#FFC687"/>
<path d="M-225.784 53.8011C-110.066 146.405 9.0062 237.721 130.993 327.439C3.8277 240.458 -126.339 155.018 -259.438 71.1496L-242.743 62.377C-237.161 59.4802 -231.631 56.528 -225.784 53.8011Z" fill="#FC9422"/>
<path d="M-169.286 31.0228C-82.5424 108.481 4.99071 185.606 93.3128 262.411C2.93364 186.498 -88.2165 110.907 -180.138 35.6629L-169.286 31.0228Z" fill="#FC9422"/>
<path d="M-45.4653 -1.15161C41.2878 102.731 129.802 206.06 220.059 308.851C126.774 207.026 31.7464 105.755 -65.0253 5.05026L-55.3312 1.84516L-45.4653 -1.15161Z" fill="#FFC687"/>
<path d="M8.67384 -42.0972C48.752 17.0115 89.7702 75.8527 131.692 134.44C152.662 163.733 173.849 192.96 195.271 222.12C216.712 251.306 238.387 280.439 260.297 309.492C167.92 194.792 71.8553 81.163 -27.8069 -31.3562L-9.69306 -36.8939L-5.15556 -38.2716L-0.545783 -39.5557L8.67384 -42.0972Z" fill="#FC9422"/>
<path d="M142.798 -4.83105C187.179 75.1309 232.391 154.906 278.453 234.48C229.878 155.507 180.454 76.7092 130.198 -1.87496L142.798 -4.83105Z" fill="#FC9422"/>
<path d="M197.35 -82.5195C215.41 -26.2599 234.482 29.9863 254.53 86.0586C274.578 142.131 295.602 198.056 317.603 253.807C266.949 143.455 212.391 33.7316 153.982 -75.2697L175.621 -78.9749L186.449 -80.794C190.083 -81.4093 193.699 -82.0246 197.35 -82.5195Z" fill="#FC9422"/>
<path d="M278.628 -92.7793C299.706 -1.16682 321.743 90.3654 344.738 181.777C319.248 90.6329 292.801 -0.417768 265.395 -91.3614L278.628 -92.7793Z" fill="#FC9422"/>
<path opacity="0.83" d="M375.237 -40.3115C378.419 74.7224 383.553 189.703 390.657 304.603C380.082 189.877 367.536 75.2173 353.02 -39.3484L375.237 -40.3115Z" fill="#FFC687"/>
<path opacity="0.83" d="M493.737 -77.9764C473.598 50.2597 457.437 178.616 445.271 307.026C452.032 178.536 454.816 49.952 453.623 -78.6318C467 -78.4579 480.378 -78.2439 493.737 -77.9764Z" fill="#FC9422"/>
<path opacity="0.83" d="M706.147 -84.4059C651.697 26.4547 601.134 137.89 554.494 249.834C574.469 193.374 593.469 136.794 611.493 80.0792C629.498 23.4183 646.491 -33.3228 662.526 -90.1978C666.177 -89.7831 669.847 -89.3952 673.499 -88.9404L684.382 -87.4557L706.147 -84.4059Z" fill="#FC9422"/>
<path opacity="0.83" d="M695.84 0.260649C649.647 91.0235 604.385 181.904 560.053 272.901C601.972 181.555 642.976 90.0378 683 -1.50023C687.308 -0.946268 691.566 -0.322223 695.84 0.260649Z" fill="#FFC687"/>
<path opacity="0.83" d="M857.797 -42.5404C772.181 61.0169 688.355 165.096 606.355 269.656C685.228 164.226 762.293 58.3016 837.532 -48.1182L857.797 -42.5404Z" fill="#FC9422"/>
<path opacity="0.83" d="M915.747 2.24197C804.16 115.898 696.059 230.647 591.459 346.421C691.364 229.218 787.819 110.894 880.617 -8.28752C892.401 -4.8791 904.065 -1.30481 915.747 2.24197Z" fill="#FC9422"/>
<path opacity="0.83" d="M994.072 38.156C910.011 106.735 826.654 175.635 744.021 244.829C824.485 174.685 904.226 104.234 983.243 33.4878L994.072 38.156Z" fill="#FFC687"/>
<path opacity="0.83" d="M1093.46 65.7795C960.548 149.406 830.552 234.639 703.574 321.409C764.478 276.653 824.677 231.468 884.044 185.963C943.375 140.485 1001.95 94.6182 1059.76 48.3906L1068.4 52.5907C1071.24 54.0219 1073.99 55.5067 1076.79 56.9647L1093.46 65.7795Z" fill="#FFC687"/>
<g opacity="0.83">
<path opacity="0.83" d="M1091.66 1009.29C1027 960.736 961.569 912.609 895.357 864.89C862.251 841.031 828.969 817.273 795.474 793.631C761.961 769.964 728.252 746.385 694.349 722.922C833.929 814.418 976.565 904.229 1122.17 992.316L1107.11 1000.94L1103.33 1003.09L1099.44 1005.16L1091.66 1009.29Z" fill="#FC9422"/>
<path opacity="0.83" d="M867.808 1002.77C781.662 904.325 691.8 807.022 598.549 711.159C697.698 804.544 800.293 896.539 906.277 987.08L887.148 995.031C880.772 997.672 874.396 1000.33 867.808 1002.77Z" fill="#FFC687"/>
<path opacity="0.83" d="M729.517 983.997C672.572 898.497 614.724 813.238 555.971 728.207C617.038 812.596 679.008 896.745 741.864 980.653L729.517 983.997Z" fill="#FC9422"/>
</g>
<g opacity="0.83">
<path d="M619.654 1154.44C604.397 1091 588.163 1027.7 570.935 964.475C553.689 901.206 535.448 838.058 516.232 775.044C559.926 900.31 607.56 1025.08 659.154 1149.28L639.449 1151.99L629.579 1153.33L619.654 1154.44Z" fill="#FFC687"/>
<path d="M436.755 1162.91C445.939 1047.78 451.181 932.655 452.501 817.622C458.159 932.575 467.74 1047.46 481.262 1162.23C466.439 1162.51 451.597 1162.74 436.755 1162.91Z" fill="#FC9422"/>
</g>
<path d="M242.068 1129.6C280.36 1015.59 316.692 901.416 351.03 787.107C320.084 901.673 291.114 1016.38 264.121 1131.24L242.068 1129.6Z" fill="#FC9422"/>
<path d="M133.036 1113.35C203.431 991.332 269.975 868.607 332.632 745.24C275.091 869.503 221.436 994.462 171.686 1119.98C158.761 1117.83 145.89 1115.61 133.036 1113.35Z" fill="#FFC687"/>
<path d="M111.038 1011.16C165.868 932.64 219.884 853.936 273.086 775.044C222.397 854.551 172.52 934.245 123.476 1014.13L111.038 1011.16Z" fill="#FFC687"/>
<path d="M-41.718 1017.32C59.2173 921.542 156.716 824.473 250.685 726.205C206.712 776.421 163.554 827.021 121.383 877.797C79.2127 928.574 37.9336 979.657 -2.47106 1031.02L-12.4438 1027.76C-15.7622 1026.68 -18.9664 1025.47 -22.2457 1024.32L-41.718 1017.32Z" fill="#FC9422" fill-opacity="0.8"/>
<path d="M-58.2613 961.97C31.6878 890.034 120.848 817.72 209.217 745.056C122.918 818.696 37.3341 892.735 -47.3448 967.051C-51.0538 965.411 -54.6282 963.659 -58.2613 961.97Z" fill="#FC9422"/>
<path d="M-247.842 928.626C-89.4472 844.925 66.2069 759.428 219.046 672.187C69.9762 761.822 -76.3158 853.24 -219.718 946.338C-229.155 940.481 -238.517 934.56 -247.842 928.626Z" fill="#FC9422"/>
<path d="M-190.844 839.255C-80.7139 788.306 28.8523 736.936 137.872 685.158C30.5433 738.239 -76.2213 791.742 -182.422 845.666L-190.844 839.255Z" fill="#FFC687"/>
<path d="M-344.048 834.467C-180.464 777.782 -19.0514 719.028 140.135 658.254C62.4241 690.42 -14.7257 723.1 -91.2962 756.282C-167.812 789.44 -243.692 823.061 -319.03 857.21L-325.546 851.629L-331.732 845.925L-344.048 834.467Z" fill="#FFC687" fill-opacity="0.7"/>
<path d="M-372.674 690.33C-184.446 665.466 3.19947 638.274 190.118 608.75C4.19477 642.395 -180.572 678.284 -364.79 716.544C-366.239 712.19 -367.92 707.881 -369.118 703.494L-372.674 690.33Z" fill="#FFC687"/>
<path d="M-380.025 637.46C-227.651 622.22 -75.3761 606.412 76.8343 590.019C-75.0943 607.92 -226.941 626.404 -378.689 645.445L-380.025 637.46Z" fill="#FC9422"/>
<path opacity="0.83" d="M1022.62 891.492C891.412 812.503 758.864 734.431 624.807 657.201C761.231 732.823 899.053 807.539 1038.24 881.337L1030.55 886.491C1027.97 888.2 1025.27 889.834 1022.62 891.492Z" fill="#FC9422"/>
<path opacity="0.83" d="M356.569 1081.4C372.025 989.022 386.505 896.594 400.027 804.139C389.036 896.714 379.003 989.33 369.928 1081.99L356.569 1081.4Z" fill="#FFC687"/>
<path d="M966.645 422.857C844.09 454.429 721.872 487.161 600.017 521.05C721.292 485.154 842.206 448.101 962.757 409.891L966.645 422.857Z" fill="#FFC687"/>
<path opacity="0.83" d="M1205.39 495.619C993.177 500.863 781.162 508.487 569.455 518.492C675.173 511.845 780.837 504.595 886.41 496.743C991.857 488.905 1097.23 480.478 1202.52 471.436L1203.55 477.468L1204.2 483.514L1205.39 495.619Z" fill="#FC9422"/>
<path opacity="0.83" d="M1192.64 551.8C1052.81 549.9 913.038 548.549 773.116 547.706C913.001 546.891 1052.92 545.566 1192.83 543.707C1192.86 546.396 1192.86 549.098 1192.64 551.8Z" fill="#FC9422"/>
<path opacity="0.83" d="M1182.22 613.796C1088.56 605.048 994.777 596.915 900.864 589.371C806.86 581.827 712.675 574.885 618.418 568.544C807.529 577.038 997.091 583.138 1187 586.816L1184.88 600.313L1183.76 607.054L1182.22 613.796Z" fill="#FC9422"/>
<path opacity="0.83" d="M880.439 675.381C800.896 652.922 721.212 631.02 641.405 609.702C721.541 629.522 801.809 648.758 882.2 667.438L880.439 675.381Z" fill="#FFC687"/>
<path opacity="0.83" d="M1125.73 225.064C971.296 293.616 818.034 363.118 665.965 433.556C815.919 361.459 964.662 288.426 1112.19 214.443L1125.73 225.064Z" fill="#FC9422"/>
<path opacity="0.83" d="M1178.42 271.85C992.982 336.336 809.584 402.881 628.355 471.474C806.764 400.139 983.075 326.745 1157.16 251.344C1164.3 258.153 1171.39 264.988 1178.42 271.85Z" fill="#FC9422"/>
<path opacity="0.83" d="M1263.58 384.867C1082.7 422.119 903.184 461.645 725.155 503.432C812.977 480.599 900.436 457.191 987.534 433.221C1074.51 409.291 1161.08 384.8 1247.29 359.747L1251.69 365.94L1255.68 372.24L1263.58 384.867Z" fill="#FC9422"/>
<path opacity="0.83" d="M553.977 -25.9834C531.778 57.9111 510.446 141.886 490 225.914C507.77 141.672 524.655 57.3627 540.672 -27L553.977 -25.9834Z" fill="#FC9422"/>
<path opacity="0.83" d="M1058.63 191.877C946.011 255.761 834.038 320.059 722.733 384.772C832.32 318.949 941.238 252.698 1049.49 186.058L1058.63 191.877Z" fill="#FC9422"/>
</svg>
