<svg width="214" height="107" viewBox="0 0 214 107" fill="none" xmlns="http://www.w3.org/2000/svg">
<g filter="url(#filter0_f_1066_21)">
<path d="M58.3619 63.9962L55.3521 63.0201L58.3619 63.9962ZM55.5774 70.1558L52.8443 68.5615L52.8372 68.5737L52.8302 68.5859L55.5774 70.1558ZM51.5273 75.8091L49.146 73.7255L49.146 73.7255L51.5273 75.8091ZM46.4646 80.5342L44.5661 78.0029L44.5468 78.0174L44.5276 78.0323L46.4646 80.5342ZM40.9801 83.7406L42.1848 86.6664L40.9801 83.7406ZM29.5891 83.825L28.331 86.7283L28.3482 86.7357L28.3654 86.743L29.5891 83.825ZM25.2858 80.7874L22.855 82.813L22.9009 82.868L22.9491 82.9209L25.2858 80.7874ZM22.6701 75.9779L25.6719 74.9772H25.6719L22.6701 75.9779ZM21.8263 66.5275L18.6764 66.2276L18.6693 66.3022L18.6657 66.377L21.8263 66.5275ZM22.1638 62.8149L22.4097 59.6603L19.2832 59.4167L19.0116 62.5408L22.1638 62.8149ZM35.158 63.8275L38.1598 64.828L39.44 60.9874L35.4038 60.6729L35.158 63.8275ZM35.7487 68.2995L33.8502 70.8308H33.8502L35.7487 68.2995ZM40.3051 68.637L41.4409 71.5902L41.4966 71.5688L41.5515 71.5453L40.3051 68.637ZM42.4145 67.1182L40.1771 64.8808L40.1285 64.9294L40.082 64.9801L42.4145 67.1182ZM44.0177 64.5869L41.0687 63.44L44.0177 64.5869ZM44.2708 59.1023L41.2011 59.8697L41.241 60.0292L41.2972 60.1836L44.2708 59.1023ZM43.0051 57.4147L41.1441 59.9737L41.1963 60.0117L41.25 60.0475L43.0051 57.4147ZM40.3051 56.3178L39.4358 59.3603L39.5036 59.3796L39.5722 59.396L40.3051 56.3178ZM34.0611 55.8959L34.0611 59.0601L34.2189 59.0601L34.3759 59.0444L34.0611 55.8959ZM28.6609 56.571L29.0885 59.7061L29.1459 59.6983L29.2031 59.6883L28.6609 56.571ZM23.8514 57.3304L20.7207 56.8712L20.0879 61.1859L24.386 60.449L23.8514 57.3304ZM26.1296 42.8174L29.2516 43.3324L29.2524 43.3272L26.1296 42.8174ZM29.4203 24.1699L29.3041 21.0079L26.7752 21.1008L26.3101 23.5883L29.4203 24.1699ZM61.5683 22.9886L64.7089 23.374L65.1608 19.6903L61.4521 19.8266L61.5683 22.9886ZM59.8807 36.7422L59.9936 39.9043L62.6924 39.808L63.0213 37.1275L59.8807 36.7422ZM50.2616 37.0797L50.1526 33.9174L50.1507 33.9175L50.2616 37.0797ZM40.3894 37.5016L40.2314 34.3414L37.626 34.4716L37.2571 37.0541L40.3894 37.5016ZM39.9675 40.5392L36.8324 40.1117L36.8228 40.182L36.8164 40.2527L39.9675 40.5392ZM39.5457 44.5893L36.4024 44.2266L35.9954 47.7535L39.5457 47.7535L39.5457 44.5893ZM48.7428 45.6019L49.5581 42.5445L48.7428 45.6019ZM54.9024 48.3863L56.8009 45.855L54.9024 48.3863ZM58.2775 52.6052L55.3538 53.815L55.3794 53.8769L55.4076 53.9377L58.2775 52.6052ZM56.2103 57.921C56.2103 59.5237 55.9361 61.2193 55.3521 63.0201L61.3717 64.9724C62.1377 62.6105 62.5386 60.256 62.5386 57.921L56.2103 57.921ZM55.3521 63.0201C54.7517 64.8713 53.9196 66.7181 52.8443 68.5615L58.3106 71.7501C59.5979 69.5433 60.6221 67.2838 61.3717 64.9724L55.3521 63.0201ZM52.8302 68.5859C51.8153 70.362 50.5898 72.0754 49.146 73.7255L53.9086 77.8927C55.6149 75.9427 57.0895 73.8872 58.3247 71.7257L52.8302 68.5859ZM49.146 73.7255C47.7068 75.3703 46.1795 76.7929 44.5661 78.0029L48.3631 83.0656C50.3499 81.5755 52.1977 79.848 53.9086 77.8927L49.146 73.7255ZM44.5276 78.0323C42.993 79.2203 41.4092 80.142 39.7753 80.8148L42.1848 86.6664C44.3761 85.7641 46.4486 84.5482 48.4017 83.0362L44.5276 78.0323ZM39.7753 80.8148C38.1885 81.4682 36.741 81.7577 35.4111 81.7577L35.4111 88.0861C37.6815 88.0861 39.9466 87.5881 42.1848 86.6664L39.7753 80.8148ZM35.4111 81.7577C33.6391 81.7577 32.1217 81.4559 30.8128 80.907L28.3654 86.743C30.5441 87.6566 32.908 88.0861 35.4111 88.0861L35.4111 81.7577ZM30.8472 80.9217C29.5486 80.359 28.4877 79.6014 27.6225 78.6539L22.9491 82.9209C24.4465 84.5609 26.2544 85.8284 28.331 86.7283L30.8472 80.9217ZM27.7166 78.7617C26.8712 77.7473 26.18 76.5016 25.6719 74.9772L19.6683 76.9784C20.3977 79.1667 21.4503 81.1274 22.855 82.813L27.7166 78.7617ZM25.6719 74.9772C25.1728 73.4801 24.9061 71.7971 24.9061 69.9026L18.5778 69.9026C18.5778 72.3958 18.9298 74.763 19.6683 76.9784L25.6719 74.9772ZM24.9061 69.9026C24.9061 68.889 24.9328 67.8144 24.9869 66.678L18.6657 66.377C18.6074 67.6033 18.5778 68.7787 18.5778 69.9026L24.9061 69.9026ZM24.9762 66.8275C25.0896 65.6369 25.2029 64.3907 25.3161 63.089L19.0116 62.5408C18.8998 63.8268 18.788 65.0556 18.6764 66.2276L24.9762 66.8275ZM21.918 65.9695L34.9122 66.9821L35.4038 60.6729L22.4097 59.6603L21.918 65.9695ZM32.1562 62.8269C31.8358 63.7881 31.572 64.842 31.572 65.8525L37.9003 65.8525C37.9003 65.8781 37.8985 65.8077 37.9393 65.6119C37.9786 65.4231 38.0475 65.1649 38.1598 64.828L32.1562 62.8269ZM31.572 65.8525C31.572 67.6135 32.1287 69.5397 33.8502 70.8308L37.6472 65.7681C37.7065 65.8127 37.766 65.8703 37.8176 65.9377C37.8687 66.0044 37.8982 66.0624 37.913 66.0982C37.94 66.1635 37.9003 66.1093 37.9003 65.8525L31.572 65.8525ZM33.8502 70.8308C35.1105 71.7761 36.5752 72.223 38.1112 72.223L38.1112 65.8947C37.8473 65.8947 37.7368 65.8354 37.6472 65.7681L33.8502 70.8308ZM38.1112 72.223C39.2579 72.223 40.3733 72.0009 41.4409 71.5902L39.1692 65.6837C38.7743 65.8356 38.4272 65.8947 38.1112 65.8947L38.1112 72.223ZM41.5515 71.5453C42.7795 71.019 43.8461 70.239 44.747 69.2563L40.082 64.9801C39.7453 65.3474 39.4057 65.5799 39.0586 65.7287L41.5515 71.5453ZM44.6519 69.3556C45.6772 68.3303 46.4358 67.0989 46.9667 65.7337L41.0687 63.44C40.812 64.0999 40.5018 64.5561 40.1771 64.8808L44.6519 69.3556ZM46.9667 65.7337C47.5325 64.2787 47.7725 62.6935 47.7725 61.043L41.4442 61.043C41.4442 62.0926 41.2904 62.8699 41.0687 63.44L46.9667 65.7337ZM47.7725 61.043C47.7725 60.0086 47.5987 58.9951 47.2445 58.021L41.2972 60.1836C41.3929 60.447 41.4442 60.7273 41.4442 61.043L47.7725 61.043ZM47.3405 58.3349C46.9496 56.7713 45.9746 55.5915 44.7603 54.782L41.25 60.0475C41.3341 60.1036 41.3311 60.1187 41.2965 60.0726C41.2797 60.0502 41.2597 60.0189 41.2412 59.98C41.2226 59.9411 41.2095 59.9031 41.2011 59.8697L47.3405 58.3349ZM44.8662 54.8558C43.7694 54.0581 42.4145 53.5675 41.0379 53.2397L39.5722 59.396C40.5582 59.6307 41.0034 59.8714 41.1441 59.9737L44.8662 54.8558ZM41.1743 53.2754C39.5991 52.8253 37.7268 52.6474 35.6643 52.6474L35.6643 58.9757C37.4268 58.9757 38.6485 59.1353 39.4358 59.3603L41.1743 53.2754ZM35.6643 52.6474C35.0416 52.6474 34.4015 52.682 33.7463 52.7475L34.3759 59.0444C34.8457 58.9974 35.2745 58.9757 35.6643 58.9757L35.6643 52.6474ZM34.0611 52.7318C33.3596 52.7318 32.5049 52.8068 31.5592 52.925L32.3441 59.2044C33.1985 59.0976 33.7501 59.0601 34.0611 59.0601L34.0611 52.7318ZM31.5592 52.925C30.5925 53.0458 29.4424 53.2234 28.1188 53.4536L29.2031 59.6883C30.467 59.4685 31.5108 59.3086 32.3441 59.2044L31.5592 52.925ZM28.2334 53.4358C26.9455 53.6114 25.3029 53.8712 23.3168 54.2117L24.386 60.449C26.3376 60.1145 27.9013 59.868 29.0885 59.7061L28.2334 53.4358ZM26.9821 57.7895C27.5974 53.5938 28.3538 48.7753 29.2516 43.3324L23.0076 42.3024C22.1054 47.7723 21.3429 52.6292 20.7207 56.8712L26.9821 57.7895ZM29.2524 43.3272C30.1477 37.8437 31.2402 31.6524 32.5306 24.7515L26.3101 23.5883C25.0129 30.5254 23.9116 36.7657 23.0068 42.3075L29.2524 43.3272ZM29.5365 27.3319L61.6844 26.1507L61.4521 19.8266L29.3041 21.0079L29.5365 27.3319ZM58.4276 22.6033L56.7401 36.3568L63.0213 37.1275L64.7089 23.374L58.4276 22.6033ZM59.7678 33.58C56.619 33.6925 53.4139 33.805 50.1526 33.9174L50.3707 40.242C53.6345 40.1294 56.8422 40.0169 59.9936 39.9043L59.7678 33.58ZM50.1507 33.9175C46.9278 34.0306 43.6214 34.1719 40.2314 34.3414L40.5474 40.6618C43.9077 40.4938 47.1827 40.3539 50.3726 40.2419L50.1507 33.9175ZM37.2571 37.0541C37.1432 37.8509 37.0016 38.8708 36.8324 40.1117L43.1027 40.9667C43.271 39.7325 43.4106 38.7273 43.5218 37.9491L37.2571 37.0541ZM36.8164 40.2527C36.7066 41.4607 36.5687 42.785 36.4024 44.2266L42.689 44.952C42.8601 43.4686 43.0035 42.0928 43.1187 40.8257L36.8164 40.2527ZM39.5457 47.7535C42.9653 47.7535 45.7404 48.0759 47.9275 48.6592L49.5581 42.5445C46.6826 41.7777 43.3262 41.4252 39.5457 41.4252L39.5457 47.7535ZM47.9275 48.6592C50.1897 49.2624 51.8407 50.0453 53.0039 50.9177L56.8009 45.855C54.814 44.3648 52.3586 43.2913 49.5581 42.5445L47.9275 48.6592ZM53.0039 50.9177C54.1785 51.7986 54.9201 52.7669 55.3538 53.815L61.2013 51.3954C60.2849 49.1809 58.7764 47.3366 56.8009 45.855L53.0039 50.9177ZM55.4076 53.9377C55.9206 55.0427 56.2103 56.3508 56.2103 57.921L62.5386 57.921C62.5386 55.5536 62.0969 53.3178 61.1474 51.2727L55.4076 53.9377ZM99.8685 61.8024L96.8778 60.7692L96.8721 60.7855L96.8667 60.8018L99.8685 61.8024ZM96.0715 70.4933L93.3002 68.9663L93.2881 68.9881L93.2764 69.0102L96.0715 70.4933ZM90.9245 77.7498L93.1931 79.9555L93.2082 79.9399L93.2231 79.9242L90.9245 77.7498ZM84.343 82.6437L85.758 85.4738L85.7711 85.4673L85.7842 85.4606L84.343 82.6437ZM69.9144 82.9812L68.4299 85.7755L68.4476 85.7849L68.4653 85.7941L69.9144 82.9812ZM65.4424 79.0998L62.8096 80.855L62.8436 80.906L62.8796 80.9556L65.4424 79.0998ZM62.911 73.2778L59.8414 74.0452L59.8437 74.0544L59.846 74.0637L62.911 73.2778ZM63.0798 56.4866L59.9771 55.866L63.0798 56.4866ZM65.9486 46.6144L63.0144 45.4304L63.0054 45.4527L62.9967 45.4751L65.9486 46.6144ZM70.5894 37.4172L67.8946 35.7589L70.5894 37.4172ZM76.4115 29.7388L74.1452 27.5307L74.1305 27.5458L74.116 27.5611L76.4115 29.7388ZM83.2461 24.5074L84.7385 27.2975L84.7634 27.2842L84.7882 27.2704L83.2461 24.5074ZM96.1559 24.0855L94.3349 26.6732L94.3569 26.6887L94.3792 26.7038L96.1559 24.0855ZM100.037 28.4732L97.2594 29.9883L97.2594 29.9883L100.037 28.4732ZM102.231 35.0546L99.1158 35.6085L99.1229 35.6487L99.1311 35.6887L102.231 35.0546ZM75.7365 68.2995L72.9312 69.7631V69.7631L75.7365 68.2995ZM84.8493 68.1307L82.8629 65.6677L84.8493 68.1307ZM89.3213 62.8993L92.041 64.5164L92.0504 64.5006L92.0596 64.4847L89.3213 62.8993ZM92.1901 55.9803L95.2428 56.8129L95.2451 56.8042L95.2474 56.7956L92.1901 55.9803ZM91.7682 42.6486L88.9763 44.1377L88.9954 44.1734L89.0153 44.2086L91.7682 42.6486ZM82.6554 42.4799L84.8928 44.7173L84.9132 44.6969L84.9331 44.6762L82.6554 42.4799ZM78.6053 48.3019L75.7752 46.8869L75.7682 46.9008L75.7615 46.9147L78.6053 48.3019ZM75.8208 55.8116L78.875 56.6387L75.8208 55.8116ZM99.8263 42.9862C99.8263 45.8477 99.5879 48.8044 99.1056 51.8586L105.357 52.8456C105.887 49.487 106.155 46.1998 106.155 42.9862L99.8263 42.9862ZM99.1056 51.8586C98.6286 54.8799 97.8864 57.8495 96.8778 60.7692L102.859 62.8355C103.988 59.5676 104.821 56.237 105.357 52.8456L99.1056 51.8586ZM96.8667 60.8018C95.9138 63.6605 94.7248 66.381 93.3002 68.9663L98.8428 72.0203C100.456 69.093 101.798 66.0195 102.87 62.803L96.8667 60.8018ZM93.2764 69.0102C91.9357 71.537 90.3822 73.7186 88.6258 75.5754L93.2231 79.9242C95.4044 77.6183 97.2822 74.9622 98.8666 71.9764L93.2764 69.0102ZM88.6558 75.5441C86.918 77.3315 85.0013 78.7526 82.9018 79.8268L85.7842 85.4606C88.5224 84.0596 90.9933 82.2182 93.1931 79.9555L88.6558 75.5441ZM82.9279 79.8136C81.033 80.761 78.9342 81.2515 76.5802 81.2515L76.5802 87.5798C79.8514 87.5798 82.9278 86.8889 85.758 85.4738L82.9279 79.8136ZM76.5802 81.2515C74.3784 81.2515 72.6771 80.845 71.3634 80.1683L68.4653 85.7941C70.8644 87.0299 73.6069 87.5798 76.5802 87.5798L76.5802 81.2515ZM71.3989 80.1869C70.0198 79.4543 68.8998 78.4795 68.0052 77.244L62.8796 80.9556C64.3475 82.9828 66.2088 84.5956 68.4299 85.7755L71.3989 80.1869ZM68.0751 77.3447C67.1694 75.986 66.4603 74.3805 65.9761 72.4919L59.846 74.0637C60.4868 76.5627 61.4653 78.8385 62.8096 80.855L68.0751 77.3447ZM65.9807 72.5103C65.4877 70.5382 65.2314 68.3795 65.2314 66.0213L58.9031 66.0213C58.9031 68.8382 59.2093 71.5171 59.8414 74.0452L65.9807 72.5103ZM65.2314 66.0213C65.2314 63.2773 65.5422 60.3085 66.1825 57.1071L59.9771 55.866C59.2673 59.4149 58.9031 62.8025 58.9031 66.0213L65.2314 66.0213ZM66.1825 57.1071C66.8222 53.9087 67.7281 50.7915 68.9006 47.7537L62.9967 45.4751C61.6941 48.85 60.6874 52.3143 59.9771 55.866L66.1825 57.1071ZM68.8829 47.7984C70.1108 44.7555 71.5778 41.8485 73.2842 39.0756L67.8946 35.7589C66.001 38.8361 64.3741 42.0606 63.0144 45.4304L68.8829 47.7984ZM73.2842 39.0756C74.9847 36.3123 76.7951 33.9319 78.707 31.9166L74.116 27.5611C71.8653 29.9335 69.7943 32.672 67.8946 35.7589L73.2842 39.0756ZM78.6777 31.947C80.6149 29.9589 82.6372 28.4215 84.7385 27.2975L81.7537 21.7173C79.0173 23.1809 76.4832 25.1311 74.1452 27.5307L78.6777 31.947ZM84.7882 27.2704C86.7699 26.1643 88.7459 25.6465 90.7557 25.6465L90.7557 19.3182C87.5903 19.3182 84.5599 20.1505 81.704 21.7445L84.7882 27.2704ZM90.7557 25.6465C92.2671 25.6465 93.4126 26.0242 94.3349 26.6732L97.9768 21.4979C95.8616 20.0094 93.4069 19.3182 90.7557 19.3182L90.7557 25.6465ZM94.3792 26.7038C95.493 27.4596 96.4609 28.5244 97.2594 29.9883L102.815 26.958C101.588 24.7093 99.9688 22.849 97.9326 21.4673L94.3792 26.7038ZM97.2594 29.9883C98.0773 31.4878 98.7131 33.3436 99.1158 35.6085L105.346 34.5008C104.849 31.703 104.022 29.1712 102.815 26.958L97.2594 29.9883ZM99.1311 35.6887C99.5902 37.9332 99.8263 40.3629 99.8263 42.9862L106.155 42.9862C106.155 39.9842 105.884 37.1262 105.331 34.4206L99.1311 35.6887ZM71.5598 63.2368C71.5598 65.6244 71.9415 67.8663 72.9312 69.7631L78.5418 66.8358C78.1814 66.1451 77.8881 65.0118 77.8881 63.2368L71.5598 63.2368ZM72.9312 69.7631C73.5119 70.8762 74.3606 71.8375 75.5093 72.498C76.6445 73.1508 77.8884 73.4043 79.1116 73.4043L79.1116 67.076C78.9335 67.076 78.8181 67.0577 78.7519 67.0418C78.6884 67.0266 78.6648 67.0125 78.6637 67.012C78.662 67.011 78.6612 67.0104 78.6603 67.0096C78.6592 67.0088 78.6548 67.0052 78.647 66.9968C78.6322 66.9808 78.5933 66.9346 78.5418 66.8358L72.9312 69.7631ZM79.1116 73.4043C81.9726 73.4043 84.5752 72.4166 86.8356 70.5937L82.8629 65.6677C81.6357 66.6574 80.4131 67.076 79.1116 67.076L79.1116 73.4043ZM86.8356 70.5937C88.895 68.9329 90.6268 66.8948 92.041 64.5164L86.6016 61.2822C85.5407 63.0664 84.2911 64.516 82.8629 65.6677L86.8356 70.5937ZM92.0596 64.4847C93.4392 62.1018 94.4987 59.5412 95.2428 56.8129L89.1374 55.1478C88.5315 57.3696 87.6784 59.4217 86.5829 61.3139L92.0596 64.4847ZM95.2474 56.7956C95.9821 54.0408 96.3668 51.3743 96.3668 48.8082L90.0385 48.8082C90.0385 50.7423 89.7482 52.8572 89.1328 55.165L95.2474 56.7956ZM96.3668 48.8082C96.3668 45.9759 95.8059 43.3559 94.5211 41.0887L89.0153 44.2086C89.6431 45.3165 90.0385 46.8028 90.0385 48.8082L96.3668 48.8082ZM94.5601 41.1596C93.8695 39.8647 92.8871 38.7649 91.5775 38.0094C90.2778 37.2596 88.8374 36.9531 87.3806 36.9531L87.3806 43.2815C87.9488 43.2815 88.2523 43.397 88.4151 43.4909C88.5681 43.5792 88.7669 43.7451 88.9763 44.1377L94.5601 41.1596ZM87.3806 36.9531C84.6274 36.9531 82.2819 38.3089 80.3777 40.2835L84.9331 44.6762C86.0666 43.5008 86.8712 43.2815 87.3806 43.2815L87.3806 36.9531ZM80.418 40.2425C78.6108 42.0497 77.075 44.2873 75.7752 46.8869L81.4354 49.717C82.4982 47.5914 83.6624 45.9477 84.8928 44.7173L80.418 40.2425ZM75.7615 46.9147C74.5413 49.4159 73.5456 52.1085 72.7667 54.9844L78.875 56.6387C79.5586 54.1144 80.4192 51.8006 81.4492 49.6892L75.7615 46.9147ZM72.7667 54.9844C71.9793 57.8917 71.5598 60.6493 71.5598 63.2368L77.8881 63.2368C77.8881 61.3242 78.1998 59.1316 78.875 56.6387L72.7667 54.9844ZM141.52 61.8024L138.529 60.7692L138.524 60.7855L138.518 60.8018L141.52 61.8024ZM137.723 70.4933L134.952 68.9663L134.94 68.9881L134.928 69.0102L137.723 70.4933ZM132.576 77.7498L134.845 79.9555L134.86 79.9399L134.875 79.9242L132.576 77.7498ZM125.995 82.6437L127.41 85.4738L127.423 85.4673L127.436 85.4606L125.995 82.6437ZM111.566 82.9812L110.082 85.7755L110.099 85.7849L110.117 85.7941L111.566 82.9812ZM107.094 79.0998L104.461 80.855L104.495 80.906L104.531 80.9556L107.094 79.0998ZM104.563 73.2778L101.493 74.0452L101.495 74.0544L101.498 74.0637L104.563 73.2778ZM104.731 56.4866L101.629 55.866L104.731 56.4866ZM107.6 46.6144L104.666 45.4304L104.657 45.4527L104.648 45.4751L107.6 46.6144ZM112.241 37.4172L109.546 35.7589L112.241 37.4172ZM118.063 29.7388L115.797 27.5307L115.782 27.5458L115.768 27.5611L118.063 29.7388ZM124.898 24.5074L126.39 27.2975L126.415 27.2842L126.44 27.2704L124.898 24.5074ZM137.807 24.0855L135.987 26.6732L136.009 26.6887L136.031 26.7038L137.807 24.0855ZM141.689 28.4732L138.911 29.9883L138.911 29.9883L141.689 28.4732ZM143.883 35.0546L140.767 35.6085L140.775 35.6487L140.783 35.6887L143.883 35.0546ZM117.388 68.2995L114.583 69.7631L114.583 69.7631L117.388 68.2995ZM126.501 68.1307L124.515 65.6677L126.501 68.1307ZM130.973 62.8993L133.693 64.5164L133.702 64.5006L133.711 64.4847L130.973 62.8993ZM133.842 55.9803L136.894 56.8129L136.897 56.8042L136.899 56.7956L133.842 55.9803ZM133.42 42.6486L130.628 44.1377L130.647 44.1734L130.667 44.2086L133.42 42.6486ZM124.307 42.4799L126.544 44.7173L126.565 44.6969L126.585 44.6762L124.307 42.4799ZM120.257 48.3019L117.427 46.8869L117.42 46.9008L117.413 46.9147L120.257 48.3019ZM117.472 55.8116L120.527 56.6387L117.472 55.8116ZM141.478 42.9862C141.478 45.8477 141.239 48.8044 140.757 51.8586L147.008 52.8456C147.538 49.487 147.806 46.1998 147.806 42.9862L141.478 42.9862ZM140.757 51.8586C140.28 54.8799 139.538 57.8495 138.529 60.7692L144.511 62.8355C145.64 59.5676 146.473 56.237 147.008 52.8456L140.757 51.8586ZM138.518 60.8018C137.565 63.6605 136.376 66.381 134.952 68.9663L140.494 72.0203C142.107 69.093 143.45 66.0195 144.522 62.803L138.518 60.8018ZM134.928 69.0102C133.587 71.537 132.034 73.7186 130.277 75.5754L134.875 79.9242C137.056 77.6183 138.934 74.9622 140.518 71.9764L134.928 69.0102ZM130.307 75.5441C128.57 77.3315 126.653 78.7526 124.553 79.8268L127.436 85.4606C130.174 84.0596 132.645 82.2182 134.845 79.9555L130.307 75.5441ZM124.58 79.8136C122.685 80.761 120.586 81.2515 118.232 81.2515L118.232 87.5798C121.503 87.5798 124.579 86.8889 127.41 85.4738L124.58 79.8136ZM118.232 81.2515C116.03 81.2515 114.329 80.845 113.015 80.1683L110.117 85.7941C112.516 87.0299 115.259 87.5798 118.232 87.5798L118.232 81.2515ZM113.05 80.1869C111.671 79.4543 110.551 78.4795 109.657 77.244L104.531 80.9556C105.999 82.9828 107.86 84.5956 110.082 85.7755L113.05 80.1869ZM109.727 77.3447C108.821 75.986 108.112 74.3805 107.628 72.4919L101.498 74.0637C102.138 76.5627 103.117 78.8385 104.461 80.855L109.727 77.3447ZM107.632 72.5103C107.139 70.5382 106.883 68.3795 106.883 66.0213L100.555 66.0213C100.555 68.8382 100.861 71.5171 101.493 74.0452L107.632 72.5103ZM106.883 66.0213C106.883 63.2773 107.194 60.3085 107.834 57.1071L101.629 55.866C100.919 59.4149 100.555 62.8025 100.555 66.0213L106.883 66.0213ZM107.834 57.1071C108.474 53.9087 109.38 50.7915 110.552 47.7537L104.648 45.4751C103.346 48.85 102.339 52.3143 101.629 55.866L107.834 57.1071ZM110.535 47.7984C111.762 44.7555 113.229 41.8485 114.936 39.0756L109.546 35.7589C107.653 38.8361 106.026 42.0606 104.666 45.4304L110.535 47.7984ZM114.936 39.0756C116.636 36.3123 118.447 33.9319 120.359 31.9166L115.768 27.5611C113.517 29.9335 111.446 32.672 109.546 35.7589L114.936 39.0756ZM120.329 31.947C122.266 29.9589 124.289 28.4215 126.39 27.2975L123.405 21.7173C120.669 23.1809 118.135 25.1311 115.797 27.5307L120.329 31.947ZM126.44 27.2704C128.422 26.1643 130.398 25.6465 132.407 25.6465L132.407 19.3182C129.242 19.3182 126.212 20.1505 123.356 21.7445L126.44 27.2704ZM132.407 25.6465C133.919 25.6465 135.064 26.0242 135.987 26.6732L139.628 21.4979C137.513 20.0094 135.059 19.3182 132.407 19.3182L132.407 25.6465ZM136.031 26.7038C137.145 27.4596 138.113 28.5244 138.911 29.9883L144.467 26.958C143.24 24.7093 141.62 22.849 139.584 21.4673L136.031 26.7038ZM138.911 29.9883C139.729 31.4878 140.365 33.3436 140.767 35.6085L146.998 34.5008C146.501 31.703 145.674 29.1712 144.467 26.958L138.911 29.9883ZM140.783 35.6887C141.242 37.9332 141.478 40.3629 141.478 42.9862L147.806 42.9862C147.806 39.9842 147.536 37.1262 146.983 34.4206L140.783 35.6887ZM113.211 63.2368C113.211 65.6244 113.593 67.8663 114.583 69.7631L120.193 66.8358C119.833 66.1451 119.54 65.0118 119.54 63.2368L113.211 63.2368ZM114.583 69.7631C115.164 70.8762 116.012 71.8375 117.161 72.498C118.296 73.1508 119.54 73.4043 120.763 73.4043L120.763 67.076C120.585 67.076 120.47 67.0577 120.403 67.0418C120.34 67.0266 120.316 67.0125 120.315 67.012C120.314 67.011 120.313 67.0104 120.312 67.0096C120.311 67.0088 120.306 67.0052 120.299 66.9968C120.284 66.9808 120.245 66.9346 120.193 66.8358L114.583 69.7631ZM120.763 73.4043C123.624 73.4043 126.227 72.4166 128.487 70.5937L124.515 65.6677C123.287 66.6574 122.065 67.076 120.763 67.076L120.763 73.4043ZM128.487 70.5937C130.547 68.9329 132.278 66.8948 133.693 64.5164L128.253 61.2822C127.192 63.0664 125.943 64.516 124.515 65.6677L128.487 70.5937ZM133.711 64.4847C135.091 62.1018 136.15 59.5412 136.894 56.8129L130.789 55.1478C130.183 57.3696 129.33 59.4217 128.235 61.3139L133.711 64.4847ZM136.899 56.7956C137.634 54.0408 138.018 51.3743 138.018 48.8082L131.69 48.8082C131.69 50.7423 131.4 52.8572 130.784 55.165L136.899 56.7956ZM138.018 48.8082C138.018 45.9759 137.457 43.3559 136.173 41.0887L130.667 44.2086C131.295 45.3165 131.69 46.8028 131.69 48.8082L138.018 48.8082ZM136.212 41.1596C135.521 39.8647 134.539 38.7649 133.229 38.0094C131.929 37.2596 130.489 36.9531 129.032 36.9531L129.032 43.2815C129.6 43.2815 129.904 43.397 130.067 43.4909C130.22 43.5792 130.419 43.7451 130.628 44.1377L136.212 41.1596ZM129.032 36.9531C126.279 36.9531 123.933 38.3089 122.029 40.2835L126.585 44.6762C127.718 43.5008 128.523 43.2815 129.032 43.2815L129.032 36.9531ZM122.07 40.2425C120.262 42.0497 118.727 44.2873 117.427 46.8869L123.087 49.717C124.15 47.5914 125.314 45.9477 126.544 44.7173L122.07 40.2425ZM117.413 46.9147C116.193 49.4159 115.197 52.1085 114.418 54.9844L120.527 56.6387C121.21 54.1144 122.071 51.8006 123.101 49.6892L117.413 46.9147ZM114.418 54.9844C113.631 57.8917 113.211 60.6493 113.211 63.2368L119.54 63.2368C119.54 61.3242 119.851 59.1316 120.527 56.6387L114.418 54.9844ZM142.586 84.5844L139.492 83.9214L138.536 88.3831L143.05 87.7144L142.586 84.5844ZM147.311 61.6336L150.416 62.2451L150.422 62.2128L150.428 62.1804L147.311 61.6336ZM149.083 51.6771L145.969 51.1155L149.083 51.6771ZM150.771 41.4673L147.65 40.9472L147.645 40.9725L147.642 40.998L150.771 41.4673ZM152.205 31.6795L149.072 31.2397L149.068 31.2634L149.065 31.2871L152.205 31.6795ZM153.218 22.9886L153.492 19.8364L150.339 19.5622L150.065 22.7145L153.218 22.9886ZM157.605 23.3261L157.388 26.4828L157.442 26.4865L157.496 26.4884L157.605 23.3261ZM162.162 23.5793L161.909 26.7334L161.93 26.735L161.951 26.7364L162.162 23.5793ZM167.224 23.748L170.294 24.5155L171.277 20.5839L167.224 20.5839L167.224 23.748ZM166.971 25.0137L163.858 24.4477L163.858 24.4477L166.971 25.0137ZM166.549 27.2919L169.652 27.9124L169.656 27.8937L169.659 27.875L166.549 27.2919ZM165.959 30.1607L162.862 29.5089L162.846 29.5877L162.833 29.6672L165.959 30.1607ZM165.368 33.3671L162.272 32.7152L162.263 32.758L162.255 32.8011L165.368 33.3671ZM163.849 41.7205L160.736 41.1545L159.931 45.5813L164.369 44.8416L163.849 41.7205ZM164.355 41.6361L164.876 44.7572L166.283 44.5227L167.039 43.3131L164.355 41.6361ZM166.718 37.9235L164.071 36.1894L164.064 36.2009L164.056 36.2124L166.718 37.9235ZM173.3 27.6294L175.946 29.3634L175.96 29.343L175.973 29.3224L173.3 27.6294ZM176 23.3261L175.747 20.1721L174.152 20.2997L173.309 21.6607L176 23.3261ZM192.875 21.4698L195.411 23.3619L200.073 17.1138L192.375 18.3454L192.875 21.4698ZM185.197 31.9327L187.752 33.7996L187.757 33.7917L187.763 33.7837L185.197 31.9327ZM181.906 36.4891L179.331 34.6499L179.309 34.6809L179.288 34.7124L181.906 36.4891ZM178.7 41.1298L181.287 42.9508L181.287 42.9508L178.7 41.1298ZM175.662 45.5175L173.046 43.7382L173.021 43.7747L172.997 43.8118L175.662 45.5175ZM173.215 49.3989L170.525 47.7334L169.851 48.8217L170.123 50.0723L173.215 49.3989ZM182.75 82.053L182.612 85.2142L187.131 85.4107L185.767 81.0987L182.75 82.053ZM178.784 81.9687L178.652 85.1301L178.718 85.1328L178.784 85.1328L178.784 81.9687ZM170.093 81.9687L170.093 85.1328L170.152 85.1328L170.21 85.1307L170.093 81.9687ZM165.368 82.053L162.234 82.487L162.625 85.3137L165.477 85.2153L165.368 82.053ZM163.68 70.5777L160.546 71.013L160.55 71.0376L160.554 71.0621L163.68 70.5777ZM162.077 59.0179L165.212 58.5839L164.248 51.6236L159.675 56.9587L162.077 59.0179ZM160.559 60.7899L158.156 58.7306L157.653 59.3178L157.477 60.0709L160.559 60.7899ZM159.208 67.0338L156.108 66.3997L156.102 66.4337L156.095 66.4678L159.208 67.0338ZM157.858 74.2059L154.753 73.5999L154.751 73.6114L154.748 73.6228L157.858 74.2059ZM156.255 82.5593L156.719 85.6893L158.93 85.3617L159.36 83.1681L156.255 82.5593ZM145.68 85.2474C147.371 77.3561 148.95 69.6886 150.416 62.2451L144.207 61.0221C142.748 68.4291 141.176 76.0622 139.492 83.9214L145.68 85.2474ZM150.428 62.1804C150.989 58.9793 151.579 55.6654 152.197 52.2386L145.969 51.1155C145.35 54.5515 144.758 57.8753 144.195 61.0869L150.428 62.1804ZM152.197 52.2386C152.821 48.7772 153.389 45.3433 153.9 41.9367L147.642 40.998C147.14 44.3416 146.583 47.7141 145.969 51.1155L152.197 52.2386ZM153.892 41.9875C154.461 38.5732 154.945 35.2679 155.345 32.072L149.065 31.2871C148.677 34.3913 148.206 37.6113 147.65 40.9472L153.892 41.9875ZM155.339 32.1193C155.795 28.8707 156.139 25.9172 156.37 23.2627L150.065 22.7145C149.846 25.2352 149.516 28.0757 149.072 31.2397L155.339 32.1193ZM152.944 26.1409C154.26 26.2554 155.742 26.3693 157.388 26.4828L157.823 20.1695C156.206 20.0579 154.763 19.9469 153.492 19.8364L152.944 26.1409ZM157.496 26.4884C159.087 26.5433 160.557 26.6252 161.909 26.7334L162.414 20.4252C160.953 20.3083 159.386 20.2215 157.714 20.1639L157.496 26.4884ZM161.951 26.7364C163.709 26.8536 165.466 26.9122 167.224 26.9122L167.224 20.5839C165.607 20.5839 163.99 20.53 162.372 20.4221L161.951 26.7364ZM164.155 22.9806C164.07 23.3196 163.969 23.8381 163.858 24.4477L170.084 25.5797C170.199 24.9518 170.266 24.6265 170.294 24.5155L164.155 22.9806ZM163.858 24.4477C163.747 25.0588 163.607 25.8121 163.439 26.7088L169.659 27.875C169.829 26.9716 169.97 26.2061 170.084 25.5797L163.858 24.4477ZM163.447 26.6713C163.28 27.5023 163.086 28.4479 162.862 29.5089L169.055 30.8126C169.282 29.736 169.481 28.769 169.652 27.9124L163.447 26.6713ZM162.833 29.6672C162.673 30.6825 162.486 31.6985 162.272 32.7152L168.464 34.0189C168.7 32.8981 168.907 31.7765 169.084 30.6542L162.833 29.6672ZM162.255 32.8011C161.805 35.2761 161.299 38.0606 160.736 41.1545L166.962 42.2865C167.525 39.1927 168.031 36.4082 168.481 33.9331L162.255 32.8011ZM164.369 44.8416L164.876 44.7572L163.835 38.515L163.329 38.5994L164.369 44.8416ZM167.039 43.3131C167.591 42.4299 168.37 41.2054 169.38 39.6345L164.056 36.2124C163.041 37.7917 162.245 39.0423 161.672 39.9591L167.039 43.3131ZM169.365 39.6575C170.447 38.0058 171.556 36.271 172.692 34.4534L167.326 31.0994C166.212 32.882 165.127 34.5786 164.071 36.1894L169.365 39.6575ZM172.692 34.4534C173.806 32.6709 174.891 30.9743 175.946 29.3634L170.653 25.8954C169.571 27.5471 168.462 29.2819 167.326 31.0994L172.692 34.4534ZM175.973 29.3224C177.045 27.6293 177.951 26.1851 178.69 24.9916L173.309 21.6607C172.586 22.8297 171.692 24.2544 170.626 25.9364L175.973 29.3224ZM176.252 26.4802C179.085 26.2535 181.919 25.9985 184.752 25.7152L184.123 19.4183C181.331 19.6975 178.539 19.9487 175.747 20.1721L176.252 26.4802ZM184.752 25.7152C187.627 25.4277 190.502 25.054 193.375 24.5943L192.375 18.3454C189.624 18.7857 186.873 19.1433 184.123 19.4183L184.752 25.7152ZM190.339 19.5778C187.686 23.1346 185.116 26.6359 182.631 30.0816L187.763 33.7837C190.228 30.3667 192.777 26.8928 195.411 23.3619L190.339 19.5778ZM182.642 30.0658C181.566 31.5381 180.463 33.0662 179.331 34.6499L184.481 38.3282C185.6 36.7618 186.69 35.2523 187.752 33.7996L182.642 30.0658ZM179.288 34.7124C178.229 36.273 177.17 37.8051 176.112 39.3089L181.287 42.9508C182.367 41.417 183.446 39.8553 184.524 38.2657L179.288 34.7124ZM176.112 39.3089C175.034 40.8403 174.012 42.3168 173.046 43.7382L178.279 47.2967C179.225 45.9056 180.227 44.457 181.287 42.9508L176.112 39.3089ZM172.997 43.8118C172.09 45.2289 171.266 46.5363 170.525 47.7334L175.906 51.0643C176.627 49.8989 177.434 48.6187 178.327 47.2231L172.997 43.8118ZM170.123 50.0723C171.381 55.8465 172.869 61.4276 174.588 66.8146L180.617 64.8905C178.961 59.7021 177.524 54.3141 176.307 48.7254L170.123 50.0723ZM174.588 66.8146C176.275 72.0995 177.99 77.4971 179.733 83.0073L185.767 81.0987C184.022 75.5836 182.306 70.1808 180.617 64.8905L174.588 66.8146ZM182.887 78.8919C181.546 78.8335 180.178 78.8045 178.784 78.8045L178.784 85.1328C180.09 85.1328 181.366 85.16 182.612 85.2142L182.887 78.8919ZM178.916 78.8072C177.524 78.7492 176.158 78.7201 174.818 78.7201L174.818 85.0485C176.066 85.0485 177.344 85.0756 178.652 85.1301L178.916 78.8072ZM174.818 78.7201C173.151 78.7201 171.537 78.7489 169.976 78.8067L170.21 85.1307C171.687 85.076 173.223 85.0485 174.818 85.0485L174.818 78.7201ZM170.093 78.8045C168.535 78.8045 166.924 78.8333 165.259 78.8908L165.477 85.2153C167.075 85.1602 168.613 85.1328 170.093 85.1328L170.093 78.8045ZM168.502 81.6191C167.993 77.9444 167.428 74.1024 166.807 70.0932L160.554 71.0621C161.17 75.0407 161.73 78.849 162.234 82.487L168.502 81.6191ZM166.815 70.1424C166.252 66.0926 165.718 62.2398 165.212 58.5839L158.943 59.4519C159.449 63.1087 159.984 66.9624 160.546 71.013L166.815 70.1424ZM159.675 56.9587L158.156 58.7306L162.961 62.8491L164.48 61.0771L159.675 56.9587ZM157.477 60.0709C157.075 61.7962 156.618 63.9078 156.108 66.3997L162.308 67.6679C162.811 65.2096 163.255 63.1587 163.64 61.5088L157.477 60.0709ZM156.095 66.4678C155.648 68.9305 155.2 71.3078 154.753 73.5999L160.964 74.8119C161.417 72.4914 161.869 70.0873 162.322 67.5998L156.095 66.4678ZM154.748 73.6228C154.244 76.3138 153.711 79.0897 153.15 81.9505L159.36 83.1681C159.924 80.2913 160.46 77.4982 160.968 74.789L154.748 73.6228ZM155.792 79.4293L142.122 81.4544L143.05 87.7144L156.719 85.6893L155.792 79.4293Z" fill="#F8DEB4"/>
</g>
<path d="M58.3619 63.9962L55.3521 63.0201L58.3619 63.9962ZM55.5774 70.1558L52.8443 68.5615L52.8372 68.5737L52.8302 68.5859L55.5774 70.1558ZM51.5273 75.8091L49.146 73.7255L49.146 73.7255L51.5273 75.8091ZM46.4646 80.5342L44.5661 78.0029L44.5468 78.0174L44.5276 78.0323L46.4646 80.5342ZM40.9801 83.7406L42.1848 86.6664L40.9801 83.7406ZM29.5891 83.825L28.331 86.7283L28.3482 86.7357L28.3654 86.743L29.5891 83.825ZM25.2858 80.7874L22.855 82.813L22.9009 82.868L22.9491 82.9209L25.2858 80.7874ZM22.6701 75.9779L25.6719 74.9772H25.6719L22.6701 75.9779ZM21.8263 66.5275L18.6764 66.2276L18.6693 66.3022L18.6657 66.377L21.8263 66.5275ZM22.1638 62.8149L22.4097 59.6603L19.2832 59.4167L19.0116 62.5408L22.1638 62.8149ZM35.158 63.8275L38.1598 64.828L39.44 60.9874L35.4038 60.6729L35.158 63.8275ZM35.7487 68.2995L33.8502 70.8308H33.8502L35.7487 68.2995ZM40.3051 68.637L41.4409 71.5902L41.4966 71.5688L41.5515 71.5453L40.3051 68.637ZM42.4145 67.1182L40.1771 64.8808L40.1285 64.9294L40.082 64.9801L42.4145 67.1182ZM44.0177 64.5869L41.0687 63.44L44.0177 64.5869ZM44.2708 59.1023L41.2011 59.8697L41.241 60.0292L41.2972 60.1836L44.2708 59.1023ZM43.0051 57.4147L41.1441 59.9737L41.1963 60.0117L41.25 60.0475L43.0051 57.4147ZM40.3051 56.3178L39.4358 59.3603L39.5036 59.3796L39.5722 59.396L40.3051 56.3178ZM34.0611 55.8959L34.0611 59.0601L34.2189 59.0601L34.3759 59.0444L34.0611 55.8959ZM28.6609 56.571L29.0885 59.7061L29.1459 59.6983L29.2031 59.6883L28.6609 56.571ZM23.8514 57.3304L20.7207 56.8712L20.0879 61.1859L24.386 60.449L23.8514 57.3304ZM26.1296 42.8174L29.2516 43.3324L29.2524 43.3272L26.1296 42.8174ZM29.4203 24.1699L29.3041 21.0079L26.7752 21.1008L26.3101 23.5883L29.4203 24.1699ZM61.5683 22.9886L64.7089 23.374L65.1608 19.6903L61.4521 19.8266L61.5683 22.9886ZM59.8807 36.7422L59.9936 39.9043L62.6924 39.808L63.0213 37.1275L59.8807 36.7422ZM50.2616 37.0797L50.1526 33.9174L50.1507 33.9175L50.2616 37.0797ZM40.3894 37.5016L40.2314 34.3414L37.626 34.4716L37.2571 37.0541L40.3894 37.5016ZM39.9675 40.5392L36.8324 40.1117L36.8228 40.182L36.8164 40.2527L39.9675 40.5392ZM39.5457 44.5893L36.4024 44.2266L35.9954 47.7535L39.5457 47.7535L39.5457 44.5893ZM48.7428 45.6019L49.5581 42.5445L48.7428 45.6019ZM54.9024 48.3863L56.8009 45.855L54.9024 48.3863ZM58.2775 52.6052L55.3538 53.815L55.3794 53.8769L55.4076 53.9377L58.2775 52.6052ZM56.2103 57.921C56.2103 59.5237 55.9361 61.2193 55.3521 63.0201L61.3717 64.9724C62.1377 62.6105 62.5386 60.256 62.5386 57.921L56.2103 57.921ZM55.3521 63.0201C54.7517 64.8713 53.9196 66.7181 52.8443 68.5615L58.3106 71.7501C59.5979 69.5433 60.6221 67.2838 61.3717 64.9724L55.3521 63.0201ZM52.8302 68.5859C51.8153 70.362 50.5898 72.0754 49.146 73.7255L53.9086 77.8927C55.6149 75.9427 57.0895 73.8872 58.3247 71.7257L52.8302 68.5859ZM49.146 73.7255C47.7068 75.3703 46.1795 76.7929 44.5661 78.0029L48.3631 83.0656C50.3499 81.5755 52.1977 79.848 53.9086 77.8927L49.146 73.7255ZM44.5276 78.0323C42.993 79.2203 41.4092 80.142 39.7753 80.8148L42.1848 86.6664C44.3761 85.7641 46.4486 84.5482 48.4017 83.0362L44.5276 78.0323ZM39.7753 80.8148C38.1885 81.4682 36.741 81.7577 35.4111 81.7577L35.4111 88.0861C37.6815 88.0861 39.9466 87.5881 42.1848 86.6664L39.7753 80.8148ZM35.4111 81.7577C33.6391 81.7577 32.1217 81.4559 30.8128 80.907L28.3654 86.743C30.5441 87.6566 32.908 88.0861 35.4111 88.0861L35.4111 81.7577ZM30.8472 80.9217C29.5486 80.359 28.4877 79.6014 27.6225 78.6539L22.9491 82.9209C24.4465 84.5609 26.2544 85.8284 28.331 86.7283L30.8472 80.9217ZM27.7166 78.7617C26.8712 77.7473 26.18 76.5016 25.6719 74.9772L19.6683 76.9784C20.3977 79.1667 21.4503 81.1274 22.855 82.813L27.7166 78.7617ZM25.6719 74.9772C25.1728 73.4801 24.9061 71.7971 24.9061 69.9026L18.5778 69.9026C18.5778 72.3958 18.9298 74.763 19.6683 76.9784L25.6719 74.9772ZM24.9061 69.9026C24.9061 68.889 24.9328 67.8144 24.9869 66.678L18.6657 66.377C18.6074 67.6033 18.5778 68.7787 18.5778 69.9026L24.9061 69.9026ZM24.9762 66.8275C25.0896 65.6369 25.2029 64.3907 25.3161 63.089L19.0116 62.5408C18.8998 63.8268 18.788 65.0556 18.6764 66.2276L24.9762 66.8275ZM21.918 65.9695L34.9122 66.9821L35.4038 60.6729L22.4097 59.6603L21.918 65.9695ZM32.1562 62.8269C31.8358 63.7881 31.572 64.842 31.572 65.8525L37.9003 65.8525C37.9003 65.8781 37.8985 65.8077 37.9393 65.6119C37.9786 65.4231 38.0475 65.1649 38.1598 64.828L32.1562 62.8269ZM31.572 65.8525C31.572 67.6135 32.1287 69.5397 33.8502 70.8308L37.6472 65.7681C37.7065 65.8127 37.766 65.8703 37.8176 65.9377C37.8687 66.0044 37.8982 66.0624 37.913 66.0982C37.94 66.1635 37.9003 66.1093 37.9003 65.8525L31.572 65.8525ZM33.8502 70.8308C35.1105 71.7761 36.5752 72.223 38.1112 72.223L38.1112 65.8947C37.8473 65.8947 37.7368 65.8354 37.6472 65.7681L33.8502 70.8308ZM38.1112 72.223C39.2579 72.223 40.3733 72.0009 41.4409 71.5902L39.1692 65.6837C38.7743 65.8356 38.4272 65.8947 38.1112 65.8947L38.1112 72.223ZM41.5515 71.5453C42.7795 71.019 43.8461 70.239 44.747 69.2563L40.082 64.9801C39.7453 65.3474 39.4057 65.5799 39.0586 65.7287L41.5515 71.5453ZM44.6519 69.3556C45.6772 68.3303 46.4358 67.0989 46.9667 65.7337L41.0687 63.44C40.812 64.0999 40.5018 64.5561 40.1771 64.8808L44.6519 69.3556ZM46.9667 65.7337C47.5325 64.2787 47.7725 62.6935 47.7725 61.043L41.4442 61.043C41.4442 62.0926 41.2904 62.8699 41.0687 63.44L46.9667 65.7337ZM47.7725 61.043C47.7725 60.0086 47.5987 58.9951 47.2445 58.021L41.2972 60.1836C41.3929 60.447 41.4442 60.7273 41.4442 61.043L47.7725 61.043ZM47.3405 58.3349C46.9496 56.7713 45.9746 55.5915 44.7603 54.782L41.25 60.0475C41.3341 60.1036 41.3311 60.1187 41.2965 60.0726C41.2797 60.0502 41.2597 60.0189 41.2412 59.98C41.2226 59.9411 41.2095 59.9031 41.2011 59.8697L47.3405 58.3349ZM44.8662 54.8558C43.7694 54.0581 42.4145 53.5675 41.0379 53.2397L39.5722 59.396C40.5582 59.6307 41.0034 59.8714 41.1441 59.9737L44.8662 54.8558ZM41.1743 53.2754C39.5991 52.8253 37.7268 52.6474 35.6643 52.6474L35.6643 58.9757C37.4268 58.9757 38.6485 59.1353 39.4358 59.3603L41.1743 53.2754ZM35.6643 52.6474C35.0416 52.6474 34.4015 52.682 33.7463 52.7475L34.3759 59.0444C34.8457 58.9974 35.2745 58.9757 35.6643 58.9757L35.6643 52.6474ZM34.0611 52.7318C33.3596 52.7318 32.5049 52.8068 31.5592 52.925L32.3441 59.2044C33.1985 59.0976 33.7501 59.0601 34.0611 59.0601L34.0611 52.7318ZM31.5592 52.925C30.5925 53.0458 29.4424 53.2234 28.1188 53.4536L29.2031 59.6883C30.467 59.4685 31.5108 59.3086 32.3441 59.2044L31.5592 52.925ZM28.2334 53.4358C26.9455 53.6114 25.3029 53.8712 23.3168 54.2117L24.386 60.449C26.3376 60.1145 27.9013 59.868 29.0885 59.7061L28.2334 53.4358ZM26.9821 57.7895C27.5974 53.5938 28.3538 48.7753 29.2516 43.3324L23.0076 42.3024C22.1054 47.7723 21.3429 52.6292 20.7207 56.8712L26.9821 57.7895ZM29.2524 43.3272C30.1477 37.8437 31.2402 31.6524 32.5306 24.7515L26.3101 23.5883C25.0129 30.5254 23.9116 36.7657 23.0068 42.3075L29.2524 43.3272ZM29.5365 27.3319L61.6844 26.1507L61.4521 19.8266L29.3041 21.0079L29.5365 27.3319ZM58.4276 22.6033L56.7401 36.3568L63.0213 37.1275L64.7089 23.374L58.4276 22.6033ZM59.7678 33.58C56.619 33.6925 53.4139 33.805 50.1526 33.9174L50.3707 40.242C53.6345 40.1294 56.8422 40.0169 59.9936 39.9043L59.7678 33.58ZM50.1507 33.9175C46.9278 34.0306 43.6214 34.1719 40.2314 34.3414L40.5474 40.6618C43.9077 40.4938 47.1827 40.3539 50.3726 40.2419L50.1507 33.9175ZM37.2571 37.0541C37.1432 37.8509 37.0016 38.8708 36.8324 40.1117L43.1027 40.9667C43.271 39.7325 43.4106 38.7273 43.5218 37.9491L37.2571 37.0541ZM36.8164 40.2527C36.7066 41.4607 36.5687 42.785 36.4024 44.2266L42.689 44.952C42.8601 43.4686 43.0035 42.0928 43.1187 40.8257L36.8164 40.2527ZM39.5457 47.7535C42.9653 47.7535 45.7404 48.0759 47.9275 48.6592L49.5581 42.5445C46.6826 41.7777 43.3262 41.4252 39.5457 41.4252L39.5457 47.7535ZM47.9275 48.6592C50.1897 49.2624 51.8407 50.0453 53.0039 50.9177L56.8009 45.855C54.814 44.3648 52.3586 43.2913 49.5581 42.5445L47.9275 48.6592ZM53.0039 50.9177C54.1785 51.7986 54.9201 52.7669 55.3538 53.815L61.2013 51.3954C60.2849 49.1809 58.7764 47.3366 56.8009 45.855L53.0039 50.9177ZM55.4076 53.9377C55.9206 55.0427 56.2103 56.3508 56.2103 57.921L62.5386 57.921C62.5386 55.5536 62.0969 53.3178 61.1474 51.2727L55.4076 53.9377ZM99.8685 61.8024L96.8778 60.7692L96.8721 60.7855L96.8667 60.8018L99.8685 61.8024ZM96.0715 70.4933L93.3002 68.9663L93.2881 68.9881L93.2764 69.0102L96.0715 70.4933ZM90.9245 77.7498L93.1931 79.9555L93.2082 79.9399L93.2231 79.9242L90.9245 77.7498ZM84.343 82.6437L85.758 85.4738L85.7711 85.4673L85.7842 85.4606L84.343 82.6437ZM69.9144 82.9812L68.4299 85.7755L68.4476 85.7849L68.4653 85.7941L69.9144 82.9812ZM65.4424 79.0998L62.8096 80.855L62.8436 80.906L62.8796 80.9556L65.4424 79.0998ZM62.911 73.2778L59.8414 74.0452L59.8437 74.0544L59.846 74.0637L62.911 73.2778ZM63.0798 56.4866L59.9771 55.866L63.0798 56.4866ZM65.9486 46.6144L63.0144 45.4304L63.0054 45.4527L62.9967 45.4751L65.9486 46.6144ZM70.5894 37.4172L67.8946 35.7589L70.5894 37.4172ZM76.4115 29.7388L74.1452 27.5307L74.1305 27.5458L74.116 27.5611L76.4115 29.7388ZM83.2461 24.5074L84.7385 27.2975L84.7634 27.2842L84.7882 27.2704L83.2461 24.5074ZM96.1559 24.0855L94.3349 26.6732L94.3569 26.6887L94.3792 26.7038L96.1559 24.0855ZM100.037 28.4732L97.2594 29.9883L97.2594 29.9883L100.037 28.4732ZM102.231 35.0546L99.1158 35.6085L99.1229 35.6487L99.1311 35.6887L102.231 35.0546ZM75.7365 68.2995L72.9312 69.7631V69.7631L75.7365 68.2995ZM84.8493 68.1307L82.8629 65.6677L84.8493 68.1307ZM89.3213 62.8993L92.041 64.5164L92.0504 64.5006L92.0596 64.4847L89.3213 62.8993ZM92.1901 55.9803L95.2428 56.8129L95.2451 56.8042L95.2474 56.7956L92.1901 55.9803ZM91.7682 42.6486L88.9763 44.1377L88.9954 44.1734L89.0153 44.2086L91.7682 42.6486ZM82.6554 42.4799L84.8928 44.7173L84.9132 44.6969L84.9331 44.6762L82.6554 42.4799ZM78.6053 48.3019L75.7752 46.8869L75.7682 46.9008L75.7615 46.9147L78.6053 48.3019ZM75.8208 55.8116L78.875 56.6387L75.8208 55.8116ZM99.8263 42.9862C99.8263 45.8477 99.5879 48.8044 99.1056 51.8586L105.357 52.8456C105.887 49.487 106.155 46.1998 106.155 42.9862L99.8263 42.9862ZM99.1056 51.8586C98.6286 54.8799 97.8864 57.8495 96.8778 60.7692L102.859 62.8355C103.988 59.5676 104.821 56.237 105.357 52.8456L99.1056 51.8586ZM96.8667 60.8018C95.9138 63.6605 94.7248 66.381 93.3002 68.9663L98.8428 72.0203C100.456 69.093 101.798 66.0195 102.87 62.803L96.8667 60.8018ZM93.2764 69.0102C91.9357 71.537 90.3822 73.7186 88.6258 75.5754L93.2231 79.9242C95.4044 77.6183 97.2822 74.9622 98.8666 71.9764L93.2764 69.0102ZM88.6558 75.5441C86.918 77.3315 85.0013 78.7526 82.9018 79.8268L85.7842 85.4606C88.5224 84.0596 90.9933 82.2182 93.1931 79.9555L88.6558 75.5441ZM82.9279 79.8136C81.033 80.761 78.9342 81.2515 76.5802 81.2515L76.5802 87.5798C79.8514 87.5798 82.9278 86.8889 85.758 85.4738L82.9279 79.8136ZM76.5802 81.2515C74.3784 81.2515 72.6771 80.845 71.3634 80.1683L68.4653 85.7941C70.8644 87.0299 73.6069 87.5798 76.5802 87.5798L76.5802 81.2515ZM71.3989 80.1869C70.0198 79.4543 68.8998 78.4795 68.0052 77.244L62.8796 80.9556C64.3475 82.9828 66.2088 84.5956 68.4299 85.7755L71.3989 80.1869ZM68.0751 77.3447C67.1694 75.986 66.4603 74.3805 65.9761 72.4919L59.846 74.0637C60.4868 76.5627 61.4653 78.8385 62.8096 80.855L68.0751 77.3447ZM65.9807 72.5103C65.4877 70.5382 65.2314 68.3795 65.2314 66.0213L58.9031 66.0213C58.9031 68.8382 59.2093 71.5171 59.8414 74.0452L65.9807 72.5103ZM65.2314 66.0213C65.2314 63.2773 65.5422 60.3085 66.1825 57.1071L59.9771 55.866C59.2673 59.4149 58.9031 62.8025 58.9031 66.0213L65.2314 66.0213ZM66.1825 57.1071C66.8222 53.9087 67.7281 50.7915 68.9006 47.7537L62.9967 45.4751C61.6941 48.85 60.6874 52.3143 59.9771 55.866L66.1825 57.1071ZM68.8829 47.7984C70.1108 44.7555 71.5778 41.8485 73.2842 39.0756L67.8946 35.7589C66.001 38.8361 64.3741 42.0606 63.0144 45.4304L68.8829 47.7984ZM73.2842 39.0756C74.9847 36.3123 76.7951 33.9319 78.707 31.9166L74.116 27.5611C71.8653 29.9335 69.7943 32.672 67.8946 35.7589L73.2842 39.0756ZM78.6777 31.947C80.6149 29.9589 82.6372 28.4215 84.7385 27.2975L81.7537 21.7173C79.0173 23.1809 76.4832 25.1311 74.1452 27.5307L78.6777 31.947ZM84.7882 27.2704C86.7699 26.1643 88.7459 25.6465 90.7557 25.6465L90.7557 19.3182C87.5903 19.3182 84.5599 20.1505 81.704 21.7445L84.7882 27.2704ZM90.7557 25.6465C92.2671 25.6465 93.4126 26.0242 94.3349 26.6732L97.9768 21.4979C95.8616 20.0094 93.4069 19.3182 90.7557 19.3182L90.7557 25.6465ZM94.3792 26.7038C95.493 27.4596 96.4609 28.5244 97.2594 29.9883L102.815 26.958C101.588 24.7093 99.9688 22.849 97.9326 21.4673L94.3792 26.7038ZM97.2594 29.9883C98.0773 31.4878 98.7131 33.3436 99.1158 35.6085L105.346 34.5008C104.849 31.703 104.022 29.1712 102.815 26.958L97.2594 29.9883ZM99.1311 35.6887C99.5902 37.9332 99.8263 40.3629 99.8263 42.9862L106.155 42.9862C106.155 39.9842 105.884 37.1262 105.331 34.4206L99.1311 35.6887ZM71.5598 63.2368C71.5598 65.6244 71.9415 67.8663 72.9312 69.7631L78.5418 66.8358C78.1814 66.1451 77.8881 65.0118 77.8881 63.2368L71.5598 63.2368ZM72.9312 69.7631C73.5119 70.8762 74.3606 71.8375 75.5093 72.498C76.6445 73.1508 77.8884 73.4043 79.1116 73.4043L79.1116 67.076C78.9335 67.076 78.8181 67.0577 78.7519 67.0418C78.6884 67.0266 78.6648 67.0125 78.6637 67.012C78.662 67.011 78.6612 67.0104 78.6603 67.0096C78.6592 67.0088 78.6548 67.0052 78.647 66.9968C78.6322 66.9808 78.5933 66.9346 78.5418 66.8358L72.9312 69.7631ZM79.1116 73.4043C81.9726 73.4043 84.5752 72.4166 86.8356 70.5937L82.8629 65.6677C81.6357 66.6574 80.4131 67.076 79.1116 67.076L79.1116 73.4043ZM86.8356 70.5937C88.895 68.9329 90.6268 66.8948 92.041 64.5164L86.6016 61.2822C85.5407 63.0664 84.2911 64.516 82.8629 65.6677L86.8356 70.5937ZM92.0596 64.4847C93.4392 62.1018 94.4987 59.5412 95.2428 56.8129L89.1374 55.1478C88.5315 57.3696 87.6784 59.4217 86.5829 61.3139L92.0596 64.4847ZM95.2474 56.7956C95.9821 54.0408 96.3668 51.3743 96.3668 48.8082L90.0385 48.8082C90.0385 50.7423 89.7482 52.8572 89.1328 55.165L95.2474 56.7956ZM96.3668 48.8082C96.3668 45.9759 95.8059 43.3559 94.5211 41.0887L89.0153 44.2086C89.6431 45.3165 90.0385 46.8028 90.0385 48.8082L96.3668 48.8082ZM94.5601 41.1596C93.8695 39.8647 92.8871 38.7649 91.5775 38.0094C90.2778 37.2596 88.8374 36.9531 87.3806 36.9531L87.3806 43.2815C87.9488 43.2815 88.2523 43.397 88.4151 43.4909C88.5681 43.5792 88.7669 43.7451 88.9763 44.1377L94.5601 41.1596ZM87.3806 36.9531C84.6274 36.9531 82.2819 38.3089 80.3777 40.2835L84.9331 44.6762C86.0666 43.5008 86.8712 43.2815 87.3806 43.2815L87.3806 36.9531ZM80.418 40.2425C78.6108 42.0497 77.075 44.2873 75.7752 46.8869L81.4354 49.717C82.4982 47.5914 83.6624 45.9477 84.8928 44.7173L80.418 40.2425ZM75.7615 46.9147C74.5413 49.4159 73.5456 52.1085 72.7667 54.9844L78.875 56.6387C79.5586 54.1144 80.4192 51.8006 81.4492 49.6892L75.7615 46.9147ZM72.7667 54.9844C71.9793 57.8917 71.5598 60.6493 71.5598 63.2368L77.8881 63.2368C77.8881 61.3242 78.1998 59.1316 78.875 56.6387L72.7667 54.9844ZM141.52 61.8024L138.529 60.7692L138.524 60.7855L138.518 60.8018L141.52 61.8024ZM137.723 70.4933L134.952 68.9663L134.94 68.9881L134.928 69.0102L137.723 70.4933ZM132.576 77.7498L134.845 79.9555L134.86 79.9399L134.875 79.9242L132.576 77.7498ZM125.995 82.6437L127.41 85.4738L127.423 85.4673L127.436 85.4606L125.995 82.6437ZM111.566 82.9812L110.082 85.7755L110.099 85.7849L110.117 85.7941L111.566 82.9812ZM107.094 79.0998L104.461 80.855L104.495 80.906L104.531 80.9556L107.094 79.0998ZM104.563 73.2778L101.493 74.0452L101.495 74.0544L101.498 74.0637L104.563 73.2778ZM104.731 56.4866L101.629 55.866L104.731 56.4866ZM107.6 46.6144L104.666 45.4304L104.657 45.4527L104.648 45.4751L107.6 46.6144ZM112.241 37.4172L109.546 35.7589L112.241 37.4172ZM118.063 29.7388L115.797 27.5307L115.782 27.5458L115.768 27.5611L118.063 29.7388ZM124.898 24.5074L126.39 27.2975L126.415 27.2842L126.44 27.2704L124.898 24.5074ZM137.807 24.0855L135.987 26.6732L136.009 26.6887L136.031 26.7038L137.807 24.0855ZM141.689 28.4732L138.911 29.9883L138.911 29.9883L141.689 28.4732ZM143.883 35.0546L140.767 35.6085L140.775 35.6487L140.783 35.6887L143.883 35.0546ZM117.388 68.2995L114.583 69.7631L114.583 69.7631L117.388 68.2995ZM126.501 68.1307L124.515 65.6677L126.501 68.1307ZM130.973 62.8993L133.693 64.5164L133.702 64.5006L133.711 64.4847L130.973 62.8993ZM133.842 55.9803L136.894 56.8129L136.897 56.8042L136.899 56.7956L133.842 55.9803ZM133.42 42.6486L130.628 44.1377L130.647 44.1734L130.667 44.2086L133.42 42.6486ZM124.307 42.4799L126.544 44.7173L126.565 44.6969L126.585 44.6762L124.307 42.4799ZM120.257 48.3019L117.427 46.8869L117.42 46.9008L117.413 46.9147L120.257 48.3019ZM117.472 55.8116L120.527 56.6387L117.472 55.8116ZM141.478 42.9862C141.478 45.8477 141.239 48.8044 140.757 51.8586L147.008 52.8456C147.538 49.487 147.806 46.1998 147.806 42.9862L141.478 42.9862ZM140.757 51.8586C140.28 54.8799 139.538 57.8495 138.529 60.7692L144.511 62.8355C145.64 59.5676 146.473 56.237 147.008 52.8456L140.757 51.8586ZM138.518 60.8018C137.565 63.6605 136.376 66.381 134.952 68.9663L140.494 72.0203C142.107 69.093 143.45 66.0195 144.522 62.803L138.518 60.8018ZM134.928 69.0102C133.587 71.537 132.034 73.7186 130.277 75.5754L134.875 79.9242C137.056 77.6183 138.934 74.9622 140.518 71.9764L134.928 69.0102ZM130.307 75.5441C128.57 77.3315 126.653 78.7526 124.553 79.8268L127.436 85.4606C130.174 84.0596 132.645 82.2182 134.845 79.9555L130.307 75.5441ZM124.58 79.8136C122.685 80.761 120.586 81.2515 118.232 81.2515L118.232 87.5798C121.503 87.5798 124.579 86.8889 127.41 85.4738L124.58 79.8136ZM118.232 81.2515C116.03 81.2515 114.329 80.845 113.015 80.1683L110.117 85.7941C112.516 87.0299 115.259 87.5798 118.232 87.5798L118.232 81.2515ZM113.05 80.1869C111.671 79.4543 110.551 78.4795 109.657 77.244L104.531 80.9556C105.999 82.9828 107.86 84.5956 110.082 85.7755L113.05 80.1869ZM109.727 77.3447C108.821 75.986 108.112 74.3805 107.628 72.4919L101.498 74.0637C102.138 76.5627 103.117 78.8385 104.461 80.855L109.727 77.3447ZM107.632 72.5103C107.139 70.5382 106.883 68.3795 106.883 66.0213L100.555 66.0213C100.555 68.8382 100.861 71.5171 101.493 74.0452L107.632 72.5103ZM106.883 66.0213C106.883 63.2773 107.194 60.3085 107.834 57.1071L101.629 55.866C100.919 59.4149 100.555 62.8025 100.555 66.0213L106.883 66.0213ZM107.834 57.1071C108.474 53.9087 109.38 50.7915 110.552 47.7537L104.648 45.4751C103.346 48.85 102.339 52.3143 101.629 55.866L107.834 57.1071ZM110.535 47.7984C111.762 44.7555 113.229 41.8485 114.936 39.0756L109.546 35.7589C107.653 38.8361 106.026 42.0606 104.666 45.4304L110.535 47.7984ZM114.936 39.0756C116.636 36.3123 118.447 33.9319 120.359 31.9166L115.768 27.5611C113.517 29.9335 111.446 32.672 109.546 35.7589L114.936 39.0756ZM120.329 31.947C122.266 29.9589 124.289 28.4215 126.39 27.2975L123.405 21.7173C120.669 23.1809 118.135 25.1311 115.797 27.5307L120.329 31.947ZM126.44 27.2704C128.422 26.1643 130.398 25.6465 132.407 25.6465L132.407 19.3182C129.242 19.3182 126.212 20.1505 123.356 21.7445L126.44 27.2704ZM132.407 25.6465C133.919 25.6465 135.064 26.0242 135.987 26.6732L139.628 21.4979C137.513 20.0094 135.059 19.3182 132.407 19.3182L132.407 25.6465ZM136.031 26.7038C137.145 27.4596 138.113 28.5244 138.911 29.9883L144.467 26.958C143.24 24.7093 141.62 22.849 139.584 21.4673L136.031 26.7038ZM138.911 29.9883C139.729 31.4878 140.365 33.3436 140.767 35.6085L146.998 34.5008C146.501 31.703 145.674 29.1712 144.467 26.958L138.911 29.9883ZM140.783 35.6887C141.242 37.9332 141.478 40.3629 141.478 42.9862L147.806 42.9862C147.806 39.9842 147.536 37.1262 146.983 34.4206L140.783 35.6887ZM113.211 63.2368C113.211 65.6244 113.593 67.8663 114.583 69.7631L120.193 66.8358C119.833 66.1451 119.54 65.0118 119.54 63.2368L113.211 63.2368ZM114.583 69.7631C115.164 70.8762 116.012 71.8375 117.161 72.498C118.296 73.1508 119.54 73.4043 120.763 73.4043L120.763 67.076C120.585 67.076 120.47 67.0577 120.403 67.0418C120.34 67.0266 120.316 67.0125 120.315 67.012C120.314 67.011 120.313 67.0104 120.312 67.0096C120.311 67.0088 120.306 67.0052 120.299 66.9968C120.284 66.9808 120.245 66.9346 120.193 66.8358L114.583 69.7631ZM120.763 73.4043C123.624 73.4043 126.227 72.4166 128.487 70.5937L124.515 65.6677C123.287 66.6574 122.065 67.076 120.763 67.076L120.763 73.4043ZM128.487 70.5937C130.547 68.9329 132.278 66.8948 133.693 64.5164L128.253 61.2822C127.192 63.0664 125.943 64.516 124.515 65.6677L128.487 70.5937ZM133.711 64.4847C135.091 62.1018 136.15 59.5412 136.894 56.8129L130.789 55.1478C130.183 57.3696 129.33 59.4217 128.235 61.3139L133.711 64.4847ZM136.899 56.7956C137.634 54.0408 138.018 51.3743 138.018 48.8082L131.69 48.8082C131.69 50.7423 131.4 52.8572 130.784 55.165L136.899 56.7956ZM138.018 48.8082C138.018 45.9759 137.457 43.3559 136.173 41.0887L130.667 44.2086C131.295 45.3165 131.69 46.8028 131.69 48.8082L138.018 48.8082ZM136.212 41.1596C135.521 39.8647 134.539 38.7649 133.229 38.0094C131.929 37.2596 130.489 36.9531 129.032 36.9531L129.032 43.2815C129.6 43.2815 129.904 43.397 130.067 43.4909C130.22 43.5792 130.419 43.7451 130.628 44.1377L136.212 41.1596ZM129.032 36.9531C126.279 36.9531 123.933 38.3089 122.029 40.2835L126.585 44.6762C127.718 43.5008 128.523 43.2815 129.032 43.2815L129.032 36.9531ZM122.07 40.2425C120.262 42.0497 118.727 44.2873 117.427 46.8869L123.087 49.717C124.15 47.5914 125.314 45.9477 126.544 44.7173L122.07 40.2425ZM117.413 46.9147C116.193 49.4159 115.197 52.1085 114.418 54.9844L120.527 56.6387C121.21 54.1144 122.071 51.8006 123.101 49.6892L117.413 46.9147ZM114.418 54.9844C113.631 57.8917 113.211 60.6493 113.211 63.2368L119.54 63.2368C119.54 61.3242 119.851 59.1316 120.527 56.6387L114.418 54.9844ZM142.586 84.5844L139.492 83.9214L138.536 88.3831L143.05 87.7144L142.586 84.5844ZM147.311 61.6336L150.416 62.2451L150.422 62.2128L150.428 62.1804L147.311 61.6336ZM149.083 51.6771L145.969 51.1155L149.083 51.6771ZM150.771 41.4673L147.65 40.9472L147.645 40.9725L147.642 40.998L150.771 41.4673ZM152.205 31.6795L149.072 31.2397L149.068 31.2634L149.065 31.2871L152.205 31.6795ZM153.218 22.9886L153.492 19.8364L150.339 19.5622L150.065 22.7145L153.218 22.9886ZM157.605 23.3261L157.388 26.4828L157.442 26.4865L157.496 26.4884L157.605 23.3261ZM162.162 23.5793L161.909 26.7334L161.93 26.735L161.951 26.7364L162.162 23.5793ZM167.224 23.748L170.294 24.5155L171.277 20.5839L167.224 20.5839L167.224 23.748ZM166.971 25.0137L163.858 24.4477L163.858 24.4477L166.971 25.0137ZM166.549 27.2919L169.652 27.9124L169.656 27.8937L169.659 27.875L166.549 27.2919ZM165.959 30.1607L162.862 29.5089L162.846 29.5877L162.833 29.6672L165.959 30.1607ZM165.368 33.3671L162.272 32.7152L162.263 32.758L162.255 32.8011L165.368 33.3671ZM163.849 41.7205L160.736 41.1545L159.931 45.5813L164.369 44.8416L163.849 41.7205ZM164.355 41.6361L164.876 44.7572L166.283 44.5227L167.039 43.3131L164.355 41.6361ZM166.718 37.9235L164.071 36.1894L164.064 36.2009L164.056 36.2124L166.718 37.9235ZM173.3 27.6294L175.946 29.3634L175.96 29.343L175.973 29.3224L173.3 27.6294ZM176 23.3261L175.747 20.1721L174.152 20.2997L173.309 21.6607L176 23.3261ZM192.875 21.4698L195.411 23.3619L200.073 17.1138L192.375 18.3454L192.875 21.4698ZM185.197 31.9327L187.752 33.7996L187.757 33.7917L187.763 33.7837L185.197 31.9327ZM181.906 36.4891L179.331 34.6499L179.309 34.6809L179.288 34.7124L181.906 36.4891ZM178.7 41.1298L181.287 42.9508L181.287 42.9508L178.7 41.1298ZM175.662 45.5175L173.046 43.7382L173.021 43.7747L172.997 43.8118L175.662 45.5175ZM173.215 49.3989L170.525 47.7334L169.851 48.8217L170.123 50.0723L173.215 49.3989ZM182.75 82.053L182.612 85.2142L187.131 85.4107L185.767 81.0987L182.75 82.053ZM178.784 81.9687L178.652 85.1301L178.718 85.1328L178.784 85.1328L178.784 81.9687ZM170.093 81.9687L170.093 85.1328L170.152 85.1328L170.21 85.1307L170.093 81.9687ZM165.368 82.053L162.234 82.487L162.625 85.3137L165.477 85.2153L165.368 82.053ZM163.68 70.5777L160.546 71.013L160.55 71.0376L160.554 71.0621L163.68 70.5777ZM162.077 59.0179L165.212 58.5839L164.248 51.6236L159.675 56.9587L162.077 59.0179ZM160.559 60.7899L158.156 58.7306L157.653 59.3178L157.477 60.0709L160.559 60.7899ZM159.208 67.0338L156.108 66.3997L156.102 66.4337L156.095 66.4678L159.208 67.0338ZM157.858 74.2059L154.753 73.5999L154.751 73.6114L154.748 73.6228L157.858 74.2059ZM156.255 82.5593L156.719 85.6893L158.93 85.3617L159.36 83.1681L156.255 82.5593ZM145.68 85.2474C147.371 77.3561 148.95 69.6886 150.416 62.2451L144.207 61.0221C142.748 68.4291 141.176 76.0622 139.492 83.9214L145.68 85.2474ZM150.428 62.1804C150.989 58.9793 151.579 55.6654 152.197 52.2386L145.969 51.1155C145.35 54.5515 144.758 57.8753 144.195 61.0869L150.428 62.1804ZM152.197 52.2386C152.821 48.7772 153.389 45.3433 153.9 41.9367L147.642 40.998C147.14 44.3416 146.583 47.7141 145.969 51.1155L152.197 52.2386ZM153.892 41.9875C154.461 38.5732 154.945 35.2679 155.345 32.072L149.065 31.2871C148.677 34.3913 148.206 37.6113 147.65 40.9472L153.892 41.9875ZM155.339 32.1193C155.795 28.8707 156.139 25.9172 156.37 23.2627L150.065 22.7145C149.846 25.2352 149.516 28.0757 149.072 31.2397L155.339 32.1193ZM152.944 26.1409C154.26 26.2554 155.742 26.3693 157.388 26.4828L157.823 20.1695C156.206 20.0579 154.763 19.9469 153.492 19.8364L152.944 26.1409ZM157.496 26.4884C159.087 26.5433 160.557 26.6252 161.909 26.7334L162.414 20.4252C160.953 20.3083 159.386 20.2215 157.714 20.1639L157.496 26.4884ZM161.951 26.7364C163.709 26.8536 165.466 26.9122 167.224 26.9122L167.224 20.5839C165.607 20.5839 163.99 20.53 162.372 20.4221L161.951 26.7364ZM164.155 22.9806C164.07 23.3196 163.969 23.8381 163.858 24.4477L170.084 25.5797C170.199 24.9518 170.266 24.6265 170.294 24.5155L164.155 22.9806ZM163.858 24.4477C163.747 25.0588 163.607 25.8121 163.439 26.7088L169.659 27.875C169.829 26.9716 169.97 26.2061 170.084 25.5797L163.858 24.4477ZM163.447 26.6713C163.28 27.5023 163.086 28.4479 162.862 29.5089L169.055 30.8126C169.282 29.736 169.481 28.769 169.652 27.9124L163.447 26.6713ZM162.833 29.6672C162.673 30.6825 162.486 31.6985 162.272 32.7152L168.464 34.0189C168.7 32.8981 168.907 31.7765 169.084 30.6542L162.833 29.6672ZM162.255 32.8011C161.805 35.2761 161.299 38.0606 160.736 41.1545L166.962 42.2865C167.525 39.1927 168.031 36.4082 168.481 33.9331L162.255 32.8011ZM164.369 44.8416L164.876 44.7572L163.835 38.515L163.329 38.5994L164.369 44.8416ZM167.039 43.3131C167.591 42.4299 168.37 41.2054 169.38 39.6345L164.056 36.2124C163.041 37.7917 162.245 39.0423 161.672 39.9591L167.039 43.3131ZM169.365 39.6575C170.447 38.0058 171.556 36.271 172.692 34.4534L167.326 31.0994C166.212 32.882 165.127 34.5786 164.071 36.1894L169.365 39.6575ZM172.692 34.4534C173.806 32.6709 174.891 30.9743 175.946 29.3634L170.653 25.8954C169.571 27.5471 168.462 29.2819 167.326 31.0994L172.692 34.4534ZM175.973 29.3224C177.045 27.6293 177.951 26.1851 178.69 24.9916L173.309 21.6607C172.586 22.8297 171.692 24.2544 170.626 25.9364L175.973 29.3224ZM176.252 26.4802C179.085 26.2535 181.919 25.9985 184.752 25.7152L184.123 19.4183C181.331 19.6975 178.539 19.9487 175.747 20.1721L176.252 26.4802ZM184.752 25.7152C187.627 25.4277 190.502 25.054 193.375 24.5943L192.375 18.3454C189.624 18.7857 186.873 19.1433 184.123 19.4183L184.752 25.7152ZM190.339 19.5778C187.686 23.1346 185.116 26.6359 182.631 30.0816L187.763 33.7837C190.228 30.3667 192.777 26.8928 195.411 23.3619L190.339 19.5778ZM182.642 30.0658C181.566 31.5381 180.463 33.0662 179.331 34.6499L184.481 38.3282C185.6 36.7618 186.69 35.2523 187.752 33.7996L182.642 30.0658ZM179.288 34.7124C178.229 36.273 177.17 37.8051 176.112 39.3089L181.287 42.9508C182.367 41.417 183.446 39.8553 184.524 38.2657L179.288 34.7124ZM176.112 39.3089C175.034 40.8403 174.012 42.3168 173.046 43.7382L178.279 47.2967C179.225 45.9056 180.227 44.457 181.287 42.9508L176.112 39.3089ZM172.997 43.8118C172.09 45.2289 171.266 46.5363 170.525 47.7334L175.906 51.0643C176.627 49.8989 177.434 48.6187 178.327 47.2231L172.997 43.8118ZM170.123 50.0723C171.381 55.8465 172.869 61.4276 174.588 66.8146L180.617 64.8905C178.961 59.7021 177.524 54.3141 176.307 48.7254L170.123 50.0723ZM174.588 66.8146C176.275 72.0995 177.99 77.4971 179.733 83.0073L185.767 81.0987C184.022 75.5836 182.306 70.1808 180.617 64.8905L174.588 66.8146ZM182.887 78.8919C181.546 78.8335 180.178 78.8045 178.784 78.8045L178.784 85.1328C180.09 85.1328 181.366 85.16 182.612 85.2142L182.887 78.8919ZM178.916 78.8072C177.524 78.7492 176.158 78.7201 174.818 78.7201L174.818 85.0485C176.066 85.0485 177.344 85.0756 178.652 85.1301L178.916 78.8072ZM174.818 78.7201C173.151 78.7201 171.537 78.7489 169.976 78.8067L170.21 85.1307C171.687 85.076 173.223 85.0485 174.818 85.0485L174.818 78.7201ZM170.093 78.8045C168.535 78.8045 166.924 78.8333 165.259 78.8908L165.477 85.2153C167.075 85.1602 168.613 85.1328 170.093 85.1328L170.093 78.8045ZM168.502 81.6191C167.993 77.9444 167.428 74.1024 166.807 70.0932L160.554 71.0621C161.17 75.0407 161.73 78.849 162.234 82.487L168.502 81.6191ZM166.815 70.1424C166.252 66.0926 165.718 62.2398 165.212 58.5839L158.943 59.4519C159.449 63.1087 159.984 66.9624 160.546 71.013L166.815 70.1424ZM159.675 56.9587L158.156 58.7306L162.961 62.8491L164.48 61.0771L159.675 56.9587ZM157.477 60.0709C157.075 61.7962 156.618 63.9078 156.108 66.3997L162.308 67.6679C162.811 65.2096 163.255 63.1587 163.64 61.5088L157.477 60.0709ZM156.095 66.4678C155.648 68.9305 155.2 71.3078 154.753 73.5999L160.964 74.8119C161.417 72.4914 161.869 70.0873 162.322 67.5998L156.095 66.4678ZM154.748 73.6228C154.244 76.3138 153.711 79.0897 153.15 81.9505L159.36 83.1681C159.924 80.2913 160.46 77.4982 160.968 74.789L154.748 73.6228ZM155.792 79.4293L142.122 81.4544L143.05 87.7144L156.719 85.6893L155.792 79.4293Z" fill="#F9F7F3"/>
<defs>
<filter id="filter0_f_1066_21" x="0.647509" y="0.375292" width="213.322" height="105.641" filterUnits="userSpaceOnUse" color-interpolation-filters="sRGB">
<feFlood flood-opacity="0" result="BackgroundImageFix"/>
<feBlend mode="normal" in="SourceGraphic" in2="BackgroundImageFix" result="shape"/>
<feGaussianBlur stdDeviation="10.5472" result="effect1_foregroundBlur_1066_21"/>
</filter>
</defs>
</svg>
