<svg width="173" height="107" viewBox="0 0 173 107" fill="none" xmlns="http://www.w3.org/2000/svg">
<g filter="url(#filter0_f_1066_12)">
<path d="M58.6877 63.9962L55.6779 63.0201L58.6877 63.9962ZM55.9032 70.1558L53.1701 68.5615L53.163 68.5737L53.156 68.5859L55.9032 70.1558ZM51.8531 75.8091L49.4718 73.7255L49.4718 73.7255L51.8531 75.8091ZM46.7904 80.5342L44.8919 78.0029L44.8726 78.0174L44.8534 78.0323L46.7904 80.5342ZM41.3059 83.7406L42.5106 86.6664L41.3059 83.7406ZM29.9149 83.825L28.6568 86.7283L28.674 86.7357L28.6912 86.743L29.9149 83.825ZM25.6116 80.7874L23.1809 82.813L23.2267 82.868L23.2749 82.9209L25.6116 80.7874ZM22.9959 75.9779L25.9977 74.9772L25.9977 74.9772L22.9959 75.9779ZM22.1521 66.5275L19.0022 66.2276L18.9951 66.3022L18.9916 66.377L22.1521 66.5275ZM22.4897 62.8149L22.7355 59.6603L19.609 59.4167L19.3374 62.5408L22.4897 62.8149ZM35.4838 63.8275L38.4856 64.828L39.7658 60.9874L35.7296 60.6729L35.4838 63.8275ZM36.0745 68.2995L34.176 70.8308L34.176 70.8308L36.0745 68.2995ZM40.6309 68.637L41.7667 71.5902L41.8224 71.5688L41.8773 71.5453L40.6309 68.637ZM42.7403 67.1182L40.5029 64.8808L40.4543 64.9294L40.4078 64.9801L42.7403 67.1182ZM44.3435 64.5869L41.3945 63.44L44.3435 64.5869ZM44.5966 59.1023L41.5269 59.8697L41.5668 60.0292L41.623 60.1836L44.5966 59.1023ZM43.331 57.4147L41.4699 59.9737L41.5221 60.0117L41.5758 60.0475L43.331 57.4147ZM40.6309 56.3178L39.7616 59.3603L39.8294 59.3796L39.898 59.396L40.6309 56.3178ZM34.3869 55.8959L34.3869 59.0601L34.5447 59.0601L34.7018 59.0444L34.3869 55.8959ZM28.9867 56.571L29.4143 59.7061L29.4717 59.6983L29.5289 59.6883L28.9867 56.571ZM24.1772 57.3304L21.0465 56.8712L20.4137 61.1859L24.7118 60.449L24.1772 57.3304ZM26.4554 42.8174L29.5774 43.3324L29.5782 43.3272L26.4554 42.8174ZM29.7461 24.1699L29.63 21.0079L27.101 21.1008L26.6359 23.5883L29.7461 24.1699ZM61.8941 22.9886L65.0347 23.374L65.4867 19.6903L61.7779 19.8266L61.8941 22.9886ZM60.2065 36.7422L60.3194 39.9043L63.0182 39.808L63.3471 37.1275L60.2065 36.7422ZM50.5874 37.0797L50.4784 33.9174L50.4765 33.9175L50.5874 37.0797ZM40.7152 37.5016L40.5572 34.3414L37.9518 34.4716L37.5829 37.0541L40.7152 37.5016ZM40.2934 40.5392L37.1582 40.1117L37.1486 40.182L37.1422 40.2527L40.2934 40.5392ZM39.8715 44.5893L36.7282 44.2266L36.3212 47.7535L39.8715 47.7535L39.8715 44.5893ZM49.0686 45.6019L49.8839 42.5445L49.0686 45.6019ZM55.2282 48.3863L57.1267 45.855L55.2282 48.3863ZM58.6033 52.6052L55.6796 53.815L55.7052 53.8769L55.7334 53.9377L58.6033 52.6052ZM56.5361 57.921C56.5361 59.5237 56.2619 61.2193 55.6779 63.0201L61.6975 64.9724C62.4635 62.6105 62.8644 60.256 62.8644 57.921L56.5361 57.921ZM55.6779 63.0201C55.0775 64.8713 54.2454 66.7181 53.1701 68.5615L58.6364 71.7501C59.9237 69.5433 60.9479 67.2838 61.6975 64.9724L55.6779 63.0201ZM53.156 68.5859C52.1411 70.362 50.9156 72.0754 49.4718 73.7255L54.2344 77.8927C55.9407 75.9427 57.4153 73.8872 58.6505 71.7257L53.156 68.5859ZM49.4718 73.7255C48.0326 75.3703 46.5053 76.7929 44.8919 78.0029L48.6889 83.0656C50.6757 81.5755 52.5235 79.848 54.2344 77.8927L49.4718 73.7255ZM44.8534 78.0323C43.3188 79.2203 41.735 80.142 40.1011 80.8148L42.5106 86.6664C44.7019 85.7641 46.7744 84.5482 48.7275 83.0362L44.8534 78.0323ZM40.1011 80.8148C38.5143 81.4682 37.0668 81.7577 35.737 81.7577L35.737 88.0861C38.0073 88.0861 40.2724 87.5881 42.5106 86.6664L40.1011 80.8148ZM35.737 81.7577C33.965 81.7577 32.4475 81.4559 31.1386 80.907L28.6912 86.743C30.8699 87.6566 33.2338 88.0861 35.737 88.0861L35.737 81.7577ZM31.173 80.9217C29.8744 80.359 28.8135 79.6014 27.9483 78.6539L23.2749 82.9209C24.7724 84.5609 26.5803 85.8284 28.6568 86.7283L31.173 80.9217ZM28.0424 78.7617C27.197 77.7473 26.5058 76.5016 25.9977 74.9772L19.9941 76.9784C20.7235 79.1667 21.7761 81.1274 23.1809 82.813L28.0424 78.7617ZM25.9977 74.9772C25.4987 73.4801 25.2319 71.7971 25.2319 69.9026L18.9036 69.9026C18.9036 72.3958 19.2556 74.763 19.9941 76.9784L25.9977 74.9772ZM25.2319 69.9026C25.2319 68.889 25.2586 67.8144 25.3127 66.678L18.9916 66.377C18.9332 67.6033 18.9036 68.7787 18.9036 69.9026L25.2319 69.9026ZM25.3021 66.8275C25.4155 65.6369 25.5287 64.3907 25.6419 63.089L19.3374 62.5408C19.2256 63.8268 19.1138 65.0556 19.0022 66.2276L25.3021 66.8275ZM22.2438 65.9695L35.238 66.9821L35.7296 60.6729L22.7355 59.6603L22.2438 65.9695ZM32.482 62.8269C32.1616 63.7881 31.8978 64.842 31.8978 65.8525L38.2261 65.8525C38.2261 65.8781 38.2243 65.8077 38.2651 65.6119C38.3044 65.4231 38.3733 65.1649 38.4856 64.828L32.482 62.8269ZM31.8978 65.8525C31.8978 67.6135 32.4545 69.5397 34.176 70.8308L37.973 65.7681C38.0323 65.8127 38.0919 65.8703 38.1435 65.9377C38.1945 66.0044 38.224 66.0624 38.2388 66.0982C38.2658 66.1635 38.2261 66.1093 38.2261 65.8525L31.8978 65.8525ZM34.176 70.8308C35.4363 71.7761 36.901 72.223 38.437 72.223L38.437 65.8947C38.1731 65.8947 38.0627 65.8354 37.973 65.7681L34.176 70.8308ZM38.437 72.223C39.5837 72.223 40.6991 72.0009 41.7667 71.5902L39.495 65.6837C39.1001 65.8356 38.753 65.8947 38.437 65.8947L38.437 72.223ZM41.8773 71.5453C43.1053 71.019 44.1719 70.239 45.0728 69.2563L40.4078 64.9801C40.0712 65.3474 39.7315 65.5799 39.3844 65.7287L41.8773 71.5453ZM44.9777 69.3556C46.003 68.3303 46.7616 67.0989 47.2925 65.7337L41.3945 63.44C41.1378 64.0999 40.8276 64.5561 40.5029 64.8808L44.9777 69.3556ZM47.2925 65.7337C47.8583 64.2787 48.0983 62.6935 48.0983 61.043L41.77 61.043C41.77 62.0926 41.6162 62.8699 41.3945 63.44L47.2925 65.7337ZM48.0983 61.043C48.0983 60.0086 47.9245 58.9951 47.5703 58.021L41.623 60.1836C41.7187 60.447 41.77 60.7273 41.77 61.043L48.0983 61.043ZM47.6663 58.3349C47.2754 56.7713 46.3004 55.5915 45.0861 54.782L41.5758 60.0475C41.6599 60.1036 41.6569 60.1187 41.6223 60.0726C41.6055 60.0502 41.5856 60.0189 41.567 59.98C41.5484 59.9411 41.5353 59.9031 41.5269 59.8697L47.6663 58.3349ZM45.192 54.8558C44.0952 54.0581 42.7403 53.5675 41.3638 53.2397L39.898 59.396C40.8841 59.6307 41.3292 59.8714 41.4699 59.9737L45.192 54.8558ZM41.5001 53.2754C39.9249 52.8253 38.0527 52.6474 35.9901 52.6474L35.9901 58.9757C37.7527 58.9757 38.9743 59.1353 39.7616 59.3603L41.5001 53.2754ZM35.9901 52.6474C35.3674 52.6474 34.7273 52.682 34.0721 52.7475L34.7018 59.0444C35.1715 58.9974 35.6003 58.9757 35.9901 58.9757L35.9901 52.6474ZM34.3869 52.7318C33.6854 52.7318 32.8307 52.8068 31.885 52.925L32.6699 59.2044C33.5243 59.0976 34.0759 59.0601 34.3869 59.0601L34.3869 52.7318ZM31.885 52.925C30.9183 53.0458 29.7682 53.2234 28.4446 53.4536L29.5289 59.6883C30.7928 59.4685 31.8366 59.3086 32.6699 59.2044L31.885 52.925ZM28.5592 53.4358C27.2713 53.6114 25.6287 53.8712 23.6426 54.2117L24.7118 60.449C26.6634 60.1145 28.2271 59.868 29.4143 59.7061L28.5592 53.4358ZM27.3079 57.7895C27.9233 53.5938 28.6796 48.7753 29.5774 43.3324L23.3334 42.3024C22.4312 47.7723 21.6687 52.6292 21.0465 56.8712L27.3079 57.7895ZM29.5782 43.3272C30.4735 37.8437 31.566 31.6524 32.8564 24.7515L26.6359 23.5883C25.3387 30.5254 24.2374 36.7657 23.3326 42.3075L29.5782 43.3272ZM29.8623 27.3319L62.0103 26.1507L61.7779 19.8266L29.63 21.0079L29.8623 27.3319ZM58.7535 22.6033L57.0659 36.3568L63.3471 37.1275L65.0347 23.374L58.7535 22.6033ZM60.0936 33.58C56.9448 33.6925 53.7398 33.805 50.4784 33.9174L50.6965 40.242C53.9603 40.1294 57.168 40.0169 60.3194 39.9043L60.0936 33.58ZM50.4765 33.9175C47.2536 34.0306 43.9472 34.1719 40.5572 34.3414L40.8733 40.6618C44.2335 40.4938 47.5085 40.3539 50.6984 40.2419L50.4765 33.9175ZM37.5829 37.0541C37.4691 37.8509 37.3274 38.8708 37.1582 40.1117L43.4285 40.9667C43.5968 39.7325 43.7364 38.7273 43.8476 37.9491L37.5829 37.0541ZM37.1422 40.2527C37.0324 41.4607 36.8945 42.785 36.7282 44.2266L43.0148 44.952C43.1859 43.4686 43.3293 42.0928 43.4445 40.8257L37.1422 40.2527ZM39.8715 47.7535C43.2911 47.7535 46.0662 48.0759 48.2534 48.6592L49.8839 42.5445C47.0084 41.7777 43.6521 41.4252 39.8715 41.4252L39.8715 47.7535ZM48.2534 48.6592C50.5155 49.2624 52.1665 50.0453 53.3297 50.9177L57.1267 45.855C55.1398 44.3648 52.6844 43.2913 49.8839 42.5445L48.2534 48.6592ZM53.3297 50.9177C54.5043 51.7986 55.2459 52.7669 55.6796 53.815L61.5271 51.3954C60.6107 49.1809 59.1022 47.3366 57.1267 45.855L53.3297 50.9177ZM55.7334 53.9377C56.2465 55.0427 56.5361 56.3508 56.5361 57.921L62.8644 57.921C62.8644 55.5536 62.4227 53.3178 61.4733 51.2727L55.7334 53.9377ZM100.194 61.8024L97.2036 60.7692L97.198 60.7855L97.1925 60.8018L100.194 61.8024ZM96.3973 70.4933L93.626 68.9663L93.614 68.9881L93.6022 69.0102L96.3973 70.4933ZM91.2503 77.7498L93.519 79.9555L93.534 79.9399L93.5489 79.9242L91.2503 77.7498ZM84.6688 82.6437L86.0839 85.4738L86.097 85.4673L86.11 85.4606L84.6688 82.6437ZM70.2402 82.9812L68.7557 85.7755L68.7734 85.7849L68.7912 85.7941L70.2402 82.9812ZM65.7682 79.0998L63.1354 80.855L63.1694 80.906L63.2054 80.9556L65.7682 79.0998ZM63.2369 73.2778L60.1672 74.0452L60.1695 74.0544L60.1718 74.0637L63.2369 73.2778ZM63.4056 56.4866L60.3029 55.866L63.4056 56.4866ZM66.2745 46.6144L63.3402 45.4304L63.3312 45.4527L63.3225 45.4751L66.2745 46.6144ZM70.9152 37.4172L68.2204 35.7589L70.9152 37.4172ZM76.7373 29.7388L74.471 27.5307L74.4563 27.5458L74.4418 27.5611L76.7373 29.7388ZM83.5719 24.5074L85.0643 27.2975L85.0893 27.2842L85.114 27.2704L83.5719 24.5074ZM96.4817 24.0855L94.6607 26.6732L94.6827 26.6887L94.705 26.7038L96.4817 24.0855ZM100.363 28.4732L97.5853 29.9883L97.5853 29.9883L100.363 28.4732ZM102.557 35.0546L99.4416 35.6085L99.4487 35.6487L99.4569 35.6887L102.557 35.0546ZM76.0623 68.2995L73.257 69.7631V69.7631L76.0623 68.2995ZM85.1751 68.1307L83.1888 65.6677L85.1751 68.1307ZM89.6471 62.8993L92.3668 64.5164L92.3762 64.5006L92.3854 64.4847L89.6471 62.8993ZM92.5159 55.9803L95.5686 56.8129L95.571 56.8042L95.5733 56.7956L92.5159 55.9803ZM92.094 42.6486L89.3021 44.1377L89.3212 44.1734L89.3411 44.2086L92.094 42.6486ZM82.9812 42.4799L85.2187 44.7173L85.239 44.6969L85.2589 44.6762L82.9812 42.4799ZM78.9311 48.3019L76.101 46.8869L76.0941 46.9008L76.0873 46.9147L78.9311 48.3019ZM76.1466 55.8116L79.2008 56.6387L76.1466 55.8116ZM100.152 42.9862C100.152 45.8477 99.9137 48.8044 99.4314 51.8586L105.682 52.8456C106.213 49.487 106.48 46.1998 106.48 42.9862L100.152 42.9862ZM99.4314 51.8586C98.9544 54.8799 98.2122 57.8495 97.2036 60.7692L103.185 62.8355C104.314 59.5676 105.147 56.237 105.682 52.8456L99.4314 51.8586ZM97.1925 60.8018C96.2396 63.6605 95.0506 66.381 93.626 68.9663L99.1686 72.0203C100.782 69.093 102.124 66.0195 103.196 62.803L97.1925 60.8018ZM93.6022 69.0102C92.2615 71.537 90.708 73.7186 88.9516 75.5754L93.5489 79.9242C95.7302 77.6183 97.608 74.9622 99.1924 71.9764L93.6022 69.0102ZM88.9816 75.5441C87.2438 77.3315 85.3271 78.7526 83.2276 79.8268L86.11 85.4606C88.8482 84.0596 91.3191 82.2182 93.519 79.9555L88.9816 75.5441ZM83.2537 79.8136C81.3588 80.761 79.26 81.2515 76.906 81.2515L76.906 87.5798C80.1772 87.5798 83.2536 86.8889 86.0839 85.4738L83.2537 79.8136ZM76.906 81.2515C74.7042 81.2515 73.0029 80.845 71.6893 80.1683L68.7912 85.7941C71.1902 87.0299 73.9327 87.5798 76.906 87.5798L76.906 81.2515ZM71.7247 80.1869C70.3456 79.4543 69.2256 78.4795 68.331 77.244L63.2054 80.9556C64.6733 82.9828 66.5347 84.5956 68.7557 85.7755L71.7247 80.1869ZM68.4009 77.3447C67.4952 75.986 66.7861 74.3805 66.3019 72.4919L60.1718 74.0637C60.8126 76.5627 61.7911 78.8385 63.1354 80.855L68.4009 77.3447ZM66.3065 72.5103C65.8135 70.5382 65.5572 68.3795 65.5572 66.0213L59.2289 66.0213C59.2289 68.8382 59.5351 71.5171 60.1672 74.0452L66.3065 72.5103ZM65.5572 66.0213C65.5572 63.2773 65.8681 60.3085 66.5083 57.1071L60.3029 55.866C59.5931 59.4149 59.2289 62.8025 59.2289 66.0213L65.5572 66.0213ZM66.5083 57.1071C67.148 53.9087 68.0539 50.7915 69.2264 47.7537L63.3225 45.4751C62.0199 48.85 61.0132 52.3143 60.3029 55.866L66.5083 57.1071ZM69.2087 47.7984C70.4366 44.7555 71.9036 41.8485 73.61 39.0756L68.2204 35.7589C66.3268 38.8361 64.6999 42.0606 63.3402 45.4304L69.2087 47.7984ZM73.61 39.0756C75.3105 36.3123 77.1209 33.9319 79.0328 31.9166L74.4418 27.5611C72.1911 29.9335 70.1201 32.672 68.2204 35.7589L73.61 39.0756ZM79.0036 31.947C80.9407 29.9589 82.963 28.4215 85.0643 27.2975L82.0795 21.7173C79.3432 23.1809 76.8091 25.1311 74.471 27.5307L79.0036 31.947ZM85.114 27.2704C87.0957 26.1643 89.0717 25.6465 91.0815 25.6465L91.0815 19.3182C87.9161 19.3182 84.8857 20.1505 82.0298 21.7445L85.114 27.2704ZM91.0815 25.6465C92.5929 25.6465 93.7384 26.0242 94.6607 26.6732L98.3026 21.4979C96.1874 20.0094 93.7327 19.3182 91.0815 19.3182L91.0815 25.6465ZM94.705 26.7038C95.8188 27.4596 96.7868 28.5244 97.5853 29.9883L103.141 26.958C101.914 24.7093 100.295 22.849 98.2584 21.4673L94.705 26.7038ZM97.5853 29.9883C98.4031 31.4878 99.0389 33.3436 99.4416 35.6085L105.672 34.5008C105.175 31.703 104.348 29.1712 103.141 26.958L97.5853 29.9883ZM99.4569 35.6887C99.916 37.9332 100.152 40.3629 100.152 42.9862L106.48 42.9862C106.48 39.9842 106.21 37.1262 105.657 34.4206L99.4569 35.6887ZM71.8856 63.2368C71.8856 65.6244 72.2673 67.8663 73.257 69.7631L78.8676 66.8358C78.5072 66.1451 78.2139 65.0118 78.2139 63.2368L71.8856 63.2368ZM73.257 69.7631C73.8377 70.8762 74.6864 71.8375 75.8351 72.498C76.9703 73.1508 78.2143 73.4043 79.4374 73.4043L79.4374 67.076C79.2593 67.076 79.1439 67.0577 79.0777 67.0418C79.0142 67.0266 78.9906 67.0125 78.9896 67.012C78.9878 67.011 78.9871 67.0104 78.9861 67.0096C78.985 67.0088 78.9806 67.0052 78.9728 66.9968C78.958 66.9808 78.9191 66.9346 78.8676 66.8358L73.257 69.7631ZM79.4374 73.4043C82.2984 73.4043 84.901 72.4166 87.1614 70.5937L83.1888 65.6677C81.9615 66.6574 80.739 67.076 79.4374 67.076L79.4374 73.4043ZM87.1614 70.5937C89.2209 68.9329 90.9526 66.8948 92.3668 64.5164L86.9274 61.2822C85.8665 63.0664 84.6169 64.516 83.1888 65.6677L87.1614 70.5937ZM92.3854 64.4847C93.765 62.1018 94.8245 59.5412 95.5686 56.8129L89.4633 55.1478C88.8573 57.3696 88.0042 59.4217 86.9087 61.3139L92.3854 64.4847ZM95.5733 56.7956C96.3079 54.0408 96.6926 51.3743 96.6926 48.8082L90.3643 48.8082C90.3643 50.7423 90.074 52.8572 89.4586 55.165L95.5733 56.7956ZM96.6926 48.8082C96.6926 45.9759 96.1317 43.3559 94.8469 41.0887L89.3411 44.2086C89.969 45.3165 90.3643 46.8028 90.3643 48.8082L96.6926 48.8082ZM94.886 41.1596C94.1953 39.8647 93.2129 38.7649 91.9033 38.0094C90.6036 37.2596 89.1632 36.9531 87.7064 36.9531L87.7064 43.2815C88.2746 43.2815 88.5781 43.397 88.7409 43.4909C88.8939 43.5792 89.0927 43.7451 89.3021 44.1377L94.886 41.1596ZM87.7064 36.9531C84.9532 36.9531 82.6077 38.3089 80.7035 40.2835L85.2589 44.6762C86.3924 43.5008 87.197 43.2815 87.7064 43.2815L87.7064 36.9531ZM80.7438 40.2425C78.9366 42.0497 77.4008 44.2873 76.101 46.8869L81.7612 49.717C82.824 47.5914 83.9883 45.9477 85.2187 44.7173L80.7438 40.2425ZM76.0873 46.9147C74.8672 49.4159 73.8714 52.1085 73.0925 54.9844L79.2008 56.6387C79.8844 54.1144 80.745 51.8006 81.775 49.6892L76.0873 46.9147ZM73.0925 54.9844C72.3051 57.8917 71.8856 60.6493 71.8856 63.2368L78.2139 63.2368C78.2139 61.3242 78.5256 59.1316 79.2008 56.6387L73.0925 54.9844ZM101.26 84.5844L98.1663 83.9214L97.2102 88.3831L101.724 87.7144L101.26 84.5844ZM105.985 61.6336L109.09 62.2451L109.096 62.2128L109.102 62.1804L105.985 61.6336ZM107.757 51.6771L104.643 51.1155L107.757 51.6771ZM109.445 41.4673L106.324 40.9472L106.32 40.9725L106.316 40.998L109.445 41.4673ZM110.879 31.6795L107.746 31.2397L107.743 31.2634L107.74 31.2871L110.879 31.6795ZM111.892 22.9886L112.166 19.8364L109.014 19.5622L108.74 22.7145L111.892 22.9886ZM116.279 23.3261L116.062 26.4828L116.116 26.4865L116.17 26.4884L116.279 23.3261ZM120.836 23.5793L120.584 26.7334L120.604 26.735L120.625 26.7364L120.836 23.5793ZM125.899 23.748L128.968 24.5155L129.951 20.5839L125.899 20.5839L125.899 23.748ZM125.645 25.0137L122.532 24.4477L122.532 24.4477L125.645 25.0137ZM125.224 27.2919L128.326 27.9124L128.33 27.8937L128.333 27.875L125.224 27.2919ZM124.633 30.1607L121.537 29.5089L121.52 29.5877L121.507 29.6672L124.633 30.1607ZM124.042 33.3671L120.946 32.7152L120.937 32.758L120.929 32.8011L124.042 33.3671ZM122.523 41.7205L119.41 41.1545L118.605 45.5813L123.044 44.8416L122.523 41.7205ZM123.03 41.6361L123.55 44.7572L124.957 44.5227L125.713 43.3131L123.03 41.6361ZM125.392 37.9235L122.746 36.1894L122.738 36.2009L122.731 36.2124L125.392 37.9235ZM131.974 27.6294L134.62 29.3634L134.634 29.343L134.647 29.3224L131.974 27.6294ZM134.674 23.3261L134.421 20.172L132.826 20.2997L131.983 21.6607L134.674 23.3261ZM151.549 21.4698L154.086 23.3619L158.747 17.1138L151.049 18.3454L151.549 21.4698ZM143.871 31.9327L146.426 33.7996L146.431 33.7917L146.437 33.7837L143.871 31.9327ZM140.58 36.4891L138.005 34.6499L137.983 34.6809L137.962 34.7124L140.58 36.4891ZM137.374 41.1298L139.962 42.9508V42.9508L137.374 41.1298ZM134.336 45.5175L131.72 43.7382L131.695 43.7747L131.671 43.8118L134.336 45.5175ZM131.889 49.3989L129.199 47.7334L128.525 48.8217L128.798 50.0723L131.889 49.3989ZM141.424 82.053L141.287 85.2142L145.805 85.4107L144.441 81.0987L141.424 82.053ZM137.458 81.9687L137.327 85.1301L137.392 85.1328L137.458 85.1328L137.458 81.9687ZM128.767 81.9687L128.767 85.1328L128.826 85.1328L128.884 85.1307L128.767 81.9687ZM124.042 82.053L120.908 82.487L121.299 85.3137L124.151 85.2153L124.042 82.053ZM122.355 70.5777L119.221 71.013L119.224 71.0376L119.228 71.0621L122.355 70.5777ZM120.751 59.0179L123.886 58.5839L122.922 51.6236L118.349 56.9587L120.751 59.0179ZM119.233 60.7899L116.83 58.7306L116.327 59.3178L116.151 60.0709L119.233 60.7899ZM117.883 67.0338L114.783 66.3997L114.776 66.4337L114.77 66.4678L117.883 67.0338ZM116.533 74.2059L113.427 73.5999L113.425 73.6114L113.423 73.6228L116.533 74.2059ZM114.929 82.5593L115.393 85.6893L117.604 85.3617L118.034 83.1681L114.929 82.5593ZM104.354 85.2474C106.045 77.3561 107.624 69.6886 109.09 62.2451L102.881 61.0221C101.422 68.4291 99.8504 76.0622 98.1663 83.9214L104.354 85.2474ZM109.102 62.1804C109.664 58.9793 110.253 55.6654 110.871 52.2386L104.643 51.1155C104.024 54.5515 103.432 57.8753 102.869 61.0869L109.102 62.1804ZM110.871 52.2386C111.495 48.7772 112.063 45.3433 112.574 41.9367L106.316 40.998C105.814 44.3416 105.257 47.7141 104.643 51.1155L110.871 52.2386ZM112.566 41.9875C113.135 38.5732 113.62 35.2679 114.019 32.072L107.74 31.2871C107.352 34.3913 106.88 37.6113 106.324 40.9472L112.566 41.9875ZM114.013 32.1193C114.469 28.8707 114.813 25.9172 115.044 23.2627L108.74 22.7145C108.52 25.2352 108.19 28.0757 107.746 31.2397L114.013 32.1193ZM111.618 26.1409C112.934 26.2554 114.416 26.3693 116.062 26.4828L116.497 20.1695C114.88 20.0579 113.437 19.9469 112.166 19.8364L111.618 26.1409ZM116.17 26.4884C117.761 26.5433 119.232 26.6252 120.584 26.7334L121.088 20.4252C119.628 20.3083 118.06 20.2215 116.389 20.1639L116.17 26.4884ZM120.625 26.7364C122.383 26.8536 124.141 26.9122 125.899 26.9122L125.899 20.5839C124.281 20.5839 122.664 20.53 121.046 20.4221L120.625 26.7364ZM122.829 22.9806C122.744 23.3196 122.643 23.8381 122.532 24.4477L128.759 25.5797C128.873 24.9518 128.94 24.6265 128.968 24.5155L122.829 22.9806ZM122.532 24.4477C122.421 25.0588 122.282 25.8121 122.114 26.7088L128.333 27.875C128.503 26.9716 128.645 26.2061 128.759 25.5797L122.532 24.4477ZM122.121 26.6713C121.955 27.5023 121.76 28.4479 121.537 29.5089L127.729 30.8126C127.956 29.736 128.155 28.769 128.326 27.9124L122.121 26.6713ZM121.507 29.6672C121.347 30.6825 121.16 31.6985 120.946 32.7152L127.139 34.0189C127.374 32.8981 127.581 31.7765 127.758 30.6542L121.507 29.6672ZM120.929 32.8011C120.479 35.2761 119.973 38.0606 119.41 41.1545L125.637 42.2865C126.199 39.1927 126.705 36.4082 127.155 33.9331L120.929 32.8011ZM123.044 44.8416L123.55 44.7572L122.51 38.515L122.003 38.5994L123.044 44.8416ZM125.713 43.3131C126.265 42.4299 127.044 41.2054 128.054 39.6345L122.731 36.2124C121.715 37.7917 120.92 39.0423 120.346 39.9591L125.713 43.3131ZM128.039 39.6575C129.121 38.0058 130.23 36.271 131.366 34.4534L126 31.0994C124.886 32.882 123.801 34.5786 122.746 36.1894L128.039 39.6575ZM131.366 34.4534C132.48 32.6709 133.565 30.9743 134.62 29.3634L129.327 25.8954C128.245 27.5471 127.136 29.2819 126 31.0994L131.366 34.4534ZM134.647 29.3224C135.719 27.6293 136.625 26.1851 137.364 24.9916L131.983 21.6607C131.26 22.8297 130.366 24.2544 129.301 25.9364L134.647 29.3224ZM134.926 26.4802C137.76 26.2535 140.593 25.9985 143.426 25.7152L142.797 19.4183C140.005 19.6975 137.213 19.9487 134.421 20.172L134.926 26.4802ZM143.426 25.7152C146.301 25.4277 149.176 25.054 152.049 24.5943L151.049 18.3454C148.298 18.7857 145.547 19.1433 142.797 19.4183L143.426 25.7152ZM149.013 19.5778C146.36 23.1346 143.79 26.6359 141.305 30.0816L146.437 33.7837C148.902 30.3667 151.451 26.8928 154.086 23.3619L149.013 19.5778ZM141.316 30.0658C140.24 31.5381 139.137 33.0662 138.005 34.6499L143.155 38.3282C144.274 36.7618 145.364 35.2523 146.426 33.7996L141.316 30.0658ZM137.962 34.7124C136.903 36.273 135.844 37.8051 134.786 39.3089L139.962 42.9508C141.041 41.417 142.12 39.8553 143.199 38.2657L137.962 34.7124ZM134.786 39.3089C133.709 40.8403 132.686 42.3168 131.72 43.7382L136.953 47.2967C137.899 45.9056 138.902 44.457 139.962 42.9508L134.786 39.3089ZM131.671 43.8118C130.764 45.2289 129.94 46.5363 129.199 47.7334L134.58 51.0643C135.301 49.8989 136.108 48.6187 137.001 47.2231L131.671 43.8118ZM128.798 50.0723C130.055 55.8465 131.543 61.4276 133.263 66.8146L139.291 64.8905C137.635 59.7021 136.198 54.3141 134.981 48.7254L128.798 50.0723ZM133.263 66.8146C134.949 72.0995 136.664 77.4971 138.407 83.0073L144.441 81.0987C142.696 75.5836 140.98 70.1808 139.291 64.8905L133.263 66.8146ZM141.561 78.8919C140.22 78.8335 138.852 78.8045 137.458 78.8045L137.458 85.1328C138.764 85.1328 140.04 85.16 141.287 85.2142L141.561 78.8919ZM137.59 78.8072C136.198 78.7492 134.832 78.7201 133.493 78.7201L133.493 85.0485C134.741 85.0485 136.018 85.0756 137.327 85.1301L137.59 78.8072ZM133.493 78.7201C131.825 78.7201 130.211 78.7489 128.65 78.8067L128.884 85.1307C130.362 85.076 131.897 85.0485 133.493 85.0485L133.493 78.7201ZM128.767 78.8045C127.21 78.8045 125.598 78.8333 123.933 78.8908L124.151 85.2153C125.749 85.1602 127.288 85.1328 128.767 85.1328L128.767 78.8045ZM127.176 81.6191C126.668 77.9444 126.103 74.1024 125.482 70.0932L119.228 71.0621C119.844 75.0407 120.404 78.849 120.908 82.487L127.176 81.6191ZM125.489 70.1424C124.926 66.0926 124.392 62.2398 123.886 58.5839L117.617 59.4519C118.124 63.1087 118.658 66.9624 119.221 71.013L125.489 70.1424ZM118.349 56.9587L116.83 58.7306L121.635 62.8491L123.154 61.0771L118.349 56.9587ZM116.151 60.0709C115.749 61.7962 115.292 63.9078 114.783 66.3997L120.983 67.6679C121.485 65.2096 121.929 63.1586 122.314 61.5088L116.151 60.0709ZM114.77 66.4678C114.322 68.9305 113.874 71.3078 113.427 73.5999L119.638 74.8119C120.091 72.4914 120.544 70.0873 120.996 67.5998L114.77 66.4678ZM113.423 73.6228C112.918 76.3138 112.385 79.0897 111.824 81.9505L118.034 83.1681C118.599 80.2913 119.135 77.4982 119.643 74.789L113.423 73.6228ZM114.466 79.4293L100.797 81.4544L101.724 87.7144L115.393 85.6893L114.466 79.4293Z" fill="#F8DEB4"/>
</g>
<path d="M58.6877 63.9962L55.6779 63.0201L58.6877 63.9962ZM55.9032 70.1558L53.1701 68.5615L53.163 68.5737L53.156 68.5859L55.9032 70.1558ZM51.8531 75.8091L49.4718 73.7255L49.4718 73.7255L51.8531 75.8091ZM46.7904 80.5342L44.8919 78.0029L44.8726 78.0174L44.8534 78.0323L46.7904 80.5342ZM41.3059 83.7406L42.5106 86.6664L41.3059 83.7406ZM29.9149 83.825L28.6568 86.7283L28.674 86.7357L28.6912 86.743L29.9149 83.825ZM25.6116 80.7874L23.1809 82.813L23.2267 82.868L23.2749 82.9209L25.6116 80.7874ZM22.9959 75.9779L25.9977 74.9772L25.9977 74.9772L22.9959 75.9779ZM22.1521 66.5275L19.0022 66.2276L18.9951 66.3022L18.9916 66.377L22.1521 66.5275ZM22.4897 62.8149L22.7355 59.6603L19.609 59.4167L19.3374 62.5408L22.4897 62.8149ZM35.4838 63.8275L38.4856 64.828L39.7658 60.9874L35.7296 60.6729L35.4838 63.8275ZM36.0745 68.2995L34.176 70.8308L34.176 70.8308L36.0745 68.2995ZM40.6309 68.637L41.7667 71.5902L41.8224 71.5688L41.8773 71.5453L40.6309 68.637ZM42.7403 67.1182L40.5029 64.8808L40.4543 64.9294L40.4078 64.9801L42.7403 67.1182ZM44.3435 64.5869L41.3945 63.44L44.3435 64.5869ZM44.5966 59.1023L41.5269 59.8697L41.5668 60.0292L41.623 60.1836L44.5966 59.1023ZM43.331 57.4147L41.4699 59.9737L41.5221 60.0117L41.5758 60.0475L43.331 57.4147ZM40.6309 56.3178L39.7616 59.3603L39.8294 59.3796L39.898 59.396L40.6309 56.3178ZM34.3869 55.8959L34.3869 59.0601L34.5447 59.0601L34.7018 59.0444L34.3869 55.8959ZM28.9867 56.571L29.4143 59.7061L29.4717 59.6983L29.5289 59.6883L28.9867 56.571ZM24.1772 57.3304L21.0465 56.8712L20.4137 61.1859L24.7118 60.449L24.1772 57.3304ZM26.4554 42.8174L29.5774 43.3324L29.5782 43.3272L26.4554 42.8174ZM29.7461 24.1699L29.63 21.0079L27.101 21.1008L26.6359 23.5883L29.7461 24.1699ZM61.8941 22.9886L65.0347 23.374L65.4867 19.6903L61.7779 19.8266L61.8941 22.9886ZM60.2065 36.7422L60.3194 39.9043L63.0182 39.808L63.3471 37.1275L60.2065 36.7422ZM50.5874 37.0797L50.4784 33.9174L50.4765 33.9175L50.5874 37.0797ZM40.7152 37.5016L40.5572 34.3414L37.9518 34.4716L37.5829 37.0541L40.7152 37.5016ZM40.2934 40.5392L37.1582 40.1117L37.1486 40.182L37.1422 40.2527L40.2934 40.5392ZM39.8715 44.5893L36.7282 44.2266L36.3212 47.7535L39.8715 47.7535L39.8715 44.5893ZM49.0686 45.6019L49.8839 42.5445L49.0686 45.6019ZM55.2282 48.3863L57.1267 45.855L55.2282 48.3863ZM58.6033 52.6052L55.6796 53.815L55.7052 53.8769L55.7334 53.9377L58.6033 52.6052ZM56.5361 57.921C56.5361 59.5237 56.2619 61.2193 55.6779 63.0201L61.6975 64.9724C62.4635 62.6105 62.8644 60.256 62.8644 57.921L56.5361 57.921ZM55.6779 63.0201C55.0775 64.8713 54.2454 66.7181 53.1701 68.5615L58.6364 71.7501C59.9237 69.5433 60.9479 67.2838 61.6975 64.9724L55.6779 63.0201ZM53.156 68.5859C52.1411 70.362 50.9156 72.0754 49.4718 73.7255L54.2344 77.8927C55.9407 75.9427 57.4153 73.8872 58.6505 71.7257L53.156 68.5859ZM49.4718 73.7255C48.0326 75.3703 46.5053 76.7929 44.8919 78.0029L48.6889 83.0656C50.6757 81.5755 52.5235 79.848 54.2344 77.8927L49.4718 73.7255ZM44.8534 78.0323C43.3188 79.2203 41.735 80.142 40.1011 80.8148L42.5106 86.6664C44.7019 85.7641 46.7744 84.5482 48.7275 83.0362L44.8534 78.0323ZM40.1011 80.8148C38.5143 81.4682 37.0668 81.7577 35.737 81.7577L35.737 88.0861C38.0073 88.0861 40.2724 87.5881 42.5106 86.6664L40.1011 80.8148ZM35.737 81.7577C33.965 81.7577 32.4475 81.4559 31.1386 80.907L28.6912 86.743C30.8699 87.6566 33.2338 88.0861 35.737 88.0861L35.737 81.7577ZM31.173 80.9217C29.8744 80.359 28.8135 79.6014 27.9483 78.6539L23.2749 82.9209C24.7724 84.5609 26.5803 85.8284 28.6568 86.7283L31.173 80.9217ZM28.0424 78.7617C27.197 77.7473 26.5058 76.5016 25.9977 74.9772L19.9941 76.9784C20.7235 79.1667 21.7761 81.1274 23.1809 82.813L28.0424 78.7617ZM25.9977 74.9772C25.4987 73.4801 25.2319 71.7971 25.2319 69.9026L18.9036 69.9026C18.9036 72.3958 19.2556 74.763 19.9941 76.9784L25.9977 74.9772ZM25.2319 69.9026C25.2319 68.889 25.2586 67.8144 25.3127 66.678L18.9916 66.377C18.9332 67.6033 18.9036 68.7787 18.9036 69.9026L25.2319 69.9026ZM25.3021 66.8275C25.4155 65.6369 25.5287 64.3907 25.6419 63.089L19.3374 62.5408C19.2256 63.8268 19.1138 65.0556 19.0022 66.2276L25.3021 66.8275ZM22.2438 65.9695L35.238 66.9821L35.7296 60.6729L22.7355 59.6603L22.2438 65.9695ZM32.482 62.8269C32.1616 63.7881 31.8978 64.842 31.8978 65.8525L38.2261 65.8525C38.2261 65.8781 38.2243 65.8077 38.2651 65.6119C38.3044 65.4231 38.3733 65.1649 38.4856 64.828L32.482 62.8269ZM31.8978 65.8525C31.8978 67.6135 32.4545 69.5397 34.176 70.8308L37.973 65.7681C38.0323 65.8127 38.0919 65.8703 38.1435 65.9377C38.1945 66.0044 38.224 66.0624 38.2388 66.0982C38.2658 66.1635 38.2261 66.1093 38.2261 65.8525L31.8978 65.8525ZM34.176 70.8308C35.4363 71.7761 36.901 72.223 38.437 72.223L38.437 65.8947C38.1731 65.8947 38.0627 65.8354 37.973 65.7681L34.176 70.8308ZM38.437 72.223C39.5837 72.223 40.6991 72.0009 41.7667 71.5902L39.495 65.6837C39.1001 65.8356 38.753 65.8947 38.437 65.8947L38.437 72.223ZM41.8773 71.5453C43.1053 71.019 44.1719 70.239 45.0728 69.2563L40.4078 64.9801C40.0712 65.3474 39.7315 65.5799 39.3844 65.7287L41.8773 71.5453ZM44.9777 69.3556C46.003 68.3303 46.7616 67.0989 47.2925 65.7337L41.3945 63.44C41.1378 64.0999 40.8276 64.5561 40.5029 64.8808L44.9777 69.3556ZM47.2925 65.7337C47.8583 64.2787 48.0983 62.6935 48.0983 61.043L41.77 61.043C41.77 62.0926 41.6162 62.8699 41.3945 63.44L47.2925 65.7337ZM48.0983 61.043C48.0983 60.0086 47.9245 58.9951 47.5703 58.021L41.623 60.1836C41.7187 60.447 41.77 60.7273 41.77 61.043L48.0983 61.043ZM47.6663 58.3349C47.2754 56.7713 46.3004 55.5915 45.0861 54.782L41.5758 60.0475C41.6599 60.1036 41.6569 60.1187 41.6223 60.0726C41.6055 60.0502 41.5856 60.0189 41.567 59.98C41.5484 59.9411 41.5353 59.9031 41.5269 59.8697L47.6663 58.3349ZM45.192 54.8558C44.0952 54.0581 42.7403 53.5675 41.3638 53.2397L39.898 59.396C40.8841 59.6307 41.3292 59.8714 41.4699 59.9737L45.192 54.8558ZM41.5001 53.2754C39.9249 52.8253 38.0527 52.6474 35.9901 52.6474L35.9901 58.9757C37.7527 58.9757 38.9743 59.1353 39.7616 59.3603L41.5001 53.2754ZM35.9901 52.6474C35.3674 52.6474 34.7273 52.682 34.0721 52.7475L34.7018 59.0444C35.1715 58.9974 35.6003 58.9757 35.9901 58.9757L35.9901 52.6474ZM34.3869 52.7318C33.6854 52.7318 32.8307 52.8068 31.885 52.925L32.6699 59.2044C33.5243 59.0976 34.0759 59.0601 34.3869 59.0601L34.3869 52.7318ZM31.885 52.925C30.9183 53.0458 29.7682 53.2234 28.4446 53.4536L29.5289 59.6883C30.7928 59.4685 31.8366 59.3086 32.6699 59.2044L31.885 52.925ZM28.5592 53.4358C27.2713 53.6114 25.6287 53.8712 23.6426 54.2117L24.7118 60.449C26.6634 60.1145 28.2271 59.868 29.4143 59.7061L28.5592 53.4358ZM27.3079 57.7895C27.9233 53.5938 28.6796 48.7753 29.5774 43.3324L23.3334 42.3024C22.4312 47.7723 21.6687 52.6292 21.0465 56.8712L27.3079 57.7895ZM29.5782 43.3272C30.4735 37.8437 31.566 31.6524 32.8564 24.7515L26.6359 23.5883C25.3387 30.5254 24.2374 36.7657 23.3326 42.3075L29.5782 43.3272ZM29.8623 27.3319L62.0103 26.1507L61.7779 19.8266L29.63 21.0079L29.8623 27.3319ZM58.7535 22.6033L57.0659 36.3568L63.3471 37.1275L65.0347 23.374L58.7535 22.6033ZM60.0936 33.58C56.9448 33.6925 53.7398 33.805 50.4784 33.9174L50.6965 40.242C53.9603 40.1294 57.168 40.0169 60.3194 39.9043L60.0936 33.58ZM50.4765 33.9175C47.2536 34.0306 43.9472 34.1719 40.5572 34.3414L40.8733 40.6618C44.2335 40.4938 47.5085 40.3539 50.6984 40.2419L50.4765 33.9175ZM37.5829 37.0541C37.4691 37.8509 37.3274 38.8708 37.1582 40.1117L43.4285 40.9667C43.5968 39.7325 43.7364 38.7273 43.8476 37.9491L37.5829 37.0541ZM37.1422 40.2527C37.0324 41.4607 36.8945 42.785 36.7282 44.2266L43.0148 44.952C43.1859 43.4686 43.3293 42.0928 43.4445 40.8257L37.1422 40.2527ZM39.8715 47.7535C43.2911 47.7535 46.0662 48.0759 48.2534 48.6592L49.8839 42.5445C47.0084 41.7777 43.6521 41.4252 39.8715 41.4252L39.8715 47.7535ZM48.2534 48.6592C50.5155 49.2624 52.1665 50.0453 53.3297 50.9177L57.1267 45.855C55.1398 44.3648 52.6844 43.2913 49.8839 42.5445L48.2534 48.6592ZM53.3297 50.9177C54.5043 51.7986 55.2459 52.7669 55.6796 53.815L61.5271 51.3954C60.6107 49.1809 59.1022 47.3366 57.1267 45.855L53.3297 50.9177ZM55.7334 53.9377C56.2465 55.0427 56.5361 56.3508 56.5361 57.921L62.8644 57.921C62.8644 55.5536 62.4227 53.3178 61.4733 51.2727L55.7334 53.9377ZM100.194 61.8024L97.2036 60.7692L97.198 60.7855L97.1925 60.8018L100.194 61.8024ZM96.3973 70.4933L93.626 68.9663L93.614 68.9881L93.6022 69.0102L96.3973 70.4933ZM91.2503 77.7498L93.519 79.9555L93.534 79.9399L93.5489 79.9242L91.2503 77.7498ZM84.6688 82.6437L86.0839 85.4738L86.097 85.4673L86.11 85.4606L84.6688 82.6437ZM70.2402 82.9812L68.7557 85.7755L68.7734 85.7849L68.7912 85.7941L70.2402 82.9812ZM65.7682 79.0998L63.1354 80.855L63.1694 80.906L63.2054 80.9556L65.7682 79.0998ZM63.2369 73.2778L60.1672 74.0452L60.1695 74.0544L60.1718 74.0637L63.2369 73.2778ZM63.4056 56.4866L60.3029 55.866L63.4056 56.4866ZM66.2745 46.6144L63.3402 45.4304L63.3312 45.4527L63.3225 45.4751L66.2745 46.6144ZM70.9152 37.4172L68.2204 35.7589L70.9152 37.4172ZM76.7373 29.7388L74.471 27.5307L74.4563 27.5458L74.4418 27.5611L76.7373 29.7388ZM83.5719 24.5074L85.0643 27.2975L85.0893 27.2842L85.114 27.2704L83.5719 24.5074ZM96.4817 24.0855L94.6607 26.6732L94.6827 26.6887L94.705 26.7038L96.4817 24.0855ZM100.363 28.4732L97.5853 29.9883L97.5853 29.9883L100.363 28.4732ZM102.557 35.0546L99.4416 35.6085L99.4487 35.6487L99.4569 35.6887L102.557 35.0546ZM76.0623 68.2995L73.257 69.7631V69.7631L76.0623 68.2995ZM85.1751 68.1307L83.1888 65.6677L85.1751 68.1307ZM89.6471 62.8993L92.3668 64.5164L92.3762 64.5006L92.3854 64.4847L89.6471 62.8993ZM92.5159 55.9803L95.5686 56.8129L95.571 56.8042L95.5733 56.7956L92.5159 55.9803ZM92.094 42.6486L89.3021 44.1377L89.3212 44.1734L89.3411 44.2086L92.094 42.6486ZM82.9812 42.4799L85.2187 44.7173L85.239 44.6969L85.2589 44.6762L82.9812 42.4799ZM78.9311 48.3019L76.101 46.8869L76.0941 46.9008L76.0873 46.9147L78.9311 48.3019ZM76.1466 55.8116L79.2008 56.6387L76.1466 55.8116ZM100.152 42.9862C100.152 45.8477 99.9137 48.8044 99.4314 51.8586L105.682 52.8456C106.213 49.487 106.48 46.1998 106.48 42.9862L100.152 42.9862ZM99.4314 51.8586C98.9544 54.8799 98.2122 57.8495 97.2036 60.7692L103.185 62.8355C104.314 59.5676 105.147 56.237 105.682 52.8456L99.4314 51.8586ZM97.1925 60.8018C96.2396 63.6605 95.0506 66.381 93.626 68.9663L99.1686 72.0203C100.782 69.093 102.124 66.0195 103.196 62.803L97.1925 60.8018ZM93.6022 69.0102C92.2615 71.537 90.708 73.7186 88.9516 75.5754L93.5489 79.9242C95.7302 77.6183 97.608 74.9622 99.1924 71.9764L93.6022 69.0102ZM88.9816 75.5441C87.2438 77.3315 85.3271 78.7526 83.2276 79.8268L86.11 85.4606C88.8482 84.0596 91.3191 82.2182 93.519 79.9555L88.9816 75.5441ZM83.2537 79.8136C81.3588 80.761 79.26 81.2515 76.906 81.2515L76.906 87.5798C80.1772 87.5798 83.2536 86.8889 86.0839 85.4738L83.2537 79.8136ZM76.906 81.2515C74.7042 81.2515 73.0029 80.845 71.6893 80.1683L68.7912 85.7941C71.1902 87.0299 73.9327 87.5798 76.906 87.5798L76.906 81.2515ZM71.7247 80.1869C70.3456 79.4543 69.2256 78.4795 68.331 77.244L63.2054 80.9556C64.6733 82.9828 66.5347 84.5956 68.7557 85.7755L71.7247 80.1869ZM68.4009 77.3447C67.4952 75.986 66.7861 74.3805 66.3019 72.4919L60.1718 74.0637C60.8126 76.5627 61.7911 78.8385 63.1354 80.855L68.4009 77.3447ZM66.3065 72.5103C65.8135 70.5382 65.5572 68.3795 65.5572 66.0213L59.2289 66.0213C59.2289 68.8382 59.5351 71.5171 60.1672 74.0452L66.3065 72.5103ZM65.5572 66.0213C65.5572 63.2773 65.8681 60.3085 66.5083 57.1071L60.3029 55.866C59.5931 59.4149 59.2289 62.8025 59.2289 66.0213L65.5572 66.0213ZM66.5083 57.1071C67.148 53.9087 68.0539 50.7915 69.2264 47.7537L63.3225 45.4751C62.0199 48.85 61.0132 52.3143 60.3029 55.866L66.5083 57.1071ZM69.2087 47.7984C70.4366 44.7555 71.9036 41.8485 73.61 39.0756L68.2204 35.7589C66.3268 38.8361 64.6999 42.0606 63.3402 45.4304L69.2087 47.7984ZM73.61 39.0756C75.3105 36.3123 77.1209 33.9319 79.0328 31.9166L74.4418 27.5611C72.1911 29.9335 70.1201 32.672 68.2204 35.7589L73.61 39.0756ZM79.0036 31.947C80.9407 29.9589 82.963 28.4215 85.0643 27.2975L82.0795 21.7173C79.3432 23.1809 76.8091 25.1311 74.471 27.5307L79.0036 31.947ZM85.114 27.2704C87.0957 26.1643 89.0717 25.6465 91.0815 25.6465L91.0815 19.3182C87.9161 19.3182 84.8857 20.1505 82.0298 21.7445L85.114 27.2704ZM91.0815 25.6465C92.5929 25.6465 93.7384 26.0242 94.6607 26.6732L98.3026 21.4979C96.1874 20.0094 93.7327 19.3182 91.0815 19.3182L91.0815 25.6465ZM94.705 26.7038C95.8188 27.4596 96.7868 28.5244 97.5853 29.9883L103.141 26.958C101.914 24.7093 100.295 22.849 98.2584 21.4673L94.705 26.7038ZM97.5853 29.9883C98.4031 31.4878 99.0389 33.3436 99.4416 35.6085L105.672 34.5008C105.175 31.703 104.348 29.1712 103.141 26.958L97.5853 29.9883ZM99.4569 35.6887C99.916 37.9332 100.152 40.3629 100.152 42.9862L106.48 42.9862C106.48 39.9842 106.21 37.1262 105.657 34.4206L99.4569 35.6887ZM71.8856 63.2368C71.8856 65.6244 72.2673 67.8663 73.257 69.7631L78.8676 66.8358C78.5072 66.1451 78.2139 65.0118 78.2139 63.2368L71.8856 63.2368ZM73.257 69.7631C73.8377 70.8762 74.6864 71.8375 75.8351 72.498C76.9703 73.1508 78.2143 73.4043 79.4374 73.4043L79.4374 67.076C79.2593 67.076 79.1439 67.0577 79.0777 67.0418C79.0142 67.0266 78.9906 67.0125 78.9896 67.012C78.9878 67.011 78.9871 67.0104 78.9861 67.0096C78.985 67.0088 78.9806 67.0052 78.9728 66.9968C78.958 66.9808 78.9191 66.9346 78.8676 66.8358L73.257 69.7631ZM79.4374 73.4043C82.2984 73.4043 84.901 72.4166 87.1614 70.5937L83.1888 65.6677C81.9615 66.6574 80.739 67.076 79.4374 67.076L79.4374 73.4043ZM87.1614 70.5937C89.2209 68.9329 90.9526 66.8948 92.3668 64.5164L86.9274 61.2822C85.8665 63.0664 84.6169 64.516 83.1888 65.6677L87.1614 70.5937ZM92.3854 64.4847C93.765 62.1018 94.8245 59.5412 95.5686 56.8129L89.4633 55.1478C88.8573 57.3696 88.0042 59.4217 86.9087 61.3139L92.3854 64.4847ZM95.5733 56.7956C96.3079 54.0408 96.6926 51.3743 96.6926 48.8082L90.3643 48.8082C90.3643 50.7423 90.074 52.8572 89.4586 55.165L95.5733 56.7956ZM96.6926 48.8082C96.6926 45.9759 96.1317 43.3559 94.8469 41.0887L89.3411 44.2086C89.969 45.3165 90.3643 46.8028 90.3643 48.8082L96.6926 48.8082ZM94.886 41.1596C94.1953 39.8647 93.2129 38.7649 91.9033 38.0094C90.6036 37.2596 89.1632 36.9531 87.7064 36.9531L87.7064 43.2815C88.2746 43.2815 88.5781 43.397 88.7409 43.4909C88.8939 43.5792 89.0927 43.7451 89.3021 44.1377L94.886 41.1596ZM87.7064 36.9531C84.9532 36.9531 82.6077 38.3089 80.7035 40.2835L85.2589 44.6762C86.3924 43.5008 87.197 43.2815 87.7064 43.2815L87.7064 36.9531ZM80.7438 40.2425C78.9366 42.0497 77.4008 44.2873 76.101 46.8869L81.7612 49.717C82.824 47.5914 83.9883 45.9477 85.2187 44.7173L80.7438 40.2425ZM76.0873 46.9147C74.8672 49.4159 73.8714 52.1085 73.0925 54.9844L79.2008 56.6387C79.8844 54.1144 80.745 51.8006 81.775 49.6892L76.0873 46.9147ZM73.0925 54.9844C72.3051 57.8917 71.8856 60.6493 71.8856 63.2368L78.2139 63.2368C78.2139 61.3242 78.5256 59.1316 79.2008 56.6387L73.0925 54.9844ZM101.26 84.5844L98.1663 83.9214L97.2102 88.3831L101.724 87.7144L101.26 84.5844ZM105.985 61.6336L109.09 62.2451L109.096 62.2128L109.102 62.1804L105.985 61.6336ZM107.757 51.6771L104.643 51.1155L107.757 51.6771ZM109.445 41.4673L106.324 40.9472L106.32 40.9725L106.316 40.998L109.445 41.4673ZM110.879 31.6795L107.746 31.2397L107.743 31.2634L107.74 31.2871L110.879 31.6795ZM111.892 22.9886L112.166 19.8364L109.014 19.5622L108.74 22.7145L111.892 22.9886ZM116.279 23.3261L116.062 26.4828L116.116 26.4865L116.17 26.4884L116.279 23.3261ZM120.836 23.5793L120.584 26.7334L120.604 26.735L120.625 26.7364L120.836 23.5793ZM125.899 23.748L128.968 24.5155L129.951 20.5839L125.899 20.5839L125.899 23.748ZM125.645 25.0137L122.532 24.4477L122.532 24.4477L125.645 25.0137ZM125.224 27.2919L128.326 27.9124L128.33 27.8937L128.333 27.875L125.224 27.2919ZM124.633 30.1607L121.537 29.5089L121.52 29.5877L121.507 29.6672L124.633 30.1607ZM124.042 33.3671L120.946 32.7152L120.937 32.758L120.929 32.8011L124.042 33.3671ZM122.523 41.7205L119.41 41.1545L118.605 45.5813L123.044 44.8416L122.523 41.7205ZM123.03 41.6361L123.55 44.7572L124.957 44.5227L125.713 43.3131L123.03 41.6361ZM125.392 37.9235L122.746 36.1894L122.738 36.2009L122.731 36.2124L125.392 37.9235ZM131.974 27.6294L134.62 29.3634L134.634 29.343L134.647 29.3224L131.974 27.6294ZM134.674 23.3261L134.421 20.172L132.826 20.2997L131.983 21.6607L134.674 23.3261ZM151.549 21.4698L154.086 23.3619L158.747 17.1138L151.049 18.3454L151.549 21.4698ZM143.871 31.9327L146.426 33.7996L146.431 33.7917L146.437 33.7837L143.871 31.9327ZM140.58 36.4891L138.005 34.6499L137.983 34.6809L137.962 34.7124L140.58 36.4891ZM137.374 41.1298L139.962 42.9508V42.9508L137.374 41.1298ZM134.336 45.5175L131.72 43.7382L131.695 43.7747L131.671 43.8118L134.336 45.5175ZM131.889 49.3989L129.199 47.7334L128.525 48.8217L128.798 50.0723L131.889 49.3989ZM141.424 82.053L141.287 85.2142L145.805 85.4107L144.441 81.0987L141.424 82.053ZM137.458 81.9687L137.327 85.1301L137.392 85.1328L137.458 85.1328L137.458 81.9687ZM128.767 81.9687L128.767 85.1328L128.826 85.1328L128.884 85.1307L128.767 81.9687ZM124.042 82.053L120.908 82.487L121.299 85.3137L124.151 85.2153L124.042 82.053ZM122.355 70.5777L119.221 71.013L119.224 71.0376L119.228 71.0621L122.355 70.5777ZM120.751 59.0179L123.886 58.5839L122.922 51.6236L118.349 56.9587L120.751 59.0179ZM119.233 60.7899L116.83 58.7306L116.327 59.3178L116.151 60.0709L119.233 60.7899ZM117.883 67.0338L114.783 66.3997L114.776 66.4337L114.77 66.4678L117.883 67.0338ZM116.533 74.2059L113.427 73.5999L113.425 73.6114L113.423 73.6228L116.533 74.2059ZM114.929 82.5593L115.393 85.6893L117.604 85.3617L118.034 83.1681L114.929 82.5593ZM104.354 85.2474C106.045 77.3561 107.624 69.6886 109.09 62.2451L102.881 61.0221C101.422 68.4291 99.8504 76.0622 98.1663 83.9214L104.354 85.2474ZM109.102 62.1804C109.664 58.9793 110.253 55.6654 110.871 52.2386L104.643 51.1155C104.024 54.5515 103.432 57.8753 102.869 61.0869L109.102 62.1804ZM110.871 52.2386C111.495 48.7772 112.063 45.3433 112.574 41.9367L106.316 40.998C105.814 44.3416 105.257 47.7141 104.643 51.1155L110.871 52.2386ZM112.566 41.9875C113.135 38.5732 113.62 35.2679 114.019 32.072L107.74 31.2871C107.352 34.3913 106.88 37.6113 106.324 40.9472L112.566 41.9875ZM114.013 32.1193C114.469 28.8707 114.813 25.9172 115.044 23.2627L108.74 22.7145C108.52 25.2352 108.19 28.0757 107.746 31.2397L114.013 32.1193ZM111.618 26.1409C112.934 26.2554 114.416 26.3693 116.062 26.4828L116.497 20.1695C114.88 20.0579 113.437 19.9469 112.166 19.8364L111.618 26.1409ZM116.17 26.4884C117.761 26.5433 119.232 26.6252 120.584 26.7334L121.088 20.4252C119.628 20.3083 118.06 20.2215 116.389 20.1639L116.17 26.4884ZM120.625 26.7364C122.383 26.8536 124.141 26.9122 125.899 26.9122L125.899 20.5839C124.281 20.5839 122.664 20.53 121.046 20.4221L120.625 26.7364ZM122.829 22.9806C122.744 23.3196 122.643 23.8381 122.532 24.4477L128.759 25.5797C128.873 24.9518 128.94 24.6265 128.968 24.5155L122.829 22.9806ZM122.532 24.4477C122.421 25.0588 122.282 25.8121 122.114 26.7088L128.333 27.875C128.503 26.9716 128.645 26.2061 128.759 25.5797L122.532 24.4477ZM122.121 26.6713C121.955 27.5023 121.76 28.4479 121.537 29.5089L127.729 30.8126C127.956 29.736 128.155 28.769 128.326 27.9124L122.121 26.6713ZM121.507 29.6672C121.347 30.6825 121.16 31.6985 120.946 32.7152L127.139 34.0189C127.374 32.8981 127.581 31.7765 127.758 30.6542L121.507 29.6672ZM120.929 32.8011C120.479 35.2761 119.973 38.0606 119.41 41.1545L125.637 42.2865C126.199 39.1927 126.705 36.4082 127.155 33.9331L120.929 32.8011ZM123.044 44.8416L123.55 44.7572L122.51 38.515L122.003 38.5994L123.044 44.8416ZM125.713 43.3131C126.265 42.4299 127.044 41.2054 128.054 39.6345L122.731 36.2124C121.715 37.7917 120.92 39.0423 120.346 39.9591L125.713 43.3131ZM128.039 39.6575C129.121 38.0058 130.23 36.271 131.366 34.4534L126 31.0994C124.886 32.882 123.801 34.5786 122.746 36.1894L128.039 39.6575ZM131.366 34.4534C132.48 32.6709 133.565 30.9743 134.62 29.3634L129.327 25.8954C128.245 27.5471 127.136 29.2819 126 31.0994L131.366 34.4534ZM134.647 29.3224C135.719 27.6293 136.625 26.1851 137.364 24.9916L131.983 21.6607C131.26 22.8297 130.366 24.2544 129.301 25.9364L134.647 29.3224ZM134.926 26.4802C137.76 26.2535 140.593 25.9985 143.426 25.7152L142.797 19.4183C140.005 19.6975 137.213 19.9487 134.421 20.172L134.926 26.4802ZM143.426 25.7152C146.301 25.4277 149.176 25.054 152.049 24.5943L151.049 18.3454C148.298 18.7857 145.547 19.1433 142.797 19.4183L143.426 25.7152ZM149.013 19.5778C146.36 23.1346 143.79 26.6359 141.305 30.0816L146.437 33.7837C148.902 30.3667 151.451 26.8928 154.086 23.3619L149.013 19.5778ZM141.316 30.0658C140.24 31.5381 139.137 33.0662 138.005 34.6499L143.155 38.3282C144.274 36.7618 145.364 35.2523 146.426 33.7996L141.316 30.0658ZM137.962 34.7124C136.903 36.273 135.844 37.8051 134.786 39.3089L139.962 42.9508C141.041 41.417 142.12 39.8553 143.199 38.2657L137.962 34.7124ZM134.786 39.3089C133.709 40.8403 132.686 42.3168 131.72 43.7382L136.953 47.2967C137.899 45.9056 138.902 44.457 139.962 42.9508L134.786 39.3089ZM131.671 43.8118C130.764 45.2289 129.94 46.5363 129.199 47.7334L134.58 51.0643C135.301 49.8989 136.108 48.6187 137.001 47.2231L131.671 43.8118ZM128.798 50.0723C130.055 55.8465 131.543 61.4276 133.263 66.8146L139.291 64.8905C137.635 59.7021 136.198 54.3141 134.981 48.7254L128.798 50.0723ZM133.263 66.8146C134.949 72.0995 136.664 77.4971 138.407 83.0073L144.441 81.0987C142.696 75.5836 140.98 70.1808 139.291 64.8905L133.263 66.8146ZM141.561 78.8919C140.22 78.8335 138.852 78.8045 137.458 78.8045L137.458 85.1328C138.764 85.1328 140.04 85.16 141.287 85.2142L141.561 78.8919ZM137.59 78.8072C136.198 78.7492 134.832 78.7201 133.493 78.7201L133.493 85.0485C134.741 85.0485 136.018 85.0756 137.327 85.1301L137.59 78.8072ZM133.493 78.7201C131.825 78.7201 130.211 78.7489 128.65 78.8067L128.884 85.1307C130.362 85.076 131.897 85.0485 133.493 85.0485L133.493 78.7201ZM128.767 78.8045C127.21 78.8045 125.598 78.8333 123.933 78.8908L124.151 85.2153C125.749 85.1602 127.288 85.1328 128.767 85.1328L128.767 78.8045ZM127.176 81.6191C126.668 77.9444 126.103 74.1024 125.482 70.0932L119.228 71.0621C119.844 75.0407 120.404 78.849 120.908 82.487L127.176 81.6191ZM125.489 70.1424C124.926 66.0926 124.392 62.2398 123.886 58.5839L117.617 59.4519C118.124 63.1087 118.658 66.9624 119.221 71.013L125.489 70.1424ZM118.349 56.9587L116.83 58.7306L121.635 62.8491L123.154 61.0771L118.349 56.9587ZM116.151 60.0709C115.749 61.7962 115.292 63.9078 114.783 66.3997L120.983 67.6679C121.485 65.2096 121.929 63.1586 122.314 61.5088L116.151 60.0709ZM114.77 66.4678C114.322 68.9305 113.874 71.3078 113.427 73.5999L119.638 74.8119C120.091 72.4914 120.544 70.0873 120.996 67.5998L114.77 66.4678ZM113.423 73.6228C112.918 76.3138 112.385 79.0897 111.824 81.9505L118.034 83.1681C118.599 80.2913 119.135 77.4982 119.643 74.789L113.423 73.6228ZM114.466 79.4293L100.797 81.4544L101.724 87.7144L115.393 85.6893L114.466 79.4293Z" fill="#F9F7F3"/>
<defs>
<filter id="filter0_f_1066_12" x="0.973436" y="0.375292" width="171.67" height="105.641" filterUnits="userSpaceOnUse" color-interpolation-filters="sRGB">
<feFlood flood-opacity="0" result="BackgroundImageFix"/>
<feBlend mode="normal" in="SourceGraphic" in2="BackgroundImageFix" result="shape"/>
<feGaussianBlur stdDeviation="10.5472" result="effect1_foregroundBlur_1066_12"/>
</filter>
</defs>
</svg>
