<svg width="117" height="106" viewBox="0 0 117 106" fill="none" xmlns="http://www.w3.org/2000/svg">
<g filter="url(#filter0_f_1066_9)">
<path d="M28.9023 83.0656L28.3647 79.9474L28.2951 79.9594L28.2261 79.9745L28.9023 83.0656ZM23.3333 84.1625L20.2445 83.4761L19.2165 88.102L23.8832 87.2785L23.3333 84.1625ZM26.6241 68.9745L29.72 69.6281L29.7204 69.6263L26.6241 68.9745ZM27.9741 62.2243L24.8771 61.5761L24.8712 61.6041L24.8658 61.6322L27.9741 62.2243ZM29.4085 55.0522L26.3115 54.4039L26.3056 54.432L26.3003 54.4601L29.4085 55.0522ZM32.0242 41.2142L35.1476 41.7207L35.7956 37.7248L31.7615 38.061L32.0242 41.2142ZM28.0585 41.7205L28.552 44.8459L28.5764 44.8421L28.6006 44.8379L28.0585 41.7205ZM24.6834 42.3111L25.1528 45.4403L25.2143 45.4311L25.2754 45.4194L24.6834 42.3111ZM21.8145 42.733L18.6822 42.2855L18.0855 46.462L22.262 45.8654L21.8145 42.733ZM22.3208 39.1892L25.4532 39.6366L25.4543 39.6291L25.4553 39.6215L22.3208 39.1892ZM23.0802 34.2109L26.2013 34.7311L26.2138 34.6561L26.2227 34.5806L23.0802 34.2109ZM23.924 27.9669L23.2518 24.875L21.1187 25.3387L20.7948 27.4975L23.924 27.9669ZM29.3242 26.87L28.7895 23.7513L28.7538 23.7575L28.7182 23.7644L29.3242 26.87ZM37.1713 25.6043L37.6565 28.7311L37.1713 25.6043ZM49.3217 23.6636L52.3994 24.3981L53.5021 19.7773L48.8133 20.5406L49.3217 23.6636ZM46.031 38.0922L42.9387 37.4216L42.9348 37.4395L42.9311 37.4573L46.031 38.0922ZM43.2465 52.0989L40.1395 51.5L40.136 51.5181L40.1328 51.5362L43.2465 52.0989ZM40.7152 66.2744L37.5991 65.7245L37.5965 65.7394L37.594 65.7542L40.7152 66.2744ZM38.3526 80.8718L39.2739 83.8988L41.1703 83.3217L41.4783 81.3634L38.3526 80.8718ZM33.8806 82.053L34.5996 85.1344L33.8806 82.053ZM28.2261 79.9745C26.4701 80.3586 24.656 80.716 22.7835 81.0465L23.8832 87.2785C25.8358 86.9339 27.7343 86.5601 29.5784 86.1567L28.2261 79.9745ZM26.4222 84.8489C27.5496 79.7753 28.6489 74.7017 29.72 69.6281L23.5281 68.3209C22.4617 73.3726 21.3671 78.4243 20.2445 83.4761L26.4222 84.8489ZM29.7204 69.6263C30.175 67.467 30.629 65.1969 31.0824 62.8163L24.8658 61.6322C24.4193 63.9768 23.9732 66.2068 23.5278 68.3226L29.7204 69.6263ZM31.0712 62.8725C31.5812 60.4355 32.0631 58.0261 32.5168 55.6442L26.3003 54.4601C25.8539 56.8034 25.3795 59.1754 24.8771 61.5761L31.0712 62.8725ZM32.5056 55.7004C33.0157 53.2634 33.4976 50.854 33.9512 48.4721L27.7347 47.288C27.2883 49.6313 26.8139 52.0033 26.3115 54.4039L32.5056 55.7004ZM33.9512 48.4721C34.4059 46.0849 34.8049 43.8343 35.1476 41.7207L28.9009 40.7077C28.5686 42.7568 28.18 44.95 27.7347 47.288L33.9512 48.4721ZM31.7615 38.061C30.3208 38.181 28.9055 38.3615 27.5163 38.6031L28.6006 44.8379C29.799 44.6294 31.0276 44.4724 32.287 44.3675L31.7615 38.061ZM27.565 38.595C26.4599 38.7695 25.3018 38.9723 24.0913 39.2029L25.2754 45.4194C26.4275 45.2 27.5195 45.0089 28.552 44.8459L27.565 38.595ZM24.214 39.182C23.0935 39.3501 22.1449 39.4895 21.3671 39.6007L22.262 45.8654C23.0592 45.7515 24.0232 45.6097 25.1528 45.4403L24.214 39.182ZM24.9469 43.1805C25.0594 42.393 25.2282 41.2117 25.4532 39.6366L19.1884 38.7417C18.9634 40.3167 18.7947 41.498 18.6822 42.2855L24.9469 43.1805ZM25.4553 39.6215C25.6761 38.0206 25.9247 36.3905 26.2013 34.7311L19.9591 33.6907C19.6732 35.4063 19.4155 37.0951 19.1863 38.7568L25.4553 39.6215ZM26.2227 34.5806C26.4432 32.7066 26.7197 30.659 27.0531 28.4363L20.7948 27.4975C20.4532 29.775 20.1673 31.89 19.9377 33.8412L26.2227 34.5806ZM24.5961 31.0589C25.8573 30.7847 27.6318 30.424 29.9301 29.9756L28.7182 23.7644C26.4038 24.216 24.5782 24.5866 23.2518 24.875L24.5961 31.0589ZM29.8588 29.9887C31.804 29.6552 34.4013 29.2362 37.6565 28.7311L36.6861 22.4776C33.4161 22.985 30.7819 23.4098 28.7895 23.7513L29.8588 29.9887ZM37.6565 28.7311C40.9296 28.2232 44.988 27.5749 49.8301 26.7867L48.8133 20.5406C43.9801 21.3274 39.9382 21.973 36.6861 22.4776L37.6565 28.7311ZM46.2439 22.9292C45.0579 27.8992 43.9561 32.7301 42.9387 37.4216L49.1232 38.7629C50.1309 34.1166 51.2229 29.3284 52.3994 24.3981L46.2439 22.9292ZM42.9311 37.4573C41.9724 42.1382 41.0419 46.8191 40.1395 51.5L46.3535 52.6979C47.2512 48.041 48.1769 43.3841 49.1308 38.7271L42.9311 37.4573ZM40.1328 51.5362C39.2882 56.2095 38.4437 60.9389 37.5991 65.7245L43.8312 66.8243C44.6742 62.0471 45.5172 57.3262 46.3602 52.6617L40.1328 51.5362ZM37.594 65.7542C36.8048 70.4894 36.0158 75.3647 35.2269 80.3801L41.4783 81.3634C42.2644 76.366 43.0504 71.5097 43.8363 66.7946L37.594 65.7542ZM37.4313 77.8447C36.2198 78.2134 34.7989 78.5896 33.1616 78.9716L34.5996 85.1344C36.3373 84.729 37.8978 84.3176 39.2739 83.8988L37.4313 77.8447ZM33.1616 78.9716C31.5313 79.352 29.9324 79.6771 28.3647 79.9474L29.4399 86.1837C31.1347 85.8915 32.8547 85.5416 34.5996 85.1344L33.1616 78.9716ZM44.9604 84.5844L41.8665 83.9214L40.9104 88.3831L45.4241 87.7144L44.9604 84.5844ZM49.6856 61.6336L52.7901 62.2451L52.7964 62.2128L52.8021 62.1804L49.6856 61.6336ZM51.4575 51.6771L48.3436 51.1155L51.4575 51.6771ZM53.1451 41.4673L50.0239 40.9472L50.0197 40.9725L50.0159 40.998L53.1451 41.4673ZM54.5795 31.6795L51.446 31.2397L51.4427 31.2634L51.4397 31.2871L54.5795 31.6795ZM55.592 22.9886L55.8661 19.8364L52.7138 19.5622L52.4397 22.7145L55.592 22.9886ZM59.9796 23.3261L59.7619 26.4828L59.8162 26.4865L59.8706 26.4884L59.9796 23.3261ZM64.536 23.5793L64.2837 26.7334L64.3046 26.735L64.3256 26.7364L64.536 23.5793ZM69.5987 23.748L72.6684 24.5155L73.6513 20.5839L69.5987 20.5839L69.5987 23.748ZM69.3456 25.0137L66.2325 24.4477L66.2325 24.4477L69.3456 25.0137ZM68.9237 27.2919L72.0264 27.9124L72.0301 27.8937L72.0337 27.875L68.9237 27.2919ZM68.333 30.1607L65.2368 29.5089L65.2202 29.5877L65.2076 29.6672L68.333 30.1607ZM67.7424 33.3671L64.6461 32.7152L64.6371 32.758L64.6293 32.8011L67.7424 33.3671ZM66.2236 41.7205L63.1105 41.1545L62.3056 45.5813L66.7438 44.8416L66.2236 41.7205ZM66.7299 41.6361L67.25 44.7572L68.6571 44.5227L69.4131 43.3131L66.7299 41.6361ZM69.0924 37.9235L66.4457 36.1894L66.4382 36.2009L66.4308 36.2124L69.0924 37.9235ZM75.6739 27.6294L78.3206 29.3634L78.334 29.343L78.3471 29.3224L75.6739 27.6294ZM78.374 23.3261L78.1217 20.172L76.5261 20.2997L75.6836 21.6607L78.374 23.3261ZM95.2495 21.4698L97.7857 23.3619L102.447 17.1138L94.7496 18.3454L95.2495 21.4698ZM87.5712 31.9327L90.1259 33.7996L90.1317 33.7917L90.1374 33.7837L87.5712 31.9327ZM84.2804 36.4891L81.7057 34.6499L81.6835 34.6809L81.6622 34.7124L84.2804 36.4891ZM81.0741 41.1298L83.6618 42.9508L83.6618 42.9508L81.0741 41.1298ZM78.0365 45.5175L75.42 43.7382L75.3952 43.7747L75.3714 43.8118L78.0365 45.5175ZM75.5895 49.3989L72.8992 47.7334L72.2254 48.8217L72.4979 50.0723L75.5895 49.3989ZM85.1242 82.053L84.9868 85.2142L89.505 85.4107L88.141 81.0987L85.1242 82.053ZM81.1585 81.9687L81.0267 85.1301L81.0926 85.1328L81.1585 85.1328L81.1585 81.9687ZM72.4676 81.9687L72.4676 85.1328L72.5261 85.1328L72.5847 85.1307L72.4676 81.9687ZM67.7424 82.053L64.6081 82.487L64.9995 85.3137L67.8514 85.2153L67.7424 82.053ZM66.0548 70.5777L62.9208 71.013L62.9242 71.0376L62.928 71.0621L66.0548 70.5777ZM64.4517 59.0179L67.5859 58.5839L66.6222 51.6236L62.0493 56.9587L64.4517 59.0179ZM62.9329 60.7899L60.5305 58.7306L60.0272 59.3178L59.8515 60.0709L62.9329 60.7899ZM61.5828 67.0338L58.4828 66.3997L58.4759 66.4337L58.4697 66.4678L61.5828 67.0338ZM60.2328 74.2059L57.1272 73.5999L57.125 73.6114L57.1228 73.6228L60.2328 74.2059ZM58.6296 82.5593L59.0933 85.6893L61.3045 85.3617L61.7346 83.1681L58.6296 82.5593ZM48.0543 85.2474C49.7453 77.3561 51.3239 69.6886 52.7901 62.2451L46.5811 61.0221C45.1221 68.4291 43.5506 76.0622 41.8665 83.9214L48.0543 85.2474ZM52.8021 62.1804C53.3637 58.9793 53.9535 55.6654 54.5714 52.2386L48.3436 51.1155C47.724 54.5515 47.1324 57.8753 46.569 61.0869L52.8021 62.1804ZM54.5714 52.2386C55.1956 48.7772 55.7632 45.3433 56.2742 41.9367L50.0159 40.998C49.5143 44.3416 48.9569 47.7141 48.3436 51.1155L54.5714 52.2386ZM56.2662 41.9875C56.8352 38.5732 57.3197 35.2679 57.7192 32.072L51.4397 31.2871C51.0517 34.3913 50.5799 37.6113 50.0239 40.9472L56.2662 41.9875ZM57.7129 32.1193C58.1689 28.8707 58.5135 25.9172 58.7443 23.2627L52.4397 22.7145C52.2205 25.2352 51.8901 28.0757 51.446 31.2397L57.7129 32.1193ZM55.3179 26.1409C56.6345 26.2554 58.1164 26.3693 59.7619 26.4828L60.1974 20.1695C58.5803 20.0579 57.1371 19.9469 55.8661 19.8364L55.3179 26.1409ZM59.8706 26.4884C61.4613 26.5433 62.9318 26.6252 64.2837 26.7334L64.7884 20.4252C63.3277 20.3083 61.7606 20.2215 60.0887 20.1639L59.8706 26.4884ZM64.3256 26.7364C66.083 26.8536 67.8408 26.9122 69.5987 26.9122L69.5987 20.5839C67.9815 20.5839 66.3642 20.53 64.7465 20.4221L64.3256 26.7364ZM66.529 22.9806C66.4443 23.3196 66.3433 23.8381 66.2325 24.4477L72.4587 25.5797C72.5729 24.9518 72.6406 24.6265 72.6684 24.5155L66.529 22.9806ZM66.2325 24.4477C66.1213 25.0588 65.9818 25.8121 65.8137 26.7088L72.0337 27.875C72.203 26.9716 72.3448 26.2061 72.4587 25.5797L66.2325 24.4477ZM65.821 26.6713C65.6548 27.5023 65.4601 28.4479 65.2368 29.5089L71.4293 30.8126C71.656 29.736 71.8551 28.769 72.0264 27.9124L65.821 26.6713ZM65.2076 29.6672C65.0473 30.6825 64.8602 31.6985 64.6461 32.7152L70.8387 34.0189C71.0747 32.8981 71.2813 31.7765 71.4585 30.6542L65.2076 29.6672ZM64.6293 32.8011C64.1793 35.2761 63.673 38.0606 63.1105 41.1545L69.3367 42.2865C69.8992 39.1927 70.4055 36.4082 70.8555 33.9331L64.6293 32.8011ZM66.7438 44.8416L67.25 44.7572L66.2097 38.515L65.7034 38.5994L66.7438 44.8416ZM69.4131 43.3131C69.9651 42.4299 70.7442 41.2054 71.7541 39.6345L66.4308 36.2124C65.4156 37.7917 64.6197 39.0423 64.0467 39.9591L69.4131 43.3131ZM71.7391 39.6575C72.8213 38.0058 73.9304 36.271 75.0664 34.4534L69.7 31.0994C68.5859 32.882 67.5011 34.5786 66.4457 36.1894L71.7391 39.6575ZM75.0664 34.4534C76.1805 32.6709 77.2652 30.9743 78.3206 29.3634L73.0272 25.8954C71.945 27.5471 70.8359 29.2819 69.7 31.0994L75.0664 34.4534ZM78.3471 29.3224C79.4194 27.6293 80.3255 26.1851 81.0644 24.9916L75.6836 21.6607C74.9599 22.8297 74.066 24.2544 73.0008 25.9364L78.3471 29.3224ZM78.6263 26.4802C81.4598 26.2535 84.2932 25.9985 87.1266 25.7152L86.4969 19.4183C83.7051 19.6975 80.9134 19.9487 78.1217 20.172L78.6263 26.4802ZM87.1266 25.7152C90.0016 25.4277 92.8759 25.054 95.7495 24.5943L94.7496 18.3454C91.998 18.7857 89.2471 19.1433 86.4969 19.4183L87.1266 25.7152ZM92.7134 19.5778C90.0599 23.1346 87.4904 26.6359 85.0049 30.0816L90.1374 33.7837C92.6021 30.3667 95.1516 26.8928 97.7857 23.3619L92.7134 19.5778ZM85.0164 30.0658C83.9405 31.5381 82.8369 33.0662 81.7057 34.6499L86.8552 38.3282C87.9741 36.7618 89.0643 35.2523 90.1259 33.7996L85.0164 30.0658ZM81.6622 34.7124C80.6032 36.273 79.5446 37.8051 78.4864 39.3089L83.6618 42.9508C84.7411 41.417 85.8201 39.8553 86.8987 38.2657L81.6622 34.7124ZM78.4864 39.3089C77.4088 40.8403 76.3866 42.3168 75.42 43.7382L80.653 47.2967C81.599 45.9056 82.6018 44.457 83.6618 42.9508L78.4864 39.3089ZM75.3714 43.8118C74.4645 45.2289 73.6402 46.5363 72.8992 47.7334L78.2799 51.0643C79.0014 49.8989 79.8084 48.6187 80.7016 47.2231L75.3714 43.8118ZM72.4979 50.0723C73.7556 55.8465 75.2436 61.4276 76.9628 66.8146L82.9915 64.8905C81.3357 59.7021 79.8985 54.3141 78.6812 48.7254L72.4979 50.0723ZM76.9628 66.8146C78.6495 72.0995 80.3644 77.4971 82.1074 83.0073L88.141 81.0987C86.3965 75.5836 84.68 70.1808 82.9915 64.8905L76.9628 66.8146ZM85.2617 78.8919C83.9202 78.8335 82.5524 78.8045 81.1585 78.8045L81.1585 85.1328C82.4646 85.1328 83.7407 85.16 84.9868 85.2142L85.2617 78.8919ZM81.2902 78.8072C79.8982 78.7492 78.5323 78.7201 77.1927 78.7201L77.1927 85.0485C78.4407 85.0485 79.7187 85.0756 81.0267 85.1301L81.2902 78.8072ZM77.1927 78.7201C75.5252 78.7201 73.911 78.7489 72.3504 78.8067L72.5847 85.1307C74.0617 85.076 75.5976 85.0485 77.1927 85.0485L77.1927 78.7201ZM72.4676 78.8045C70.9098 78.8045 69.2983 78.8333 67.6334 78.8908L67.8514 85.2153C69.4491 85.1602 70.9877 85.1328 72.4676 85.1328L72.4676 78.8045ZM70.8767 81.6191C70.3679 77.9444 69.8028 74.1024 69.1817 70.0932L62.928 71.0621C63.5444 75.0407 64.1044 78.849 64.6081 82.487L70.8767 81.6191ZM69.1889 70.1424C68.6265 66.0926 68.0921 62.2398 67.5859 58.5839L61.3174 59.4519C61.8237 63.1087 62.3582 66.9624 62.9208 71.013L69.1889 70.1424ZM62.0493 56.9587L60.5305 58.7306L65.3353 62.8491L66.8541 61.0771L62.0493 56.9587ZM59.8515 60.0709C59.4489 61.7962 58.9926 63.9078 58.4828 66.3997L64.6828 67.6679C65.1856 65.2096 65.6293 63.1586 66.0143 61.5088L59.8515 60.0709ZM58.4697 66.4678C58.0219 68.9305 57.5744 71.3078 57.1272 73.5999L63.3384 74.8119C63.7912 72.4914 64.2437 70.0873 64.696 67.5998L58.4697 66.4678ZM57.1228 73.6228C56.6183 76.3138 56.0855 79.0897 55.5246 81.9505L61.7346 83.1681C62.2987 80.2913 62.8348 77.4982 63.3428 74.789L57.1228 73.6228ZM58.1659 79.4293L44.4967 81.4544L45.4241 87.7144L59.0933 85.6893L58.1659 79.4293Z" fill="#F8DEB4"/>
</g>
<path d="M28.9023 83.0656L28.3647 79.9474L28.2951 79.9594L28.2261 79.9745L28.9023 83.0656ZM23.3333 84.1625L20.2445 83.4761L19.2165 88.102L23.8832 87.2785L23.3333 84.1625ZM26.6241 68.9745L29.72 69.6281L29.7204 69.6263L26.6241 68.9745ZM27.9741 62.2243L24.8771 61.5761L24.8712 61.6041L24.8658 61.6322L27.9741 62.2243ZM29.4085 55.0522L26.3115 54.4039L26.3056 54.432L26.3003 54.4601L29.4085 55.0522ZM32.0242 41.2142L35.1476 41.7207L35.7956 37.7248L31.7615 38.061L32.0242 41.2142ZM28.0585 41.7205L28.552 44.8459L28.5764 44.8421L28.6006 44.8379L28.0585 41.7205ZM24.6834 42.3111L25.1528 45.4403L25.2143 45.4311L25.2754 45.4194L24.6834 42.3111ZM21.8145 42.733L18.6822 42.2855L18.0855 46.462L22.262 45.8654L21.8145 42.733ZM22.3208 39.1892L25.4532 39.6366L25.4543 39.6291L25.4553 39.6215L22.3208 39.1892ZM23.0802 34.2109L26.2013 34.7311L26.2138 34.6561L26.2227 34.5806L23.0802 34.2109ZM23.924 27.9669L23.2518 24.875L21.1187 25.3387L20.7948 27.4975L23.924 27.9669ZM29.3242 26.87L28.7895 23.7513L28.7538 23.7575L28.7182 23.7644L29.3242 26.87ZM37.1713 25.6043L37.6565 28.7311L37.1713 25.6043ZM49.3217 23.6636L52.3994 24.3981L53.5021 19.7773L48.8133 20.5406L49.3217 23.6636ZM46.031 38.0922L42.9387 37.4216L42.9348 37.4395L42.9311 37.4573L46.031 38.0922ZM43.2465 52.0989L40.1395 51.5L40.136 51.5181L40.1328 51.5362L43.2465 52.0989ZM40.7152 66.2744L37.5991 65.7245L37.5965 65.7394L37.594 65.7542L40.7152 66.2744ZM38.3526 80.8718L39.2739 83.8988L41.1703 83.3217L41.4783 81.3634L38.3526 80.8718ZM33.8806 82.053L34.5996 85.1344L33.8806 82.053ZM28.2261 79.9745C26.4701 80.3586 24.656 80.716 22.7835 81.0465L23.8832 87.2785C25.8358 86.9339 27.7343 86.5601 29.5784 86.1567L28.2261 79.9745ZM26.4222 84.8489C27.5496 79.7753 28.6489 74.7017 29.72 69.6281L23.5281 68.3209C22.4617 73.3726 21.3671 78.4243 20.2445 83.4761L26.4222 84.8489ZM29.7204 69.6263C30.175 67.467 30.629 65.1969 31.0824 62.8163L24.8658 61.6322C24.4193 63.9768 23.9732 66.2068 23.5278 68.3226L29.7204 69.6263ZM31.0712 62.8725C31.5812 60.4355 32.0631 58.0261 32.5168 55.6442L26.3003 54.4601C25.8539 56.8034 25.3795 59.1754 24.8771 61.5761L31.0712 62.8725ZM32.5056 55.7004C33.0157 53.2634 33.4976 50.854 33.9512 48.4721L27.7347 47.288C27.2883 49.6313 26.8139 52.0033 26.3115 54.4039L32.5056 55.7004ZM33.9512 48.4721C34.4059 46.0849 34.8049 43.8343 35.1476 41.7207L28.9009 40.7077C28.5686 42.7568 28.18 44.95 27.7347 47.288L33.9512 48.4721ZM31.7615 38.061C30.3208 38.181 28.9055 38.3615 27.5163 38.6031L28.6006 44.8379C29.799 44.6294 31.0276 44.4724 32.287 44.3675L31.7615 38.061ZM27.565 38.595C26.4599 38.7695 25.3018 38.9723 24.0913 39.2029L25.2754 45.4194C26.4275 45.2 27.5195 45.0089 28.552 44.8459L27.565 38.595ZM24.214 39.182C23.0935 39.3501 22.1449 39.4895 21.3671 39.6007L22.262 45.8654C23.0592 45.7515 24.0232 45.6097 25.1528 45.4403L24.214 39.182ZM24.9469 43.1805C25.0594 42.393 25.2282 41.2117 25.4532 39.6366L19.1884 38.7417C18.9634 40.3167 18.7947 41.498 18.6822 42.2855L24.9469 43.1805ZM25.4553 39.6215C25.6761 38.0206 25.9247 36.3905 26.2013 34.7311L19.9591 33.6907C19.6732 35.4063 19.4155 37.0951 19.1863 38.7568L25.4553 39.6215ZM26.2227 34.5806C26.4432 32.7066 26.7197 30.659 27.0531 28.4363L20.7948 27.4975C20.4532 29.775 20.1673 31.89 19.9377 33.8412L26.2227 34.5806ZM24.5961 31.0589C25.8573 30.7847 27.6318 30.424 29.9301 29.9756L28.7182 23.7644C26.4038 24.216 24.5782 24.5866 23.2518 24.875L24.5961 31.0589ZM29.8588 29.9887C31.804 29.6552 34.4013 29.2362 37.6565 28.7311L36.6861 22.4776C33.4161 22.985 30.7819 23.4098 28.7895 23.7513L29.8588 29.9887ZM37.6565 28.7311C40.9296 28.2232 44.988 27.5749 49.8301 26.7867L48.8133 20.5406C43.9801 21.3274 39.9382 21.973 36.6861 22.4776L37.6565 28.7311ZM46.2439 22.9292C45.0579 27.8992 43.9561 32.7301 42.9387 37.4216L49.1232 38.7629C50.1309 34.1166 51.2229 29.3284 52.3994 24.3981L46.2439 22.9292ZM42.9311 37.4573C41.9724 42.1382 41.0419 46.8191 40.1395 51.5L46.3535 52.6979C47.2512 48.041 48.1769 43.3841 49.1308 38.7271L42.9311 37.4573ZM40.1328 51.5362C39.2882 56.2095 38.4437 60.9389 37.5991 65.7245L43.8312 66.8243C44.6742 62.0471 45.5172 57.3262 46.3602 52.6617L40.1328 51.5362ZM37.594 65.7542C36.8048 70.4894 36.0158 75.3647 35.2269 80.3801L41.4783 81.3634C42.2644 76.366 43.0504 71.5097 43.8363 66.7946L37.594 65.7542ZM37.4313 77.8447C36.2198 78.2134 34.7989 78.5896 33.1616 78.9716L34.5996 85.1344C36.3373 84.729 37.8978 84.3176 39.2739 83.8988L37.4313 77.8447ZM33.1616 78.9716C31.5313 79.352 29.9324 79.6771 28.3647 79.9474L29.4399 86.1837C31.1347 85.8915 32.8547 85.5416 34.5996 85.1344L33.1616 78.9716ZM44.9604 84.5844L41.8665 83.9214L40.9104 88.3831L45.4241 87.7144L44.9604 84.5844ZM49.6856 61.6336L52.7901 62.2451L52.7964 62.2128L52.8021 62.1804L49.6856 61.6336ZM51.4575 51.6771L48.3436 51.1155L51.4575 51.6771ZM53.1451 41.4673L50.0239 40.9472L50.0197 40.9725L50.0159 40.998L53.1451 41.4673ZM54.5795 31.6795L51.446 31.2397L51.4427 31.2634L51.4397 31.2871L54.5795 31.6795ZM55.592 22.9886L55.8661 19.8364L52.7138 19.5622L52.4397 22.7145L55.592 22.9886ZM59.9796 23.3261L59.7619 26.4828L59.8162 26.4865L59.8706 26.4884L59.9796 23.3261ZM64.536 23.5793L64.2837 26.7334L64.3046 26.735L64.3256 26.7364L64.536 23.5793ZM69.5987 23.748L72.6684 24.5155L73.6513 20.5839L69.5987 20.5839L69.5987 23.748ZM69.3456 25.0137L66.2325 24.4477L66.2325 24.4477L69.3456 25.0137ZM68.9237 27.2919L72.0264 27.9124L72.0301 27.8937L72.0337 27.875L68.9237 27.2919ZM68.333 30.1607L65.2368 29.5089L65.2202 29.5877L65.2076 29.6672L68.333 30.1607ZM67.7424 33.3671L64.6461 32.7152L64.6371 32.758L64.6293 32.8011L67.7424 33.3671ZM66.2236 41.7205L63.1105 41.1545L62.3056 45.5813L66.7438 44.8416L66.2236 41.7205ZM66.7299 41.6361L67.25 44.7572L68.6571 44.5227L69.4131 43.3131L66.7299 41.6361ZM69.0924 37.9235L66.4457 36.1894L66.4382 36.2009L66.4308 36.2124L69.0924 37.9235ZM75.6739 27.6294L78.3206 29.3634L78.334 29.343L78.3471 29.3224L75.6739 27.6294ZM78.374 23.3261L78.1217 20.172L76.5261 20.2997L75.6836 21.6607L78.374 23.3261ZM95.2495 21.4698L97.7857 23.3619L102.447 17.1138L94.7496 18.3454L95.2495 21.4698ZM87.5712 31.9327L90.1259 33.7996L90.1317 33.7917L90.1374 33.7837L87.5712 31.9327ZM84.2804 36.4891L81.7057 34.6499L81.6835 34.6809L81.6622 34.7124L84.2804 36.4891ZM81.0741 41.1298L83.6618 42.9508L83.6618 42.9508L81.0741 41.1298ZM78.0365 45.5175L75.42 43.7382L75.3952 43.7747L75.3714 43.8118L78.0365 45.5175ZM75.5895 49.3989L72.8992 47.7334L72.2254 48.8217L72.4979 50.0723L75.5895 49.3989ZM85.1242 82.053L84.9868 85.2142L89.505 85.4107L88.141 81.0987L85.1242 82.053ZM81.1585 81.9687L81.0267 85.1301L81.0926 85.1328L81.1585 85.1328L81.1585 81.9687ZM72.4676 81.9687L72.4676 85.1328L72.5261 85.1328L72.5847 85.1307L72.4676 81.9687ZM67.7424 82.053L64.6081 82.487L64.9995 85.3137L67.8514 85.2153L67.7424 82.053ZM66.0548 70.5777L62.9208 71.013L62.9242 71.0376L62.928 71.0621L66.0548 70.5777ZM64.4517 59.0179L67.5859 58.5839L66.6222 51.6236L62.0493 56.9587L64.4517 59.0179ZM62.9329 60.7899L60.5305 58.7306L60.0272 59.3178L59.8515 60.0709L62.9329 60.7899ZM61.5828 67.0338L58.4828 66.3997L58.4759 66.4337L58.4697 66.4678L61.5828 67.0338ZM60.2328 74.2059L57.1272 73.5999L57.125 73.6114L57.1228 73.6228L60.2328 74.2059ZM58.6296 82.5593L59.0933 85.6893L61.3045 85.3617L61.7346 83.1681L58.6296 82.5593ZM48.0543 85.2474C49.7453 77.3561 51.3239 69.6886 52.7901 62.2451L46.5811 61.0221C45.1221 68.4291 43.5506 76.0622 41.8665 83.9214L48.0543 85.2474ZM52.8021 62.1804C53.3637 58.9793 53.9535 55.6654 54.5714 52.2386L48.3436 51.1155C47.724 54.5515 47.1324 57.8753 46.569 61.0869L52.8021 62.1804ZM54.5714 52.2386C55.1956 48.7772 55.7632 45.3433 56.2742 41.9367L50.0159 40.998C49.5143 44.3416 48.9569 47.7141 48.3436 51.1155L54.5714 52.2386ZM56.2662 41.9875C56.8352 38.5732 57.3197 35.2679 57.7192 32.072L51.4397 31.2871C51.0517 34.3913 50.5799 37.6113 50.0239 40.9472L56.2662 41.9875ZM57.7129 32.1193C58.1689 28.8707 58.5135 25.9172 58.7443 23.2627L52.4397 22.7145C52.2205 25.2352 51.8901 28.0757 51.446 31.2397L57.7129 32.1193ZM55.3179 26.1409C56.6345 26.2554 58.1164 26.3693 59.7619 26.4828L60.1974 20.1695C58.5803 20.0579 57.1371 19.9469 55.8661 19.8364L55.3179 26.1409ZM59.8706 26.4884C61.4613 26.5433 62.9318 26.6252 64.2837 26.7334L64.7884 20.4252C63.3277 20.3083 61.7606 20.2215 60.0887 20.1639L59.8706 26.4884ZM64.3256 26.7364C66.083 26.8536 67.8408 26.9122 69.5987 26.9122L69.5987 20.5839C67.9815 20.5839 66.3642 20.53 64.7465 20.4221L64.3256 26.7364ZM66.529 22.9806C66.4443 23.3196 66.3433 23.8381 66.2325 24.4477L72.4587 25.5797C72.5729 24.9518 72.6406 24.6265 72.6684 24.5155L66.529 22.9806ZM66.2325 24.4477C66.1213 25.0588 65.9818 25.8121 65.8137 26.7088L72.0337 27.875C72.203 26.9716 72.3448 26.2061 72.4587 25.5797L66.2325 24.4477ZM65.821 26.6713C65.6548 27.5023 65.4601 28.4479 65.2368 29.5089L71.4293 30.8126C71.656 29.736 71.8551 28.769 72.0264 27.9124L65.821 26.6713ZM65.2076 29.6672C65.0473 30.6825 64.8602 31.6985 64.6461 32.7152L70.8387 34.0189C71.0747 32.8981 71.2813 31.7765 71.4585 30.6542L65.2076 29.6672ZM64.6293 32.8011C64.1793 35.2761 63.673 38.0606 63.1105 41.1545L69.3367 42.2865C69.8992 39.1927 70.4055 36.4082 70.8555 33.9331L64.6293 32.8011ZM66.7438 44.8416L67.25 44.7572L66.2097 38.515L65.7034 38.5994L66.7438 44.8416ZM69.4131 43.3131C69.9651 42.4299 70.7442 41.2054 71.7541 39.6345L66.4308 36.2124C65.4156 37.7917 64.6197 39.0423 64.0467 39.9591L69.4131 43.3131ZM71.7391 39.6575C72.8213 38.0058 73.9304 36.271 75.0664 34.4534L69.7 31.0994C68.5859 32.882 67.5011 34.5786 66.4457 36.1894L71.7391 39.6575ZM75.0664 34.4534C76.1805 32.6709 77.2652 30.9743 78.3206 29.3634L73.0272 25.8954C71.945 27.5471 70.8359 29.2819 69.7 31.0994L75.0664 34.4534ZM78.3471 29.3224C79.4194 27.6293 80.3255 26.1851 81.0644 24.9916L75.6836 21.6607C74.9599 22.8297 74.066 24.2544 73.0008 25.9364L78.3471 29.3224ZM78.6263 26.4802C81.4598 26.2535 84.2932 25.9985 87.1266 25.7152L86.4969 19.4183C83.7051 19.6975 80.9134 19.9487 78.1217 20.172L78.6263 26.4802ZM87.1266 25.7152C90.0016 25.4277 92.8759 25.054 95.7495 24.5943L94.7496 18.3454C91.998 18.7857 89.2471 19.1433 86.4969 19.4183L87.1266 25.7152ZM92.7134 19.5778C90.0599 23.1346 87.4904 26.6359 85.0049 30.0816L90.1374 33.7837C92.6021 30.3667 95.1516 26.8928 97.7857 23.3619L92.7134 19.5778ZM85.0164 30.0658C83.9405 31.5381 82.8369 33.0662 81.7057 34.6499L86.8552 38.3282C87.9741 36.7618 89.0643 35.2523 90.1259 33.7996L85.0164 30.0658ZM81.6622 34.7124C80.6032 36.273 79.5446 37.8051 78.4864 39.3089L83.6618 42.9508C84.7411 41.417 85.8201 39.8553 86.8987 38.2657L81.6622 34.7124ZM78.4864 39.3089C77.4088 40.8403 76.3866 42.3168 75.42 43.7382L80.653 47.2967C81.599 45.9056 82.6018 44.457 83.6618 42.9508L78.4864 39.3089ZM75.3714 43.8118C74.4645 45.2289 73.6402 46.5363 72.8992 47.7334L78.2799 51.0643C79.0014 49.8989 79.8084 48.6187 80.7016 47.2231L75.3714 43.8118ZM72.4979 50.0723C73.7556 55.8465 75.2436 61.4276 76.9628 66.8146L82.9915 64.8905C81.3357 59.7021 79.8985 54.3141 78.6812 48.7254L72.4979 50.0723ZM76.9628 66.8146C78.6495 72.0995 80.3644 77.4971 82.1074 83.0073L88.141 81.0987C86.3965 75.5836 84.68 70.1808 82.9915 64.8905L76.9628 66.8146ZM85.2617 78.8919C83.9202 78.8335 82.5524 78.8045 81.1585 78.8045L81.1585 85.1328C82.4646 85.1328 83.7407 85.16 84.9868 85.2142L85.2617 78.8919ZM81.2902 78.8072C79.8982 78.7492 78.5323 78.7201 77.1927 78.7201L77.1927 85.0485C78.4407 85.0485 79.7187 85.0756 81.0267 85.1301L81.2902 78.8072ZM77.1927 78.7201C75.5252 78.7201 73.911 78.7489 72.3504 78.8067L72.5847 85.1307C74.0617 85.076 75.5976 85.0485 77.1927 85.0485L77.1927 78.7201ZM72.4676 78.8045C70.9098 78.8045 69.2983 78.8333 67.6334 78.8908L67.8514 85.2153C69.4491 85.1602 70.9877 85.1328 72.4676 85.1328L72.4676 78.8045ZM70.8767 81.6191C70.3679 77.9444 69.8028 74.1024 69.1817 70.0932L62.928 71.0621C63.5444 75.0407 64.1044 78.849 64.6081 82.487L70.8767 81.6191ZM69.1889 70.1424C68.6265 66.0926 68.0921 62.2398 67.5859 58.5839L61.3174 59.4519C61.8237 63.1087 62.3582 66.9624 62.9208 71.013L69.1889 70.1424ZM62.0493 56.9587L60.5305 58.7306L65.3353 62.8491L66.8541 61.0771L62.0493 56.9587ZM59.8515 60.0709C59.4489 61.7962 58.9926 63.9078 58.4828 66.3997L64.6828 67.6679C65.1856 65.2096 65.6293 63.1586 66.0143 61.5088L59.8515 60.0709ZM58.4697 66.4678C58.0219 68.9305 57.5744 71.3078 57.1272 73.5999L63.3384 74.8119C63.7912 72.4914 64.2437 70.0873 64.696 67.5998L58.4697 66.4678ZM57.1228 73.6228C56.6183 76.3138 56.0855 79.0897 55.5246 81.9505L61.7346 83.1681C62.2987 80.2913 62.8348 77.4982 63.3428 74.789L57.1228 73.6228ZM58.1659 79.4293L44.4967 81.4544L45.4241 87.7144L59.0933 85.6893L58.1659 79.4293Z" fill="#F9F7F3"/>
<defs>
<filter id="filter0_f_1066_9" x="0.720018" y="0.375292" width="115.624" height="105.304" filterUnits="userSpaceOnUse" color-interpolation-filters="sRGB">
<feFlood flood-opacity="0" result="BackgroundImageFix"/>
<feBlend mode="normal" in="SourceGraphic" in2="BackgroundImageFix" result="shape"/>
<feGaussianBlur stdDeviation="10.5472" result="effect1_foregroundBlur_1066_9"/>
</filter>
</defs>
</svg>
