<svg width="199" height="106" viewBox="0 0 199 106" fill="none" xmlns="http://www.w3.org/2000/svg">
<g filter="url(#filter0_f_1066_15)">
<path d="M28.2507 83.0656L27.713 79.9474L27.6435 79.9594L27.5745 79.9745L28.2507 83.0656ZM22.6817 84.1625L19.5929 83.4761L18.5649 88.102L23.2316 87.2785L22.6817 84.1625ZM25.9725 68.9745L29.0684 69.6281L29.0687 69.6263L25.9725 68.9745ZM27.3225 62.2243L24.2254 61.5761L24.2196 61.6041L24.2142 61.6322L27.3225 62.2243ZM28.7569 55.0522L25.6599 54.4039L25.654 54.432L25.6486 54.4601L28.7569 55.0522ZM31.3726 41.2142L34.496 41.7207L35.144 37.7248L31.1099 38.061L31.3726 41.2142ZM27.4069 41.7205L27.9004 44.8459L27.9247 44.8421L27.949 44.8379L27.4069 41.7205ZM24.0318 42.3111L24.5011 45.4403L24.5627 45.4311L24.6238 45.4194L24.0318 42.3111ZM21.1629 42.733L18.0306 42.2855L17.4339 46.462L21.6104 45.8654L21.1629 42.733ZM21.6692 39.1892L24.8016 39.6366L24.8026 39.6291L24.8037 39.6215L21.6692 39.1892ZM22.4286 34.2109L25.5497 34.7311L25.5622 34.6561L25.5711 34.5806L22.4286 34.2109ZM23.2724 27.9669L22.6002 24.875L20.467 25.3387L20.1432 27.4975L23.2724 27.9669ZM28.6725 26.87L28.1379 23.7513L28.1022 23.7575L28.0666 23.7644L28.6725 26.87ZM36.5197 25.6043L37.0049 28.7311L36.5197 25.6043ZM48.6701 23.6636L51.7478 24.3981L52.8505 19.7773L48.1617 20.5406L48.6701 23.6636ZM45.3793 38.0922L42.2871 37.4216L42.2832 37.4395L42.2795 37.4573L45.3793 38.0922ZM42.5949 52.0989L39.4879 51.5L39.4844 51.5181L39.4811 51.5362L42.5949 52.0989ZM40.0635 66.2744L36.9475 65.7245L36.9449 65.7394L36.9424 65.7542L40.0635 66.2744ZM37.701 80.8718L38.6222 83.8988L40.5187 83.3217L40.8267 81.3634L37.701 80.8718ZM33.2289 82.053L33.9479 85.1344L33.2289 82.053ZM27.5745 79.9745C25.8185 80.3586 24.0044 80.716 22.1318 81.0465L23.2316 87.2785C25.1842 86.9339 27.0827 86.5601 28.9268 86.1567L27.5745 79.9745ZM25.7705 84.8489C26.898 79.7753 27.9973 74.7017 29.0684 69.6281L22.8765 68.3209C21.8101 73.3726 20.7155 78.4243 19.5929 83.4761L25.7705 84.8489ZM29.0687 69.6263C29.5233 67.467 29.9773 65.1969 30.4308 62.8163L24.2142 61.6322C23.7676 63.9768 23.3216 66.2068 22.8762 68.3226L29.0687 69.6263ZM30.4196 62.8725C30.9296 60.4355 31.4115 58.0261 31.8652 55.6442L25.6486 54.4601C25.2023 56.8034 24.7279 59.1754 24.2254 61.5761L30.4196 62.8725ZM31.854 55.7004C32.364 53.2634 32.8459 50.854 33.2996 48.4721L27.0831 47.288C26.6367 49.6313 26.1623 52.0033 25.6599 54.4039L31.854 55.7004ZM33.2996 48.4721C33.7543 46.0849 34.1533 43.8343 34.496 41.7207L28.2493 40.7077C27.917 42.7568 27.5284 44.95 27.0831 47.288L33.2996 48.4721ZM31.1099 38.061C29.6691 38.181 28.2539 38.3615 26.8647 38.6031L27.949 44.8379C29.1474 44.6294 30.376 44.4724 31.6354 44.3675L31.1099 38.061ZM26.9134 38.595C25.8083 38.7695 24.6502 38.9723 23.4397 39.2029L24.6238 45.4194C25.7759 45.2 26.8679 45.0089 27.9004 44.8459L26.9134 38.595ZM23.5624 39.182C22.4418 39.3501 21.4933 39.4895 20.7154 39.6007L21.6104 45.8654C22.4076 45.7515 23.3716 45.6097 24.5011 45.4403L23.5624 39.182ZM24.2953 43.1805C24.4078 42.393 24.5765 41.2117 24.8016 39.6366L18.5368 38.7417C18.3118 40.3167 18.1431 41.498 18.0306 42.2855L24.2953 43.1805ZM24.8037 39.6215C25.0245 38.0206 25.2731 36.3905 25.5497 34.7311L19.3075 33.6907C19.0215 35.4063 18.7639 37.0951 18.5347 38.7568L24.8037 39.6215ZM25.5711 34.5806C25.7915 32.7066 26.0681 30.659 26.4015 28.4363L20.1432 27.4975C19.8016 29.775 19.5156 31.89 19.2861 33.8412L25.5711 34.5806ZM23.9445 31.0589C25.2057 30.7847 26.9802 30.424 29.2785 29.9756L28.0666 23.7644C25.7522 24.216 23.9266 24.5866 22.6002 24.875L23.9445 31.0589ZM29.2072 29.9887C31.1524 29.6552 33.7496 29.2362 37.0049 28.7311L36.0345 22.4776C32.7645 22.985 30.1303 23.4098 28.1379 23.7513L29.2072 29.9887ZM37.0049 28.7311C40.2779 28.2232 44.3364 27.5749 49.1785 26.7867L48.1617 20.5406C43.3284 21.3274 39.2866 21.973 36.0345 22.4776L37.0049 28.7311ZM45.5923 22.9292C44.4063 27.8992 43.3045 32.7301 42.2871 37.4216L48.4716 38.7629C49.4792 34.1166 50.5713 29.3284 51.7478 24.3981L45.5923 22.9292ZM42.2795 37.4573C41.3208 42.1382 40.3903 46.8191 39.4879 51.5L45.7018 52.6979C46.5995 48.041 47.5253 43.3841 48.4791 38.7271L42.2795 37.4573ZM39.4811 51.5362C38.6366 56.2095 37.792 60.9389 36.9475 65.7245L43.1796 66.8243C44.0226 62.0471 44.8656 57.3262 45.7086 52.6617L39.4811 51.5362ZM36.9424 65.7542C36.1532 70.4894 35.3642 75.3647 34.5752 80.3801L40.8267 81.3634C41.6128 76.366 42.3988 71.5097 43.1847 66.7946L36.9424 65.7542ZM36.7797 77.8447C35.5682 78.2134 34.1473 78.5896 32.5099 78.9716L33.9479 85.1344C35.6857 84.729 37.2462 84.3176 38.6222 83.8988L36.7797 77.8447ZM32.5099 78.9716C30.8797 79.352 29.2808 79.6771 27.713 79.9474L28.7883 86.1837C30.4831 85.8915 32.2031 85.5416 33.9479 85.1344L32.5099 78.9716ZM84.8945 61.8024L81.9037 60.7692L81.8981 60.7855L81.8927 60.8018L84.8945 61.8024ZM81.0975 70.4933L78.3262 68.9663L78.3141 68.9881L78.3024 69.0102L81.0975 70.4933ZM75.9504 77.7498L78.2191 79.9555L78.2342 79.9399L78.2491 79.9242L75.9504 77.7498ZM69.369 82.6437L70.784 85.4738L70.7971 85.4673L70.8102 85.4606L69.369 82.6437ZM54.9404 82.9812L53.4559 85.7755L53.4736 85.7849L53.4913 85.7941L54.9404 82.9812ZM50.4684 79.0998L47.8356 80.855L47.8696 80.906L47.9056 80.9556L50.4684 79.0998ZM47.937 73.2778L44.8673 74.0452L44.8697 74.0544L44.872 74.0637L47.937 73.2778ZM48.1058 56.4866L45.0031 55.866L48.1058 56.4866ZM50.9746 46.6144L48.0403 45.4304L48.0314 45.4527L48.0227 45.4751L50.9746 46.6144ZM55.6154 37.4172L52.9206 35.7589L55.6154 37.4172ZM61.4375 29.7388L59.1712 27.5307L59.1565 27.5458L59.142 27.5611L61.4375 29.7388ZM68.2721 24.5074L69.7645 27.2975L69.7894 27.2842L69.8142 27.2704L68.2721 24.5074ZM81.1819 24.0855L79.3609 26.6732L79.3829 26.6887L79.4052 26.7038L81.1819 24.0855ZM85.0632 28.4732L82.2854 29.9883L82.2854 29.9883L85.0632 28.4732ZM87.2571 35.0546L84.1417 35.6085L84.1489 35.6487L84.1571 35.6887L87.2571 35.0546ZM60.7625 68.2995L57.9572 69.7631L57.9572 69.7631L60.7625 68.2995ZM69.8752 68.1307L67.8889 65.6677L69.8752 68.1307ZM74.3473 62.8993L77.067 64.5164L77.0764 64.5006L77.0856 64.4847L74.3473 62.8993ZM77.2161 55.9803L80.2688 56.8129L80.2711 56.8042L80.2734 56.7956L77.2161 55.9803ZM76.7942 42.6486L74.0023 44.1377L74.0214 44.1734L74.0413 44.2086L76.7942 42.6486ZM67.6814 42.4799L69.9188 44.7173L69.9392 44.6969L69.9591 44.6762L67.6814 42.4799ZM63.6313 48.3019L60.8012 46.8869L60.7942 46.9008L60.7874 46.9147L63.6313 48.3019ZM60.8468 55.8116L63.901 56.6387L60.8468 55.8116ZM84.8523 42.9862C84.8523 45.8477 84.6139 48.8044 84.1316 51.8586L90.3825 52.8456C90.9128 49.487 91.1806 46.1998 91.1806 42.9862L84.8523 42.9862ZM84.1316 51.8586C83.6546 54.8799 82.9124 57.8495 81.9037 60.7692L87.8852 62.8355C89.0142 59.5676 89.847 56.237 90.3825 52.8456L84.1316 51.8586ZM81.8927 60.8018C80.9398 63.6605 79.7507 66.381 78.3262 68.9663L83.8688 72.0203C85.4818 69.093 86.8241 66.0195 87.8963 62.803L81.8927 60.8018ZM78.3024 69.0102C76.9617 71.537 75.4082 73.7186 73.6518 75.5754L78.2491 79.9242C80.4304 77.6183 82.3082 74.9622 83.8925 71.9764L78.3024 69.0102ZM73.6818 75.5441C71.944 77.3315 70.0273 78.7526 67.9278 79.8268L70.8102 85.4606C73.5484 84.0596 76.0193 82.2182 78.2191 79.9555L73.6818 75.5441ZM67.9539 79.8136C66.059 80.761 63.9602 81.2515 61.6062 81.2515L61.6062 87.5798C64.8774 87.5798 67.9538 86.8889 70.784 85.4738L67.9539 79.8136ZM61.6062 81.2515C59.4044 81.2515 57.703 80.845 56.3894 80.1683L53.4913 85.7941C55.8904 87.0299 58.6329 87.5798 61.6062 87.5798L61.6062 81.2515ZM56.4249 80.1869C55.0458 79.4543 53.9258 78.4795 53.0312 77.244L47.9056 80.9556C49.3735 82.9828 51.2348 84.5956 53.4559 85.7755L56.4249 80.1869ZM53.1011 77.3447C52.1954 75.986 51.4863 74.3805 51.002 72.4919L44.872 74.0637C45.5128 76.5627 46.4913 78.8385 47.8356 80.855L53.1011 77.3447ZM51.0067 72.5103C50.5137 70.5382 50.2574 68.3795 50.2574 66.0213L43.9291 66.0213C43.9291 68.8382 44.2353 71.5171 44.8673 74.0452L51.0067 72.5103ZM50.2574 66.0213C50.2574 63.2773 50.5682 60.3085 51.2085 57.1071L45.0031 55.866C44.2933 59.4149 43.9291 62.8025 43.9291 66.0213L50.2574 66.0213ZM51.2085 57.1071C51.8482 53.9087 52.7541 50.7915 53.9266 47.7537L48.0227 45.4751C46.7201 48.85 45.7134 52.3143 45.0031 55.866L51.2085 57.1071ZM53.9089 47.7984C55.1368 44.7555 56.6038 41.8485 58.3102 39.0756L52.9206 35.7589C51.027 38.8361 49.4001 42.0606 48.0403 45.4304L53.9089 47.7984ZM58.3102 39.0756C60.0107 36.3123 61.8211 33.9319 63.733 31.9166L59.142 27.5611C56.8913 29.9335 54.8203 32.672 52.9206 35.7589L58.3102 39.0756ZM63.7037 31.947C65.6408 29.9589 67.6631 28.4215 69.7645 27.2975L66.7797 21.7173C64.0433 23.1809 61.5092 25.1311 59.1712 27.5307L63.7037 31.947ZM69.8142 27.2704C71.7959 26.1643 73.7719 25.6465 75.7817 25.6465L75.7817 19.3182C72.6163 19.3182 69.5859 20.1505 66.73 21.7445L69.8142 27.2704ZM75.7817 25.6465C77.2931 25.6465 78.4386 26.0242 79.3609 26.6732L83.0028 21.4979C80.8876 20.0094 78.4329 19.3182 75.7817 19.3182L75.7817 25.6465ZM79.4052 26.7038C80.519 27.4596 81.4869 28.5244 82.2854 29.9883L87.841 26.958C86.6145 24.7093 84.9948 22.849 82.9585 21.4673L79.4052 26.7038ZM82.2854 29.9883C83.1033 31.4878 83.7391 33.3436 84.1417 35.6085L90.3724 34.5008C89.875 31.703 89.0482 29.1712 87.841 26.958L82.2854 29.9883ZM84.1571 35.6887C84.6162 37.9332 84.8523 40.3629 84.8523 42.9862L91.1806 42.9862C91.1806 39.9842 90.9105 37.1262 90.357 34.4206L84.1571 35.6887ZM56.5858 63.2368C56.5858 65.6244 56.9675 67.8663 57.9572 69.7631L63.5678 66.8358C63.2074 66.1451 62.9141 65.0118 62.9141 63.2368L56.5858 63.2368ZM57.9572 69.7631C58.5379 70.8762 59.3865 71.8375 60.5353 72.498C61.6705 73.1508 62.9144 73.4043 64.1376 73.4043L64.1376 67.076C63.9595 67.076 63.8441 67.0577 63.7779 67.0418C63.7144 67.0266 63.6908 67.0125 63.6897 67.012C63.688 67.011 63.6872 67.0104 63.6862 67.0096C63.6852 67.0088 63.6808 67.0052 63.673 66.9968C63.6582 66.9808 63.6193 66.9346 63.5678 66.8358L57.9572 69.7631ZM64.1376 73.4043C66.9986 73.4043 69.6012 72.4166 71.8616 70.5937L67.8889 65.6677C66.6617 66.6574 65.4391 67.076 64.1376 67.076L64.1376 73.4043ZM71.8616 70.5937C73.921 68.9329 75.6528 66.8948 77.067 64.5164L71.6276 61.2822C70.5667 63.0664 69.3171 64.516 67.8889 65.6677L71.8616 70.5937ZM77.0856 64.4847C78.4652 62.1018 79.5247 59.5412 80.2688 56.8129L74.1634 55.1478C73.5575 57.3696 72.7044 59.4217 71.6089 61.3139L77.0856 64.4847ZM80.2734 56.7956C81.0081 54.0408 81.3928 51.3743 81.3928 48.8082L75.0645 48.8082C75.0645 50.7423 74.7742 52.8572 74.1588 55.165L80.2734 56.7956ZM81.3928 48.8082C81.3928 45.9759 80.8319 43.3559 79.5471 41.0887L74.0413 44.2086C74.6691 45.3165 75.0645 46.8028 75.0645 48.8082L81.3928 48.8082ZM79.5861 41.1596C78.8955 39.8647 77.9131 38.7649 76.6035 38.0094C75.3038 37.2596 73.8634 36.9531 72.4066 36.9531L72.4066 43.2815C72.9748 43.2815 73.2782 43.3969 73.4411 43.4909C73.5941 43.5792 73.7929 43.7451 74.0023 44.1377L79.5861 41.1596ZM72.4066 36.9531C69.6534 36.9531 67.3079 38.3089 65.4037 40.2835L69.9591 44.6762C71.0926 43.5008 71.8972 43.2815 72.4066 43.2815L72.4066 36.9531ZM65.444 40.2425C63.6368 42.0497 62.101 44.2873 60.8012 46.8869L66.4614 49.717C67.5242 47.5914 68.6884 45.9477 69.9188 44.7173L65.444 40.2425ZM60.7874 46.9147C59.5673 49.4159 58.5716 52.1085 57.7927 54.9844L63.901 56.6387C64.5846 54.1144 65.4452 51.8006 66.4751 49.6892L60.7874 46.9147ZM57.7927 54.9844C57.0053 57.8917 56.5858 60.6493 56.5858 63.2368L62.9141 63.2368C62.9141 61.3242 63.2258 59.1316 63.901 56.6387L57.7927 54.9844ZM126.546 61.8024L123.555 60.7692L123.55 60.7855L123.544 60.8018L126.546 61.8024ZM122.749 70.4933L119.978 68.9663L119.966 68.9881L119.954 69.0102L122.749 70.4933ZM117.602 77.7498L119.871 79.9555L119.886 79.9399L119.901 79.9242L117.602 77.7498ZM111.021 82.6437L112.436 85.4738L112.449 85.4673L112.462 85.4606L111.021 82.6437ZM96.592 82.9812L95.1075 85.7755L95.1252 85.7849L95.143 85.7941L96.592 82.9812ZM92.12 79.0998L89.4872 80.855L89.5212 80.906L89.5572 80.9556L92.12 79.0998ZM89.5887 73.2778L86.519 74.0452L86.5213 74.0544L86.5236 74.0637L89.5887 73.2778ZM89.7574 56.4866L86.6547 55.866L89.7574 56.4866ZM92.6263 46.6144L89.692 45.4304L89.683 45.4527L89.6743 45.4751L92.6263 46.6144ZM97.267 37.4172L94.5722 35.7589L97.267 37.4172ZM103.089 29.7388L100.823 27.5307L100.808 27.5458L100.794 27.5611L103.089 29.7388ZM109.924 24.5074L111.416 27.2975L111.441 27.2842L111.466 27.2704L109.924 24.5074ZM122.833 24.0855L121.013 26.6732L121.035 26.6887L121.057 26.7038L122.833 24.0855ZM126.715 28.4732L123.937 29.9883L123.937 29.9883L126.715 28.4732ZM128.909 35.0546L125.793 35.6085L125.801 35.6487L125.809 35.6887L128.909 35.0546ZM102.414 68.2995L99.6088 69.7631L99.6088 69.7631L102.414 68.2995ZM111.527 68.1307L109.541 65.6677L111.527 68.1307ZM115.999 62.8993L118.719 64.5164L118.728 64.5006L118.737 64.4847L115.999 62.8993ZM118.868 55.9803L121.92 56.8129L121.923 56.8042L121.925 56.7956L118.868 55.9803ZM118.446 42.6486L115.654 44.1377L115.673 44.1734L115.693 44.2086L118.446 42.6486ZM109.333 42.4799L111.57 44.7173L111.591 44.6969L111.611 44.6762L109.333 42.4799ZM105.283 48.3019L102.453 46.8869L102.446 46.9008L102.439 46.9147L105.283 48.3019ZM102.498 55.8116L105.553 56.6387L102.498 55.8116ZM126.504 42.9862C126.504 45.8477 126.265 48.8044 125.783 51.8586L132.034 52.8456C132.564 49.487 132.832 46.1998 132.832 42.9862L126.504 42.9862ZM125.783 51.8586C125.306 54.8799 124.564 57.8495 123.555 60.7692L129.537 62.8355C130.666 59.5676 131.499 56.237 132.034 52.8456L125.783 51.8586ZM123.544 60.8018C122.591 63.6605 121.402 66.381 119.978 68.9663L125.52 72.0203C127.133 69.093 128.476 66.0195 129.548 62.803L123.544 60.8018ZM119.954 69.0102C118.613 71.537 117.06 73.7186 115.303 75.5754L119.901 79.9242C122.082 77.6183 123.96 74.9622 125.544 71.9764L119.954 69.0102ZM115.333 75.5441C113.596 77.3315 111.679 78.7526 109.579 79.8268L112.462 85.4606C115.2 84.0596 117.671 82.2182 119.871 79.9555L115.333 75.5441ZM109.606 79.8136C107.711 80.761 105.612 81.2515 103.258 81.2515L103.258 87.5798C106.529 87.5798 109.605 86.8889 112.436 85.4738L109.606 79.8136ZM103.258 81.2515C101.056 81.2515 99.3547 80.845 98.0411 80.1683L95.143 85.7941C97.542 87.0299 100.285 87.5798 103.258 87.5798L103.258 81.2515ZM98.0765 80.1869C96.6974 79.4543 95.5774 78.4795 94.6828 77.244L89.5572 80.9556C91.0251 82.9828 92.8865 84.5956 95.1075 85.7755L98.0765 80.1869ZM94.7527 77.3447C93.847 75.986 93.1379 74.3805 92.6537 72.4919L86.5236 74.0637C87.1644 76.5627 88.1429 78.8385 89.4872 80.855L94.7527 77.3447ZM92.6583 72.5103C92.1653 70.5382 91.909 68.3795 91.909 66.0213L85.5807 66.0213C85.5807 68.8382 85.8869 71.5171 86.519 74.0452L92.6583 72.5103ZM91.909 66.0213C91.909 63.2773 92.2199 60.3085 92.8601 57.1071L86.6547 55.866C85.9449 59.4149 85.5807 62.8025 85.5807 66.0213L91.909 66.0213ZM92.8601 57.1071C93.4998 53.9087 94.4057 50.7915 95.5782 47.7537L89.6743 45.4751C88.3717 48.85 87.365 52.3143 86.6547 55.866L92.8601 57.1071ZM95.5605 47.7984C96.7884 44.7555 98.2554 41.8485 99.9618 39.0756L94.5722 35.7589C92.6786 38.8361 91.0517 42.0606 89.692 45.4304L95.5605 47.7984ZM99.9618 39.0756C101.662 36.3123 103.473 33.9319 105.385 31.9166L100.794 27.5611C98.5429 29.9335 96.4719 32.672 94.5722 35.7589L99.9618 39.0756ZM105.355 31.947C107.292 29.9589 109.315 28.4215 111.416 27.2975L108.431 21.7173C105.695 23.1809 103.161 25.1311 100.823 27.5307L105.355 31.947ZM111.466 27.2704C113.448 26.1643 115.424 25.6465 117.433 25.6465L117.433 19.3182C114.268 19.3182 111.237 20.1505 108.382 21.7445L111.466 27.2704ZM117.433 25.6465C118.945 25.6465 120.09 26.0242 121.013 26.6732L124.654 21.4979C122.539 20.0094 120.085 19.3182 117.433 19.3182L117.433 25.6465ZM121.057 26.7038C122.171 27.4596 123.139 28.5244 123.937 29.9883L129.493 26.958C128.266 24.7093 126.646 22.849 124.61 21.4673L121.057 26.7038ZM123.937 29.9883C124.755 31.4878 125.391 33.3436 125.793 35.6085L132.024 34.5008C131.527 31.703 130.7 29.1712 129.493 26.958L123.937 29.9883ZM125.809 35.6887C126.268 37.9332 126.504 40.3629 126.504 42.9862L132.832 42.9862C132.832 39.9842 132.562 37.1262 132.009 34.4206L125.809 35.6887ZM98.2374 63.2368C98.2374 65.6244 98.6191 67.8663 99.6088 69.7631L105.219 66.8358C104.859 66.1451 104.566 65.0118 104.566 63.2368L98.2374 63.2368ZM99.6088 69.7631C100.19 70.8762 101.038 71.8375 102.187 72.498C103.322 73.1508 104.566 73.4043 105.789 73.4043L105.789 67.076C105.611 67.076 105.496 67.0577 105.429 67.0418C105.366 67.0266 105.342 67.0125 105.341 67.012C105.34 67.011 105.339 67.0104 105.338 67.0096C105.337 67.0088 105.332 67.0052 105.325 66.9968C105.31 66.9808 105.271 66.9346 105.219 66.8358L99.6088 69.7631ZM105.789 73.4043C108.65 73.4043 111.253 72.4166 113.513 70.5937L109.541 65.6677C108.313 66.6574 107.091 67.076 105.789 67.076L105.789 73.4043ZM113.513 70.5937C115.573 68.9329 117.304 66.8948 118.719 64.5164L113.279 61.2822C112.218 63.0664 110.969 64.516 109.541 65.6677L113.513 70.5937ZM118.737 64.4847C120.117 62.1018 121.176 59.5412 121.92 56.8129L115.815 55.1478C115.209 57.3696 114.356 59.4217 113.261 61.3139L118.737 64.4847ZM121.925 56.7956C122.66 54.0408 123.044 51.3743 123.044 48.8082L116.716 48.8082C116.716 50.7423 116.426 52.8572 115.81 55.165L121.925 56.7956ZM123.044 48.8082C123.044 45.9759 122.483 43.3559 121.199 41.0887L115.693 44.2086C116.321 45.3165 116.716 46.8028 116.716 48.8082L123.044 48.8082ZM121.238 41.1596C120.547 39.8647 119.565 38.7649 118.255 38.0094C116.955 37.2596 115.515 36.9531 114.058 36.9531L114.058 43.2815C114.626 43.2815 114.93 43.397 115.093 43.4909C115.246 43.5792 115.445 43.7451 115.654 44.1377L121.238 41.1596ZM114.058 36.9531C111.305 36.9531 108.959 38.3089 107.055 40.2835L111.611 44.6762C112.744 43.5008 113.549 43.2815 114.058 43.2815L114.058 36.9531ZM107.096 40.2425C105.288 42.0497 103.753 44.2873 102.453 46.8869L108.113 49.717C109.176 47.5914 110.34 45.9477 111.57 44.7173L107.096 40.2425ZM102.439 46.9147C101.219 49.4159 100.223 52.1085 99.4443 54.9844L105.553 56.6387C106.236 54.1144 107.097 51.8006 108.127 49.6892L102.439 46.9147ZM99.4443 54.9844C98.6569 57.8917 98.2374 60.6493 98.2374 63.2368L104.566 63.2368C104.566 61.3242 104.877 59.1316 105.553 56.6387L99.4443 54.9844ZM127.612 84.5844L124.518 83.9214L123.562 88.3831L128.076 87.7144L127.612 84.5844ZM132.337 61.6336L135.442 62.2451L135.448 62.2128L135.454 62.1804L132.337 61.6336ZM134.109 51.6771L130.995 51.1155L134.109 51.6771ZM135.797 41.4673L132.676 40.9472L132.671 40.9725L132.668 40.998L135.797 41.4673ZM137.231 31.6795L134.098 31.2397L134.094 31.2634L134.091 31.2871L137.231 31.6795ZM138.244 22.9886L138.518 19.8364L135.365 19.5622L135.091 22.7145L138.244 22.9886ZM142.631 23.3261L142.414 26.4828L142.468 26.4865L142.522 26.4884L142.631 23.3261ZM147.188 23.5793L146.935 26.7334L146.956 26.735L146.977 26.7364L147.188 23.5793ZM152.25 23.748L155.32 24.5155L156.303 20.5839L152.25 20.5839L152.25 23.748ZM151.997 25.0137L148.884 24.4477L148.884 24.4477L151.997 25.0137ZM151.575 27.2919L154.678 27.9124L154.682 27.8937L154.685 27.875L151.575 27.2919ZM150.985 30.1607L147.888 29.5089L147.872 29.5877L147.859 29.6672L150.985 30.1607ZM150.394 33.3671L147.298 32.7152L147.289 32.758L147.281 32.8011L150.394 33.3671ZM148.875 41.7205L145.762 41.1545L144.957 45.5813L149.395 44.8416L148.875 41.7205ZM149.382 41.6361L149.902 44.7572L151.309 44.5227L152.065 43.3131L149.382 41.6361ZM151.744 37.9235L149.097 36.1894L149.09 36.2009L149.082 36.2124L151.744 37.9235ZM158.326 27.6294L160.972 29.3634L160.986 29.343L160.999 29.3224L158.326 27.6294ZM161.026 23.3261L160.773 20.1721L159.178 20.2997L158.335 21.6607L161.026 23.3261ZM177.901 21.4698L180.437 23.3619L185.099 17.1138L177.401 18.3454L177.901 21.4698ZM170.223 31.9327L172.778 33.7996L172.783 33.7917L172.789 33.7837L170.223 31.9327ZM166.932 36.4891L164.357 34.6499L164.335 34.6809L164.314 34.7124L166.932 36.4891ZM163.726 41.1298L166.313 42.9508V42.9508L163.726 41.1298ZM160.688 45.5175L158.072 43.7382L158.047 43.7747L158.023 43.8118L160.688 45.5175ZM158.241 49.3989L155.551 47.7334L154.877 48.8217L155.149 50.0723L158.241 49.3989ZM167.776 82.053L167.638 85.2142L172.157 85.4107L170.793 81.0987L167.776 82.053ZM163.81 81.9687L163.678 85.1301L163.744 85.1328L163.81 85.1328L163.81 81.9687ZM155.119 81.9687L155.119 85.1328L155.178 85.1328L155.236 85.1307L155.119 81.9687ZM150.394 82.053L147.26 82.487L147.651 85.3137L150.503 85.2153L150.394 82.053ZM148.706 70.5777L145.572 71.013L145.576 71.0376L145.58 71.0621L148.706 70.5777ZM147.103 59.0179L150.238 58.5839L149.274 51.6236L144.701 56.9587L147.103 59.0179ZM145.585 60.7899L143.182 58.7306L142.679 59.3178L142.503 60.0709L145.585 60.7899ZM144.234 67.0338L141.134 66.3997L141.128 66.4337L141.121 66.4678L144.234 67.0338ZM142.884 74.2059L139.779 73.5999L139.777 73.6114L139.774 73.6228L142.884 74.2059ZM141.281 82.5593L141.745 85.6893L143.956 85.3617L144.386 83.1681L141.281 82.5593ZM130.706 85.2474C132.397 77.3561 133.976 69.6886 135.442 62.2451L129.233 61.0221C127.774 68.4291 126.202 76.0622 124.518 83.9214L130.706 85.2474ZM135.454 62.1804C136.015 58.9793 136.605 55.6654 137.223 52.2386L130.995 51.1155C130.376 54.5515 129.784 57.8753 129.221 61.0869L135.454 62.1804ZM137.223 52.2386C137.847 48.7772 138.415 45.3433 138.926 41.9367L132.668 40.998C132.166 44.3416 131.609 47.7141 130.995 51.1155L137.223 52.2386ZM138.918 41.9875C139.487 38.5732 139.971 35.2679 140.371 32.072L134.091 31.2871C133.703 34.3913 133.232 37.6113 132.676 40.9472L138.918 41.9875ZM140.365 32.1193C140.821 28.8707 141.165 25.9172 141.396 23.2627L135.091 22.7145C134.872 25.2352 134.542 28.0757 134.098 31.2397L140.365 32.1193ZM137.97 26.1409C139.286 26.2554 140.768 26.3693 142.414 26.4828L142.849 20.1695C141.232 20.0579 139.789 19.9469 138.518 19.8364L137.97 26.1409ZM142.522 26.4884C144.113 26.5433 145.583 26.6252 146.935 26.7334L147.44 20.4252C145.979 20.3083 144.412 20.2215 142.74 20.1639L142.522 26.4884ZM146.977 26.7364C148.735 26.8536 150.492 26.9122 152.25 26.9122L152.25 20.5839C150.633 20.5839 149.016 20.53 147.398 20.4221L146.977 26.7364ZM149.181 22.9806C149.096 23.3196 148.995 23.8381 148.884 24.4477L155.11 25.5797C155.225 24.9518 155.292 24.6265 155.32 24.5155L149.181 22.9806ZM148.884 24.4477C148.773 25.0588 148.633 25.8121 148.465 26.7088L154.685 27.875C154.855 26.9716 154.996 26.2061 155.11 25.5797L148.884 24.4477ZM148.473 26.6713C148.306 27.5023 148.112 28.4479 147.888 29.5089L154.081 30.8126C154.308 29.736 154.507 28.769 154.678 27.9124L148.473 26.6713ZM147.859 29.6672C147.699 30.6825 147.512 31.6985 147.298 32.7152L153.49 34.0189C153.726 32.8981 153.933 31.7765 154.11 30.6542L147.859 29.6672ZM147.281 32.8011C146.831 35.2761 146.325 38.0606 145.762 41.1545L151.988 42.2865C152.551 39.1927 153.057 36.4082 153.507 33.9331L147.281 32.8011ZM149.395 44.8416L149.902 44.7572L148.861 38.515L148.355 38.5994L149.395 44.8416ZM152.065 43.3131C152.617 42.4299 153.396 41.2054 154.406 39.6345L149.082 36.2124C148.067 37.7917 147.271 39.0423 146.698 39.9591L152.065 43.3131ZM154.391 39.6575C155.473 38.0058 156.582 36.271 157.718 34.4534L152.352 31.0994C151.237 32.882 150.153 34.5786 149.097 36.1894L154.391 39.6575ZM157.718 34.4534C158.832 32.6709 159.917 30.9743 160.972 29.3634L155.679 25.8954C154.597 27.5471 153.488 29.2819 152.352 31.0994L157.718 34.4534ZM160.999 29.3224C162.071 27.6293 162.977 26.1851 163.716 24.9916L158.335 21.6607C157.612 22.8297 156.718 24.2544 155.652 25.9364L160.999 29.3224ZM161.278 26.4802C164.111 26.2535 166.945 25.9985 169.778 25.7152L169.149 19.4183C166.357 19.6975 163.565 19.9487 160.773 20.1721L161.278 26.4802ZM169.778 25.7152C172.653 25.4277 175.528 25.054 178.401 24.5943L177.401 18.3454C174.65 18.7857 171.899 19.1433 169.149 19.4183L169.778 25.7152ZM175.365 19.5778C172.712 23.1346 170.142 26.6359 167.657 30.0816L172.789 33.7837C175.254 30.3667 177.803 26.8928 180.437 23.3619L175.365 19.5778ZM167.668 30.0658C166.592 31.5381 165.489 33.0662 164.357 34.6499L169.507 38.3282C170.626 36.7618 171.716 35.2523 172.778 33.7996L167.668 30.0658ZM164.314 34.7124C163.255 36.273 162.196 37.8051 161.138 39.3089L166.313 42.9508C167.393 41.417 168.472 39.8553 169.55 38.2657L164.314 34.7124ZM161.138 39.3089C160.06 40.8403 159.038 42.3168 158.072 43.7382L163.305 47.2967C164.251 45.9056 165.253 44.457 166.313 42.9508L161.138 39.3089ZM158.023 43.8118C157.116 45.2289 156.292 46.5363 155.551 47.7334L160.932 51.0643C161.653 49.8989 162.46 48.6187 163.353 47.2231L158.023 43.8118ZM155.149 50.0723C156.407 55.8465 157.895 61.4276 159.614 66.8146L165.643 64.8905C163.987 59.7021 162.55 54.3141 161.333 48.7254L155.149 50.0723ZM159.614 66.8146C161.301 72.0995 163.016 77.4971 164.759 83.0073L170.793 81.0987C169.048 75.5836 167.332 70.1808 165.643 64.8905L159.614 66.8146ZM167.913 78.8919C166.572 78.8335 165.204 78.8045 163.81 78.8045L163.81 85.1328C165.116 85.1328 166.392 85.16 167.638 85.2142L167.913 78.8919ZM163.942 78.8072C162.55 78.7492 161.184 78.7201 159.844 78.7201L159.844 85.0485C161.092 85.0485 162.37 85.0756 163.678 85.1301L163.942 78.8072ZM159.844 78.7201C158.177 78.7201 156.563 78.7489 155.002 78.8067L155.236 85.1307C156.713 85.076 158.249 85.0485 159.844 85.0485L159.844 78.7201ZM155.119 78.8045C153.561 78.8045 151.95 78.8333 150.285 78.8908L150.503 85.2153C152.101 85.1602 153.639 85.1328 155.119 85.1328L155.119 78.8045ZM153.528 81.6191C153.019 77.9444 152.454 74.1024 151.833 70.0932L145.58 71.0621C146.196 75.0407 146.756 78.849 147.26 82.487L153.528 81.6191ZM151.841 70.1424C151.278 66.0926 150.744 62.2398 150.238 58.5839L143.969 59.4519C144.475 63.1087 145.01 66.9624 145.572 71.013L151.841 70.1424ZM144.701 56.9587L143.182 58.7306L147.987 62.8491L149.506 61.0771L144.701 56.9587ZM142.503 60.0709C142.101 61.7962 141.644 63.9078 141.134 66.3997L147.334 67.6679C147.837 65.2096 148.281 63.1586 148.666 61.5088L142.503 60.0709ZM141.121 66.4678C140.674 68.9305 140.226 71.3078 139.779 73.5999L145.99 74.8119C146.443 72.4914 146.895 70.0873 147.348 67.5998L141.121 66.4678ZM139.774 73.6228C139.27 76.3138 138.737 79.0897 138.176 81.9505L144.386 83.1681C144.95 80.2913 145.486 77.4982 145.994 74.789L139.774 73.6228ZM140.818 79.4293L127.148 81.4544L128.076 87.7144L141.745 85.6893L140.818 79.4293Z" fill="#F8DEB4"/>
</g>
<path d="M28.2507 83.0656L27.713 79.9474L27.6435 79.9594L27.5745 79.9745L28.2507 83.0656ZM22.6817 84.1625L19.5929 83.4761L18.5649 88.102L23.2316 87.2785L22.6817 84.1625ZM25.9725 68.9745L29.0684 69.6281L29.0687 69.6263L25.9725 68.9745ZM27.3225 62.2243L24.2254 61.5761L24.2196 61.6041L24.2142 61.6322L27.3225 62.2243ZM28.7569 55.0522L25.6599 54.4039L25.654 54.432L25.6486 54.4601L28.7569 55.0522ZM31.3726 41.2142L34.496 41.7207L35.144 37.7248L31.1099 38.061L31.3726 41.2142ZM27.4069 41.7205L27.9004 44.8459L27.9247 44.8421L27.949 44.8379L27.4069 41.7205ZM24.0318 42.3111L24.5011 45.4403L24.5627 45.4311L24.6238 45.4194L24.0318 42.3111ZM21.1629 42.733L18.0306 42.2855L17.4339 46.462L21.6104 45.8654L21.1629 42.733ZM21.6692 39.1892L24.8016 39.6366L24.8026 39.6291L24.8037 39.6215L21.6692 39.1892ZM22.4286 34.2109L25.5497 34.7311L25.5622 34.6561L25.5711 34.5806L22.4286 34.2109ZM23.2724 27.9669L22.6002 24.875L20.467 25.3387L20.1432 27.4975L23.2724 27.9669ZM28.6725 26.87L28.1379 23.7513L28.1022 23.7575L28.0666 23.7644L28.6725 26.87ZM36.5197 25.6043L37.0049 28.7311L36.5197 25.6043ZM48.6701 23.6636L51.7478 24.3981L52.8505 19.7773L48.1617 20.5406L48.6701 23.6636ZM45.3793 38.0922L42.2871 37.4216L42.2832 37.4395L42.2795 37.4573L45.3793 38.0922ZM42.5949 52.0989L39.4879 51.5L39.4844 51.5181L39.4811 51.5362L42.5949 52.0989ZM40.0635 66.2744L36.9475 65.7245L36.9449 65.7394L36.9424 65.7542L40.0635 66.2744ZM37.701 80.8718L38.6222 83.8988L40.5187 83.3217L40.8267 81.3634L37.701 80.8718ZM33.2289 82.053L33.9479 85.1344L33.2289 82.053ZM27.5745 79.9745C25.8185 80.3586 24.0044 80.716 22.1318 81.0465L23.2316 87.2785C25.1842 86.9339 27.0827 86.5601 28.9268 86.1567L27.5745 79.9745ZM25.7705 84.8489C26.898 79.7753 27.9973 74.7017 29.0684 69.6281L22.8765 68.3209C21.8101 73.3726 20.7155 78.4243 19.5929 83.4761L25.7705 84.8489ZM29.0687 69.6263C29.5233 67.467 29.9773 65.1969 30.4308 62.8163L24.2142 61.6322C23.7676 63.9768 23.3216 66.2068 22.8762 68.3226L29.0687 69.6263ZM30.4196 62.8725C30.9296 60.4355 31.4115 58.0261 31.8652 55.6442L25.6486 54.4601C25.2023 56.8034 24.7279 59.1754 24.2254 61.5761L30.4196 62.8725ZM31.854 55.7004C32.364 53.2634 32.8459 50.854 33.2996 48.4721L27.0831 47.288C26.6367 49.6313 26.1623 52.0033 25.6599 54.4039L31.854 55.7004ZM33.2996 48.4721C33.7543 46.0849 34.1533 43.8343 34.496 41.7207L28.2493 40.7077C27.917 42.7568 27.5284 44.95 27.0831 47.288L33.2996 48.4721ZM31.1099 38.061C29.6691 38.181 28.2539 38.3615 26.8647 38.6031L27.949 44.8379C29.1474 44.6294 30.376 44.4724 31.6354 44.3675L31.1099 38.061ZM26.9134 38.595C25.8083 38.7695 24.6502 38.9723 23.4397 39.2029L24.6238 45.4194C25.7759 45.2 26.8679 45.0089 27.9004 44.8459L26.9134 38.595ZM23.5624 39.182C22.4418 39.3501 21.4933 39.4895 20.7154 39.6007L21.6104 45.8654C22.4076 45.7515 23.3716 45.6097 24.5011 45.4403L23.5624 39.182ZM24.2953 43.1805C24.4078 42.393 24.5765 41.2117 24.8016 39.6366L18.5368 38.7417C18.3118 40.3167 18.1431 41.498 18.0306 42.2855L24.2953 43.1805ZM24.8037 39.6215C25.0245 38.0206 25.2731 36.3905 25.5497 34.7311L19.3075 33.6907C19.0215 35.4063 18.7639 37.0951 18.5347 38.7568L24.8037 39.6215ZM25.5711 34.5806C25.7915 32.7066 26.0681 30.659 26.4015 28.4363L20.1432 27.4975C19.8016 29.775 19.5156 31.89 19.2861 33.8412L25.5711 34.5806ZM23.9445 31.0589C25.2057 30.7847 26.9802 30.424 29.2785 29.9756L28.0666 23.7644C25.7522 24.216 23.9266 24.5866 22.6002 24.875L23.9445 31.0589ZM29.2072 29.9887C31.1524 29.6552 33.7496 29.2362 37.0049 28.7311L36.0345 22.4776C32.7645 22.985 30.1303 23.4098 28.1379 23.7513L29.2072 29.9887ZM37.0049 28.7311C40.2779 28.2232 44.3364 27.5749 49.1785 26.7867L48.1617 20.5406C43.3284 21.3274 39.2866 21.973 36.0345 22.4776L37.0049 28.7311ZM45.5923 22.9292C44.4063 27.8992 43.3045 32.7301 42.2871 37.4216L48.4716 38.7629C49.4792 34.1166 50.5713 29.3284 51.7478 24.3981L45.5923 22.9292ZM42.2795 37.4573C41.3208 42.1382 40.3903 46.8191 39.4879 51.5L45.7018 52.6979C46.5995 48.041 47.5253 43.3841 48.4791 38.7271L42.2795 37.4573ZM39.4811 51.5362C38.6366 56.2095 37.792 60.9389 36.9475 65.7245L43.1796 66.8243C44.0226 62.0471 44.8656 57.3262 45.7086 52.6617L39.4811 51.5362ZM36.9424 65.7542C36.1532 70.4894 35.3642 75.3647 34.5752 80.3801L40.8267 81.3634C41.6128 76.366 42.3988 71.5097 43.1847 66.7946L36.9424 65.7542ZM36.7797 77.8447C35.5682 78.2134 34.1473 78.5896 32.5099 78.9716L33.9479 85.1344C35.6857 84.729 37.2462 84.3176 38.6222 83.8988L36.7797 77.8447ZM32.5099 78.9716C30.8797 79.352 29.2808 79.6771 27.713 79.9474L28.7883 86.1837C30.4831 85.8915 32.2031 85.5416 33.9479 85.1344L32.5099 78.9716ZM84.8945 61.8024L81.9037 60.7692L81.8981 60.7855L81.8927 60.8018L84.8945 61.8024ZM81.0975 70.4933L78.3262 68.9663L78.3141 68.9881L78.3024 69.0102L81.0975 70.4933ZM75.9504 77.7498L78.2191 79.9555L78.2342 79.9399L78.2491 79.9242L75.9504 77.7498ZM69.369 82.6437L70.784 85.4738L70.7971 85.4673L70.8102 85.4606L69.369 82.6437ZM54.9404 82.9812L53.4559 85.7755L53.4736 85.7849L53.4913 85.7941L54.9404 82.9812ZM50.4684 79.0998L47.8356 80.855L47.8696 80.906L47.9056 80.9556L50.4684 79.0998ZM47.937 73.2778L44.8673 74.0452L44.8697 74.0544L44.872 74.0637L47.937 73.2778ZM48.1058 56.4866L45.0031 55.866L48.1058 56.4866ZM50.9746 46.6144L48.0403 45.4304L48.0314 45.4527L48.0227 45.4751L50.9746 46.6144ZM55.6154 37.4172L52.9206 35.7589L55.6154 37.4172ZM61.4375 29.7388L59.1712 27.5307L59.1565 27.5458L59.142 27.5611L61.4375 29.7388ZM68.2721 24.5074L69.7645 27.2975L69.7894 27.2842L69.8142 27.2704L68.2721 24.5074ZM81.1819 24.0855L79.3609 26.6732L79.3829 26.6887L79.4052 26.7038L81.1819 24.0855ZM85.0632 28.4732L82.2854 29.9883L82.2854 29.9883L85.0632 28.4732ZM87.2571 35.0546L84.1417 35.6085L84.1489 35.6487L84.1571 35.6887L87.2571 35.0546ZM60.7625 68.2995L57.9572 69.7631L57.9572 69.7631L60.7625 68.2995ZM69.8752 68.1307L67.8889 65.6677L69.8752 68.1307ZM74.3473 62.8993L77.067 64.5164L77.0764 64.5006L77.0856 64.4847L74.3473 62.8993ZM77.2161 55.9803L80.2688 56.8129L80.2711 56.8042L80.2734 56.7956L77.2161 55.9803ZM76.7942 42.6486L74.0023 44.1377L74.0214 44.1734L74.0413 44.2086L76.7942 42.6486ZM67.6814 42.4799L69.9188 44.7173L69.9392 44.6969L69.9591 44.6762L67.6814 42.4799ZM63.6313 48.3019L60.8012 46.8869L60.7942 46.9008L60.7874 46.9147L63.6313 48.3019ZM60.8468 55.8116L63.901 56.6387L60.8468 55.8116ZM84.8523 42.9862C84.8523 45.8477 84.6139 48.8044 84.1316 51.8586L90.3825 52.8456C90.9128 49.487 91.1806 46.1998 91.1806 42.9862L84.8523 42.9862ZM84.1316 51.8586C83.6546 54.8799 82.9124 57.8495 81.9037 60.7692L87.8852 62.8355C89.0142 59.5676 89.847 56.237 90.3825 52.8456L84.1316 51.8586ZM81.8927 60.8018C80.9398 63.6605 79.7507 66.381 78.3262 68.9663L83.8688 72.0203C85.4818 69.093 86.8241 66.0195 87.8963 62.803L81.8927 60.8018ZM78.3024 69.0102C76.9617 71.537 75.4082 73.7186 73.6518 75.5754L78.2491 79.9242C80.4304 77.6183 82.3082 74.9622 83.8925 71.9764L78.3024 69.0102ZM73.6818 75.5441C71.944 77.3315 70.0273 78.7526 67.9278 79.8268L70.8102 85.4606C73.5484 84.0596 76.0193 82.2182 78.2191 79.9555L73.6818 75.5441ZM67.9539 79.8136C66.059 80.761 63.9602 81.2515 61.6062 81.2515L61.6062 87.5798C64.8774 87.5798 67.9538 86.8889 70.784 85.4738L67.9539 79.8136ZM61.6062 81.2515C59.4044 81.2515 57.703 80.845 56.3894 80.1683L53.4913 85.7941C55.8904 87.0299 58.6329 87.5798 61.6062 87.5798L61.6062 81.2515ZM56.4249 80.1869C55.0458 79.4543 53.9258 78.4795 53.0312 77.244L47.9056 80.9556C49.3735 82.9828 51.2348 84.5956 53.4559 85.7755L56.4249 80.1869ZM53.1011 77.3447C52.1954 75.986 51.4863 74.3805 51.002 72.4919L44.872 74.0637C45.5128 76.5627 46.4913 78.8385 47.8356 80.855L53.1011 77.3447ZM51.0067 72.5103C50.5137 70.5382 50.2574 68.3795 50.2574 66.0213L43.9291 66.0213C43.9291 68.8382 44.2353 71.5171 44.8673 74.0452L51.0067 72.5103ZM50.2574 66.0213C50.2574 63.2773 50.5682 60.3085 51.2085 57.1071L45.0031 55.866C44.2933 59.4149 43.9291 62.8025 43.9291 66.0213L50.2574 66.0213ZM51.2085 57.1071C51.8482 53.9087 52.7541 50.7915 53.9266 47.7537L48.0227 45.4751C46.7201 48.85 45.7134 52.3143 45.0031 55.866L51.2085 57.1071ZM53.9089 47.7984C55.1368 44.7555 56.6038 41.8485 58.3102 39.0756L52.9206 35.7589C51.027 38.8361 49.4001 42.0606 48.0403 45.4304L53.9089 47.7984ZM58.3102 39.0756C60.0107 36.3123 61.8211 33.9319 63.733 31.9166L59.142 27.5611C56.8913 29.9335 54.8203 32.672 52.9206 35.7589L58.3102 39.0756ZM63.7037 31.947C65.6408 29.9589 67.6631 28.4215 69.7645 27.2975L66.7797 21.7173C64.0433 23.1809 61.5092 25.1311 59.1712 27.5307L63.7037 31.947ZM69.8142 27.2704C71.7959 26.1643 73.7719 25.6465 75.7817 25.6465L75.7817 19.3182C72.6163 19.3182 69.5859 20.1505 66.73 21.7445L69.8142 27.2704ZM75.7817 25.6465C77.2931 25.6465 78.4386 26.0242 79.3609 26.6732L83.0028 21.4979C80.8876 20.0094 78.4329 19.3182 75.7817 19.3182L75.7817 25.6465ZM79.4052 26.7038C80.519 27.4596 81.4869 28.5244 82.2854 29.9883L87.841 26.958C86.6145 24.7093 84.9948 22.849 82.9585 21.4673L79.4052 26.7038ZM82.2854 29.9883C83.1033 31.4878 83.7391 33.3436 84.1417 35.6085L90.3724 34.5008C89.875 31.703 89.0482 29.1712 87.841 26.958L82.2854 29.9883ZM84.1571 35.6887C84.6162 37.9332 84.8523 40.3629 84.8523 42.9862L91.1806 42.9862C91.1806 39.9842 90.9105 37.1262 90.357 34.4206L84.1571 35.6887ZM56.5858 63.2368C56.5858 65.6244 56.9675 67.8663 57.9572 69.7631L63.5678 66.8358C63.2074 66.1451 62.9141 65.0118 62.9141 63.2368L56.5858 63.2368ZM57.9572 69.7631C58.5379 70.8762 59.3865 71.8375 60.5353 72.498C61.6705 73.1508 62.9144 73.4043 64.1376 73.4043L64.1376 67.076C63.9595 67.076 63.8441 67.0577 63.7779 67.0418C63.7144 67.0266 63.6908 67.0125 63.6897 67.012C63.688 67.011 63.6872 67.0104 63.6862 67.0096C63.6852 67.0088 63.6808 67.0052 63.673 66.9968C63.6582 66.9808 63.6193 66.9346 63.5678 66.8358L57.9572 69.7631ZM64.1376 73.4043C66.9986 73.4043 69.6012 72.4166 71.8616 70.5937L67.8889 65.6677C66.6617 66.6574 65.4391 67.076 64.1376 67.076L64.1376 73.4043ZM71.8616 70.5937C73.921 68.9329 75.6528 66.8948 77.067 64.5164L71.6276 61.2822C70.5667 63.0664 69.3171 64.516 67.8889 65.6677L71.8616 70.5937ZM77.0856 64.4847C78.4652 62.1018 79.5247 59.5412 80.2688 56.8129L74.1634 55.1478C73.5575 57.3696 72.7044 59.4217 71.6089 61.3139L77.0856 64.4847ZM80.2734 56.7956C81.0081 54.0408 81.3928 51.3743 81.3928 48.8082L75.0645 48.8082C75.0645 50.7423 74.7742 52.8572 74.1588 55.165L80.2734 56.7956ZM81.3928 48.8082C81.3928 45.9759 80.8319 43.3559 79.5471 41.0887L74.0413 44.2086C74.6691 45.3165 75.0645 46.8028 75.0645 48.8082L81.3928 48.8082ZM79.5861 41.1596C78.8955 39.8647 77.9131 38.7649 76.6035 38.0094C75.3038 37.2596 73.8634 36.9531 72.4066 36.9531L72.4066 43.2815C72.9748 43.2815 73.2782 43.3969 73.4411 43.4909C73.5941 43.5792 73.7929 43.7451 74.0023 44.1377L79.5861 41.1596ZM72.4066 36.9531C69.6534 36.9531 67.3079 38.3089 65.4037 40.2835L69.9591 44.6762C71.0926 43.5008 71.8972 43.2815 72.4066 43.2815L72.4066 36.9531ZM65.444 40.2425C63.6368 42.0497 62.101 44.2873 60.8012 46.8869L66.4614 49.717C67.5242 47.5914 68.6884 45.9477 69.9188 44.7173L65.444 40.2425ZM60.7874 46.9147C59.5673 49.4159 58.5716 52.1085 57.7927 54.9844L63.901 56.6387C64.5846 54.1144 65.4452 51.8006 66.4751 49.6892L60.7874 46.9147ZM57.7927 54.9844C57.0053 57.8917 56.5858 60.6493 56.5858 63.2368L62.9141 63.2368C62.9141 61.3242 63.2258 59.1316 63.901 56.6387L57.7927 54.9844ZM126.546 61.8024L123.555 60.7692L123.55 60.7855L123.544 60.8018L126.546 61.8024ZM122.749 70.4933L119.978 68.9663L119.966 68.9881L119.954 69.0102L122.749 70.4933ZM117.602 77.7498L119.871 79.9555L119.886 79.9399L119.901 79.9242L117.602 77.7498ZM111.021 82.6437L112.436 85.4738L112.449 85.4673L112.462 85.4606L111.021 82.6437ZM96.592 82.9812L95.1075 85.7755L95.1252 85.7849L95.143 85.7941L96.592 82.9812ZM92.12 79.0998L89.4872 80.855L89.5212 80.906L89.5572 80.9556L92.12 79.0998ZM89.5887 73.2778L86.519 74.0452L86.5213 74.0544L86.5236 74.0637L89.5887 73.2778ZM89.7574 56.4866L86.6547 55.866L89.7574 56.4866ZM92.6263 46.6144L89.692 45.4304L89.683 45.4527L89.6743 45.4751L92.6263 46.6144ZM97.267 37.4172L94.5722 35.7589L97.267 37.4172ZM103.089 29.7388L100.823 27.5307L100.808 27.5458L100.794 27.5611L103.089 29.7388ZM109.924 24.5074L111.416 27.2975L111.441 27.2842L111.466 27.2704L109.924 24.5074ZM122.833 24.0855L121.013 26.6732L121.035 26.6887L121.057 26.7038L122.833 24.0855ZM126.715 28.4732L123.937 29.9883L123.937 29.9883L126.715 28.4732ZM128.909 35.0546L125.793 35.6085L125.801 35.6487L125.809 35.6887L128.909 35.0546ZM102.414 68.2995L99.6088 69.7631L99.6088 69.7631L102.414 68.2995ZM111.527 68.1307L109.541 65.6677L111.527 68.1307ZM115.999 62.8993L118.719 64.5164L118.728 64.5006L118.737 64.4847L115.999 62.8993ZM118.868 55.9803L121.92 56.8129L121.923 56.8042L121.925 56.7956L118.868 55.9803ZM118.446 42.6486L115.654 44.1377L115.673 44.1734L115.693 44.2086L118.446 42.6486ZM109.333 42.4799L111.57 44.7173L111.591 44.6969L111.611 44.6762L109.333 42.4799ZM105.283 48.3019L102.453 46.8869L102.446 46.9008L102.439 46.9147L105.283 48.3019ZM102.498 55.8116L105.553 56.6387L102.498 55.8116ZM126.504 42.9862C126.504 45.8477 126.265 48.8044 125.783 51.8586L132.034 52.8456C132.564 49.487 132.832 46.1998 132.832 42.9862L126.504 42.9862ZM125.783 51.8586C125.306 54.8799 124.564 57.8495 123.555 60.7692L129.537 62.8355C130.666 59.5676 131.499 56.237 132.034 52.8456L125.783 51.8586ZM123.544 60.8018C122.591 63.6605 121.402 66.381 119.978 68.9663L125.52 72.0203C127.133 69.093 128.476 66.0195 129.548 62.803L123.544 60.8018ZM119.954 69.0102C118.613 71.537 117.06 73.7186 115.303 75.5754L119.901 79.9242C122.082 77.6183 123.96 74.9622 125.544 71.9764L119.954 69.0102ZM115.333 75.5441C113.596 77.3315 111.679 78.7526 109.579 79.8268L112.462 85.4606C115.2 84.0596 117.671 82.2182 119.871 79.9555L115.333 75.5441ZM109.606 79.8136C107.711 80.761 105.612 81.2515 103.258 81.2515L103.258 87.5798C106.529 87.5798 109.605 86.8889 112.436 85.4738L109.606 79.8136ZM103.258 81.2515C101.056 81.2515 99.3547 80.845 98.0411 80.1683L95.143 85.7941C97.542 87.0299 100.285 87.5798 103.258 87.5798L103.258 81.2515ZM98.0765 80.1869C96.6974 79.4543 95.5774 78.4795 94.6828 77.244L89.5572 80.9556C91.0251 82.9828 92.8865 84.5956 95.1075 85.7755L98.0765 80.1869ZM94.7527 77.3447C93.847 75.986 93.1379 74.3805 92.6537 72.4919L86.5236 74.0637C87.1644 76.5627 88.1429 78.8385 89.4872 80.855L94.7527 77.3447ZM92.6583 72.5103C92.1653 70.5382 91.909 68.3795 91.909 66.0213L85.5807 66.0213C85.5807 68.8382 85.8869 71.5171 86.519 74.0452L92.6583 72.5103ZM91.909 66.0213C91.909 63.2773 92.2199 60.3085 92.8601 57.1071L86.6547 55.866C85.9449 59.4149 85.5807 62.8025 85.5807 66.0213L91.909 66.0213ZM92.8601 57.1071C93.4998 53.9087 94.4057 50.7915 95.5782 47.7537L89.6743 45.4751C88.3717 48.85 87.365 52.3143 86.6547 55.866L92.8601 57.1071ZM95.5605 47.7984C96.7884 44.7555 98.2554 41.8485 99.9618 39.0756L94.5722 35.7589C92.6786 38.8361 91.0517 42.0606 89.692 45.4304L95.5605 47.7984ZM99.9618 39.0756C101.662 36.3123 103.473 33.9319 105.385 31.9166L100.794 27.5611C98.5429 29.9335 96.4719 32.672 94.5722 35.7589L99.9618 39.0756ZM105.355 31.947C107.292 29.9589 109.315 28.4215 111.416 27.2975L108.431 21.7173C105.695 23.1809 103.161 25.1311 100.823 27.5307L105.355 31.947ZM111.466 27.2704C113.448 26.1643 115.424 25.6465 117.433 25.6465L117.433 19.3182C114.268 19.3182 111.237 20.1505 108.382 21.7445L111.466 27.2704ZM117.433 25.6465C118.945 25.6465 120.09 26.0242 121.013 26.6732L124.654 21.4979C122.539 20.0094 120.085 19.3182 117.433 19.3182L117.433 25.6465ZM121.057 26.7038C122.171 27.4596 123.139 28.5244 123.937 29.9883L129.493 26.958C128.266 24.7093 126.646 22.849 124.61 21.4673L121.057 26.7038ZM123.937 29.9883C124.755 31.4878 125.391 33.3436 125.793 35.6085L132.024 34.5008C131.527 31.703 130.7 29.1712 129.493 26.958L123.937 29.9883ZM125.809 35.6887C126.268 37.9332 126.504 40.3629 126.504 42.9862L132.832 42.9862C132.832 39.9842 132.562 37.1262 132.009 34.4206L125.809 35.6887ZM98.2374 63.2368C98.2374 65.6244 98.6191 67.8663 99.6088 69.7631L105.219 66.8358C104.859 66.1451 104.566 65.0118 104.566 63.2368L98.2374 63.2368ZM99.6088 69.7631C100.19 70.8762 101.038 71.8375 102.187 72.498C103.322 73.1508 104.566 73.4043 105.789 73.4043L105.789 67.076C105.611 67.076 105.496 67.0577 105.429 67.0418C105.366 67.0266 105.342 67.0125 105.341 67.012C105.34 67.011 105.339 67.0104 105.338 67.0096C105.337 67.0088 105.332 67.0052 105.325 66.9968C105.31 66.9808 105.271 66.9346 105.219 66.8358L99.6088 69.7631ZM105.789 73.4043C108.65 73.4043 111.253 72.4166 113.513 70.5937L109.541 65.6677C108.313 66.6574 107.091 67.076 105.789 67.076L105.789 73.4043ZM113.513 70.5937C115.573 68.9329 117.304 66.8948 118.719 64.5164L113.279 61.2822C112.218 63.0664 110.969 64.516 109.541 65.6677L113.513 70.5937ZM118.737 64.4847C120.117 62.1018 121.176 59.5412 121.92 56.8129L115.815 55.1478C115.209 57.3696 114.356 59.4217 113.261 61.3139L118.737 64.4847ZM121.925 56.7956C122.66 54.0408 123.044 51.3743 123.044 48.8082L116.716 48.8082C116.716 50.7423 116.426 52.8572 115.81 55.165L121.925 56.7956ZM123.044 48.8082C123.044 45.9759 122.483 43.3559 121.199 41.0887L115.693 44.2086C116.321 45.3165 116.716 46.8028 116.716 48.8082L123.044 48.8082ZM121.238 41.1596C120.547 39.8647 119.565 38.7649 118.255 38.0094C116.955 37.2596 115.515 36.9531 114.058 36.9531L114.058 43.2815C114.626 43.2815 114.93 43.397 115.093 43.4909C115.246 43.5792 115.445 43.7451 115.654 44.1377L121.238 41.1596ZM114.058 36.9531C111.305 36.9531 108.959 38.3089 107.055 40.2835L111.611 44.6762C112.744 43.5008 113.549 43.2815 114.058 43.2815L114.058 36.9531ZM107.096 40.2425C105.288 42.0497 103.753 44.2873 102.453 46.8869L108.113 49.717C109.176 47.5914 110.34 45.9477 111.57 44.7173L107.096 40.2425ZM102.439 46.9147C101.219 49.4159 100.223 52.1085 99.4443 54.9844L105.553 56.6387C106.236 54.1144 107.097 51.8006 108.127 49.6892L102.439 46.9147ZM99.4443 54.9844C98.6569 57.8917 98.2374 60.6493 98.2374 63.2368L104.566 63.2368C104.566 61.3242 104.877 59.1316 105.553 56.6387L99.4443 54.9844ZM127.612 84.5844L124.518 83.9214L123.562 88.3831L128.076 87.7144L127.612 84.5844ZM132.337 61.6336L135.442 62.2451L135.448 62.2128L135.454 62.1804L132.337 61.6336ZM134.109 51.6771L130.995 51.1155L134.109 51.6771ZM135.797 41.4673L132.676 40.9472L132.671 40.9725L132.668 40.998L135.797 41.4673ZM137.231 31.6795L134.098 31.2397L134.094 31.2634L134.091 31.2871L137.231 31.6795ZM138.244 22.9886L138.518 19.8364L135.365 19.5622L135.091 22.7145L138.244 22.9886ZM142.631 23.3261L142.414 26.4828L142.468 26.4865L142.522 26.4884L142.631 23.3261ZM147.188 23.5793L146.935 26.7334L146.956 26.735L146.977 26.7364L147.188 23.5793ZM152.25 23.748L155.32 24.5155L156.303 20.5839L152.25 20.5839L152.25 23.748ZM151.997 25.0137L148.884 24.4477L148.884 24.4477L151.997 25.0137ZM151.575 27.2919L154.678 27.9124L154.682 27.8937L154.685 27.875L151.575 27.2919ZM150.985 30.1607L147.888 29.5089L147.872 29.5877L147.859 29.6672L150.985 30.1607ZM150.394 33.3671L147.298 32.7152L147.289 32.758L147.281 32.8011L150.394 33.3671ZM148.875 41.7205L145.762 41.1545L144.957 45.5813L149.395 44.8416L148.875 41.7205ZM149.382 41.6361L149.902 44.7572L151.309 44.5227L152.065 43.3131L149.382 41.6361ZM151.744 37.9235L149.097 36.1894L149.09 36.2009L149.082 36.2124L151.744 37.9235ZM158.326 27.6294L160.972 29.3634L160.986 29.343L160.999 29.3224L158.326 27.6294ZM161.026 23.3261L160.773 20.1721L159.178 20.2997L158.335 21.6607L161.026 23.3261ZM177.901 21.4698L180.437 23.3619L185.099 17.1138L177.401 18.3454L177.901 21.4698ZM170.223 31.9327L172.778 33.7996L172.783 33.7917L172.789 33.7837L170.223 31.9327ZM166.932 36.4891L164.357 34.6499L164.335 34.6809L164.314 34.7124L166.932 36.4891ZM163.726 41.1298L166.313 42.9508V42.9508L163.726 41.1298ZM160.688 45.5175L158.072 43.7382L158.047 43.7747L158.023 43.8118L160.688 45.5175ZM158.241 49.3989L155.551 47.7334L154.877 48.8217L155.149 50.0723L158.241 49.3989ZM167.776 82.053L167.638 85.2142L172.157 85.4107L170.793 81.0987L167.776 82.053ZM163.81 81.9687L163.678 85.1301L163.744 85.1328L163.81 85.1328L163.81 81.9687ZM155.119 81.9687L155.119 85.1328L155.178 85.1328L155.236 85.1307L155.119 81.9687ZM150.394 82.053L147.26 82.487L147.651 85.3137L150.503 85.2153L150.394 82.053ZM148.706 70.5777L145.572 71.013L145.576 71.0376L145.58 71.0621L148.706 70.5777ZM147.103 59.0179L150.238 58.5839L149.274 51.6236L144.701 56.9587L147.103 59.0179ZM145.585 60.7899L143.182 58.7306L142.679 59.3178L142.503 60.0709L145.585 60.7899ZM144.234 67.0338L141.134 66.3997L141.128 66.4337L141.121 66.4678L144.234 67.0338ZM142.884 74.2059L139.779 73.5999L139.777 73.6114L139.774 73.6228L142.884 74.2059ZM141.281 82.5593L141.745 85.6893L143.956 85.3617L144.386 83.1681L141.281 82.5593ZM130.706 85.2474C132.397 77.3561 133.976 69.6886 135.442 62.2451L129.233 61.0221C127.774 68.4291 126.202 76.0622 124.518 83.9214L130.706 85.2474ZM135.454 62.1804C136.015 58.9793 136.605 55.6654 137.223 52.2386L130.995 51.1155C130.376 54.5515 129.784 57.8753 129.221 61.0869L135.454 62.1804ZM137.223 52.2386C137.847 48.7772 138.415 45.3433 138.926 41.9367L132.668 40.998C132.166 44.3416 131.609 47.7141 130.995 51.1155L137.223 52.2386ZM138.918 41.9875C139.487 38.5732 139.971 35.2679 140.371 32.072L134.091 31.2871C133.703 34.3913 133.232 37.6113 132.676 40.9472L138.918 41.9875ZM140.365 32.1193C140.821 28.8707 141.165 25.9172 141.396 23.2627L135.091 22.7145C134.872 25.2352 134.542 28.0757 134.098 31.2397L140.365 32.1193ZM137.97 26.1409C139.286 26.2554 140.768 26.3693 142.414 26.4828L142.849 20.1695C141.232 20.0579 139.789 19.9469 138.518 19.8364L137.97 26.1409ZM142.522 26.4884C144.113 26.5433 145.583 26.6252 146.935 26.7334L147.44 20.4252C145.979 20.3083 144.412 20.2215 142.74 20.1639L142.522 26.4884ZM146.977 26.7364C148.735 26.8536 150.492 26.9122 152.25 26.9122L152.25 20.5839C150.633 20.5839 149.016 20.53 147.398 20.4221L146.977 26.7364ZM149.181 22.9806C149.096 23.3196 148.995 23.8381 148.884 24.4477L155.11 25.5797C155.225 24.9518 155.292 24.6265 155.32 24.5155L149.181 22.9806ZM148.884 24.4477C148.773 25.0588 148.633 25.8121 148.465 26.7088L154.685 27.875C154.855 26.9716 154.996 26.2061 155.11 25.5797L148.884 24.4477ZM148.473 26.6713C148.306 27.5023 148.112 28.4479 147.888 29.5089L154.081 30.8126C154.308 29.736 154.507 28.769 154.678 27.9124L148.473 26.6713ZM147.859 29.6672C147.699 30.6825 147.512 31.6985 147.298 32.7152L153.49 34.0189C153.726 32.8981 153.933 31.7765 154.11 30.6542L147.859 29.6672ZM147.281 32.8011C146.831 35.2761 146.325 38.0606 145.762 41.1545L151.988 42.2865C152.551 39.1927 153.057 36.4082 153.507 33.9331L147.281 32.8011ZM149.395 44.8416L149.902 44.7572L148.861 38.515L148.355 38.5994L149.395 44.8416ZM152.065 43.3131C152.617 42.4299 153.396 41.2054 154.406 39.6345L149.082 36.2124C148.067 37.7917 147.271 39.0423 146.698 39.9591L152.065 43.3131ZM154.391 39.6575C155.473 38.0058 156.582 36.271 157.718 34.4534L152.352 31.0994C151.237 32.882 150.153 34.5786 149.097 36.1894L154.391 39.6575ZM157.718 34.4534C158.832 32.6709 159.917 30.9743 160.972 29.3634L155.679 25.8954C154.597 27.5471 153.488 29.2819 152.352 31.0994L157.718 34.4534ZM160.999 29.3224C162.071 27.6293 162.977 26.1851 163.716 24.9916L158.335 21.6607C157.612 22.8297 156.718 24.2544 155.652 25.9364L160.999 29.3224ZM161.278 26.4802C164.111 26.2535 166.945 25.9985 169.778 25.7152L169.149 19.4183C166.357 19.6975 163.565 19.9487 160.773 20.1721L161.278 26.4802ZM169.778 25.7152C172.653 25.4277 175.528 25.054 178.401 24.5943L177.401 18.3454C174.65 18.7857 171.899 19.1433 169.149 19.4183L169.778 25.7152ZM175.365 19.5778C172.712 23.1346 170.142 26.6359 167.657 30.0816L172.789 33.7837C175.254 30.3667 177.803 26.8928 180.437 23.3619L175.365 19.5778ZM167.668 30.0658C166.592 31.5381 165.489 33.0662 164.357 34.6499L169.507 38.3282C170.626 36.7618 171.716 35.2523 172.778 33.7996L167.668 30.0658ZM164.314 34.7124C163.255 36.273 162.196 37.8051 161.138 39.3089L166.313 42.9508C167.393 41.417 168.472 39.8553 169.55 38.2657L164.314 34.7124ZM161.138 39.3089C160.06 40.8403 159.038 42.3168 158.072 43.7382L163.305 47.2967C164.251 45.9056 165.253 44.457 166.313 42.9508L161.138 39.3089ZM158.023 43.8118C157.116 45.2289 156.292 46.5363 155.551 47.7334L160.932 51.0643C161.653 49.8989 162.46 48.6187 163.353 47.2231L158.023 43.8118ZM155.149 50.0723C156.407 55.8465 157.895 61.4276 159.614 66.8146L165.643 64.8905C163.987 59.7021 162.55 54.3141 161.333 48.7254L155.149 50.0723ZM159.614 66.8146C161.301 72.0995 163.016 77.4971 164.759 83.0073L170.793 81.0987C169.048 75.5836 167.332 70.1808 165.643 64.8905L159.614 66.8146ZM167.913 78.8919C166.572 78.8335 165.204 78.8045 163.81 78.8045L163.81 85.1328C165.116 85.1328 166.392 85.16 167.638 85.2142L167.913 78.8919ZM163.942 78.8072C162.55 78.7492 161.184 78.7201 159.844 78.7201L159.844 85.0485C161.092 85.0485 162.37 85.0756 163.678 85.1301L163.942 78.8072ZM159.844 78.7201C158.177 78.7201 156.563 78.7489 155.002 78.8067L155.236 85.1307C156.713 85.076 158.249 85.0485 159.844 85.0485L159.844 78.7201ZM155.119 78.8045C153.561 78.8045 151.95 78.8333 150.285 78.8908L150.503 85.2153C152.101 85.1602 153.639 85.1328 155.119 85.1328L155.119 78.8045ZM153.528 81.6191C153.019 77.9444 152.454 74.1024 151.833 70.0932L145.58 71.0621C146.196 75.0407 146.756 78.849 147.26 82.487L153.528 81.6191ZM151.841 70.1424C151.278 66.0926 150.744 62.2398 150.238 58.5839L143.969 59.4519C144.475 63.1087 145.01 66.9624 145.572 71.013L151.841 70.1424ZM144.701 56.9587L143.182 58.7306L147.987 62.8491L149.506 61.0771L144.701 56.9587ZM142.503 60.0709C142.101 61.7962 141.644 63.9078 141.134 66.3997L147.334 67.6679C147.837 65.2096 148.281 63.1586 148.666 61.5088L142.503 60.0709ZM141.121 66.4678C140.674 68.9305 140.226 71.3078 139.779 73.5999L145.99 74.8119C146.443 72.4914 146.895 70.0873 147.348 67.5998L141.121 66.4678ZM139.774 73.6228C139.27 76.3138 138.737 79.0897 138.176 81.9505L144.386 83.1681C144.95 80.2913 145.486 77.4982 145.994 74.789L139.774 73.6228ZM140.818 79.4293L127.148 81.4544L128.076 87.7144L141.745 85.6893L140.818 79.4293Z" fill="#F9F7F3"/>
<defs>
<filter id="filter0_f_1066_15" x="0.0684071" y="0.375292" width="198.927" height="105.304" filterUnits="userSpaceOnUse" color-interpolation-filters="sRGB">
<feFlood flood-opacity="0" result="BackgroundImageFix"/>
<feBlend mode="normal" in="SourceGraphic" in2="BackgroundImageFix" result="shape"/>
<feGaussianBlur stdDeviation="10.5472" result="effect1_foregroundBlur_1066_15"/>
</filter>
</defs>
</svg>
