<svg width="203" height="44" viewBox="0 0 203 44" fill="none" xmlns="http://www.w3.org/2000/svg">
<g clip-path="url(#clip0_134_414)">
<path d="M63.5573 23.2083V22.7066C63.5573 21.4459 63.1246 20.4809 62.2594 19.8118C61.4202 19.1173 60.3189 18.7698 58.9553 18.7698C57.9064 18.7698 57.0805 18.95 56.4774 19.3101C55.9006 19.6447 55.3499 20.1593 54.8254 20.854C54.668 21.0599 54.4976 21.2013 54.3141 21.2786C54.1306 21.3558 53.8815 21.3943 53.5667 21.3943H52.3869C52.0985 21.3943 51.8362 21.2914 51.6001 21.0856C51.3905 20.8797 51.2986 20.6354 51.3247 20.3523C51.4035 19.5803 51.7837 18.8214 52.4654 18.0751C53.1734 17.3032 54.1043 16.6728 55.2581 16.184C56.4118 15.6951 57.6442 15.4507 58.9553 15.4507C61.394 15.4507 63.3607 16.1197 64.8553 17.4576C66.376 18.7955 67.1365 20.6739 67.1365 23.0925V34.864C67.1365 35.1471 67.0316 35.3914 66.822 35.5973C66.6122 35.8031 66.363 35.906 66.0746 35.906H64.6192C64.3308 35.906 64.0818 35.8031 63.872 35.5973C63.6622 35.3914 63.5573 35.1471 63.5573 34.864V33.2815C63.1378 34.2078 62.2461 34.9412 60.8826 35.4815C59.5192 36.0218 58.1556 36.292 56.7921 36.292C55.4548 36.292 54.2617 36.0605 53.2128 35.5973C52.164 35.1084 51.3511 34.4523 50.7741 33.629C50.2234 32.8057 49.9481 31.8794 49.9481 30.8501C49.9481 28.9203 50.6824 27.4151 52.1507 26.3345C53.6192 25.2281 55.5728 24.482 58.0113 24.096L63.5573 23.2083ZM63.5573 26.2958L58.9161 27.0293C57.2117 27.2865 55.8873 27.711 54.9434 28.3028C53.9994 28.8689 53.5275 29.5894 53.5275 30.4642C53.5275 31.1074 53.829 31.6864 54.4321 32.201C55.0352 32.7156 55.953 32.9728 57.1854 32.9728C59.0734 32.9728 60.6073 32.4454 61.7873 31.3905C62.9672 30.3355 63.5573 28.959 63.5573 27.2608V26.2958Z" fill="white"/>
<path d="M76.4545 34.8639C76.4545 35.1469 76.3496 35.3913 76.1398 35.5971C75.93 35.803 75.681 35.9059 75.3924 35.9059H73.9372C73.6488 35.9059 73.3996 35.803 73.1898 35.5971C72.98 35.3913 72.8752 35.1469 72.8752 34.8639V9.54549C72.8752 9.26246 72.98 9.01802 73.1898 8.81217C73.3996 8.60634 73.6488 8.50342 73.9372 8.50342H75.3924C75.681 8.50342 75.93 8.60634 76.1398 8.81217C76.3496 9.01802 76.4545 9.26246 76.4545 9.54549V34.8639Z" fill="white"/>
<path d="M90.6225 32.9728C93.2447 32.9728 95.0147 31.9693 95.9325 29.9625C96.116 29.5765 96.2995 29.3063 96.4831 29.152C96.6666 28.9975 96.9156 28.9203 97.2303 28.9203H98.4104C98.6988 28.9203 98.9478 29.0232 99.1576 29.2291C99.3674 29.4092 99.4723 29.6279 99.4723 29.8853C99.4723 30.76 99.1184 31.6993 98.4104 32.7028C97.7024 33.7062 96.6797 34.5553 95.3424 35.25C94.005 35.9447 92.4318 36.292 90.6225 36.292C88.7608 36.292 87.1482 35.906 85.7846 35.1342C84.4211 34.3623 83.3722 33.3074 82.6379 31.9693C81.9037 30.6057 81.4974 29.0876 81.4186 27.4151C81.3925 27.1063 81.3794 26.5147 81.3794 25.6398C81.3794 25.0223 81.3925 24.5849 81.4186 24.3276C81.6547 21.7031 82.5593 19.5675 84.1327 17.9208C85.7059 16.274 87.8693 15.4507 90.6225 15.4507C92.4318 15.4507 93.992 15.798 95.3031 16.4927C96.6403 17.1617 97.65 17.998 98.3316 19.0014C99.0397 19.9792 99.4199 20.9054 99.4723 21.7803C99.4987 22.0634 99.3938 22.3077 99.1576 22.5136C98.9478 22.7194 98.6988 22.8223 98.4104 22.8223H97.2303C96.9156 22.8223 96.6666 22.7451 96.4831 22.5908C96.2995 22.4363 96.116 22.1663 95.9325 21.7803C95.0147 19.7733 93.2447 18.7698 90.6225 18.7698C89.1804 18.7698 87.9217 19.2459 86.8465 20.1978C85.7715 21.15 85.1552 22.5908 84.9978 24.5205C84.9717 24.8036 84.9586 25.2667 84.9586 25.91C84.9586 26.5017 84.9717 26.9392 84.9978 27.2223C85.1815 29.152 85.7977 30.5929 86.8465 31.5448C87.9217 32.4969 89.1804 32.9728 90.6225 32.9728Z" fill="white"/>
<path d="M122.352 34.8639C122.352 35.1469 122.247 35.3913 122.037 35.5971C121.827 35.803 121.578 35.9059 121.29 35.9059H119.834C119.546 35.9059 119.297 35.803 119.087 35.5971C118.877 35.3913 118.772 35.1469 118.772 34.8639V24.6747C118.772 22.7449 118.287 21.2784 117.317 20.2749C116.347 19.2714 114.996 18.7697 113.266 18.7697C111.561 18.7697 110.211 19.2714 109.215 20.2749C108.244 21.2784 107.759 22.7449 107.759 24.6747V34.8639C107.759 35.1469 107.654 35.3913 107.445 35.5971C107.235 35.803 106.986 35.9059 106.697 35.9059H105.242C104.953 35.9059 104.704 35.803 104.495 35.5971C104.285 35.3913 104.18 35.1469 104.18 34.8639V9.54549C104.18 9.26246 104.285 9.01802 104.495 8.81217C104.704 8.60634 104.953 8.50342 105.242 8.50342H106.697C106.986 8.50342 107.235 8.60634 107.445 8.81217C107.654 9.01802 107.759 9.26246 107.759 9.54549V18.075C108.336 17.3288 109.123 16.7113 110.119 16.2224C111.142 15.7078 112.387 15.4505 113.856 15.4505C115.508 15.4505 116.976 15.7979 118.261 16.4926C119.546 17.1873 120.542 18.1908 121.25 19.503C121.984 20.7895 122.352 22.3204 122.352 24.0959V34.8639Z" fill="white"/>
<path d="M136.135 15.4507C138.94 15.4507 141.156 16.3255 142.782 18.0751C144.408 19.8249 145.221 22.2048 145.221 25.2153V26.2573C145.221 26.5404 145.116 26.7847 144.906 26.9906C144.696 27.1964 144.447 27.2993 144.158 27.2993H130.628V27.531C130.681 29.2291 131.205 30.5672 132.201 31.5448C133.224 32.4969 134.535 32.9728 136.135 32.9728C137.446 32.9728 138.455 32.8057 139.163 32.4711C139.898 32.1366 140.553 31.6606 141.13 31.0431C141.34 30.8372 141.523 30.6958 141.681 30.6185C141.864 30.5413 142.1 30.5028 142.389 30.5028H143.569C143.883 30.5028 144.145 30.6057 144.355 30.8115C144.565 31.0174 144.657 31.2617 144.631 31.5448C144.526 32.2395 144.132 32.96 143.451 33.7062C142.795 34.4267 141.838 35.0442 140.579 35.5588C139.347 36.0477 137.865 36.292 136.135 36.292C134.457 36.292 132.962 35.9189 131.651 35.1728C130.34 34.4008 129.291 33.3459 128.504 32.008C127.744 30.6701 127.285 29.1649 127.127 27.4923C127.075 26.7205 127.049 26.1287 127.049 25.717C127.049 25.3054 127.075 24.7135 127.127 23.9416C127.285 22.3463 127.744 20.9054 128.504 19.6189C129.291 18.3325 130.327 17.3161 131.611 16.5699C132.923 15.8238 134.43 15.4507 136.135 15.4507ZM141.681 24.0573V23.9416C141.681 22.3721 141.169 21.1241 140.147 20.1978C139.15 19.2459 137.813 18.7698 136.135 18.7698C134.614 18.7698 133.316 19.2459 132.241 20.1978C131.192 21.15 130.654 22.3978 130.628 23.9416V24.0573H141.681Z" fill="white"/>
<path d="M153.545 18.0751C154.174 17.2775 154.882 16.6471 155.669 16.184C156.456 15.6951 157.504 15.4507 158.816 15.4507C161.884 15.4507 164.034 16.5699 165.266 18.8084C166.027 17.7278 166.892 16.9044 167.862 16.3384C168.832 15.7466 170.104 15.4507 171.677 15.4507C174.247 15.4507 176.148 16.2097 177.381 17.7278C178.639 19.2459 179.268 21.3943 179.268 24.1731V34.864C179.268 35.1471 179.164 35.3914 178.954 35.5973C178.744 35.8031 178.495 35.906 178.207 35.906H176.751C176.463 35.906 176.214 35.8031 176.004 35.5973C175.794 35.3914 175.689 35.1471 175.689 34.864V24.5591C175.689 20.6996 174.142 18.7698 171.048 18.7698C169.632 18.7698 168.504 19.2331 167.665 20.1593C166.826 21.0856 166.407 22.4622 166.407 24.289V34.864C166.407 35.1471 166.302 35.3914 166.092 35.5973C165.882 35.8031 165.633 35.906 165.345 35.906H163.889C163.601 35.906 163.352 35.8031 163.142 35.5973C162.932 35.3914 162.828 35.1471 162.828 34.864V24.5591C162.828 20.6996 161.28 18.7698 158.186 18.7698C156.77 18.7698 155.643 19.2331 154.804 20.1593C153.964 21.0856 153.545 22.4622 153.545 24.289V34.864C153.545 35.1471 153.44 35.3914 153.23 35.5973C153.02 35.8031 152.771 35.906 152.483 35.906H151.028C150.739 35.906 150.49 35.8031 150.28 35.5973C150.07 35.3914 149.966 35.1471 149.966 34.864V16.8787C149.966 16.5957 150.07 16.3512 150.28 16.1454C150.49 15.9395 150.739 15.8366 151.028 15.8366H152.483C152.771 15.8366 153.02 15.9395 153.23 16.1454C153.44 16.3512 153.545 16.5957 153.545 16.8787V18.0751Z" fill="white"/>
<path d="M190.285 42.3127C190.049 42.9303 189.669 43.239 189.145 43.239H187.532C187.268 43.239 187.047 43.1489 186.862 42.9688C186.68 42.7886 186.586 42.57 186.586 42.3127C186.586 42.2097 186.601 42.1198 186.626 42.0425L190.403 33.9761L182.614 17.0329C182.589 16.9557 182.575 16.8656 182.575 16.7627C182.575 16.5054 182.668 16.2867 182.85 16.1066C183.035 15.9265 183.257 15.8364 183.52 15.8364H185.133C185.656 15.8364 186.037 16.1452 186.273 16.7627L192.329 29.8851L198.466 16.7627C198.702 16.1452 199.082 15.8364 199.606 15.8364H201.219C201.481 15.8364 201.704 15.9265 201.887 16.1066C202.071 16.2867 202.163 16.5054 202.163 16.7627C202.163 16.8656 202.15 16.9557 202.123 17.0329L190.285 42.3127Z" fill="white"/>
<path d="M35.0773 23.1376L21.8703 0.796328C21.8064 0.68601 21.7136 0.594116 21.6017 0.529918C21.4899 0.46572 21.3626 0.431489 21.2328 0.430679C21.103 0.429869 20.9754 0.462508 20.8626 0.525304C20.7498 0.5881 20.656 0.678831 20.5907 0.788341L16.6352 7.48274C16.5057 7.70188 16.4375 7.95045 16.4375 8.20348C16.4375 8.45653 16.5057 8.7051 16.6352 8.92424L25.2472 23.499C25.3768 23.7184 25.5634 23.9005 25.788 24.0269C26.0127 24.1536 26.2674 24.2199 26.5268 24.2198H34.4377C34.5671 24.2194 34.6942 24.1859 34.8063 24.1224C34.9184 24.059 35.0115 23.9679 35.0763 23.8584C35.1411 23.7489 35.1751 23.6247 35.1754 23.4981C35.1756 23.3716 35.1418 23.2473 35.0773 23.1376Z" fill="white"/>
<path d="M0.45792 34.8135L13.6651 12.4722C13.7299 12.3628 13.823 12.2719 13.9352 12.2087C14.0473 12.1456 14.1744 12.1123 14.3039 12.1123C14.4333 12.1123 14.5605 12.1456 14.6726 12.2087C14.7847 12.2719 14.8779 12.3628 14.9427 12.4722L18.9001 19.1606C19.0296 19.3802 19.0978 19.629 19.0978 19.8824C19.0978 20.1357 19.0296 20.3845 18.9001 20.6041L10.2882 35.1788C10.159 35.3982 9.97286 35.5803 9.74854 35.7069C9.52419 35.8334 9.26963 35.8999 9.01058 35.8996H1.09773C0.967384 35.9003 0.839193 35.8671 0.726187 35.8036C0.613183 35.7403 0.51941 35.6486 0.454402 35.5384C0.389393 35.428 0.355467 35.3028 0.356087 35.1754C0.356708 35.0481 0.391839 34.9232 0.45792 34.8135Z" fill="white"/>
<path d="M14.9408 35.8951H41.355C41.4846 35.8951 41.6119 35.8616 41.7242 35.7983C41.8362 35.7348 41.9293 35.6436 41.994 35.5339C42.0586 35.4244 42.0926 35.2999 42.0924 35.1735C42.0922 35.0468 42.0579 34.9225 41.9929 34.813L38.0416 28.1207C37.9119 27.9013 37.7253 27.7192 37.5008 27.5927C37.2762 27.4661 37.0213 27.3997 36.762 27.3999H19.538C19.2788 27.3997 19.0239 27.4661 18.7994 27.5927C18.5747 27.7192 18.388 27.9013 18.2584 28.1207L14.3031 34.813C14.2381 34.9225 14.2038 35.0468 14.2036 35.1735C14.2034 35.2999 14.2373 35.4244 14.302 35.5339C14.3666 35.6436 14.4597 35.7348 14.5719 35.7983C14.684 35.8616 14.8112 35.8951 14.9408 35.8951Z" fill="white"/>
</g>
<defs>
<clipPath id="clip0_134_414">
<rect width="202.288" height="42.8079" fill="white" transform="translate(0.356079 0.430664)"/>
</clipPath>
</defs>
</svg>
