<svg width="225" height="151" viewBox="0 0 225 151" fill="none" xmlns="http://www.w3.org/2000/svg">
<path fill-rule="evenodd" clip-rule="evenodd" d="M109.633 45.7506L103.158 51.0563C102.795 51.3529 102.96 51.4929 103.388 51.254L111.479 46.7639L109.633 45.7506ZM113.563 46.7887L139.408 61.8984C139.869 62.1621 139.96 61.9973 139.523 61.7089L115.516 45.66L113.563 46.7887ZM110.21 44.5395L112.13 45.66L112.368 15.8276C112.368 15.2262 112.187 15.2015 112.138 15.8276L110.21 44.5395ZM75.8299 68.7118L74.8165 69.0826C81.3498 81.5642 95.0425 90.635 112.509 90.635C124.279 90.6614 135.581 86.0219 143.938 77.7327C152.295 69.4435 157.027 58.1803 157.096 46.4097C157.096 40.4943 155.391 36.861 154.427 34.2411C153.591 32.1105 152.626 30.0332 151.535 28.0209C151.436 27.8277 151.296 27.6588 151.123 27.5266C151.119 27.7324 151.174 27.9351 151.28 28.1115C152.255 30.1216 153.081 32.2006 153.751 34.3317C154.991 38.2362 155.6 42.3134 155.556 46.4097C155.439 53.9294 153.424 61.2977 149.698 67.8303C149.896 68.3411 149.698 68.5965 149.121 68.7612C145.245 74.9823 139.843 80.1092 133.428 83.655C127.012 87.2007 119.797 89.0476 112.467 89.0202C97.959 89.0202 86.3507 81.2429 82.6927 77.2059C79.735 73.894 77.527 71.48 75.8299 68.7118ZM156.775 38.0886C156.83 38.2775 156.916 38.4557 157.03 38.6159C157.068 38.4337 157.068 38.246 157.03 38.0639C153.199 17.1705 135.083 1.55821 112.599 1.55821C105.136 1.43885 97.7607 3.18615 91.1442 6.64138C84.5277 10.0966 78.8793 15.1502 74.7122 21.3432C70.5451 27.5361 67.9913 34.6721 67.283 42.1028C66.5746 49.5335 67.734 57.0234 70.656 63.8922C72.0324 66.9665 73.6094 69.9471 75.3767 72.8147C75.4832 73.0005 75.6228 73.1652 75.7887 73.3008C75.788 73.0976 75.74 72.8973 75.6486 72.7158C75.525 72.4934 72.9463 67.5831 71.4551 63.9334C69.5261 58.5902 68.561 52.947 68.6045 47.2665C68.6024 41.4609 69.7437 35.7117 71.9634 30.3472C74.1831 24.9827 77.4377 20.108 81.5414 16.0013C85.645 11.8946 90.5173 8.63638 95.8801 6.41268C101.243 4.18898 106.991 3.04334 112.797 3.04117C125.559 3.04117 137.554 9.2861 144.928 17.3518C150.489 23.5061 153.414 27.6172 156.775 38.0886ZM113.151 5.01024L119.478 41.763L112.888 45.6352L112.665 5.01024C112.665 4.52415 112.344 4.52415 112.27 5.01024L108.537 43.5426L105.761 41.936L111.701 5.01024C106.273 5.0221 100.9 6.10443 95.8902 8.19529C90.8805 10.2861 86.3324 13.3445 82.5062 17.1952C78.6799 21.046 75.6507 25.6135 73.5918 30.6364C71.5329 35.6593 70.4849 41.0389 70.5077 46.4673C70.636 53.716 72.5337 60.8234 76.0358 67.1712L105.044 43.0483L107.829 44.6466L75.2614 68.0445C74.4375 68.6047 74.7012 68.8683 75.5745 68.3987L111.948 47.3818V54.945L76.7938 68.3576C80.6022 74.3779 85.8717 79.337 92.1118 82.7735C98.352 86.2099 105.36 88.012 112.484 88.012C119.608 88.012 126.616 86.2099 132.856 82.7735C139.096 79.337 144.365 74.3779 148.174 68.3576L113.11 54.945V47.3901L148.091 67.5666C148.915 68.0115 149.121 67.7644 148.372 67.2371L117.221 44.6383L120.006 43.0483L148.998 67.1876C152.529 60.8163 154.426 53.6689 154.518 46.3849C154.518 23.8603 135.775 5.6199 113.151 5.01024ZM74.4293 68.4482L75.2532 67.8055C73.4178 64.4417 71.9511 60.8894 70.8784 57.2106C70.818 57.0187 70.7321 56.8359 70.623 56.6668C70.5814 56.8485 70.5814 57.0372 70.623 57.2188C71.4333 61.0993 72.697 64.871 74.3881 68.4564L74.4293 68.4482ZM112.55 92.3404C86.878 92.3404 66.0753 71.7437 66.0753 46.3685C66.0753 20.9933 86.8944 0.388318 112.55 0.404795C138.205 0.421272 159.049 21.0015 159.049 46.3685C159.049 71.7354 138.23 92.3404 112.55 92.3404Z" fill="white"/>
<path d="M0.0338135 126.514H11.5268L20.853 113.274H8.94808L0.0338135 126.514Z" fill="white"/>
<path d="M21.9899 113.274L12.8697 126.514H19.2052L29.0011 113.274H21.9899Z" fill="white"/>
<path d="M30.0308 113.274L20.9353 126.514H25.7549L35.2871 113.274H30.0308Z" fill="white"/>
<path d="M37.1907 113.274L28.1117 126.514H32.0415L41.3183 113.274H37.1907Z" fill="white"/>
<path d="M43.5339 113.274L34.3065 126.514H37.9645L47.2413 113.274H43.5339Z" fill="white"/>
<path d="M71.8825 113.274V126.514H76.8257V118.885L83.219 123.12H87.9562L94.506 118.836V126.514H99.6057V113.274H94.5554L85.74 119.149L76.8752 113.274H71.8825Z" fill="white"/>
<path d="M101.518 113.274H127.387V117.031H106.255L106.206 122.807H122.543V120.903L113.835 121.159L113.884 118.036H127.387V126.514H101.518V113.274Z" fill="white"/>
<path d="M138.575 126.514H166.142V122.444H161.298V123.12L143.42 123.169L143.362 117.138H161.298L161.355 117.962H166.142V113.274H138.575V126.514Z" fill="white"/>
<path d="M168.976 126.514H195.06V113.274H190.009L190.108 123.12L173.878 123.169L173.82 113.274H168.976V126.514Z" fill="white"/>
<path fill-rule="evenodd" clip-rule="evenodd" d="M204.082 126.514H199.032V113.274H225V123.326H204.082V126.514ZM204.024 116.725H220.106V119.51H204.024V116.725Z" fill="white"/>
<path fill-rule="evenodd" clip-rule="evenodd" d="M45.9073 126.514H40.0826L49.4088 113.274H69.9231V126.514H65.0293V123.219H48.4778L45.9073 126.514ZM50.4553 119.899L52.7209 116.637H65.1943V119.899H50.4553Z" fill="white"/>
<path d="M122.543 120.904L113.834 121.16L122.543 121.275V120.904Z" fill="white"/>
<path d="M161.19 150.431V139.152H161.973V149.689H167.353V150.422L161.19 150.431ZM143.889 150.431V139.152H144.713V150.431H143.889ZM128.145 147.522C128.162 147.951 128.101 148.378 127.921 148.768C127.74 149.158 127.47 149.499 127.132 149.763C126.333 150.346 125.359 150.637 124.372 150.587C123.296 150.632 122.22 150.478 121.2 150.134V149.31C122.19 149.688 123.246 149.865 124.306 149.829C125.093 149.872 125.872 149.646 126.514 149.187C126.772 148.998 126.982 148.749 127.126 148.463C127.269 148.176 127.342 147.859 127.338 147.539C127.351 147.166 127.257 146.797 127.066 146.476C126.837 146.154 126.535 145.891 126.184 145.71C125.61 145.411 125.012 145.16 124.396 144.96C123.513 144.717 122.697 144.278 122.007 143.675C121.771 143.398 121.592 143.076 121.481 142.729C121.369 142.382 121.328 142.017 121.359 141.654C121.389 141.291 121.491 140.937 121.659 140.614C121.827 140.291 122.057 140.004 122.337 139.77C123.065 139.204 123.969 138.912 124.891 138.946C125.916 138.938 126.931 139.143 127.873 139.547L127.593 140.223C126.742 139.853 125.827 139.655 124.899 139.638C124.191 139.604 123.493 139.807 122.913 140.215C122.673 140.4 122.48 140.641 122.351 140.916C122.222 141.191 122.161 141.493 122.172 141.797C122.156 142.152 122.236 142.504 122.403 142.818C122.582 143.12 122.838 143.37 123.144 143.543C123.711 143.855 124.307 144.112 124.924 144.309C125.613 144.53 126.276 144.826 126.901 145.191C127.299 145.432 127.632 145.765 127.873 146.163C128.079 146.585 128.173 147.053 128.145 147.522ZM100.249 145.743H104.286L102.753 141.673C102.622 141.36 102.591 140.622 102.364 140.301C102.235 140.757 102.009 141.251 101.831 141.689L100.249 145.743ZM104.549 146.451H99.9604L98.3951 150.431H97.5136L102.053 139.103H102.591L107.005 150.431H106.115L104.549 146.451ZM77.1722 144.804H79.2649C80.0574 144.856 80.8434 144.632 81.4893 144.169C81.7557 143.938 81.9649 143.648 82.1007 143.322C82.2365 142.996 82.2951 142.643 82.272 142.291C82.3034 141.939 82.2494 141.584 82.1146 141.257C81.9798 140.93 81.7681 140.64 81.4975 140.412C80.741 139.961 79.8627 139.757 78.9847 139.828H77.1145L77.1722 144.804ZM77.1722 145.487V150.431H76.3484V139.152H79.0259C80.1176 139.069 81.2068 139.341 82.1319 139.926C82.4733 140.207 82.7427 140.565 82.9176 140.97C83.0924 141.376 83.1677 141.817 83.137 142.258C83.1609 142.948 82.9487 143.625 82.5356 144.178C82.0676 144.74 81.428 145.134 80.7149 145.298L83.7797 150.431H82.8404L79.9322 145.487H77.1722ZM53.9226 144.837V149.706H56.5755C58.6681 149.706 59.7062 148.882 59.7062 147.16C59.7062 145.611 58.6077 144.837 56.4107 144.837H53.9226ZM53.9226 144.145H56.3942C57.2 144.208 58.0055 144.021 58.7011 143.609C58.9479 143.415 59.1432 143.163 59.2697 142.876C59.3961 142.589 59.4499 142.274 59.4261 141.961C59.4521 141.638 59.3892 141.313 59.2439 141.023C59.0987 140.732 58.8768 140.487 58.6022 140.314C57.8529 139.928 57.0131 139.751 56.1718 139.803H53.8979L53.9226 144.145ZM53.0988 139.119H56.1965C57.2688 139.04 58.3399 139.287 59.2695 139.828C59.5983 140.075 59.8602 140.4 60.0314 140.774C60.2026 141.148 60.2777 141.559 60.2499 141.97C60.2756 142.575 60.0626 143.167 59.6568 143.617C59.1817 144.082 58.5632 144.373 57.9019 144.441V144.491C58.636 144.541 59.3333 144.83 59.8874 145.314C60.1112 145.559 60.2835 145.847 60.3939 146.159C60.5043 146.472 60.5506 146.804 60.53 147.135C60.556 147.588 60.4756 148.041 60.2954 148.457C60.1151 148.873 59.84 149.242 59.492 149.533C58.6384 150.137 57.6024 150.428 56.559 150.357H53.107L53.0988 139.119Z" fill="white"/>
</svg>
