<svg width="194" height="45" viewBox="0 0 194 45" fill="none" xmlns="http://www.w3.org/2000/svg">
<path d="M33.3537 3.92321C30.4368 1.51607 26.4438 0.32666 21.3463 0.32666H8.65926V2.11077H21.1198C25.4526 2.11077 29.3607 2.98867 31.7678 5.0843C34.175 7.17993 35.9591 10.2384 35.9591 14.0332C35.9591 17.7147 34.3732 20.405 31.9094 22.4724C29.4456 24.5397 24.9712 25.4459 20.5251 25.4459H6.2238V27.23H20.6383C25.9907 27.23 30.1819 26.0689 33.2121 23.7467C36.2139 21.4245 37.7432 18.1395 37.7432 13.9199C37.7432 9.61539 36.2706 6.30203 33.3537 3.92321Z" fill="white"/>
<path d="M32.2776 6.47232C30.4652 5.08467 28.3978 3.98022 22.5074 3.98022H12.709V5.7077C12.709 5.7077 17.0984 5.65106 22.2809 5.7077C27.2934 5.76434 29.1342 6.33072 30.8333 7.57677C32.9856 9.16265 34.3449 11.145 34.3449 13.892C34.3449 16.554 32.9856 18.4231 30.805 20.0373C28.5961 21.6798 25.1978 21.6798 23.8101 21.7364C23.3004 21.7364 16.5321 21.7364 16.5321 21.7364V23.4639C16.5321 23.4639 19.8737 23.5205 21.9694 23.4639C26.727 23.3506 29.5589 23.0674 32.1926 21.1134C34.6564 19.2726 35.9591 16.8655 35.9591 13.807C35.9591 9.78567 33.9201 7.77501 32.2776 6.47232Z" fill="white"/>
<path d="M31.3997 8.76613C30.0403 7.91655 28.8509 7.35016 23.2154 7.35016H16.1639V8.48293H23.0172C28.0014 8.48293 29.8704 9.36083 30.4651 9.72898C31.5979 10.4086 33.0705 11.5414 33.0705 13.807C33.0705 15.2512 32.2209 17.092 30.9466 17.8C29.7855 18.4513 27.6615 19.046 23.9517 19.046H0.956421V20.1788H24.0083C28.5111 20.1788 30.0404 19.6691 31.6262 18.7912C33.2121 17.9133 34.2882 16.1008 34.2882 13.807C34.2882 11.2016 32.844 9.67234 31.3997 8.76613Z" fill="white"/>
<path d="M35.874 21.311C32.9571 18.9039 28.9641 17.7144 23.8666 17.7144H15.3708V19.4986H23.6117C27.9446 19.4986 31.8526 20.4048 34.2598 22.4721C36.6669 24.5394 38.4794 27.6262 38.4794 31.421C38.4794 35.1025 36.9218 37.7928 34.4297 39.8601C31.9376 41.9274 27.4915 42.8337 23.0453 42.8337H8.74409V44.6178H23.1586C28.511 44.6178 32.7022 43.4567 35.7324 41.1345C38.7626 38.8123 40.2635 35.5273 40.2635 31.3077C40.2352 27.0315 38.7909 23.7181 35.874 21.311Z" fill="white"/>
<path d="M34.798 23.8601C32.9855 22.5008 30.9182 21.368 25.0278 21.368H11.7177V23.0955C11.7177 23.0955 19.6188 23.0388 24.8013 23.0955C29.8138 23.1521 31.6545 23.7185 33.3537 24.9646C35.5059 26.5504 36.8653 28.5328 36.8653 31.2798C36.8653 33.9418 35.506 35.8109 33.3254 37.4251C31.1165 39.0676 27.7181 39.0676 26.3305 39.1242C25.8207 39.1242 19.0524 39.1242 19.0524 39.1242V40.8517C19.0524 40.8517 22.4224 40.9083 24.4897 40.8517C29.2474 40.7384 32.0793 40.4552 34.713 38.5012C37.1768 36.6604 38.4795 34.2533 38.4795 31.1948C38.4795 27.2018 36.4688 25.1628 34.798 23.8601Z" fill="white"/>
<path d="M14.5496 29.75H27.0384V28.7872H14.5496V29.75Z" fill="white"/>
<path d="M19.7038 33.1204H26.9535V32.2992H19.7038V33.1204Z" fill="white"/>
<path d="M8.74409 29.75H12.4256V28.7872H8.74409V29.75Z" fill="white"/>
<path d="M6.42197 33.177H17.6647V32.2141H6.42197V33.177Z" fill="white"/>
<path d="M9.19728 8.39755H13.5868V7.60461H9.19728V8.39755Z" fill="white"/>
<path d="M6.16711 14.8545H16.1638V13.9483H6.16711V14.8545Z" fill="white"/>
<path d="M6.42197 40.7381H16.9851V39.6053H6.42197V40.7381Z" fill="white"/>
<path d="M3.8166 44.5045H6.4503V42.8337H3.8166V44.5045Z" fill="white"/>
<path d="M10.3867 12.0223H26.9818V11.1161H10.3867V12.0223Z" fill="white"/>
<path d="M18.6842 14.8545H26.6703V13.9483H18.6842V14.8545Z" fill="white"/>
<path d="M33.9201 26.3237C32.5608 25.5024 31.3713 24.936 25.7358 24.936H16.7869V26.0405H25.5659C30.5501 26.0405 32.4475 26.8901 33.0139 27.2299C34.1183 27.8812 35.6192 28.9574 35.6192 31.1663C35.6192 32.5822 34.7697 34.338 33.4953 35.0177C32.3342 35.6407 30.2103 36.2071 26.5004 36.2071H3.47683V37.3116H26.5287C31.0315 37.3116 32.5608 36.8301 34.1466 35.9806C35.7325 35.131 36.7803 33.4035 36.7803 31.1663C36.8087 28.7025 35.3644 27.2299 33.9201 26.3237Z" fill="white"/>
<path d="M57.5383 23.8599V33.9699H63.0606C65.4394 33.9699 67.3085 33.5168 68.6112 32.6105C69.8855 31.7893 70.6218 30.3733 70.5935 28.8441C70.5935 25.5307 67.7899 23.8599 62.211 23.8599H57.5383ZM57.5383 11.8242V20.8864H61.7013C63.9385 20.8864 65.666 20.4616 66.9403 19.5837C68.1864 18.7907 68.9227 17.3748 68.8661 15.9022C68.8661 13.1835 66.6571 11.7959 62.211 11.7959L57.5383 11.8242ZM53.4604 8.85065H63.3438C66.3456 8.85065 68.7245 9.44535 70.4803 10.6348C72.2361 11.8242 73.1139 13.3817 73.1139 15.2791C73.1423 16.8084 72.5759 18.3093 71.5281 19.4421C70.4519 20.6315 69.0077 21.4527 67.1386 21.9625V22.0474C69.4891 22.274 71.3581 22.982 72.7458 24.1997C74.1334 25.3608 74.8981 27.0883 74.8414 28.9007C74.8414 31.3079 73.7653 33.2336 71.6413 34.7345C69.5174 36.2354 66.8271 36.9717 63.5703 36.9717H53.4604V8.85065Z" fill="white"/>
<path d="M79.3724 36.9433H83.3371V16.8933H79.3724V36.9433ZM81.3831 11.7675C80.7317 11.7958 80.0804 11.5692 79.5706 11.1728C79.0892 10.8329 78.806 10.2665 78.8343 9.70015C78.8343 9.10545 79.1175 8.53906 79.5706 8.19923C80.0804 7.80276 80.7317 7.57621 81.3831 7.60453C82.0627 7.57621 82.7141 7.80276 83.2238 8.19923C84.0451 8.79394 84.215 9.92671 83.6486 10.748C83.5353 10.9179 83.3937 11.0595 83.2238 11.1728C82.7141 11.5975 82.0627 11.7958 81.3831 11.7675Z" fill="white"/>
<path d="M100.867 36.7452C99.9322 37.17 98.6862 37.3683 97.1569 37.3683C92.8241 37.3683 90.6435 35.4142 90.6435 31.4778V19.6121H86.3956V16.8651H90.6435V11.9658L94.6082 10.918V16.8651H100.838V19.6121H94.6082V30.9115C94.6082 32.2425 94.8914 33.2053 95.4578 33.8C96.0241 34.3947 96.9587 34.6496 98.2614 34.6496C99.1676 34.6779 100.074 34.4514 100.838 33.9699L100.867 36.7452Z" fill="white"/>
<path d="M136.917 36.9431H133.208V19.6117C133.236 17.9409 133.321 16.2417 133.519 14.5709H133.434C133.208 15.4205 132.868 16.27 132.471 17.063L121.568 36.9148H119.728L108.853 17.2046C108.428 16.355 108.117 15.4771 107.89 14.5426H107.805C107.947 16.2134 108.003 17.9126 107.975 19.6117V36.9148H104.379V11.0876H109.334L119.133 29.0987C119.699 30.0899 120.209 31.1377 120.605 32.2138H120.747C121.398 30.7978 121.908 29.75 122.276 29.042L132.273 11.0876H136.946V36.9431" fill="white"/>
<path d="M157.081 26.7767L151.105 27.4564C149.264 27.6546 147.877 28.0228 146.942 28.5609C146.008 29.0989 145.526 30.0335 145.526 31.3645C145.526 32.3273 146.008 33.2336 146.829 33.7716C147.679 34.3946 148.84 34.7062 150.284 34.7062C152.266 34.7062 153.881 34.1398 155.155 33.0353C156.401 31.9875 157.109 30.4299 157.081 28.7874V26.7767ZM161.045 36.9434H157.081V33.7999H156.996C155.268 36.2071 152.719 37.3965 149.378 37.3965C146.914 37.3965 144.988 36.8584 143.572 35.8106C142.213 34.8477 141.448 33.2619 141.477 31.591C141.477 27.8529 144.195 25.6723 149.661 25.0493L157.081 24.1997C157.081 20.8014 155.381 19.1022 151.983 19.1022C149.095 19.0739 146.291 19.9235 143.912 21.566V18.281C146.348 17.0349 149.151 16.4119 152.323 16.4119C158.157 16.4119 161.045 18.904 161.045 23.8882V36.9434Z" fill="white"/>
<path d="M179.453 20.1218C178.745 19.697 177.754 19.4705 176.451 19.4705C174.809 19.4422 173.251 20.1501 172.203 21.4245C171.07 22.7272 170.504 24.483 170.504 26.7202V36.9435H166.539V16.8934H170.504V21.028H170.589C171.099 19.697 172.005 18.5359 173.194 17.7147C174.327 16.9217 175.687 16.5253 177.102 16.5253C177.895 16.497 178.717 16.5819 179.481 16.8085L179.453 20.1218Z" fill="white"/>
<path d="M193.273 36.7452C192.338 37.17 191.092 37.3683 189.563 37.3683C185.23 37.3683 183.05 35.4142 183.05 31.4778V19.6121H178.802V16.8651H183.05V11.9658L187.014 10.918V16.8651H193.244V19.6121H187.014V30.9115C187.014 32.2425 187.297 33.2053 187.864 33.8C188.43 34.3947 189.365 34.6496 190.667 34.6496C191.574 34.6779 192.48 34.4514 193.244 33.9699L193.273 36.7452Z" fill="white"/>
</svg>
