<svg width="183" height="109" viewBox="0 0 183 109" fill="none" xmlns="http://www.w3.org/2000/svg">
<path fill-rule="evenodd" clip-rule="evenodd" d="M35.2287 0.0198067C39.7833 0.0198067 46.7934 0.970321 53.0807 8.81707C53.8607 9.85666 54.2608 11.1322 54.2144 12.431C54.2144 13.86 53.6471 15.2305 52.6371 16.2415C51.6271 17.2524 50.2571 17.821 48.8281 17.8223C43.2883 17.8223 43.7141 10.0201 35.0901 10.0201C28.7137 10.0201 23.5452 15.8717 23.5452 23.0897C23.5379 25.2031 23.9959 27.2923 24.8869 29.2087H13.2925C11.4657 14.0004 17.7233 0 35.2287 0" fill="white"/>
<path fill-rule="evenodd" clip-rule="evenodd" d="M52.7783 38.1251C50.7335 40.9015 48.0941 43.0779 45.0218 44.6434C41.9496 46.209 38.5543 47.0359 35.1063 47.0585C31.6582 47.0811 28.2524 46.2987 25.1599 44.7736C22.0674 43.2484 19.3201 40.8344 17.2391 38.085L52.7783 38.1251Z" fill="white"/>
<path fill-rule="evenodd" clip-rule="evenodd" d="M91.5866 70.4672C98.1561 70.4672 103.468 76.4328 103.468 83.7894C103.468 91.146 98.1412 97.1115 91.5866 97.1115C85.032 97.1115 79.7051 91.1708 79.7051 83.7894C79.7051 76.408 85.032 70.4672 91.5866 70.4672ZM91.7252 60.2739C104.597 60.2739 115.048 70.9574 115.048 84.1359C115.048 97.3145 104.607 108.003 91.7252 108.003C78.8437 108.003 68.3979 97.3195 68.3979 84.1161C68.3979 70.9128 78.8437 60.2739 91.7252 60.2739Z" fill="white"/>
<path fill-rule="evenodd" clip-rule="evenodd" d="M46.0805 94.6461C47.4568 97.4779 52.3826 98.4135 52.9024 94.1015V67.779C52.9024 63.8185 56.5758 60.6056 61.0611 60.6056H64.5958V92.8391C65.6454 114.256 35.7634 110.3 35.9317 98.0769C35.9224 97.0128 36.107 95.956 36.4763 94.958C37.407 92.552 43.818 88.0271 45.5062 90.2499C46.4963 91.5767 45.6795 94.8887 46.0607 94.6411" fill="white"/>
<path fill-rule="evenodd" clip-rule="evenodd" d="M131.924 78.4716C134.266 73.813 136.454 69.3377 139.113 64.3078C140.598 61.4761 150.92 59.1889 153.321 61.9612L138.855 90.0561C138.702 90.3828 138.543 90.6996 138.36 91.0016L137.984 106.72C137.642 107.908 136.33 108.458 134.221 108.487C129.533 108.547 125.771 105.16 125.86 101.309L126.068 92.7046L115.879 71.6447C114.201 68.1792 115.993 63.6395 120.003 61.8721C121.805 61.08 123.147 61.0751 123.934 62.0206L131.924 78.4716Z" fill="white"/>
<path fill-rule="evenodd" clip-rule="evenodd" d="M182.98 46.4906C182.936 46.4906 182.896 46.5401 182.851 46.5401H179.663C175.871 46.5401 171.5 45.2876 170.128 41.7726L165.504 29.1337L160.697 15.559L159.153 19.8067L158.425 21.7869L156.678 26.6187L156.212 27.901L154.276 33.1833L151.192 41.629C149.816 45.139 145.449 46.4114 141.657 46.3916H138.469C138.423 46.3838 138.38 46.367 138.34 46.3421C139.36 43.5549 151.212 12.9798 152.633 8.41032C152.667 8.21229 152.712 8.02418 152.762 7.83606C153.246 6.02448 154.338 4.43439 155.855 3.33221C157.373 2.23002 159.222 1.68269 161.095 1.78189C162.968 1.88109 164.749 2.62079 166.141 3.8771C167.534 5.1334 168.452 6.82999 168.742 8.68261C170.321 13.658 181.985 43.7281 183 46.4955" fill="white"/>
<path fill-rule="evenodd" clip-rule="evenodd" d="M8.3319 38.075L179.658 38.2681H179.881L177.356 31.5897C141.593 31.56 0.732683 31.3966 0.732683 31.9016C0.732683 35.4066 5.71302 38.075 8.3319 38.0799" fill="white"/>
<path fill-rule="evenodd" clip-rule="evenodd" d="M4.74766 34.0149H178.282L176.445 29.1633H0C0 29.2375 0 29.3118 0 29.3861C0.0195571 30.63 0.530167 31.8157 1.42047 32.6847C2.31078 33.5537 3.50856 34.0354 4.75261 34.0248" fill="white"/>
<path fill-rule="evenodd" clip-rule="evenodd" d="M80.5468 10.0544C86.9232 10.0544 92.0916 15.9061 92.0916 23.1241C92.0916 30.3421 86.9232 36.1937 80.5468 36.1937C74.1703 36.1937 69.0019 30.3421 69.0019 23.1241C69.0019 15.9061 74.1703 10.0544 80.5468 10.0544ZM80.6854 0.0541475C93.1808 0.0541475 103.31 10.5346 103.31 23.4657C103.31 36.3967 93.1808 46.8772 80.6854 46.8772C68.19 46.8772 58.056 36.3967 58.056 23.4657C58.056 10.5346 68.185 0.0541475 80.6854 0.0541475Z" fill="white"/>
<path fill-rule="evenodd" clip-rule="evenodd" d="M122.152 9.94048H124.81C128.345 9.94048 131.246 12.3514 131.246 15.297V16.1189C131.246 19.0892 128.355 21.4754 124.81 21.4754H118.83V9.95038H119.097L122.152 9.94048ZM127.865 0.84122C131.491 0.85167 134.965 2.29667 137.529 4.86057C140.093 7.42447 141.538 10.8989 141.548 14.5248V16.6337C141.538 20.2596 140.093 23.734 137.529 26.2979C134.965 28.8618 131.491 30.3068 127.865 30.3173H119.231V46.5801H115.513C113.688 46.5755 111.936 45.8592 110.631 44.5834C109.325 43.3076 108.569 41.5729 108.523 39.7482V8.01468C108.527 6.11422 109.283 4.29264 110.626 2.94835C111.97 1.60406 113.791 0.846452 115.691 0.84122H127.865Z" fill="white"/>
</svg>
