<svg width="207" height="34" viewBox="0 0 207 34" fill="none" xmlns="http://www.w3.org/2000/svg">
<path d="M15.5318 0.248281C15.0988 0.825657 13.8203 3.05268 13.8203 3.25889C13.8203 3.38261 14.2121 4.14557 14.707 4.99102L15.6143 6.49632L30.9973 6.55819C39.4723 6.57881 46.4009 6.55819 46.4009 6.49632C46.4009 6.45508 45.9884 5.71274 45.4729 4.84668L44.5656 3.30013L45.4729 1.75358C45.9884 0.887519 46.4009 0.145178 46.4009 0.103937C46.4009 0.0420747 39.493 0.000833511 31.0591 0.000833511C19.0373 0.000833511 15.6762 0.062695 15.5318 0.248281Z" fill="white"/>
<path d="M57.3483 1.38114C56.9153 2.16472 52.9561 8.90766 48.5846 16.3929L40.625 30.0025L42.5633 30.0644L44.5223 30.1263L45.409 31.6522C45.8833 32.4976 46.3163 33.1987 46.3781 33.1987C46.4606 33.1781 50.4198 26.4558 55.2244 18.2488L63.9469 3.29885L62.9777 1.6492L62.0292 -0.000442505H60.1115H58.1731L57.3483 1.38114Z" fill="white"/>
<path d="M85.2862 1.89665C84.6676 2.9483 80.729 9.71186 76.5224 16.9085L68.8516 30.0025L70.8105 30.0644L72.7695 30.1263L73.6562 31.6522C74.1304 32.4976 74.5635 33.1987 74.6253 33.1987C74.7078 33.1781 78.667 26.4558 83.4716 18.2488L92.1735 3.29885L91.2249 1.6492L90.2558 -0.000442505H88.338H86.4203L85.2862 1.89665Z" fill="white"/>
<path d="M192.187 6.20847C187.403 6.7446 183.032 10.5388 181.774 15.2609C181.32 16.9724 181.382 20.0861 181.897 21.777C183.114 25.8187 186.558 29.1386 190.641 30.2109C192.166 30.6026 195.424 30.6026 196.889 30.2315C199.837 29.4273 202.415 27.592 204.126 25.0557C207.364 20.2305 206.725 13.9206 202.6 9.79645C199.796 6.99205 196.229 5.75481 192.187 6.20847ZM196.827 11.4255C198.394 12.1266 199.239 12.8277 200.105 14.0855C203.24 18.7252 200.538 24.8495 194.93 25.8187C189.919 26.6641 185.465 22.2307 186.248 17.1786C187.011 12.2915 192.373 9.38404 196.827 11.4255Z" fill="white"/>
<path d="M101.867 18.3512V30.105H111.043H120.22V27.9398V25.7747L113.786 25.7334L107.332 25.6716V22.9909V20.3102L112.858 20.2483L118.364 20.2071V18.145V16.083L112.858 16.0417L107.332 15.9799V13.5054V11.0309L113.58 10.9691L119.807 10.9278V8.76266V6.59749H110.837H101.867V18.3512Z" fill="white"/>
<path d="M123.872 6.84838C123.996 6.99272 125.501 9.05478 127.233 11.4055C128.966 13.7563 130.409 15.6534 130.471 15.6121C131.131 14.9317 133.378 11.6324 133.275 11.4674C133.193 11.3437 132.368 10.1889 131.419 8.91044L129.708 6.60093H126.697C124.305 6.60093 123.728 6.66279 123.872 6.84838Z" fill="white"/>
<path d="M137.13 11.8145C135.048 14.6808 131.233 19.8359 128.676 23.3002C126.119 26.7644 123.954 29.7132 123.871 29.8369C123.727 30.0431 124.346 30.105 126.696 30.105H129.666L132.511 26.2695C134.058 24.1662 135.398 22.5166 135.481 22.6197C135.563 22.7022 136.842 24.4343 138.326 26.4345L141.048 30.105H144.059C146.451 30.105 147.028 30.0431 146.884 29.8575C146.76 29.7132 144.801 27.0531 142.533 23.96L138.388 18.3306L139.811 16.3717C140.615 15.2994 141.914 13.5466 142.698 12.4744C143.502 11.4021 144.801 9.62872 145.585 8.55645L147.028 6.59749H143.997L140.945 6.61811L137.13 11.8145Z" fill="white"/>
<path d="M150.531 18.3512V30.105H153.109H155.686L155.728 23.2589L155.79 16.3923L159.213 21.9598L162.656 27.5274L163.852 27.5893L165.069 27.6511L168.471 21.9598C170.348 18.8461 171.935 16.2892 172.039 16.2892C172.121 16.2892 172.183 19.4029 172.183 23.1971V30.105H174.76H177.338V26.2283C177.338 24.1044 177.276 18.8255 177.194 14.4746L177.07 6.59749H174.884L172.698 6.61812L168.389 13.8147C166.017 17.7945 164.038 21.0319 163.955 21.0319C163.893 21.0113 161.873 17.7945 159.481 13.8559L155.15 6.7006L152.841 6.63874L150.531 6.57687V18.3512Z" fill="white"/>
<path d="M61.9492 17.6708C59.1242 22.496 56.7941 26.5376 56.7528 26.6201C56.7116 26.7026 57.124 27.5274 57.6395 28.4347L58.6087 30.105H60.5058H62.4029L67.5993 21.1763L72.7957 12.2682L70.9604 12.2063L69.1046 12.1444L68.156 10.5154C67.6405 9.6081 67.1869 8.86576 67.1456 8.86576C67.125 8.86576 64.7743 12.8249 61.9492 17.6708Z" fill="white"/>
<path d="M8.93404 11.8968C8.97529 11.9999 9.40832 12.7423 9.88259 13.5671L10.7487 15.0518L10.0476 16.2478C9.65577 16.887 9.22273 17.6294 9.09901 17.8768L8.85156 18.3511H19.3475H29.8227L30.7713 16.6808L31.7198 15.0105L30.7506 13.3815L29.8021 11.7525H19.3268C13.5737 11.7525 8.8928 11.8143 8.93404 11.8968Z" fill="white"/>
<path d="M0.948548 25.1354L0 26.7644L0.989789 28.4347L1.95896 30.105H17.3832H32.828L32.1681 29.0121C30.7659 26.6407 30.7866 26.8882 31.8382 25.0942L32.7868 23.5064H17.3419H1.8971L0.948548 25.1354Z" fill="white"/>
</svg>
