<svg width="156" height="34" viewBox="0 0 156 34" fill="none" xmlns="http://www.w3.org/2000/svg">
<path fill-rule="evenodd" clip-rule="evenodd" d="M3.97976 33.5381C2.8491 33.5381 2.28377 33.5381 1.85187 33.318C1.47264 33.1233 1.16364 32.8139 0.969812 32.4328C0.75 31.9997 0.75 31.4322 0.75 30.2981V0.462402H5.92927C7.05993 0.462402 7.62526 0.462402 8.05716 0.683184C8.43639 0.877246 8.74539 1.18732 8.93921 1.56842C9.15903 2.00154 9.15903 2.56826 9.15903 3.7024V24.1556C9.15903 24.723 9.15903 25.0064 9.26928 25.2229C9.36549 25.4135 9.51999 25.5682 9.71031 25.6652C9.92591 25.7756 10.2089 25.7756 10.7736 25.7756H22.8407C23.9714 25.7756 24.5367 25.7756 24.9686 25.9964C25.3478 26.1904 25.6568 26.5005 25.8507 26.8816C26.0705 27.3147 26.0705 27.8815 26.0705 29.0156V33.5381H3.97976Z" fill="white"/>
<path fill-rule="evenodd" clip-rule="evenodd" d="M92.9282 3.7024C92.9282 2.56826 92.9282 2.00154 93.148 1.56842C93.3412 1.18732 93.6502 0.877246 94.0301 0.683184C94.462 0.462402 95.0273 0.462402 96.1573 0.462402H99.13C99.8119 0.462402 100.153 0.462402 100.458 0.562246C100.728 0.650137 100.976 0.79498 101.186 0.98623C101.424 1.20209 101.594 1.49881 101.933 2.09225L112.272 20.2069V3.7024C112.272 2.56826 112.272 2.00154 112.492 1.56842C112.686 1.18732 112.994 0.877246 113.374 0.683184C113.806 0.462402 114.371 0.462402 115.502 0.462402H120.346V30.2932C120.346 31.4266 120.346 31.9926 120.127 32.4258C119.933 32.8069 119.625 33.1162 119.245 33.311C118.814 33.5318 118.249 33.5325 117.12 33.5332L114.147 33.5367C113.464 33.5374 113.123 33.5374 112.817 33.4376C112.547 33.3497 112.298 33.2055 112.088 33.0143C111.85 32.7977 111.68 32.501 111.34 31.9069L101.002 13.7944V30.2981C101.002 31.4322 101.002 31.9997 100.782 32.4328C100.589 32.8139 100.28 33.1233 99.8997 33.318C99.4678 33.5381 98.9032 33.5381 97.7725 33.5381H92.9282V3.7024Z" fill="white"/>
<path fill-rule="evenodd" clip-rule="evenodd" d="M129.06 0.462402H124.215V30.2897C124.215 31.4238 124.215 31.9912 124.435 32.4244C124.629 32.8054 124.938 33.1148 125.317 33.3096C125.749 33.5297 126.314 33.5297 127.445 33.5297H132.289V20.0381H133.611C134.176 20.0381 134.459 20.0381 134.72 20.1098C134.951 20.1731 135.169 20.2772 135.364 20.4178C135.584 20.576 135.762 20.7961 136.118 21.2362L145.103 32.3407C145.459 32.7801 145.637 33.0002 145.857 33.1591C146.052 33.299 146.27 33.4031 146.502 33.4671C146.763 33.5381 147.046 33.5381 147.611 33.5381H155.25L143.367 18.8772C142.776 18.1481 142.481 17.7832 142.368 17.3782C142.268 17.021 142.268 16.6427 142.368 16.2855C142.481 15.8805 142.777 15.5163 143.368 14.7879L154.992 0.462402H147.435C146.873 0.462402 146.592 0.462402 146.331 0.533418C146.101 0.596699 145.883 0.700059 145.689 0.839277C145.469 0.996074 145.291 1.21475 144.935 1.65209L136.149 12.4359C135.793 12.8733 135.615 13.0912 135.396 13.2487C135.201 13.3879 134.983 13.4913 134.753 13.5546C134.492 13.6256 134.211 13.6256 133.648 13.6256H132.289V3.7024C132.289 2.56826 132.289 2.00154 132.07 1.56842C131.876 1.18732 131.567 0.877246 131.188 0.683184C130.756 0.462402 130.19 0.462402 129.06 0.462402Z" fill="white"/>
<path fill-rule="evenodd" clip-rule="evenodd" d="M29.9007 32.7697C29.6809 32.3366 29.6809 31.7691 29.6809 30.635V3.365C29.6809 2.23086 29.6809 1.66414 29.9007 1.23102C30.0945 0.849922 30.4028 0.539844 30.7828 0.345781C31.2147 0.125 31.78 0.125 32.9107 0.125H43.4743C46.2897 0.125 47.6977 0.125 48.853 0.435781C51.9872 1.27812 54.4361 3.73414 55.276 6.87922C55.585 8.03797 55.585 9.45055 55.585 12.275C55.585 14.1137 54.7549 14.788 54.047 15.3617C53.521 15.7885 53.0624 16.1605 53.0624 16.9163C53.0624 17.6609 53.5968 18.0329 54.2163 18.4646C55.0716 19.0602 56.0899 19.7689 56.0899 21.7257C56.0899 24.5452 56.0899 25.9557 55.7816 27.1123C54.9424 30.2595 52.4929 32.7177 49.3565 33.56C48.2034 33.8701 46.7981 33.8708 43.9869 33.8715L32.9114 33.875C31.7807 33.8757 31.2154 33.8757 30.7835 33.6549C30.4035 33.4609 30.0945 33.1508 29.9007 32.7697ZM44.7377 11.1922C45.3711 10.1937 45.9203 9.32961 45.9203 8.225C45.9203 5.98836 44.1091 4.175 41.8752 4.175C39.6406 4.175 37.8294 6.07344 37.8294 8.225C37.8294 9.32961 38.3933 10.1937 39.0443 11.1922C39.9355 12.557 40.9896 14.1734 40.9896 17.0007C40.9896 19.8273 39.9355 21.4438 39.0443 22.8092C38.3933 23.807 37.8294 24.6711 37.8294 25.7757C37.8294 28.0123 39.6406 29.8257 41.8752 29.8257C44.1091 29.8257 45.9203 28.0123 45.9203 25.7757C45.9203 24.6711 45.3711 23.807 44.7377 22.8092C43.8703 21.4438 42.8443 19.8273 42.8443 17.0007C42.8443 14.1734 43.8703 12.557 44.7377 11.1922Z" fill="white"/>
<path fill-rule="evenodd" clip-rule="evenodd" d="M68.4238 26.9571L67.0467 31.2842C66.7889 32.0942 66.6604 32.4992 66.4146 32.7987C66.1983 33.0638 65.9181 33.2691 65.6007 33.3957C65.2418 33.5384 64.8176 33.5384 63.97 33.5384H57.8799L67.6555 2.5566C67.9119 1.74379 68.0397 1.33738 68.2855 1.03645C68.5018 0.770664 68.7827 0.564648 69.1001 0.438086C69.4604 0.293945 69.8845 0.293945 70.7343 0.293945H77.4424C78.2922 0.293945 78.717 0.293945 79.0766 0.438086C79.3947 0.564648 79.6749 0.770664 79.8913 1.03645C80.137 1.33738 80.2649 1.74309 80.5212 2.5559L90.3025 33.5384H84.2088C83.3612 33.5384 82.9377 33.5384 82.5781 33.3957C82.2614 33.2691 81.9812 33.0638 81.7642 32.7987C81.5191 32.4992 81.3899 32.0942 81.1322 31.2842L79.755 26.9571H68.4238ZM70.1416 21.5572H78.0365L74.0884 9.15332L70.1416 21.5572Z" fill="white"/>
</svg>
