<svg width="292" height="47" viewBox="0 0 292 47" fill="none" xmlns="http://www.w3.org/2000/svg">
<path d="M39.3933 33.0965L51.9784 25.8295C52.6456 25.4435 53.0578 24.7276 53.0578 23.9593V9.42529C53.0578 8.65699 52.6456 7.94115 51.9784 7.55513L39.3933 0.288115C38.7262 -0.09791 37.8979 -0.0941621 37.2345 0.288115L24.6494 7.55513C23.9823 7.94115 23.57 8.65699 23.57 9.42529V35.3976L14.7439 40.4909L5.9178 35.3976V25.2073L14.7439 20.1141L20.5643 23.4758V16.6398L15.8233 13.9002C15.4972 13.7128 15.1224 13.6116 14.7439 13.6116C14.3654 13.6116 13.9906 13.7128 13.6645 13.9002L1.07937 21.1672C0.412259 21.5532 0 22.2691 0 23.0374V37.5714C0 38.3397 0.412259 39.0555 1.07937 39.4415L13.6645 46.7086C14.3316 47.0908 15.1562 47.0908 15.8233 46.7086L28.4084 39.4415C29.0755 39.0555 29.4878 38.3397 29.4878 37.5714V11.599L29.6452 11.5091L38.3102 6.50574L47.1363 11.599V21.7893L38.3102 26.8826L32.4973 23.5283V30.3643L37.2308 33.0965C37.8979 33.4788 38.7262 33.4788 39.3895 33.0965H39.3933Z" fill="white"/>
<path d="M66.9397 44.0141V14.3914H71.3472L71.7669 16.7825H71.9768C73.2361 15.1447 75.3761 13.9717 78.3556 13.9717C83.8086 13.9717 88.1748 18.4203 88.1748 25.0052C88.1748 31.5901 83.8124 36.0388 78.3556 36.0388C75.4173 36.0388 73.3635 34.8208 72.2729 33.4378H72.063V44.0104H66.9435L66.9397 44.0141ZM83.0516 25.009C83.0516 21.1487 80.5743 18.7164 77.5535 18.7164C74.5328 18.7164 72.0555 21.1487 72.0555 25.009C72.0555 28.8692 74.5328 31.3015 77.5535 31.3015C80.5743 31.3015 83.0516 28.8692 83.0516 25.009Z" fill="white"/>
<path d="M90.7721 25.0052C90.7721 18.5852 95.3857 13.9717 101.555 13.9717C107.723 13.9717 112.337 18.5852 112.337 25.0052C112.337 31.4252 107.723 36.0388 101.555 36.0388C95.3857 36.0388 90.7721 31.3803 90.7721 25.0052ZM107.176 25.0052C107.176 21.2274 104.658 18.7126 101.555 18.7126C98.4514 18.7126 95.8916 21.2312 95.8916 25.0052C95.8916 28.7793 98.4514 31.2566 101.555 31.2566C104.658 31.2566 107.176 28.783 107.176 25.0052Z" fill="white"/>
<path d="M116.047 35.6228V6.25116H121.167V35.6228H116.047Z" fill="white"/>
<path d="M140.172 14.3914H145.625L136.394 40.1951C135.472 42.7549 134.213 44.0141 130.896 44.0141H125.945V39.2732H130.143C130.9 39.2732 131.316 38.8946 131.571 38.265L132.073 36.882L123.431 14.3914H128.884L134.382 29.1203H135.221L140.172 14.3914Z" fill="white"/>
<path d="M146.603 36.6722H151.805C152.015 38.0551 153.398 39.944 156.674 39.944C159.736 39.944 161.752 38.0139 161.752 35.0756V32.0961H161.542C160.41 33.3141 158.311 34.4047 155.624 34.4047C150.171 34.4047 145.974 30.2072 145.974 24.1657C145.974 18.1242 150.171 13.9717 155.624 13.9717C158.435 13.9717 160.493 15.1035 161.793 16.7001H162.003L162.423 14.3914H166.871V35.0756C166.871 40.6973 163.094 44.4339 156.674 44.4339C149.5 44.4339 146.731 39.7341 146.603 36.6722ZM161.752 24.1695C161.752 20.8564 159.402 18.5477 156.423 18.5477C153.443 18.5477 151.134 20.8564 151.134 24.1695C151.134 27.4825 153.484 29.8324 156.423 29.8324C159.361 29.8324 161.752 27.5238 161.752 24.1695Z" fill="white"/>
<path d="M170.428 25.0052C170.428 18.5852 175.042 13.9717 181.211 13.9717C187.38 13.9717 191.993 18.5852 191.993 25.0052C191.993 31.4252 187.38 36.0388 181.211 36.0388C175.042 36.0388 170.428 31.3803 170.428 25.0052ZM186.832 25.0052C186.832 21.2274 184.314 18.7126 181.211 18.7126C178.107 18.7126 175.548 21.2312 175.548 25.0052C175.548 28.7793 178.107 31.2566 181.211 31.2566C184.314 31.2566 186.832 28.783 186.832 25.0052Z" fill="white"/>
<path d="M195.557 35.6228V14.3914H199.961L200.381 16.404H200.591C201.43 15.4408 203.529 13.9717 206.714 13.9717C211.583 13.9717 215.106 17.4946 215.106 22.8652V35.619H209.986V23.5361C209.986 20.8077 208.056 18.8363 205.414 18.8363C202.772 18.8363 200.673 20.8939 200.673 23.5361V35.619H195.553L195.557 35.6228Z" fill="white"/>
<path d="M224.704 35.6228V6.25116H227.054V35.6228H224.704Z" fill="white"/>
<path d="M231.428 29.6638C231.428 25.7623 234.029 23.1613 239.527 23.1613H245.696V22.1119C245.696 18.544 243.597 16.449 240.156 16.449C236.716 16.449 234.658 18.4203 234.448 20.729H232.057C232.267 17.2885 235.078 14.2265 240.156 14.2265C245.235 14.2265 248.087 17.0786 248.087 22.1157V35.6265H246.029L245.692 32.3959H245.482C244.391 34.4535 241.831 36.0463 238.473 36.0463C234.276 36.0463 231.424 33.4453 231.424 29.6675L231.428 29.6638ZM245.692 26.3919V25.425H239.523C235.621 25.425 233.815 27.1452 233.815 29.6638C233.815 32.1823 235.535 33.8163 238.473 33.8163C243.173 33.8163 245.692 30.6682 245.692 26.3882V26.3919Z" fill="white"/>
<path d="M255.905 31.9724H255.695L255.357 35.6228H253.345V6.25116H255.695V18.2929H255.905C257.584 15.8156 259.847 14.2228 263.037 14.2228C268.366 14.2228 272.477 18.544 272.477 25.1326C272.477 31.7213 268.366 36.0425 263.037 36.0425C259.847 36.0425 257.584 34.4497 255.905 31.9724ZM270.128 25.1326C270.128 19.8033 266.769 16.449 262.909 16.449C259.049 16.449 255.691 19.807 255.691 25.1326C255.691 30.4583 259.131 33.8163 262.909 33.8163C266.687 33.8163 270.128 30.4583 270.128 25.1326Z" fill="white"/>
<path d="M274.973 29.5363H277.365C277.365 31.7588 279.463 33.8163 283.072 33.8163C286.682 33.8163 288.612 32.1373 288.612 30.0835C288.612 28.1534 287.352 26.9353 284.71 26.4744L281.06 25.8447C277.368 25.2151 275.397 23.4124 275.397 20.1818C275.397 16.9512 277.915 14.2228 282.866 14.2228C287.817 14.2228 290.797 17.2847 290.797 20.7252H288.406C288.406 18.4166 286.307 16.4452 282.866 16.4452C279.426 16.4452 277.788 18.1242 277.788 20.178C277.788 21.8983 278.755 23.1163 281.48 23.5773L285.13 24.2069C289.159 24.919 291.003 26.8941 291.003 30.0798C291.003 33.2654 288.316 36.0388 283.072 36.0388C277.829 36.0388 274.973 32.9768 274.973 29.5363Z" fill="white"/>
</svg>
