<svg width="193" height="43" viewBox="0 0 193 43" fill="none" xmlns="http://www.w3.org/2000/svg">
<path d="M61.5618 39.822V13.6126H65.4614L65.8328 15.7282H66.0185C67.1327 14.2791 69.0261 13.2412 71.6623 13.2412C76.487 13.2412 80.3501 17.1773 80.3501 23.0034C80.3501 28.8296 76.4903 32.7656 71.6623 32.7656C69.0626 32.7656 67.2454 31.6879 66.2805 30.4643H66.0948V39.8187L61.5618 39.822ZM75.8172 23.0067C75.8172 19.5913 73.6253 17.4392 70.9527 17.4392C68.28 17.4392 66.0881 19.5913 66.0881 23.0067C66.0881 26.4222 68.28 28.5742 70.9527 28.5742C73.6253 28.5742 75.8172 26.4222 75.8172 23.0067Z" fill="white"/>
<path d="M82.648 23.0064C82.648 17.3261 86.73 13.2442 92.1881 13.2442C97.6461 13.2442 101.728 17.3261 101.728 23.0064C101.728 28.6866 97.6461 32.7685 92.1881 32.7685C86.73 32.7685 82.648 28.6468 82.648 23.0064ZM97.162 23.0064C97.162 19.6639 94.9337 17.4389 92.1881 17.4389C89.4424 17.4389 87.1776 19.6672 87.1776 23.0064C87.1776 26.3455 89.4424 28.5374 92.1881 28.5374C94.9337 28.5374 97.162 26.3488 97.162 23.0064Z" fill="white"/>
<path d="M105.011 6.41359H109.541V32.4008H105.011V6.41359Z" fill="white"/>
<path d="M126.356 13.6128H131.181L123.013 36.4432C122.198 38.708 121.083 39.8222 118.149 39.8222H113.768V35.6275H117.482C118.152 35.6275 118.52 35.2926 118.746 34.7355L119.19 33.5119L111.543 13.6128H116.368L121.233 26.6445H121.975L126.356 13.6128Z" fill="white"/>
<path d="M132.046 33.326H136.648C136.834 34.5496 138.058 36.2208 140.956 36.2208C143.665 36.2208 145.449 34.5131 145.449 31.9134V29.2772H145.263C144.262 30.3549 142.405 31.3199 140.027 31.3199C135.203 31.3199 131.489 27.606 131.489 22.2606C131.489 16.9153 135.203 13.2412 140.027 13.2412C142.514 13.2412 144.335 14.2427 145.486 15.6553H145.671L146.043 13.6126H149.979V31.9134C149.979 36.8874 146.636 40.1934 140.956 40.1934C134.609 40.1934 132.159 36.0352 132.046 33.326ZM145.449 22.264C145.449 19.3327 143.37 17.29 140.734 17.29C138.098 17.29 136.055 19.3327 136.055 22.264C136.055 25.1953 138.134 27.2744 140.734 27.2744C143.333 27.2744 145.449 25.2317 145.449 22.264Z" fill="white"/>
<path d="M153.126 23.0064C153.126 17.3261 157.208 13.2442 162.666 13.2442C168.124 13.2442 172.206 17.3261 172.206 23.0064C172.206 28.6866 168.124 32.7685 162.666 32.7685C157.208 32.7685 153.126 28.6468 153.126 23.0064ZM167.64 23.0064C167.64 19.6639 165.411 17.4389 162.666 17.4389C159.92 17.4389 157.655 19.6672 157.655 23.0064C157.655 26.3455 159.92 28.5374 162.666 28.5374C165.411 28.5374 167.64 26.3488 167.64 23.0064Z" fill="white"/>
<path d="M175.359 32.3975V13.6126H179.255L179.627 15.3933H179.812C180.555 14.5411 182.412 13.2412 185.231 13.2412C189.538 13.2412 192.655 16.3582 192.655 21.11V32.3942H188.126V21.7036C188.126 19.2895 186.418 17.5453 184.08 17.5453C181.742 17.5453 179.885 19.3658 179.885 21.7036V32.3942L175.359 32.3975Z" fill="white"/>
<path d="M35.1966 30.2024L46.3349 23.776C46.9251 23.4345 47.2899 22.8012 47.2899 22.1214V9.26208C47.2899 8.58231 46.9251 7.94896 46.3349 7.60742L35.1999 1.17777C34.6097 0.836224 33.8768 0.83954 33.2899 1.17777L22.1549 7.60742C21.5647 7.94896 21.1999 8.58231 21.1999 9.26208V32.2417L13.3908 36.7481L5.58173 32.2417V23.2256L13.3908 18.7192L18.5405 21.6936V15.6453L14.3458 13.2213C14.0573 13.0555 13.7257 12.966 13.3908 12.966C13.0559 12.966 12.7243 13.0555 12.4358 13.2213L1.30082 19.651C0.710581 19.9925 0.345825 20.6259 0.345825 21.3057V34.165C0.345825 34.8447 0.710581 35.4781 1.30082 35.8196L12.4358 42.2493C13.0261 42.5875 13.7556 42.5875 14.3458 42.2493L25.4808 35.8196C26.0711 35.4781 26.4358 34.8447 26.4358 34.165V11.182L26.5751 11.1024L34.2416 6.67563L42.0507 11.182V20.1981L34.2416 24.7045L29.0985 21.7367V27.785L33.2866 30.2024C33.8768 30.5406 34.6097 30.5406 35.1966 30.2024Z" fill="white"/>
</svg>
