<svg width="227" height="73" viewBox="0 0 227 73" fill="none" xmlns="http://www.w3.org/2000/svg">
<path fill-rule="evenodd" clip-rule="evenodd" d="M52.549 20.9295L52.5937 21.0692H52.7334L52.6216 21.153L52.6608 21.2871L52.549 21.2033L52.4317 21.2871L52.4764 21.153L52.359 21.0692H52.5043L52.549 20.9295Z" fill="white"/>
<path fill-rule="evenodd" clip-rule="evenodd" d="M48.9338 21.2427L48.9618 21.3153H49.04L48.9729 21.3656L49.0009 21.4439L48.9338 21.3936L48.8668 21.4439L48.8947 21.3656L48.8277 21.3153H48.9115L48.9338 21.2427Z" fill="white"/>
<path fill-rule="evenodd" clip-rule="evenodd" d="M44.2069 12.6271C44.272 12.6209 44.3374 12.6209 44.4025 12.6271C44.506 12.6142 44.6107 12.6379 44.6986 12.6942C44.7326 12.7196 44.7603 12.7525 44.7796 12.7902C44.799 12.828 44.8095 12.8696 44.8104 12.9121C44.8155 12.9558 44.8107 13.0002 44.7962 13.0419C44.7816 13.0835 44.7578 13.1213 44.7265 13.1523C44.6437 13.2208 44.5377 13.2548 44.4304 13.2473H44.2684C44.2684 13.0462 44.2293 12.845 44.2069 12.6439M44.3522 13.2026H44.4416C44.6316 13.2026 44.7266 13.102 44.7154 12.9344C44.7042 12.7668 44.6092 12.6997 44.4137 12.7053H44.3019L44.3522 13.2026Z" fill="white"/>
<path fill-rule="evenodd" clip-rule="evenodd" d="M45.5981 12.9506H45.3299V13.1853H45.6261V13.2523H45.2405V12.6377H45.6261V12.7047H45.3355C45.3355 12.7718 45.3355 12.8333 45.3355 12.9003H45.6037V12.9618" fill="white"/>
<path fill-rule="evenodd" clip-rule="evenodd" d="M46.643 13.0516C46.643 12.9678 46.643 12.8616 46.643 12.789C46.643 12.856 46.5759 12.9287 46.5368 13.0069L46.3971 13.2919H46.3301C46.3021 13.1913 46.2686 13.0907 46.2351 12.9901C46.2015 12.8896 46.1792 12.8225 46.1624 12.7443C46.1624 12.8225 46.1624 12.9231 46.1345 13.0181C46.1066 13.1131 46.1345 13.1913 46.1345 13.2751H46.0507C46.0507 13.074 46.0954 12.8728 46.1233 12.6661H46.2407C46.2742 12.7666 46.3077 12.8672 46.3468 12.9734C46.3693 13.0431 46.3879 13.114 46.4027 13.1857C46.423 13.1157 46.4511 13.0482 46.4865 12.9846C46.5312 12.8896 46.5815 12.8002 46.6318 12.7052H46.7491C46.7491 12.9119 46.7491 13.1131 46.7491 13.3198H46.6597C46.6597 13.2304 46.6597 13.141 46.6597 13.0516" fill="white"/>
<path fill-rule="evenodd" clip-rule="evenodd" d="M48.0901 13.258L47.8275 13.2021C47.8275 13.2748 47.7996 13.3474 47.7884 13.42L48.0845 13.4759V13.543L47.7102 13.4703C47.7381 13.2692 47.7716 13.068 47.7996 12.8669L48.1795 12.9395V13.0066L47.8946 12.9507L47.861 13.1407L48.1292 13.1909C48.1319 13.2132 48.1319 13.2357 48.1292 13.258" fill="white"/>
<path fill-rule="evenodd" clip-rule="evenodd" d="M49.1072 13.1855L49.2804 13.2191C49.3497 13.2346 49.4123 13.2718 49.4592 13.3252C49.47 13.3469 49.4756 13.3708 49.4756 13.3951C49.4756 13.4193 49.47 13.4432 49.4592 13.4649C49.4537 13.4883 49.4435 13.5104 49.429 13.5296C49.4146 13.5489 49.3963 13.5649 49.3754 13.5767C49.3031 13.6022 49.2242 13.6022 49.1519 13.5767H49.0848C49.0848 13.6549 49.0401 13.7331 49.0233 13.8169H48.9339L49.0848 13.2582M49.0848 13.5655H49.1519C49.258 13.5655 49.3307 13.5655 49.3586 13.4873C49.3865 13.409 49.3251 13.3532 49.2245 13.3252H49.1407C49.16 13.3301 49.1459 13.3893 49.1309 13.4522C49.1298 13.4568 49.1287 13.4614 49.1276 13.466C49.1264 13.4712 49.1251 13.4765 49.1239 13.4817L49.0848 13.5655Z" fill="white"/>
<path fill-rule="evenodd" clip-rule="evenodd" d="M49.9509 13.4256C50.01 13.4346 50.068 13.4496 50.1241 13.4703C50.194 13.4877 50.2566 13.5269 50.3029 13.5821C50.3127 13.6021 50.3179 13.624 50.3179 13.6463C50.3179 13.6686 50.3127 13.6906 50.3029 13.7106C50.2884 13.7448 50.263 13.7732 50.2307 13.7914C50.1983 13.8096 50.1608 13.8166 50.1241 13.8112C50.1457 13.828 50.1623 13.8504 50.1722 13.876C50.182 13.9016 50.1847 13.9294 50.18 13.9564C50.175 14.0159 50.175 14.0757 50.18 14.1352L50.0961 14.1017C50.0882 14.0517 50.0882 14.0008 50.0961 13.9509C50.1003 13.9343 50.1011 13.9172 50.0986 13.9003C50.0961 13.8835 50.0902 13.8673 50.0814 13.8528C50.0725 13.8382 50.0609 13.8255 50.0471 13.8155C50.0333 13.8055 50.0177 13.7983 50.0011 13.7944H49.9229L49.8391 14.0458H49.7553L49.9397 13.4871M49.9397 13.7776H50.0291C50.1185 13.8112 50.1911 13.7776 50.2135 13.7218C50.2358 13.6659 50.2135 13.5932 50.0961 13.5597H50.0067L49.9397 13.7776Z" fill="white"/>
<path fill-rule="evenodd" clip-rule="evenodd" d="M53.8174 15.8727C53.8415 15.9208 53.8782 15.9613 53.9235 15.9901C53.9962 16.046 54.0688 16.0404 54.1079 15.9901C54.147 15.9398 54.1079 15.9007 54.0744 15.8225C54.0409 15.7442 53.9738 15.6437 54.0241 15.5766C54.0744 15.5096 54.2029 15.4928 54.3147 15.5766C54.3602 15.6046 54.3984 15.6429 54.4264 15.6884L54.365 15.7275C54.344 15.687 54.3133 15.6525 54.2756 15.6269C54.1917 15.571 54.1303 15.5878 54.1079 15.6269C54.0856 15.666 54.1079 15.7219 54.1526 15.8001C54.1973 15.8783 54.242 15.9733 54.1862 16.046C54.1303 16.1186 54.0129 16.1409 53.8788 16.046C53.8281 16.0136 53.786 15.9695 53.7559 15.9174L53.8174 15.8783" fill="white"/>
<path fill-rule="evenodd" clip-rule="evenodd" d="M43.7096 12.6994C43.6432 12.6627 43.566 12.6508 43.4917 12.6659L43.3221 12.6933L43.419 13.275H43.5084C43.5036 13.2494 43.4979 13.2239 43.4922 13.1983C43.478 13.1345 43.4637 13.0706 43.4637 13.0068H43.5475C43.6313 13.0012 43.6705 13.0403 43.704 13.1129L43.771 13.2582H43.8604C43.8314 13.2065 43.8071 13.1522 43.7878 13.0962C43.7599 13.0347 43.7263 12.9788 43.6705 12.9788C43.7048 12.9675 43.7342 12.9446 43.7535 12.914C43.7729 12.8834 43.781 12.8471 43.7766 12.8112C43.7745 12.7887 43.7674 12.767 43.7558 12.7477C43.7442 12.7284 43.7284 12.7119 43.7096 12.6994ZM43.5475 12.9397H43.4525L43.419 12.7106H43.5084C43.609 12.6994 43.676 12.7441 43.6872 12.8112C43.6984 12.8782 43.6425 12.9397 43.5475 12.9397Z" fill="white"/>
<path fill-rule="evenodd" clip-rule="evenodd" d="M42.9385 13.0347C42.9502 13.0753 42.9527 13.1181 42.9459 13.1598C42.9391 13.2016 42.9231 13.2413 42.899 13.276C42.8749 13.3108 42.8434 13.3398 42.8067 13.3609C42.7701 13.3819 42.7292 13.3946 42.687 13.3979C42.6027 13.4128 42.5159 13.3943 42.445 13.3463C42.3741 13.2983 42.3246 13.2247 42.3071 13.1409C42.2933 13.0996 42.2892 13.0556 42.2951 13.0125C42.3009 12.9693 42.3166 12.9281 42.3409 12.892C42.3652 12.8558 42.3974 12.8257 42.4351 12.804C42.4729 12.7822 42.5151 12.7694 42.5585 12.7665C42.6012 12.7577 42.6453 12.7577 42.6879 12.7666C42.7306 12.7755 42.771 12.7931 42.8067 12.8182C42.8423 12.8434 42.8723 12.8755 42.895 12.9128C42.9177 12.95 42.9325 12.9915 42.9385 13.0347ZM42.4728 13.2811C42.4216 13.2413 42.3881 13.1829 42.3797 13.1185H42.4021C42.3908 13.0904 42.3856 13.0602 42.387 13.0299C42.3884 12.9997 42.3962 12.97 42.41 12.943C42.4237 12.916 42.4431 12.8923 42.4668 12.8734C42.4905 12.8545 42.518 12.841 42.5473 12.8336C42.5797 12.8297 42.6124 12.8323 42.6437 12.8411C42.6751 12.85 42.7043 12.865 42.7298 12.8853C42.7552 12.9056 42.7764 12.9307 42.7921 12.9592C42.8078 12.9878 42.8177 13.0191 42.8211 13.0515C42.8313 13.0808 42.8349 13.1121 42.8317 13.143C42.8285 13.1739 42.8186 13.2037 42.8026 13.2303C42.7866 13.257 42.765 13.2798 42.7392 13.2972C42.7135 13.3145 42.6842 13.326 42.6535 13.3309C42.5891 13.3388 42.5241 13.3209 42.4728 13.2811Z" fill="white"/>
<path fill-rule="evenodd" clip-rule="evenodd" d="M51.236 14.2142C51.2215 14.255 51.1986 14.2922 51.1687 14.3236C51.1388 14.3549 51.1026 14.3795 51.0625 14.3959C51.0224 14.4122 50.9793 14.4199 50.936 14.4185C50.8927 14.417 50.8502 14.4064 50.8113 14.3874C50.7726 14.3746 50.7369 14.3537 50.7067 14.3262C50.6765 14.2987 50.6525 14.2651 50.6361 14.2277C50.6198 14.1903 50.6115 14.1498 50.6118 14.109C50.6122 14.0681 50.6212 14.0278 50.6381 13.9907C50.652 13.9494 50.6746 13.9115 50.7042 13.8796C50.7339 13.8476 50.77 13.8224 50.8101 13.8055C50.8503 13.7886 50.8936 13.7804 50.9371 13.7815C50.9807 13.7826 51.0235 13.7929 51.0628 13.8119C51.1029 13.8237 51.1398 13.8442 51.1711 13.872C51.2024 13.8997 51.2271 13.934 51.2437 13.9724C51.2602 14.0108 51.2681 14.0524 51.2668 14.0941C51.2654 14.1359 51.2549 14.1769 51.236 14.2142ZM50.7033 14.1077C50.7053 14.0766 50.7135 14.0463 50.7275 14.0186C50.7369 13.9879 50.7525 13.9595 50.7733 13.9351C50.7941 13.9106 50.8197 13.8907 50.8485 13.8766C50.8773 13.8625 50.9087 13.8544 50.9408 13.8529C50.9728 13.8513 51.0048 13.8564 51.0349 13.8677C51.0638 13.8796 51.09 13.8975 51.1116 13.9202C51.1332 13.9428 51.1499 13.9698 51.1604 13.9993C51.1709 14.0288 51.1752 14.0602 51.1728 14.0914C51.1704 14.1227 51.1615 14.1531 51.1466 14.1806C51.1372 14.2113 51.1216 14.2397 51.1008 14.2642C51.08 14.2886 51.0544 14.3085 51.0256 14.3226C50.9968 14.3368 50.9654 14.3448 50.9334 14.3464C50.9013 14.3479 50.8693 14.3428 50.8393 14.3315C50.8109 14.3189 50.7853 14.3007 50.7641 14.2779C50.743 14.2551 50.7267 14.2283 50.7162 14.199C50.7058 14.1698 50.7014 14.1387 50.7033 14.1077Z" fill="white"/>
<path d="M52.0014 14.8621C51.9297 14.8496 51.8601 14.827 51.7947 14.7951C51.7114 14.7589 51.6426 14.696 51.5991 14.6163C51.5825 14.5774 51.574 14.5356 51.574 14.4934C51.574 14.4511 51.5825 14.4093 51.5991 14.3704C51.6221 14.3295 51.6532 14.2937 51.6906 14.2653C51.728 14.2369 51.7709 14.2166 51.8166 14.2056C51.8622 14.1946 51.9096 14.1931 51.9559 14.2013C52.0021 14.2095 52.0461 14.2271 52.0852 14.2531C52.1414 14.2769 52.1926 14.311 52.2361 14.3537L52.1858 14.404C52.1494 14.3645 52.1058 14.3322 52.0573 14.309C52.027 14.2895 51.9929 14.2765 51.9573 14.271C51.9217 14.2655 51.8853 14.2676 51.8505 14.2771C51.8157 14.2866 51.7833 14.3033 51.7554 14.3261C51.7275 14.3489 51.7047 14.3773 51.6885 14.4096C51.6721 14.4394 51.6625 14.4726 51.6605 14.5066C51.6585 14.5407 51.6642 14.5747 51.677 14.6063C51.6899 14.6379 51.7096 14.6662 51.7348 14.6892C51.76 14.7122 51.79 14.7293 51.8226 14.7392C51.8564 14.7606 51.8946 14.774 51.9344 14.7783L52.0182 14.6163L51.8897 14.5548L51.9232 14.4989L52.1299 14.5995L52.0014 14.8621Z" fill="white"/>
<path fill-rule="evenodd" clip-rule="evenodd" d="M52.9681 14.7895C52.9343 14.7258 52.8788 14.6762 52.8116 14.6499C52.7634 14.6212 52.7129 14.5965 52.6607 14.5759L52.3646 15.0913L52.4428 15.136L52.577 14.9069L52.6552 14.946C52.67 14.9531 52.6833 14.9632 52.6942 14.9755C52.7051 14.9879 52.7134 15.0023 52.7186 15.018C52.7239 15.0336 52.7259 15.0501 52.7246 15.0666C52.7233 15.083 52.7187 15.099 52.7111 15.1136C52.6947 15.1626 52.6835 15.2132 52.6775 15.2645L52.7558 15.3092C52.7638 15.2499 52.7788 15.1918 52.8004 15.136C52.8103 15.1107 52.813 15.0832 52.808 15.0566C52.8031 15.0299 52.7908 15.0051 52.7725 14.9851C52.808 14.9956 52.8459 14.9947 52.881 14.9827C52.916 14.9707 52.9464 14.9481 52.9681 14.9181C52.9779 14.8981 52.9831 14.8761 52.9831 14.8538C52.9831 14.8315 52.9779 14.8095 52.9681 14.7895ZM52.6887 14.8957L52.6105 14.851L52.7222 14.6834L52.806 14.7225C52.8899 14.7672 52.929 14.8566 52.8899 14.8957C52.8507 14.9348 52.7725 14.946 52.6887 14.8957Z" fill="white"/>
<path d="M53.5548 15.4707L53.3257 15.3254L53.2028 15.5098L53.4542 15.6663C53.4445 15.687 53.4312 15.7059 53.4151 15.7221C53.386 15.7037 53.3569 15.6849 53.3276 15.6661C53.2503 15.6161 53.1721 15.5656 53.091 15.521L53.4263 15.0069C53.538 15.074 53.6498 15.141 53.756 15.2137L53.7168 15.264L53.471 15.1131L53.3592 15.2696L53.5939 15.4148L53.5548 15.4707Z" fill="white"/>
<path d="M54.4767 16.343C54.4982 16.394 54.5329 16.4383 54.5772 16.4715C54.6499 16.5274 54.7225 16.533 54.7616 16.4715C54.8007 16.41 54.7952 16.3821 54.7616 16.2983C54.7566 16.2858 54.7511 16.273 54.7455 16.2601C54.7139 16.1867 54.6806 16.1095 54.7281 16.0524C54.784 15.9854 54.9069 15.9798 55.0186 16.0524C55.0621 16.0834 55.0983 16.1234 55.1248 16.1698L55.0634 16.2033C55.0416 16.1619 55.0111 16.1257 54.974 16.0971C54.8957 16.0357 54.8343 16.0524 54.8063 16.0971C54.7829 16.1346 54.7987 16.172 54.8241 16.2323L54.8244 16.2329L54.8254 16.2354C54.8279 16.2413 54.8305 16.2474 54.8331 16.2537C54.8353 16.2591 54.8376 16.2646 54.8399 16.2704L54.8434 16.279L54.8477 16.2897C54.8802 16.3693 54.9173 16.4598 54.8399 16.5218C54.756 16.5888 54.661 16.6 54.5325 16.5218C54.4836 16.4844 54.4436 16.4367 54.4152 16.3821C54.4376 16.3724 54.4584 16.3592 54.4767 16.343Z" fill="white"/>
<path fill-rule="evenodd" clip-rule="evenodd" d="M55.7284 17.0969C55.6973 17.1282 55.6603 17.153 55.6195 17.1699C55.5788 17.1868 55.5351 17.1955 55.4909 17.1955C55.4468 17.1955 55.4031 17.1868 55.3624 17.1699C55.3216 17.153 55.2846 17.1282 55.2535 17.0969C55.2227 17.0702 55.198 17.0371 55.1811 17C55.1641 16.9629 55.1554 16.9226 55.1554 16.8818C55.1554 16.841 55.1641 16.8007 55.1811 16.7636C55.198 16.7265 55.2227 16.6934 55.2535 16.6667C55.2838 16.634 55.3205 16.608 55.3614 16.5902C55.4023 16.5723 55.4464 16.5632 55.4909 16.5632C55.5355 16.5632 55.5796 16.5723 55.6205 16.5902C55.6613 16.608 55.6981 16.634 55.7284 16.6667C55.7619 16.6917 55.7892 16.7241 55.8079 16.7615C55.8267 16.7988 55.8364 16.84 55.8364 16.8818C55.8364 16.9236 55.8267 16.9648 55.8079 17.0022C55.7892 17.0395 55.7619 17.072 55.7284 17.0969ZM55.256 16.8183C55.2684 16.7903 55.2866 16.7654 55.3093 16.7449V16.7505C55.329 16.7236 55.354 16.7011 55.3829 16.6844C55.4117 16.6677 55.4436 16.6572 55.4767 16.6535C55.5098 16.6499 55.5434 16.6531 55.5751 16.6631C55.6069 16.673 55.6363 16.6895 55.6614 16.7114C55.6858 16.7308 55.7055 16.7554 55.7191 16.7834C55.7327 16.8115 55.7397 16.8423 55.7397 16.8734C55.7397 16.9046 55.7327 16.9354 55.7191 16.9634C55.7055 16.9915 55.6858 17.0161 55.6614 17.0355C55.6189 17.0863 55.5581 17.1183 55.4922 17.1246C55.4263 17.1308 55.3606 17.1109 55.3093 17.069C55.2866 17.0486 55.2684 17.0236 55.256 16.9957C55.2436 16.9677 55.2371 16.9375 55.2371 16.907C55.2371 16.8764 55.2436 16.8462 55.256 16.8183Z" fill="white"/>
<path fill-rule="evenodd" clip-rule="evenodd" d="M51.6467 22.2353C52.9754 21.6992 54.1159 20.7821 54.9247 19.5994C55.2979 19.0537 55.5928 18.4626 55.8039 17.8435C53.7844 15.9607 51.321 14.6195 48.6433 13.9451C46.4292 13.4285 44.1359 13.3465 41.8905 13.7036C41.6262 14.7395 41.5928 15.8256 41.7983 16.8837C42.0714 18.2902 42.7544 19.5846 43.7613 20.6039C44.7682 21.6232 46.0541 22.322 47.4572 22.6123C48.8603 22.9026 50.318 22.7714 51.6467 22.2353ZM43.0725 14.1805L42.9999 13.9626L42.9329 14.1805H42.7038L42.8882 14.3146L42.8211 14.5325L42.9999 14.3984L43.1843 14.5325L43.1173 14.3146L43.296 14.1805H43.0725ZM46.2127 15.8179L46.1568 15.6279L46.0954 15.8179H45.8998L46.0563 15.9352L45.9948 16.1252L46.1568 16.0078L46.3133 16.1252L46.2518 15.9352L46.4139 15.8179H46.2127ZM44.3969 16.8507L44.3634 16.7334L44.3242 16.8507H44.2069L44.3019 16.9234L44.2684 17.0351L44.3634 16.9681L44.4584 17.0351L44.4248 16.9234L44.5198 16.8507H44.3969ZM43.7207 17.276L43.6425 17.0357L43.5643 17.276H43.3129L43.5196 17.4268L43.4414 17.6671L43.6425 17.5218L43.8493 17.6671L43.771 17.4268L43.9722 17.276H43.7207ZM42.7988 17.9577L42.743 17.7789L42.6871 17.9577H42.4971L42.648 18.0694L42.5921 18.2482L42.743 18.1365L42.8938 18.2482L42.8379 18.0694L42.9832 17.9577H42.7988ZM45.2127 18.0242L45.1568 17.8454L45.0953 18.0242H44.9109L45.0618 18.136L45.0059 18.3148L45.1568 18.203L45.3077 18.3148L45.2462 18.136L45.3971 18.0242H45.2127ZM44.9947 18.762L44.9332 18.5832L44.8773 18.762H44.693L44.8438 18.8737L44.7824 19.0525L44.9332 18.9408L45.0841 19.0525L45.0282 18.8737L45.1791 18.762H44.9947ZM46.0731 19.4162L46.0061 19.215L45.9446 19.4162H45.7379L45.9055 19.5447L45.8385 19.7403L46.0061 19.6173L46.1793 19.7403L46.1123 19.5447L46.2799 19.4162H46.0731ZM48.9786 18.8235L48.9116 18.6279L48.8501 18.8235H48.6434L48.8054 18.952L48.744 19.1476L48.9116 19.0246L49.0792 19.1476L49.0177 18.952L49.1854 18.8235H48.9786ZM49.8224 17.3652L49.7665 17.1808L49.705 17.3652H49.5151L49.6715 17.477L49.6101 17.6669L49.7665 17.5496L49.923 17.6669L49.8615 17.477L50.0179 17.3652H49.8224ZM48.9731 16.6941L48.9116 16.5097L48.8501 16.6941H48.6602L48.8166 16.8114L48.7551 16.9958L48.9116 16.8785L49.068 16.9958L49.0066 16.8114L49.163 16.6941H48.9731ZM48.2299 17.3483L48.1796 17.1863L48.1293 17.3483H47.9561L48.0958 17.4489L48.0399 17.6165L48.1796 17.5104L48.3193 17.6165L48.2634 17.4489L48.4031 17.3483H48.2299ZM48.5819 17.8963L48.5428 17.7734L48.5037 17.8963H48.3808L48.4814 17.969L48.4422 18.0919L48.5428 18.0193L48.6434 18.0919L48.6043 17.969L48.7104 17.8963H48.5819ZM50.9343 15.1921L50.8951 15.0691L50.856 15.1921H50.7275L50.8281 15.2647L50.789 15.3876L50.8951 15.315L50.9957 15.3876L50.9566 15.2647L51.0572 15.1921H50.9343ZM54.0689 18.0864L54.0018 17.8629L53.9236 18.0864H53.6945L53.8789 18.2261L53.8119 18.4552L54.0018 18.3155L54.1862 18.4552L54.1136 18.2261L54.3036 18.0864H54.0689ZM53.9067 19.3209L53.8453 19.1365L53.7838 19.3209H53.5883L53.7503 19.4382L53.6888 19.6282L53.8453 19.5108L54.0017 19.6282L53.9459 19.4382L54.1023 19.3209H53.9067ZM54.3594 18.7622L54.2979 18.5723L54.2364 18.7622H54.0409L54.1973 18.874L54.1359 19.064L54.2979 18.9466L54.4544 19.064L54.3929 18.874L54.5549 18.7622H54.3594ZM55.0523 18.1642L55.0076 18.019L54.9573 18.1642H54.8064L54.9294 18.2536L54.8847 18.3933L55.0076 18.3039L55.1249 18.3933L55.0802 18.2536L55.2031 18.1642H55.0523ZM53.3145 19.7226L53.2698 19.5774L53.2251 19.7226H53.0743L53.1972 19.812L53.1469 19.9573L53.2698 19.8679L53.3927 19.9573L53.348 19.812L53.4654 19.7226H53.3145ZM52.6048 20.2872L52.5546 20.1252L52.4987 20.2872H52.3255L52.4652 20.3934L52.4149 20.5554L52.5546 20.4549L52.6887 20.5554L52.6384 20.3934L52.7781 20.2872H52.6048ZM52.549 19.5828L52.5043 19.4431L52.4596 19.5828H52.3199L52.4316 19.6666L52.3869 19.8007L52.5043 19.7169L52.6216 19.8007L52.5769 19.6666L52.6887 19.5828H52.549ZM51.7612 19.8402L51.7165 19.7061L51.6718 19.8402H51.5321L51.6438 19.9296L51.6047 20.0637L51.7165 19.9799L51.8338 20.0637L51.7891 19.9296L51.9064 19.8402H51.7612ZM50.5655 19.6505L50.5208 19.5108L50.4761 19.6505H50.3364L50.4482 19.7343L50.4035 19.8684L50.5208 19.7846L50.6326 19.8684L50.5934 19.7343L50.7052 19.6505H50.5655ZM52.5937 21.0692L52.549 20.9295L52.5043 21.0692H52.359L52.4764 21.153L52.4317 21.2871L52.549 21.2033L52.6608 21.2871L52.6216 21.153L52.7334 21.0692H52.5937ZM51.1522 20.4827L51.1019 20.3151L51.046 20.4827H50.8728L51.0125 20.5889L50.9622 20.7565L51.1019 20.6503L51.2416 20.7565L51.1857 20.5889L51.3254 20.4827H51.1522ZM48.9618 21.3153L48.9338 21.2427L48.9115 21.3153H48.8277L48.8947 21.3656L48.8668 21.4439L48.9338 21.3936L49.0009 21.4439L48.9729 21.3656L49.04 21.3153H48.9618Z" fill="white"/>
<path d="M48.9283 8.23533C47.4955 8.23544 46.0948 8.6593 44.9023 9.45357C43.7435 10.2253 42.8317 11.3133 42.2743 12.5873C44.2561 12.3117 46.2908 12.3586 48.2634 12.6935C49.2002 12.8892 50.1147 13.1645 50.9975 13.5145L51.0516 13.3479L50.8672 13.2082H51.0963L51.1745 12.9847L51.2416 13.2082H51.4762L51.2863 13.3479L51.3589 13.5714L51.1745 13.4317L51.0368 13.5301C52.889 14.27 54.6076 15.3454 56.0927 16.7002C56.1541 16.3343 56.1875 15.9627 56.1921 15.5885C56.198 14.6288 56.0148 13.6772 55.6529 12.7883C55.2911 11.8993 54.7577 11.0903 54.0832 10.4075C53.4087 9.7247 52.6063 9.18143 51.7218 8.80873C50.8373 8.43603 49.8881 8.24119 48.9283 8.23533Z" fill="white"/>
<path fill-rule="evenodd" clip-rule="evenodd" d="M87.9292 0.842773H16.8112L9.91619 30.4623L80.671 30.4399L87.9292 0.842773ZM48.8781 4.54778L31.7411 15.6167L48.9172 26.7582L66.0988 15.5943L48.8781 4.54778ZM51.0368 13.5301L50.979 13.5714L50.9975 13.5145L51.0368 13.5301ZM43.3184 12.6939L43.3221 12.6933L43.3184 12.6715V12.6939ZM52.6496 14.5716L52.6607 14.5759L52.6664 14.566L52.6496 14.5716Z" fill="white"/>
<path fill-rule="evenodd" clip-rule="evenodd" d="M197.484 0.842773H87.5829L80.671 30.4399L189.84 30.4231L197.484 0.842773ZM109.553 22.1037H112.481L108.273 10.3084H105.116L100.82 22.1037H103.703L104.524 19.4775H108.726L109.553 22.1037ZM108.145 17.4381L106.865 13.4765C106.766 13.1298 106.701 12.7743 106.67 12.4149H106.603C106.575 12.7646 106.505 13.1097 106.396 13.443L105.083 17.4269L108.145 17.4381ZM118.934 22.2936L118.925 22.2939L118.918 22.2936H118.934ZM118.925 22.2939C119.71 22.3229 120.493 22.1849 121.221 21.8891C121.951 21.5924 122.61 21.1437 123.153 20.5727C124.259 19.3533 124.839 17.7471 124.768 16.1027C124.842 14.5014 124.282 12.9354 123.209 11.7444C122.687 11.1897 122.053 10.7531 121.348 10.464C120.644 10.1749 119.885 10.0399 119.124 10.0681C118.327 10.0342 117.531 10.1707 116.79 10.4684C116.049 10.7661 115.38 11.2182 114.828 11.7947C113.716 13.0328 113.134 14.6579 113.207 16.3206C113.174 17.1071 113.298 17.8925 113.572 18.6304C113.847 19.3683 114.266 20.0438 114.805 20.6174C115.338 21.1701 115.981 21.6049 116.692 21.8936C117.4 22.1812 118.161 22.3175 118.925 22.2939ZM117.807 12.6365C118.196 12.4546 118.623 12.369 119.052 12.387C119.465 12.3775 119.874 12.4681 120.245 12.651C120.616 12.8339 120.937 13.1037 121.181 13.4374C121.748 14.2774 122.023 15.2808 121.963 16.2926C122.02 17.277 121.734 18.2506 121.153 19.0473C120.884 19.36 120.55 19.6105 120.174 19.7813C119.799 19.9521 119.391 20.0392 118.978 20.0366C118.566 20.0339 118.159 19.9416 117.786 19.7659C117.412 19.5903 117.082 19.3355 116.817 19.0193C116.226 18.2121 115.936 17.2241 115.995 16.2256C115.944 15.2281 116.234 14.2428 116.817 13.4318C117.078 13.0911 117.418 12.8183 117.807 12.6365ZM109.179 8.43098C109.511 7.89826 109.669 7.27529 109.631 6.64856H108.452C108.452 7.2576 108.24 7.55933 107.81 7.55933C107.458 7.51426 107.12 7.39217 106.821 7.20173C106.401 6.95027 105.924 6.81167 105.435 6.79942C105.188 6.79078 104.942 6.844 104.721 6.95426C104.499 7.06452 104.309 7.22832 104.167 7.43081C103.835 7.96383 103.677 8.58658 103.714 9.21324H104.876C104.876 8.61537 105.1 8.31923 105.536 8.31923C105.895 8.37917 106.239 8.51024 106.547 8.70477C106.971 8.93328 107.445 9.05415 107.927 9.05679C108.171 9.06475 108.414 9.01169 108.632 8.90242C108.851 8.79316 109.038 8.63112 109.179 8.43098ZM92.1087 19.0193V21.6481C92.5847 21.8811 93.0904 22.0475 93.6118 22.1428C94.2222 22.2518 94.8411 22.306 95.4612 22.3048C96.0656 22.3096 96.6688 22.2496 97.2604 22.126C97.7933 22.0246 98.3017 21.8216 98.7579 21.5281C99.1836 21.2593 99.5337 20.8862 99.7748 20.4442C100.21 19.533 100.268 18.4869 99.9368 17.5331C99.7945 17.1755 99.5838 16.849 99.3166 16.572C99.0295 16.2785 98.7044 16.0249 98.35 15.8177C97.9412 15.5782 97.5154 15.369 97.076 15.1919C96.7296 15.0466 96.4223 14.9069 96.1429 14.7728C95.8986 14.6575 95.6649 14.5211 95.4445 14.3649C95.2713 14.2422 95.1202 14.0911 94.9975 13.9179C94.8893 13.7521 94.8347 13.5571 94.841 13.3592C94.8409 13.1855 94.8893 13.0152 94.9807 12.8675C95.0845 12.7156 95.2198 12.5879 95.3774 12.4931C95.5722 12.3808 95.7833 12.2997 96.0032 12.2529C96.2749 12.1945 96.5523 12.1664 96.8302 12.169C97.062 12.1699 97.2935 12.1867 97.523 12.2193C97.7728 12.2481 98.0196 12.2985 98.2606 12.3702C98.5085 12.4351 98.7498 12.523 98.9814 12.6328C99.2085 12.7306 99.4256 12.8504 99.6295 12.9904V10.5319C99.2037 10.3705 98.7615 10.2562 98.3109 10.1911C97.7709 10.1098 97.2253 10.0724 96.6793 10.0793C96.0812 10.0761 95.4848 10.1437 94.9025 10.2805C94.3756 10.3993 93.8742 10.6112 93.4218 10.9063C93.002 11.193 92.6571 11.5762 92.416 12.0238C92.1571 12.5118 92.0282 13.0583 92.0417 13.6106C92.0239 14.3389 92.2655 15.0498 92.7233 15.6165C93.2865 16.2484 93.9965 16.732 94.7907 17.0246C95.1483 17.1699 95.4892 17.3207 95.8021 17.4604C96.0856 17.5837 96.3568 17.7333 96.6123 17.9074C96.8302 18.036 97.0202 18.207 97.171 18.4103C97.3043 18.5873 97.375 18.8034 97.3722 19.0249C97.3721 19.1918 97.3277 19.3557 97.2437 19.4999C97.1507 19.6528 97.0223 19.7812 96.8693 19.8742C96.6769 19.9938 96.4651 20.0788 96.2435 20.1257C95.9557 20.1905 95.6612 20.2205 95.3662 20.2151C94.1729 20.2156 93.0183 19.7918 92.1087 19.0193ZM134.026 22.0925V18.0304L135.284 18.0527C136.522 18.1099 137.738 17.7124 138.703 16.9352C139.119 16.5829 139.451 16.1411 139.672 15.6428C139.894 15.1445 140 14.6027 139.983 14.0576C139.983 11.5507 138.493 10.2972 135.513 10.2972H131.344V22.0925H134.026ZM134.026 12.3367V16.0077H135.071C136.485 16.0077 137.194 15.393 137.194 14.1526C137.194 12.9122 136.485 12.3367 135.071 12.3367H134.026ZM152.102 22.0925H149.224L148.397 19.4663H144.173L143.358 22.0925H140.452L144.754 10.2972H147.911L152.102 22.0925ZM146.487 13.4653L147.76 17.4269H144.754L146.017 13.4318C146.127 13.0985 146.196 12.7534 146.224 12.4037H146.291C146.322 12.7631 146.387 13.1186 146.487 13.4653ZM158.243 22.2936C161.543 22.2936 163.193 20.5224 163.193 16.9799V10.2972H160.534V17.2425C160.534 19.0808 159.796 20.0028 158.332 20.0028C156.842 19.999 156.097 19.0454 156.097 17.1419V10.2972H153.437V17.1028C153.434 20.5634 155.035 22.2936 158.243 22.2936ZM172.776 22.126H165.758V10.2972H168.423V19.9357H172.787L172.776 22.126ZM177.107 21.9273C177.819 22.216 178.584 22.3522 179.352 22.3272L179.364 22.2936C180.143 22.3243 180.921 22.1899 181.645 21.899C182.369 21.6082 183.023 21.1677 183.565 20.6062C184.673 19.3874 185.255 17.7813 185.186 16.1362C185.26 14.5349 184.7 12.9689 183.627 11.7779C183.104 11.2231 182.469 10.7865 181.763 10.4974C181.058 10.2083 180.299 10.0733 179.537 10.1017C178.74 10.0664 177.944 10.2022 177.204 10.5C176.464 10.7978 175.796 11.2507 175.246 11.8282C174.129 13.0642 173.545 14.6903 173.62 16.3541C173.588 17.1405 173.713 17.9254 173.987 18.6631C174.261 19.4007 174.68 20.0765 175.218 20.6509C175.751 21.2038 176.395 21.6386 177.107 21.9273Z" fill="white"/>
<path fill-rule="evenodd" clip-rule="evenodd" d="M179.475 12.387C179.046 12.3695 178.619 12.4553 178.23 12.6371C177.842 12.819 177.502 13.0915 177.24 13.4318C176.657 14.2428 176.367 15.2281 176.419 16.2256C176.359 17.2241 176.65 18.2121 177.24 19.0193C177.506 19.3356 177.837 19.5904 178.211 19.7661C178.584 19.9418 178.992 20.0342 179.405 20.0368C179.817 20.0395 180.226 19.9524 180.602 19.7815C180.978 19.6106 181.312 19.3601 181.582 19.0473C182.161 18.2498 182.445 17.2763 182.386 16.2926C182.446 15.2808 182.171 14.2774 181.604 13.4374C181.356 13.1076 181.032 12.8428 180.659 12.6657C180.286 12.4886 179.888 12.3709 179.475 12.387Z" fill="white"/>
<path fill-rule="evenodd" clip-rule="evenodd" d="M202.015 30.4339H175.408L175.341 30.4059L80.9113 30.2886H9.94972L0.143616 72.2342H202.015C235.328 72.2342 235.328 30.4339 202.015 30.4339ZM30.6515 61.6742H35.5183L33.2777 55.8967C33.1603 55.6006 33.0262 55.2933 32.8754 54.986C32.7302 54.6812 32.5621 54.388 32.3725 54.1087C32.1999 53.8509 31.9994 53.613 31.7746 53.3991C31.5715 53.2013 31.3273 53.0506 31.0594 52.9577V52.9018C31.7297 52.7181 32.3751 52.4535 32.9815 52.114C33.5682 51.788 34.1093 51.3859 34.5907 50.9183C35.0632 50.4576 35.471 49.9351 35.8032 49.3649C36.1423 48.7805 36.3892 48.1472 36.5352 47.4875C37.3435 43.9599 35.4605 42.1961 30.8862 42.1961H24.1812L19.7111 61.6519H23.9688L25.6451 54.2037H26.7905C27.0305 54.1974 27.2678 54.2552 27.4778 54.3714C27.6992 54.4903 27.8904 54.6586 28.0366 54.8631C28.208 55.1004 28.3541 55.3551 28.4724 55.623C28.6009 55.9247 28.735 56.2655 28.8635 56.6455L30.6515 61.6742ZM27.6957 45.4704L26.4497 50.8903H28.2936C29.158 50.9054 30.0004 50.6167 30.6739 50.0745C31.3348 49.5638 31.7972 48.8387 31.9814 48.0239C32.3725 46.3477 31.5791 45.4704 29.6122 45.4704H27.6957ZM61.3047 61.6742H56.6782L56.3541 57.3383H49.61L47.3079 61.6742H42.7094L54.0297 42.2185H59.0585L61.3047 61.6742ZM55.5887 47.4428L56.1474 53.9746H51.2974L54.8455 47.3702C55.1429 46.8377 55.3844 46.276 55.5663 45.6939H55.6725C55.5817 46.2722 55.5536 46.8585 55.5887 47.4428ZM79.1177 61.9816C81.0446 62.0375 82.9618 61.6872 84.7444 60.9535L85.6719 56.9249C84.1894 57.7361 82.5286 58.1662 80.8387 58.1765C79.1028 58.1578 77.8494 57.5991 77.0783 56.5002C76.3072 55.4013 76.1396 53.9113 76.5754 52.0302C76.9368 50.2203 77.8854 48.5802 79.2742 47.3646C80.5721 46.2378 82.2378 45.6255 83.9565 45.6436C85.3948 45.5935 86.8116 46.0025 88.0019 46.8114L88.9685 42.5873C87.5392 42.06 86.0211 41.8152 84.4985 41.8665C81.5966 41.8405 78.7844 42.8712 76.5866 44.7664C74.2623 46.7087 72.6568 49.3747 72.0272 52.3375C71.3511 55.2598 71.6472 57.5898 72.8988 59.3498C74.1504 61.1099 76.2234 61.9816 79.1177 61.9816ZM106.597 61.6519H95.2936L99.7637 42.1961H110.637L109.821 45.7554H103.2L102.205 50.0913H108.352L107.53 53.645H101.384L100.367 58.115H107.419L106.597 61.6519ZM132.512 61.9816C134.437 62.0369 136.352 61.6866 138.133 60.9535L139.077 56.9249C137.593 57.7361 135.93 58.1662 134.239 58.1765C132.503 58.1578 131.251 57.5991 130.484 56.5002C129.717 55.4013 129.547 53.9113 129.975 52.0302C130.34 50.2213 131.288 48.5821 132.674 47.3646C133.975 46.2387 135.642 45.6267 137.362 45.6436C138.799 45.5928 140.214 46.0019 141.402 46.8114L142.335 42.5873C140.906 42.0606 139.388 41.8158 137.865 41.8665C134.962 41.8417 132.148 42.8722 129.947 44.7664C127.637 46.7161 126.043 49.3802 125.416 52.3375C124.745 55.2598 125.042 57.5898 126.293 59.3498C127.545 61.1099 129.618 61.9816 132.512 61.9816ZM165.987 53.2203C164.646 59.0574 161.34 61.9778 156.069 61.9816C150.947 61.9816 149.044 59.1301 150.359 53.4271L152.935 42.1961H157.187L154.594 53.4829C153.871 56.6268 154.7 58.2007 157.081 58.2044C159.461 58.2081 160.979 56.6883 161.634 53.645L164.266 42.1961H168.518L165.987 53.2203ZM179.833 61.6575L181.369 54.9525L183.392 54.958C185.495 55.0131 187.558 54.3772 189.265 53.1477C190.862 52.0098 191.979 50.3191 192.399 48.4039C193.349 44.2691 191.448 42.2017 186.694 42.2017H180.045L175.575 61.6575H179.833ZM183.526 45.5598L182.135 51.6167H183.811C186.076 51.6167 187.441 50.596 187.907 48.5547C188.373 46.5134 187.471 45.5151 185.203 45.5598H183.526Z" fill="white"/>
</svg>
