<svg width="98" height="98" viewBox="0 0 98 98" fill="none" xmlns="http://www.w3.org/2000/svg">
<g filter="url(#filter0_d_392_21208)">
<path fill-rule="evenodd" clip-rule="evenodd" d="M51.5816 0.892578H51.6093C55.7081 0.892578 59.6871 1.4268 63.4451 2.43999C67.3919 3.49001 71.1223 5.05124 74.5763 7.04537C78.058 9.05792 81.2541 11.5126 84.091 14.3311C86.9372 17.1726 89.4241 20.3826 91.4504 23.8965C93.463 27.3321 95.0288 31.0578 96.0881 34.9954C97.1012 38.7857 97.6539 42.7785 97.6539 46.8911V46.9464C97.6539 51.0544 97.1473 55.038 96.1341 58.8283V58.8421C95.0749 62.7659 93.5551 66.4824 91.5748 69.918C89.5484 73.4227 87.0615 76.6281 84.2522 79.4742C81.4199 82.3065 78.2284 84.7796 74.7421 86.806H74.7329C71.2927 88.8001 67.5669 90.3659 63.6339 91.4252C59.8299 92.4476 55.8416 93.0002 51.7244 93.0002H51.6507C47.5473 93.0002 43.5683 92.466 39.7781 91.4528H39.7688C35.8405 90.4074 32.1147 88.8508 28.6699 86.8612H28.6607C25.1698 84.8487 21.9644 82.3848 19.1275 79.5525C16.2906 76.7248 13.8175 73.524 11.7912 70.0378V70.0286C9.78782 66.5791 8.22199 62.8442 7.16275 58.8974C6.14957 55.1071 5.59692 51.1143 5.59692 47.0017V46.9464C5.59692 42.8338 6.14036 38.8271 7.15354 35.1013V35.0691C8.21278 31.1545 9.7694 27.4242 11.7589 23.9701C13.7761 20.4701 16.2446 17.2923 19.0723 14.437L19.0815 14.391C21.9138 11.5448 25.1376 9.07174 28.6376 7.04537H28.6469C32.0733 5.06045 35.7852 3.50843 39.6998 2.45841C43.4209 1.46365 47.3263 0.92021 51.3514 0.892578H51.5816ZM37.8202 16.0804C37.8202 15.7488 38.0504 15.4817 38.4189 15.4817H45.244C45.5342 15.4817 45.8427 15.7027 45.8427 16.0896V35.4414C45.8427 35.4414 49.3567 32.5538 54.5469 32.5538C63.2695 32.5538 70.6657 40.102 70.6657 49.0181C70.6657 57.7683 63.4814 65.4731 54.0403 65.4731C50.0797 65.4731 45.1519 63.875 41.6979 59.9006C39.2294 57.0821 37.8202 54.0932 37.8202 47.291V16.0804ZM75.8514 23.0253C75.8514 22.6338 76.0817 22.3805 76.5054 22.3805L76.51 22.4082H83.2983C83.6944 22.4082 83.9431 22.6753 83.9431 23.0437V32.3926H89.8103C90.2432 32.3926 90.5195 32.6229 90.5195 33.0834V39.577C90.5195 40.0099 90.2432 40.2678 89.8379 40.2678H83.9431V51.6662C83.9431 52.7438 83.9845 55.1018 85.2418 56.3176C86.2734 57.3262 88.2169 57.5334 89.8748 57.5334C90.2432 57.5334 90.5195 57.7959 90.5195 58.1782V64.7639C90.5195 65.1139 90.3123 65.4178 89.8656 65.4178H88.8708C83.6621 65.4178 80.7884 63.5572 79.1304 61.8717C76.8416 59.4769 75.8514 56.6215 75.8514 51.8319V40.2724H71.1769C70.8315 40.2724 70.5322 40.0882 70.5322 39.6277V32.9499C70.5322 32.6183 70.7855 32.3604 71.1079 32.3604H75.8514V23.0253ZM12.3524 42.5061C12.3524 36.0954 17.6026 32.1255 24.1422 32.1255L24.156 32.0933C28.4851 32.0933 32.0312 33.4519 32.0312 33.4519C32.372 33.5624 32.7082 33.6729 32.7082 34.0506V40.2448C32.7082 40.7099 32.501 41.0646 32.0865 41.0646C31.8378 41.0646 31.3496 40.8481 31.3496 40.8481C31.3496 40.8481 27.2969 39.2823 24.5337 39.3283C21.402 39.3283 20.1816 40.6823 20.1816 42.1745C20.1816 43.4771 21.4087 43.8636 23.0762 44.3888C23.1302 44.4058 23.1846 44.423 23.2395 44.4403C23.3511 44.4713 23.5093 44.514 23.7034 44.5663C24.9515 44.9027 27.681 45.6386 28.9963 46.2364C32.4042 47.6088 34.5688 50.7635 34.5688 54.7472C34.5688 60.6144 30.2397 65.4316 22.4106 65.4316C19.2329 65.4316 17.1144 64.9757 13.338 63.6678C13.0156 63.5619 12.7393 63.4191 12.7393 62.9954V56.64C12.7393 56.1149 13.0616 55.8386 13.4761 55.8386C13.7525 55.8386 14.0288 55.9676 14.213 56.0597C16.8841 57.1189 19.5552 58.0861 22.6408 58.0861C24.8514 58.0861 26.7396 57.3031 26.7396 55.3689C26.7396 54.2958 26.3712 53.9182 25.9107 53.6879C25.4041 53.4116 24.8514 53.1491 24.2527 52.9326C23.5162 52.6581 22.7873 52.4582 22.0533 52.257C21.2728 52.0429 20.4866 51.8273 19.6796 51.5188C18.192 50.9523 16.3038 50.1602 14.9222 48.8477C13.2274 47.2956 12.3524 45.191 12.3524 42.5061ZM62.6201 49.0411C62.6201 44.0074 58.7839 40.4382 54.0173 40.4382V40.4428C48.6382 40.4428 45.5342 44.7351 45.5342 48.7786C45.5342 53.3701 48.8132 57.6071 53.916 57.6071C58.5075 57.6071 62.6201 54.1807 62.6201 49.0411Z" fill="white"/>
</g>
<defs>
<filter id="filter0_d_392_21208" x="0.596924" y="0.892578" width="97.0569" height="97.1074" filterUnits="userSpaceOnUse" color-interpolation-filters="sRGB">
<feFlood flood-opacity="0" result="BackgroundImageFix"/>
<feColorMatrix in="SourceAlpha" type="matrix" values="0 0 0 0 0 0 0 0 0 0 0 0 0 0 0 0 0 0 127 0" result="hardAlpha"/>
<feOffset dx="-5" dy="5"/>
<feComposite in2="hardAlpha" operator="out"/>
<feColorMatrix type="matrix" values="0 0 0 0 0.152941 0 0 0 0 0.145098 0 0 0 0 0.145098 0 0 0 1 0"/>
<feBlend mode="normal" in2="BackgroundImageFix" result="effect1_dropShadow_392_21208"/>
<feBlend mode="normal" in="SourceGraphic" in2="effect1_dropShadow_392_21208" result="shape"/>
</filter>
</defs>
</svg>
