<svg width="1920" height="980" viewBox="0 0 1920 980" fill="none" xmlns="http://www.w3.org/2000/svg">
<path opacity="0.8" d="M2045 490.5C2045 533.695 2042.42 577.262 2037.33 619.969L985.647 494.685C985.949 492.034 985.949 488.803 985.647 486.199L2037.05 358.683C2042.33 402.157 2045 446.514 2045 490.5ZM1974.81 875.675C1943.76 957.834 1902.71 1036.2 1852.77 1108.62L980.929 507.099C982.254 505.17 983.323 503.147 984.113 501.078L1974.81 875.675ZM1974.02 103.209L984.066 479.806C983.299 477.76 982.207 475.714 980.859 473.761L1851.63 -129.296C1901.67 -57.017 1942.85 21.2129 1974.02 103.209ZM1679.46 1304.77C1613.94 1363.05 1541.47 1413.33 1464.03 1454.23L969.494 517.398C971.655 516.259 973.701 514.841 975.606 513.12L1679.46 1304.77ZM1677.92 -325.115L975.56 467.833C973.654 466.159 971.609 464.718 969.447 463.579L1462.12 -474.228C1539.68 -433.474 1612.29 -383.305 1677.92 -325.115ZM1218.04 1548.08C1133.25 1569.07 1045.77 1579.81 958.036 1579.98L955.874 520.56C958.687 520.56 961.197 520.258 963.544 519.7L1218.04 1548.08ZM1215.9 -567.593L963.428 461.277C961.104 460.719 958.617 460.44 955.805 460.44H953.48L953.48 -598.978H955.805C1043.56 -598.978 1131.09 -588.423 1215.9 -567.593ZM948.251 461.254C946.066 461.788 944.068 462.579 942.092 463.625L445.558 -472.159C523.231 -513.401 605.879 -545.135 691.175 -566.477L948.251 461.254ZM948.181 519.723L697.985 1549.15C612.526 1528.37 529.6 1497.12 451.531 1456.3L942.185 517.444C944.161 518.467 946.136 519.235 948.181 519.723ZM936.119 513.213L235.384 1307.63C169.773 1249.71 111.204 1183.95 61.281 1112.16L930.82 507.308C932.307 509.447 934.097 511.446 936.119 513.213ZM935.863 467.996C933.911 469.739 932.145 471.715 930.657 473.877L57.5159 -125.762C107.044 -197.924 165.264 -264.065 230.55 -322.371L935.863 467.996ZM927.52 501.124L-61.551 879.999C-92.9969 797.84 -114.402 711.869 -125.163 624.456L926.009 494.964C926.265 497.149 926.776 499.172 927.52 501.124ZM927.496 479.875C926.729 481.898 926.218 483.99 925.962 486.245L-126 363.379C-115.797 275.92 -94.9492 189.832 -64.0378 107.487L927.496 479.875Z" fill="url(#paint0_radial_579_21994)"/>
<defs>
<radialGradient id="paint0_radial_579_21994" cx="0" cy="0" r="1" gradientUnits="userSpaceOnUse" gradientTransform="translate(959.5 490.5) rotate(-90) scale(1087.64 1087.34)">
<stop offset="0.0322" stop-color="#FFAC49"/>
<stop offset="1" stop-color="#FF8C1F"/>
</radialGradient>
</defs>
</svg>
