<svg width="115" height="153" viewBox="0 0 115 153" fill="none" xmlns="http://www.w3.org/2000/svg">
<g filter="url(#filter0_d_579_35969)">
<path d="M103.392 96.5535L93.2224 91.7411L86.7386 97.1633L81.9585 115.691L80.9054 100.777L58.773 114.487L92.0759 83.8389L103.413 86.7728L113.235 77.5181C107.887 39.6687 84.1868 -0.544318 58.6544 0.00557691C57.6062 -0.0171856 56.5627 0.0307384 55.5216 0.143353L44.5153 17.8945L56.5759 30.3481L41.5238 51.6634L49.1193 31.0633L37.6638 18.9728L46.7508 2.63046C25.6943 12.289 7.90953 46.9372 3.82904 79.3367L26.1004 69.06L39.9532 82.0634L56.0344 56.7874L74.375 72.6505L57.0419 62.6278L41.0326 92.1304L23.9152 79.2085L3 95.6562C4.36695 134.912 34.459 149.944 58.5993 149.999C58.6185 150 58.6365 150 58.6556 150C58.6748 150 58.6928 150 58.7119 149.999C83.4189 149.942 114.36 134.199 114.36 92.854C114.36 91.753 114.34 90.6437 114.303 89.5283L103.394 96.5511L103.392 96.5535Z" fill="white"/>
</g>
<defs>
<filter id="filter0_d_579_35969" x="0" y="0" width="114.36" height="153" filterUnits="userSpaceOnUse" color-interpolation-filters="sRGB">
<feFlood flood-opacity="0" result="BackgroundImageFix"/>
<feColorMatrix in="SourceAlpha" type="matrix" values="0 0 0 0 0 0 0 0 0 0 0 0 0 0 0 0 0 0 127 0" result="hardAlpha"/>
<feOffset dx="-3" dy="3"/>
<feComposite in2="hardAlpha" operator="out"/>
<feColorMatrix type="matrix" values="0 0 0 0 0.886275 0 0 0 0 0.482353 0 0 0 0 0 0 0 0 1 0"/>
<feBlend mode="normal" in2="BackgroundImageFix" result="effect1_dropShadow_579_35969"/>
<feBlend mode="normal" in="SourceGraphic" in2="effect1_dropShadow_579_35969" result="shape"/>
</filter>
</defs>
</svg>
