<svg width="97" height="92" viewBox="0 0 97 92" fill="none" xmlns="http://www.w3.org/2000/svg">
<path d="M6.77565 4.97683L95.793 4.84069L86.4 88.3827L3.97625 91.0531L6.77565 4.97683Z" fill="#272525"/>
<path d="M5.1077 88.6446L7.03779 7.51023L84.2886 2.79813L82.4938 85.4611L5.1077 88.6446Z" fill="#FFC687" stroke="#272525" stroke-width="5"/>
<mask id="path-3-outside-1_373_21125" maskUnits="userSpaceOnUse" x="5.11258" y="5.75749" width="79.9031" height="79.9031" fill="black">
<rect fill="white" x="5.11258" y="5.75749" width="79.9031" height="79.9031"/>
<path fill-rule="evenodd" clip-rule="evenodd" d="M44.7107 38.9915L30.215 24.4957L25.2652 29.4455L39.1811 44.521L23.851 59.8512L28.8007 64.8009L44.513 50.2973L59.2063 66.215L65.5703 59.8511L50.4948 44.7756L65.5703 30.8598L59.2063 24.4959L44.7107 38.9915Z"/>
</mask>
<path fill-rule="evenodd" clip-rule="evenodd" d="M44.7107 38.9915L30.215 24.4957L25.2652 29.4455L39.1811 44.521L23.851 59.8512L28.8007 64.8009L44.513 50.2973L59.2063 66.215L65.5703 59.8511L50.4948 44.7756L65.5703 30.8598L59.2063 24.4959L44.7107 38.9915Z" fill="white"/>
<path d="M30.2151 24.4958L32.3364 22.3745L30.2151 20.2532L28.0938 22.3745L30.2151 24.4958ZM44.7108 38.9916L42.5895 41.1129L44.7108 43.2342L46.8321 41.1129L44.7108 38.9916ZM25.2653 29.4456L23.144 27.3243L21.1059 29.3624L23.0609 31.4804L25.2653 29.4456ZM39.1812 44.5212L41.3026 46.6425L43.3407 44.6043L41.3856 42.4863L39.1812 44.5212ZM23.8511 59.8513L21.7298 57.73L19.6084 59.8513L21.7298 61.9726L23.8511 59.8513ZM28.8008 64.8011L26.6795 66.9224L28.7177 68.9605L30.8357 67.0055L28.8008 64.8011ZM44.5131 50.2974L46.7176 48.2625L44.6827 46.0581L42.4783 48.093L44.5131 50.2974ZM59.2065 66.2151L57.0021 68.25L59.1199 70.5443L61.3278 68.3365L59.2065 66.2151ZM65.5704 59.8512L67.6917 61.9725L69.8131 59.8512L67.6917 57.7299L65.5704 59.8512ZM50.495 44.7757L48.4601 42.5713L46.1658 44.6892L48.3736 46.897L50.495 44.7757ZM65.5704 30.8599L67.6052 33.0644L69.8996 30.9465L67.6917 28.7386L65.5704 30.8599ZM59.2064 24.496L61.3277 22.3747L59.2064 20.2533L57.0851 22.3747L59.2064 24.496ZM28.0938 26.6172L42.5895 41.1129L46.8321 36.8703L32.3364 22.3745L28.0938 26.6172ZM27.3867 31.5669L32.3364 26.6172L28.0938 22.3745L23.144 27.3243L27.3867 31.5669ZM41.3856 42.4863L27.4698 27.4108L23.0609 31.4804L36.9768 46.556L41.3856 42.4863ZM25.9724 61.9726L41.3026 46.6425L37.0599 42.3998L21.7298 57.73L25.9724 61.9726ZM30.9221 62.6797L25.9724 57.73L21.7298 61.9726L26.6795 66.9224L30.9221 62.6797ZM42.4783 48.093L26.766 62.5967L30.8357 67.0055L46.548 52.5018L42.4783 48.093ZM61.4109 64.1803L46.7176 48.2625L42.3087 52.3322L57.0021 68.25L61.4109 64.1803ZM63.4491 57.7299L57.0851 64.0938L61.3278 68.3365L67.6917 61.9725L63.4491 57.7299ZM48.3736 46.897L63.4491 61.9725L67.6917 57.7299L52.6163 42.6544L48.3736 46.897ZM63.5355 28.6555L48.4601 42.5713L52.5298 46.9801L67.6052 33.0644L63.5355 28.6555ZM57.0851 26.6173L63.4491 32.9813L67.6917 28.7386L61.3277 22.3747L57.0851 26.6173ZM46.8321 41.1129L61.3277 26.6173L57.0851 22.3747L42.5895 36.8703L46.8321 41.1129Z" fill="black" mask="url(#path-3-outside-1_373_21125)"/>
</svg>
