<svg width="346" height="109" viewBox="0 0 346 109" fill="none" xmlns="http://www.w3.org/2000/svg">
<path d="M55.663 56.6458C55.5716 46.0498 63.9851 40.8947 64.3698 40.6547C59.6049 33.412 52.2194 32.4225 49.6241 32.3436C43.4211 31.663 37.4043 36.2131 34.2445 36.2131C31.0216 36.2131 26.1557 32.4093 20.9115 32.5211C14.163 32.6296 7.84966 36.703 4.38712 43.0284C-2.75871 55.9258 2.5707 74.8791 9.41695 85.3043C12.8417 90.41 16.8434 96.1108 22.0814 95.9102C27.2058 95.6899 29.12 92.5042 35.304 92.5042C41.4313 92.5042 43.2288 95.9102 48.5708 95.782C54.0705 95.6899 57.533 90.6533 60.8379 85.5015C64.7956 79.6495 66.3849 73.8863 66.448 73.5904C66.3187 73.5443 55.7671 69.346 55.663 56.6458Z" fill="white"/>
<path d="M45.5719 25.4854C48.3281 21.892 50.2139 17.0033 49.6904 12.0422C45.7012 12.2263 40.7124 14.9189 37.8395 18.4334C35.2978 21.5304 33.0273 26.6065 33.6138 31.3802C38.095 31.7287 42.6959 29.0229 45.5719 25.4854Z" fill="white"/>
<path d="M129.823 95.1773H122.662L118.739 82.3259H105.103L101.366 95.1773H94.3936L107.903 51.4253H116.247L129.823 95.1773ZM117.556 76.9342L114.008 65.5096C113.633 64.3425 112.93 61.594 111.892 57.2674H111.766C111.353 59.1283 110.688 61.8767 109.773 65.5096L106.289 76.9342H117.556V76.9342Z" fill="white"/>
<path d="M164.564 79.015C164.564 84.3805 163.174 88.6216 160.392 91.735C157.901 94.5064 154.807 95.8905 151.115 95.8905C147.129 95.8905 144.265 94.3979 142.521 91.4128H142.395V108.032H135.672V74.0145C135.672 70.6414 135.587 67.1795 135.423 63.6289H141.336L141.711 68.6294H141.837C144.079 64.8617 147.482 62.9812 152.048 62.9812C155.618 62.9812 158.598 64.4508 160.982 67.3932C163.372 70.339 164.564 74.2118 164.564 79.015ZM157.715 79.2715C157.715 76.2008 157.053 73.6693 155.722 71.677C154.268 69.5992 152.316 68.5603 149.869 68.5603C148.21 68.5603 146.703 69.139 145.356 70.2798C144.007 71.4304 143.124 72.9329 142.711 74.7937C142.502 75.6617 142.398 76.3718 142.398 76.9307V82.1909C142.398 84.4857 143.073 86.4221 144.423 88.0035C145.773 89.5848 147.526 90.3739 149.683 90.3739C152.215 90.3739 154.186 89.3547 155.596 87.3229C157.009 85.2879 157.715 82.6052 157.715 79.2715Z" fill="white"/>
<path d="M199.37 79.015C199.37 84.3805 197.979 88.6216 195.195 91.735C192.706 94.5064 189.613 95.8905 185.92 95.8905C181.934 95.8905 179.071 94.3979 177.33 91.4128H177.204V108.032H170.481V74.0145C170.481 70.6414 170.395 67.1795 170.231 63.6289H176.144L176.52 68.6294H176.646C178.885 64.8617 182.287 62.9812 186.857 62.9812C190.423 62.9812 193.403 64.4508 195.794 67.3932C198.175 70.339 199.37 74.2118 199.37 79.015ZM192.52 79.2715C192.52 76.2008 191.855 73.6693 190.524 71.677C189.07 69.5992 187.125 68.5603 184.674 68.5603C183.013 68.5603 181.508 69.139 180.159 70.2798C178.809 71.4304 177.929 72.9329 177.516 74.7937C177.311 75.6617 177.204 76.3718 177.204 76.9307V82.1909C177.204 84.4857 177.879 86.4221 179.222 88.0035C180.572 89.5815 182.325 90.3739 184.488 90.3739C187.021 90.3739 188.992 89.3547 190.401 87.3229C191.814 85.2879 192.52 82.6052 192.52 79.2715Z" fill="white"/>
<path d="M238.284 82.9068C238.284 86.6284 237.045 89.6563 234.557 91.9938C231.823 94.5483 228.017 95.824 223.125 95.824C218.61 95.824 214.989 94.9166 212.249 93.0985L213.807 87.2563C216.759 89.1172 219.997 90.0508 223.526 90.0508C226.058 90.0508 228.029 89.4525 229.445 88.2624C230.855 87.0722 231.558 85.4744 231.558 83.4821C231.558 81.7068 230.978 80.2109 229.814 78.9978C228.657 77.7846 226.724 76.657 224.024 75.6148C216.677 72.7578 213.006 68.5727 213.006 63.0691C213.006 59.4725 214.293 56.5234 216.869 54.2287C219.436 51.9306 222.861 50.7832 227.143 50.7832C230.962 50.7832 234.134 51.4769 236.667 52.861L234.986 58.5749C232.621 57.2336 229.946 56.5629 226.954 56.5629C224.589 56.5629 222.741 57.1711 221.416 58.381C220.297 59.4626 219.735 60.7809 219.735 62.3426C219.735 64.0719 220.376 65.502 221.662 66.6264C222.782 67.6653 224.816 68.7896 227.767 70.0028C231.378 71.5184 234.03 73.2904 235.736 75.3222C237.436 77.3474 238.284 79.8822 238.284 82.9068Z" fill="white"/>
<path d="M260.513 68.8871H253.102V84.2043C253.102 88.1001 254.408 90.0464 257.025 90.0464C258.227 90.0464 259.223 89.9379 260.012 89.7209L260.198 95.0436C258.873 95.5598 257.129 95.8195 254.969 95.8195C252.314 95.8195 250.239 94.9746 248.741 93.288C247.249 91.5982 246.499 88.7642 246.499 84.7829V68.8805H242.084V63.6203H246.499V57.8439L253.102 55.7661V63.6203H260.513V68.8871Z" fill="white"/>
<path d="M293.95 79.1427C293.95 83.992 292.619 87.9733 289.964 91.0867C287.179 94.2922 283.483 95.89 278.876 95.89C274.436 95.89 270.901 94.3546 268.265 91.284C265.628 88.2133 264.31 84.3372 264.31 79.6654C264.31 74.7767 265.666 70.7723 268.388 67.6589C271.103 64.5422 274.767 62.9839 279.374 62.9839C283.814 62.9839 287.387 64.5192 290.084 67.5932C292.663 70.5751 293.95 74.4249 293.95 79.1427ZM286.974 79.3695C286.974 76.46 286.378 73.9646 285.17 71.8836C283.761 69.3652 281.746 68.1093 279.135 68.1093C276.432 68.1093 274.379 69.3685 272.97 71.8836C271.762 73.9679 271.166 76.5027 271.166 79.501C271.166 82.4106 271.762 84.9059 272.97 86.9837C274.423 89.502 276.454 90.7579 279.075 90.7579C281.642 90.7579 283.657 89.4758 285.111 86.918C286.35 84.7974 286.974 82.2758 286.974 79.3695Z" fill="white"/>
<path d="M315.803 69.7932C315.138 69.665 314.428 69.5992 313.684 69.5992C311.319 69.5992 309.49 70.5296 308.203 72.3937C307.084 74.0376 306.523 76.1154 306.523 78.6238V95.1771H299.802L299.866 73.5641C299.866 69.928 299.78 66.6173 299.613 63.6322H305.469L305.715 69.6683H305.901C306.611 67.5938 307.73 65.9236 309.263 64.6711C310.761 63.5434 312.379 62.9812 314.123 62.9812C314.744 62.9812 315.305 63.0272 315.803 63.1094V69.7932Z" fill="white"/>
<path d="M345.872 77.9105C345.872 79.1664 345.793 80.225 345.626 81.0897H325.456C325.535 84.2063 326.51 86.5899 328.383 88.2337C330.082 89.7033 332.28 90.4397 334.98 90.4397C337.966 90.4397 340.691 89.9433 343.141 88.9471L344.194 93.8129C341.331 95.1148 337.95 95.7624 334.05 95.7624C329.357 95.7624 325.674 94.3224 322.993 91.4457C320.319 88.5691 318.979 84.7061 318.979 79.8601C318.979 75.1028 320.225 71.1412 322.719 67.9818C325.33 64.6087 328.859 62.9221 333.299 62.9221C337.66 62.9221 340.962 64.6087 343.204 67.9818C344.98 70.6612 345.872 73.9752 345.872 77.9105ZM339.461 76.0924C339.505 74.0146 339.067 72.2196 338.155 70.704C336.992 68.7544 335.204 67.7813 332.798 67.7813C330.6 67.7813 328.812 68.7314 327.446 70.6382C326.327 72.1538 325.661 73.9719 325.456 76.0891H339.461V76.0924Z" fill="white"/>
<path d="M116.262 32.0915C116.262 31.6075 116.141 31.1705 115.899 30.7806C115.657 30.3773 115.193 30.0143 114.507 29.6916C113.835 29.3689 112.84 29.0732 111.522 28.8043C110.366 28.5488 109.304 28.2463 108.336 27.8967C107.381 27.5337 106.561 27.0968 105.876 26.5859C105.19 26.075 104.659 25.47 104.282 24.7708C103.906 24.0717 103.718 23.265 103.718 22.3508C103.718 21.4634 103.913 20.6231 104.303 19.8299C104.692 19.0366 105.25 18.3375 105.976 17.7325C106.702 17.1275 107.583 16.6502 108.618 16.3006C109.667 15.9511 110.837 15.7763 112.127 15.7763C113.956 15.7763 115.522 16.0855 116.826 16.704C118.144 17.309 119.152 18.1358 119.851 19.1845C120.551 20.2198 120.9 21.3895 120.9 22.6936H116.04C116.04 22.1155 115.892 21.5777 115.596 21.0802C115.314 20.5693 114.884 20.1593 114.306 19.8501C113.727 19.5274 113.001 19.366 112.127 19.366C111.294 19.366 110.601 19.5005 110.05 19.7694C109.512 20.0248 109.109 20.361 108.84 20.7777C108.585 21.1945 108.457 21.6517 108.457 22.1491C108.457 22.5121 108.524 22.8415 108.659 23.1373C108.807 23.4196 109.049 23.6818 109.385 23.9238C109.721 24.1524 110.178 24.3675 110.756 24.5692C111.348 24.7708 112.087 24.9658 112.974 25.154C114.642 25.5036 116.073 25.954 117.27 26.5052C118.48 27.043 119.408 27.7421 120.053 28.6026C120.698 29.4496 121.021 30.5252 121.021 31.8293C121.021 32.7974 120.813 33.6847 120.396 34.4914C119.993 35.2846 119.401 35.9771 118.621 36.5686C117.841 37.1467 116.907 37.5971 115.818 37.9198C114.742 38.2425 113.532 38.4038 112.188 38.4038C110.212 38.4038 108.538 38.0543 107.166 37.3551C105.795 36.6426 104.753 35.735 104.04 34.6326C103.341 33.5167 102.992 32.3604 102.992 31.1638H107.691C107.744 32.0646 107.993 32.7839 108.437 33.3217C108.894 33.8461 109.459 34.2292 110.131 34.4712C110.817 34.6998 111.522 34.8141 112.248 34.8141C113.122 34.8141 113.855 34.6998 114.447 34.4712C115.038 34.2292 115.489 33.9066 115.798 33.5032C116.107 33.0864 116.262 32.6159 116.262 32.0915ZM124.349 27.3321V26.8682C124.349 25.2952 124.577 23.8364 125.034 22.492C125.492 21.134 126.15 19.9576 127.011 18.9627C127.885 17.9543 128.947 17.1745 130.197 16.6233C131.461 16.0586 132.886 15.7763 134.473 15.7763C136.073 15.7763 137.498 16.0586 138.748 16.6233C140.012 17.1745 141.081 17.9543 141.955 18.9627C142.829 19.9576 143.494 21.134 143.951 22.492C144.408 23.8364 144.637 25.2952 144.637 26.8682V27.3321C144.637 28.9051 144.408 30.3639 143.951 31.7083C143.494 33.0528 142.829 34.2292 141.955 35.2376C141.081 36.2325 140.019 37.0123 138.768 37.577C137.518 38.1282 136.099 38.4038 134.513 38.4038C132.913 38.4038 131.481 38.1282 130.217 37.577C128.967 37.0123 127.905 36.2325 127.031 35.2376C126.157 34.2292 125.492 33.0528 125.034 31.7083C124.577 30.3639 124.349 28.9051 124.349 27.3321ZM129.209 26.8682V27.3321C129.209 28.3135 129.31 29.2412 129.512 30.1151C129.713 30.989 130.029 31.7554 130.459 32.4142C130.89 33.073 131.441 33.5906 132.113 33.9671C132.785 34.3435 133.585 34.5317 134.513 34.5317C135.414 34.5317 136.194 34.3435 136.852 33.9671C137.525 33.5906 138.076 33.073 138.506 32.4142C138.936 31.7554 139.252 30.989 139.454 30.1151C139.669 29.2412 139.777 28.3135 139.777 27.3321V26.8682C139.777 25.9002 139.669 24.986 139.454 24.1255C139.252 23.2516 138.93 22.4785 138.486 21.8063C138.056 21.134 137.504 20.6097 136.832 20.2332C136.173 19.8433 135.387 19.6484 134.473 19.6484C133.558 19.6484 132.765 19.8433 132.093 20.2332C131.434 20.6097 130.89 21.134 130.459 21.8063C130.029 22.4785 129.713 23.2516 129.512 24.1255C129.31 24.986 129.209 25.9002 129.209 26.8682ZM147.783 27.3321V26.8682C147.783 25.2952 148.012 23.8364 148.469 22.492C148.926 21.134 149.585 19.9576 150.445 18.9627C151.319 17.9543 152.381 17.1745 153.631 16.6233C154.895 16.0586 156.32 15.7763 157.907 15.7763C159.507 15.7763 160.932 16.0586 162.182 16.6233C163.446 17.1745 164.515 17.9543 165.389 18.9627C166.263 19.9576 166.928 21.134 167.385 22.492C167.843 23.8364 168.071 25.2952 168.071 26.8682V27.3321C168.071 28.9051 167.843 30.3639 167.385 31.7083C166.928 33.0528 166.263 34.2292 165.389 35.2376C164.515 36.2325 163.453 37.0123 162.202 37.577C160.952 38.1282 159.534 38.4038 157.947 38.4038C156.347 38.4038 154.915 38.1282 153.652 37.577C152.401 37.0123 151.339 36.2325 150.465 35.2376C149.591 34.2292 148.926 33.0528 148.469 31.7083C148.012 30.3639 147.783 28.9051 147.783 27.3321ZM152.643 26.8682V27.3321C152.643 28.3135 152.744 29.2412 152.946 30.1151C153.147 30.989 153.463 31.7554 153.894 32.4142C154.324 33.073 154.875 33.5906 155.547 33.9671C156.22 34.3435 157.02 34.5317 157.947 34.5317C158.848 34.5317 159.628 34.3435 160.287 33.9671C160.959 33.5906 161.51 33.073 161.94 32.4142C162.371 31.7554 162.686 30.989 162.888 30.1151C163.103 29.2412 163.211 28.3135 163.211 27.3321V26.8682C163.211 25.9002 163.103 24.986 162.888 24.1255C162.686 23.2516 162.364 22.4785 161.92 21.8063C161.49 21.134 160.939 20.6097 160.266 20.2332C159.608 19.8433 158.821 19.6484 157.907 19.6484C156.993 19.6484 156.199 19.8433 155.527 20.2332C154.868 20.6097 154.324 21.134 153.894 21.8063C153.463 22.4785 153.147 23.2516 152.946 24.1255C152.744 24.986 152.643 25.9002 152.643 26.8682ZM176.965 20.8382V38.0005H172.105V16.1796H176.683L176.965 20.8382ZM176.098 26.2834L174.525 26.2632C174.538 24.7171 174.753 23.2986 175.17 22.0079C175.6 20.7172 176.192 19.608 176.945 18.6804C177.711 17.7527 178.625 17.0401 179.687 16.5426C180.75 16.0317 181.933 15.7763 183.237 15.7763C184.286 15.7763 185.233 15.9242 186.08 16.22C186.941 16.5023 187.674 16.9662 188.279 17.6115C188.897 18.2568 189.368 19.0971 189.69 20.1324C190.013 21.1542 190.174 22.4113 190.174 23.9037V38.0005H185.294V23.8835C185.294 22.8348 185.139 22.0079 184.83 21.4029C184.534 20.7845 184.097 20.3475 183.519 20.0921C182.954 19.8232 182.249 19.6887 181.402 19.6887C180.568 19.6887 179.822 19.8635 179.163 20.2131C178.504 20.5626 177.946 21.0399 177.489 21.6449C177.046 22.2499 176.703 22.9491 176.461 23.7423C176.219 24.5356 176.098 25.3826 176.098 26.2834ZM204.493 27.3321V26.8682C204.493 25.2952 204.722 23.8364 205.179 22.492C205.636 21.134 206.295 19.9576 207.155 18.9627C208.029 17.9543 209.091 17.1745 210.341 16.6233C211.605 16.0586 213.03 15.7763 214.617 15.7763C216.217 15.7763 217.642 16.0586 218.892 16.6233C220.156 17.1745 221.225 17.9543 222.099 18.9627C222.973 19.9576 223.638 21.134 224.095 22.492C224.553 23.8364 224.781 25.2952 224.781 26.8682V27.3321C224.781 28.9051 224.553 30.3639 224.095 31.7083C223.638 33.0528 222.973 34.2292 222.099 35.2376C221.225 36.2325 220.163 37.0123 218.913 37.577C217.662 38.1282 216.244 38.4038 214.657 38.4038C213.057 38.4038 211.625 38.1282 210.362 37.577C209.111 37.0123 208.049 36.2325 207.175 35.2376C206.301 34.2292 205.636 33.0528 205.179 31.7083C204.722 30.3639 204.493 28.9051 204.493 27.3321ZM209.353 26.8682V27.3321C209.353 28.3135 209.454 29.2412 209.656 30.1151C209.857 30.989 210.173 31.7554 210.604 32.4142C211.034 33.073 211.585 33.5906 212.257 33.9671C212.93 34.3435 213.73 34.5317 214.657 34.5317C215.558 34.5317 216.338 34.3435 216.997 33.9671C217.669 33.5906 218.22 33.073 218.65 32.4142C219.081 31.7554 219.397 30.989 219.598 30.1151C219.813 29.2412 219.921 28.3135 219.921 27.3321V26.8682C219.921 25.9002 219.813 24.986 219.598 24.1255C219.397 23.2516 219.074 22.4785 218.63 21.8063C218.2 21.134 217.649 20.6097 216.976 20.2332C216.318 19.8433 215.531 19.6484 214.617 19.6484C213.703 19.6484 212.909 19.8433 212.237 20.2332C211.578 20.6097 211.034 21.134 210.604 21.8063C210.173 22.4785 209.857 23.2516 209.656 24.1255C209.454 24.986 209.353 25.9002 209.353 26.8682ZM233.675 20.8382V38.0005H228.815V16.1796H233.393L233.675 20.8382ZM232.808 26.2834L231.235 26.2632C231.248 24.7171 231.463 23.2986 231.88 22.0079C232.31 20.7172 232.902 19.608 233.655 18.6804C234.421 17.7527 235.335 17.0401 236.397 16.5426C237.46 16.0317 238.643 15.7763 239.947 15.7763C240.996 15.7763 241.943 15.9242 242.79 16.22C243.651 16.5023 244.384 16.9662 244.989 17.6115C245.607 18.2568 246.078 19.0971 246.4 20.1324C246.723 21.1542 246.884 22.4113 246.884 23.9037V38.0005H242.004V23.8835C242.004 22.8348 241.849 22.0079 241.54 21.4029C241.244 20.7845 240.807 20.3475 240.229 20.0921C239.665 19.8232 238.959 19.6887 238.112 19.6887C237.278 19.6887 236.532 19.8635 235.873 20.2131C235.214 20.5626 234.656 21.0399 234.199 21.6449C233.756 22.2499 233.413 22.9491 233.171 23.7423C232.929 24.5356 232.808 25.3826 232.808 26.2834Z" fill="white"/>
</svg>
