<svg width="377" height="110" viewBox="0 0 377 110" fill="none" xmlns="http://www.w3.org/2000/svg">
<path d="M189.17 67.6391C186.443 67.6526 183.78 68.5126 181.518 70.1106C179.256 71.7086 177.497 73.9729 176.462 76.6179C175.427 79.2629 175.163 82.1699 175.703 84.9721C176.243 87.7742 177.563 90.3459 179.496 92.3626C181.43 94.3793 183.89 95.7506 186.566 96.3033C189.242 96.8561 192.015 96.5656 194.533 95.4686C197.052 94.3715 199.205 92.517 200.719 90.1391C202.233 87.7612 203.041 84.9666 203.041 82.1078C203.068 80.1943 202.726 78.2948 202.038 76.5224C201.349 74.7499 200.328 73.1408 199.033 71.7908C197.739 70.4408 196.199 69.3775 194.505 68.6643C192.81 67.951 190.996 67.6024 189.17 67.6391ZM189.17 90.8912C187.493 91.0142 185.819 90.6054 184.366 89.718C182.913 88.8306 181.748 87.5057 181.023 85.9155C180.299 84.3252 180.047 82.5432 180.301 80.8011C180.556 79.0589 181.304 77.4373 182.449 76.1469C183.595 74.8565 185.084 73.957 186.724 73.5654C188.363 73.1738 190.077 73.3083 191.643 73.9512C193.209 74.5941 194.554 75.7158 195.503 77.1705C196.453 78.6251 196.962 80.3455 196.967 82.1078C197.019 83.2245 196.857 84.3409 196.491 85.3911C196.126 86.4413 195.563 87.4041 194.836 88.2228C194.109 89.0414 193.234 89.6992 192.261 90.1575C191.288 90.6158 190.237 90.8653 189.17 90.8912ZM158.928 67.6391C156.199 67.6459 153.533 68.5001 151.267 70.0941C149.001 71.688 147.236 73.9501 146.196 76.5945C145.156 79.2389 144.888 82.147 145.424 84.9514C145.96 87.7558 147.278 90.3307 149.21 92.3507C151.142 94.3708 153.602 95.7455 156.279 96.301C158.956 96.8565 161.73 96.568 164.251 95.4719C166.772 94.3758 168.926 92.5213 170.442 90.1427C171.957 87.7641 172.766 84.968 172.766 82.1078C172.792 80.1943 172.451 78.2948 171.763 76.5224C171.074 74.7499 170.053 73.1408 168.758 71.7908C167.464 70.4408 165.924 69.3775 164.23 68.6643C162.535 67.951 160.721 67.6024 158.895 67.6391H158.928ZM158.928 90.8912C157.249 91.0211 155.573 90.6184 154.116 89.7356C152.659 88.8528 151.489 87.5307 150.759 85.9415C150.029 84.3523 149.773 82.5696 150.023 80.8255C150.273 79.0814 151.019 77.4566 152.162 76.1627C153.306 74.8688 154.795 73.9657 156.435 73.5711C158.075 73.1764 159.791 73.3084 161.359 73.9498C162.926 74.5913 164.274 75.7126 165.225 77.1676C166.176 78.6227 166.687 80.3441 166.692 82.1078C166.744 83.2245 166.582 84.3409 166.216 85.3911C165.85 86.4413 165.288 87.4041 164.561 88.2228C163.834 89.0414 162.959 89.6992 161.986 90.1575C161.013 90.6158 159.962 90.8653 158.895 90.8912H158.928ZM122.903 72.0989V78.2268H136.936C136.716 81.1131 135.571 83.8366 133.688 85.9548C132.284 87.4536 130.596 88.6277 128.733 89.4016C126.87 90.1756 124.873 90.5322 122.871 90.4486C118.735 90.4486 114.769 88.727 111.845 85.6624C108.921 82.5979 107.278 78.4414 107.278 74.1075C107.278 69.7736 108.921 65.6171 111.845 62.5526C114.769 59.488 118.735 57.7663 122.871 57.7663C126.827 57.6987 130.647 59.2781 133.493 62.158L137.618 57.8344C135.697 55.7953 133.404 54.1811 130.877 53.0876C128.349 51.994 125.638 51.4433 122.903 51.4682C120.015 51.3504 117.134 51.8448 114.433 52.9218C111.732 53.9987 109.266 55.6361 107.183 57.7357C105.1 59.8354 103.443 62.3541 102.311 65.141C101.18 67.9278 100.596 70.9255 100.596 73.9543C100.596 76.9831 101.18 79.9808 102.311 82.7676C103.443 85.5545 105.1 88.0732 107.183 90.1729C109.266 92.2725 111.732 93.9099 114.433 94.9868C117.134 96.0638 120.015 96.5582 122.903 96.4404C125.684 96.5721 128.459 96.0781 131.042 94.9917C133.625 93.9054 135.956 92.2518 137.878 90.1422C141.281 86.2235 143.099 81.0721 142.946 75.7756C142.956 74.4853 142.847 73.197 142.621 71.9287L122.903 72.0989ZM270.088 76.8651C269.241 74.253 267.657 71.9722 265.545 70.3247C263.434 68.6772 260.894 67.7406 258.264 67.6391C256.487 67.6355 254.728 68.0138 253.096 68.7508C251.465 69.4877 249.994 70.5676 248.776 71.9237C247.559 73.2798 246.619 74.8832 246.016 76.6349C245.413 78.3866 245.159 80.2493 245.27 82.1078C245.231 84.0106 245.558 85.9022 246.231 87.6696C246.905 89.437 247.912 91.044 249.191 92.3945C250.471 93.745 251.997 94.8114 253.679 95.53C255.36 96.2485 257.163 96.6045 258.978 96.5766C261.251 96.5894 263.491 96.0115 265.497 94.8945C267.504 93.7775 269.215 92.1564 270.478 90.1763L265.768 86.7719C265.065 88.0001 264.069 89.0161 262.879 89.7202C261.689 90.4244 260.345 90.7927 258.978 90.7891C257.571 90.8453 256.181 90.4565 254.987 89.6733C253.794 88.89 252.853 87.7486 252.287 86.3974L270.77 78.397L270.088 76.8651ZM251.247 81.6993C251.181 80.6463 251.317 79.5901 251.645 78.5926C251.974 77.5951 252.489 76.6763 253.16 75.89C253.832 75.1037 254.647 74.4658 255.556 74.0136C256.466 73.5614 257.453 73.304 258.459 73.2564C259.507 73.184 260.552 73.4358 261.464 73.9806C262.376 74.5253 263.116 75.3389 263.591 76.3204L251.247 81.6993ZM236.24 95.7255H242.314V53.1704H236.24V95.7255ZM226.3 70.8733H226.072C225.157 69.8006 224.035 68.9427 222.781 68.356C221.527 67.7693 220.169 67.467 218.796 67.4689C215.246 67.6493 211.898 69.2542 209.447 71.9511C206.995 74.6479 205.628 78.2299 205.628 81.9547C205.628 85.6794 206.995 89.2614 209.447 91.9582C211.898 94.655 215.246 96.26 218.796 96.4404C220.172 96.4646 221.537 96.1724 222.794 95.5842C224.052 94.996 225.17 94.1262 226.072 93.036H226.267V95.1127C226.267 100.662 223.441 103.624 218.893 103.624C217.379 103.587 215.909 103.078 214.671 102.162C213.433 101.247 212.483 99.9662 211.942 98.483L206.647 100.798C207.643 103.339 209.342 105.51 211.524 107.032C213.706 108.555 216.272 109.359 218.893 109.343C226.007 109.343 231.887 104.951 231.887 94.2616V68.4902H226.3V70.8733ZM219.348 90.8912C217.253 90.6977 215.302 89.6886 213.882 88.0627C212.461 86.4369 211.673 84.3124 211.673 82.1078C211.673 79.9033 212.461 77.7788 213.882 76.153C215.302 74.5271 217.253 73.518 219.348 73.3245C220.387 73.3803 221.405 73.6536 222.341 74.128C223.278 74.6025 224.114 75.2686 224.802 76.0871C225.489 76.9057 226.013 77.86 226.342 78.894C226.672 79.9281 226.801 81.0208 226.722 82.1078C226.811 83.1996 226.687 84.2989 226.359 85.3391C226.03 86.3794 225.504 87.3391 224.812 88.1601C224.119 88.9812 223.275 89.6466 222.331 90.116C221.386 90.5854 220.36 90.8491 219.316 90.8912H219.348ZM298.544 53.1704H284.024V95.7255H290.098V79.5886H298.576C300.308 79.7189 302.046 79.4741 303.683 78.8693C305.32 78.2646 306.82 77.3128 308.091 76.0735C309.362 74.8342 310.375 73.3338 311.068 71.666C311.761 69.9981 312.118 68.1986 312.118 66.3795C312.118 64.5604 311.761 62.7609 311.068 61.093C310.375 59.4252 309.362 57.9248 308.091 56.6855C306.82 55.4461 305.32 54.4944 303.683 53.8897C302.046 53.2849 300.308 53.04 298.576 53.1704H298.544ZM298.544 73.5968H290.066V59.0941H298.674C300.522 59.0941 302.294 59.8634 303.601 61.2329C304.908 62.6024 305.642 64.4598 305.642 66.3965C305.642 68.3332 304.908 70.1907 303.601 71.5601C302.294 72.9296 300.522 73.699 298.674 73.699L298.544 73.5968ZM335.998 67.4689C333.786 67.3304 331.585 67.872 329.663 69.0272C327.741 70.1824 326.183 71.9008 325.181 73.9713L330.573 76.3204C331.105 75.2934 331.91 74.4506 332.89 73.8945C333.871 73.3385 334.984 73.0931 336.095 73.1883C336.867 73.0939 337.648 73.1614 338.394 73.3869C339.14 73.6123 339.835 73.9912 340.44 74.5014C341.045 75.0116 341.547 75.643 341.916 76.3586C342.286 77.0742 342.516 77.8597 342.592 78.6694V79.112C340.641 78.0294 338.465 77.4681 336.258 77.4779C330.443 77.4779 324.564 80.8823 324.564 87.0442C324.621 88.3581 324.929 89.6466 325.47 90.8335C326.011 92.0204 326.773 93.0817 327.712 93.9545C328.651 94.8273 329.747 95.494 330.936 95.9151C332.125 96.3363 333.382 96.5033 334.634 96.4063C336.163 96.5215 337.694 96.2029 339.066 95.4841C340.438 94.7653 341.6 93.6727 342.43 92.3211H342.625V95.7255H348.472V79.3503C348.472 71.8946 343.079 67.571 336.16 67.571L335.998 67.4689ZM335.251 90.7891C333.269 90.7891 330.508 89.7337 330.508 87.1804C330.508 83.776 333.951 82.6525 337.005 82.6525C338.935 82.6026 340.842 83.0964 342.527 84.0824C342.324 85.9255 341.492 87.6297 340.185 88.8809C338.878 90.132 337.183 90.846 335.413 90.8912L335.251 90.7891ZM369.781 68.4902L362.83 86.9421H362.635L355.423 68.4902H348.927L359.744 94.2956L353.572 108.628H359.906L376.538 68.4902H369.781ZM315.176 95.7255H321.25V53.1704H315.176V95.7255Z" fill="white"/>
<path d="M1.91758 100.911L41.7123 57.6538L1.95092 14.4741C0.888902 15.1464 0.231689 16.7029 0.231689 18.7404V96.6862C0.245933 98.7236 0.879377 100.166 1.91758 100.911Z" fill="white"/>
<path d="M43.1374 56.4591L54.9911 43.5724L6.7192 14.7997C5.90636 14.2863 4.98307 14.0152 4.04272 14.0137L43.1326 56.4538L43.1374 56.4591Z" fill="white"/>
<path d="M43.1378 58.8521L3.92407 101.478C4.90829 101.496 5.87775 101.217 6.72437 100.672L55.0915 71.8215L43.1378 58.8521Z" fill="white"/>
<path d="M72.4789 54.0125L56.4153 44.4199L44.2378 57.6583L56.5058 70.9793L72.4741 61.4126C75.8697 59.3803 75.8696 56.0345 72.4789 54.0125Z" fill="white"/>
<path d="M116.742 32.905C116.742 32.421 116.621 31.984 116.379 31.5941C116.137 31.1908 115.673 30.8278 114.988 30.5051C114.315 30.1824 113.32 29.8866 112.003 29.6177C110.847 29.3623 109.785 29.0598 108.816 28.7102C107.862 28.3472 107.042 27.9103 106.356 27.3994C105.67 26.8885 105.139 26.2834 104.763 25.5843C104.386 24.8852 104.198 24.0785 104.198 23.1643C104.198 22.2769 104.393 21.4366 104.783 20.6434C105.173 19.8501 105.731 19.151 106.457 18.546C107.183 17.941 108.064 17.4637 109.099 17.1141C110.148 16.7645 111.317 16.5898 112.608 16.5898C114.436 16.5898 116.003 16.899 117.307 17.5175C118.624 18.1225 119.633 18.9493 120.332 19.998C121.031 21.0333 121.381 22.203 121.381 23.5071H116.52C116.52 22.929 116.372 22.3912 116.077 21.8937C115.794 21.3828 115.364 20.9728 114.786 20.6635C114.208 20.3409 113.482 20.1795 112.608 20.1795C111.774 20.1795 111.082 20.314 110.531 20.5829C109.993 20.8383 109.59 21.1744 109.321 21.5912C109.065 22.008 108.937 22.4651 108.937 22.9626C108.937 23.3256 109.005 23.655 109.139 23.9508C109.287 24.2331 109.529 24.4953 109.865 24.7373C110.201 24.9659 110.658 25.181 111.237 25.3826C111.828 25.5843 112.568 25.7793 113.455 25.9675C115.122 26.3171 116.554 26.7675 117.751 27.3187C118.961 27.8565 119.888 28.5556 120.534 29.4161C121.179 30.2631 121.502 31.3387 121.502 32.6428C121.502 33.6108 121.293 34.4982 120.876 35.3049C120.473 36.0981 119.882 36.7905 119.102 37.3821C118.322 37.9602 117.388 38.4106 116.299 38.7333C115.223 39.056 114.013 39.2173 112.668 39.2173C110.692 39.2173 109.018 38.8677 107.647 38.1686C106.275 37.456 105.233 36.5485 104.521 35.4461C103.822 34.3301 103.472 33.1739 103.472 31.9773H108.171C108.225 32.8781 108.474 33.5974 108.917 34.1352C109.374 34.6595 109.939 35.0427 110.611 35.2847C111.297 35.5133 112.003 35.6276 112.729 35.6276C113.603 35.6276 114.336 35.5133 114.927 35.2847C115.519 35.0427 115.969 34.72 116.278 34.3167C116.588 33.8999 116.742 33.4293 116.742 32.905ZM124.829 28.1455V27.6817C124.829 26.1087 125.058 24.6499 125.515 23.3054C125.972 21.9475 126.631 20.7711 127.491 19.7762C128.365 18.7678 129.427 17.988 130.678 17.4368C131.941 16.8721 133.367 16.5898 134.953 16.5898C136.553 16.5898 137.978 16.8721 139.229 17.4368C140.492 17.988 141.561 18.7678 142.435 19.7762C143.309 20.7711 143.975 21.9475 144.432 23.3054C144.889 24.6499 145.117 26.1087 145.117 27.6817V28.1455C145.117 29.7186 144.889 31.1773 144.432 32.5218C143.975 33.8663 143.309 35.0427 142.435 36.0511C141.561 37.046 140.499 37.8258 139.249 38.3905C137.998 38.9417 136.58 39.2173 134.993 39.2173C133.394 39.2173 131.962 38.9417 130.698 38.3905C129.447 37.8258 128.385 37.046 127.511 36.0511C126.638 35.0427 125.972 33.8663 125.515 32.5218C125.058 31.1773 124.829 29.7186 124.829 28.1455ZM129.689 27.6817V28.1455C129.689 29.127 129.79 30.0547 129.992 30.9286C130.194 31.8025 130.51 32.5689 130.94 33.2277C131.37 33.8865 131.921 34.4041 132.594 34.7805C133.266 35.157 134.066 35.3452 134.993 35.3452C135.894 35.3452 136.674 35.157 137.333 34.7805C138.005 34.4041 138.556 33.8865 138.987 33.2277C139.417 32.5689 139.733 31.8025 139.934 30.9286C140.15 30.0547 140.257 29.127 140.257 28.1455V27.6817C140.257 26.7137 140.15 25.7994 139.934 24.939C139.733 24.0651 139.41 23.292 138.966 22.6197C138.536 21.9475 137.985 21.4232 137.313 21.0467C136.654 20.6568 135.867 20.4619 134.953 20.4619C134.039 20.4619 133.246 20.6568 132.573 21.0467C131.915 21.4232 131.37 21.9475 130.94 22.6197C130.51 23.292 130.194 24.0651 129.992 24.939C129.79 25.7994 129.689 26.7137 129.689 27.6817ZM148.263 28.1455V27.6817C148.263 26.1087 148.492 24.6499 148.949 23.3054C149.406 21.9475 150.065 20.7711 150.926 19.7762C151.799 18.7678 152.862 17.988 154.112 17.4368C155.376 16.8721 156.801 16.5898 158.387 16.5898C159.987 16.5898 161.412 16.8721 162.663 17.4368C163.927 17.988 164.995 18.7678 165.869 19.7762C166.743 20.7711 167.409 21.9475 167.866 23.3054C168.323 24.6499 168.552 26.1087 168.552 27.6817V28.1455C168.552 29.7186 168.323 31.1773 167.866 32.5218C167.409 33.8663 166.743 35.0427 165.869 36.0511C164.995 37.046 163.933 37.8258 162.683 38.3905C161.433 38.9417 160.014 39.2173 158.428 39.2173C156.828 39.2173 155.396 38.9417 154.132 38.3905C152.882 37.8258 151.82 37.046 150.946 36.0511C150.072 35.0427 149.406 33.8663 148.949 32.5218C148.492 31.1773 148.263 29.7186 148.263 28.1455ZM153.124 27.6817V28.1455C153.124 29.127 153.225 30.0547 153.426 30.9286C153.628 31.8025 153.944 32.5689 154.374 33.2277C154.804 33.8865 155.356 34.4041 156.028 34.7805C156.7 35.157 157.5 35.3452 158.428 35.3452C159.328 35.3452 160.108 35.157 160.767 34.7805C161.439 34.4041 161.991 33.8865 162.421 33.2277C162.851 32.5689 163.167 31.8025 163.369 30.9286C163.584 30.0547 163.691 29.127 163.691 28.1455V27.6817C163.691 26.7137 163.584 25.7994 163.369 24.939C163.167 24.0651 162.844 23.292 162.401 22.6197C161.97 21.9475 161.419 21.4232 160.747 21.0467C160.088 20.6568 159.302 20.4619 158.387 20.4619C157.473 20.4619 156.68 20.6568 156.008 21.0467C155.349 21.4232 154.804 21.9475 154.374 22.6197C153.944 23.292 153.628 24.0651 153.426 24.939C153.225 25.7994 153.124 26.7137 153.124 27.6817ZM177.445 21.6517V38.814H172.585V16.9931H177.163L177.445 21.6517ZM176.578 27.0969L175.005 27.0767C175.019 25.5305 175.234 24.1121 175.65 22.8214C176.081 21.5307 176.672 20.4215 177.425 19.4938C178.191 18.5661 179.106 17.8536 180.168 17.3561C181.23 16.8452 182.413 16.5898 183.717 16.5898C184.766 16.5898 185.714 16.7377 186.561 17.0334C187.421 17.3158 188.154 17.7796 188.759 18.425C189.378 19.0703 189.848 19.9106 190.171 20.9459C190.493 21.9677 190.655 23.2248 190.655 24.7171V38.814H185.774V24.697C185.774 23.6483 185.62 22.8214 185.31 22.2164C185.015 21.5979 184.578 21.161 184 20.9055C183.435 20.6366 182.729 20.5022 181.882 20.5022C181.049 20.5022 180.302 20.677 179.644 21.0265C178.985 21.3761 178.427 21.8534 177.97 22.4584C177.526 23.0634 177.183 23.7625 176.941 24.5558C176.699 25.349 176.578 26.1961 176.578 27.0969ZM204.973 28.1455V27.6817C204.973 26.1087 205.202 24.6499 205.659 23.3054C206.116 21.9475 206.775 20.7711 207.636 19.7762C208.509 18.7678 209.572 17.988 210.822 17.4368C212.086 16.8721 213.511 16.5898 215.097 16.5898C216.697 16.5898 218.122 16.8721 219.373 17.4368C220.637 17.988 221.705 18.7678 222.579 19.7762C223.453 20.7711 224.119 21.9475 224.576 23.3054C225.033 24.6499 225.262 26.1087 225.262 27.6817V28.1455C225.262 29.7186 225.033 31.1773 224.576 32.5218C224.119 33.8663 223.453 35.0427 222.579 36.0511C221.705 37.046 220.643 37.8258 219.393 38.3905C218.143 38.9417 216.724 39.2173 215.138 39.2173C213.538 39.2173 212.106 38.9417 210.842 38.3905C209.592 37.8258 208.53 37.046 207.656 36.0511C206.782 35.0427 206.116 33.8663 205.659 32.5218C205.202 31.1773 204.973 29.7186 204.973 28.1455ZM209.834 27.6817V28.1455C209.834 29.127 209.935 30.0547 210.136 30.9286C210.338 31.8025 210.654 32.5689 211.084 33.2277C211.514 33.8865 212.066 34.4041 212.738 34.7805C213.41 35.157 214.21 35.3452 215.138 35.3452C216.039 35.3452 216.818 35.157 217.477 34.7805C218.149 34.4041 218.701 33.8865 219.131 33.2277C219.561 32.5689 219.877 31.8025 220.079 30.9286C220.294 30.0547 220.401 29.127 220.401 28.1455V27.6817C220.401 26.7137 220.294 25.7994 220.079 24.939C219.877 24.0651 219.554 23.292 219.111 22.6197C218.68 21.9475 218.129 21.4232 217.457 21.0467C216.798 20.6568 216.012 20.4619 215.097 20.4619C214.183 20.4619 213.39 20.6568 212.718 21.0467C212.059 21.4232 211.514 21.9475 211.084 22.6197C210.654 23.292 210.338 24.0651 210.136 24.939C209.935 25.7994 209.834 26.7137 209.834 27.6817ZM234.155 21.6517V38.814H229.295V16.9931H233.873L234.155 21.6517ZM233.288 27.0969L231.715 27.0767C231.729 25.5305 231.944 24.1121 232.36 22.8214C232.791 21.5307 233.382 20.4215 234.135 19.4938C234.902 18.5661 235.816 17.8536 236.878 17.3561C237.94 16.8452 239.123 16.5898 240.427 16.5898C241.476 16.5898 242.424 16.7377 243.271 17.0334C244.131 17.3158 244.864 17.7796 245.469 18.425C246.088 19.0703 246.558 19.9106 246.881 20.9459C247.203 21.9677 247.365 23.2248 247.365 24.7171V38.814H242.484V24.697C242.484 23.6483 242.33 22.8214 242.021 22.2164C241.725 21.5979 241.288 21.161 240.71 20.9055C240.145 20.6366 239.439 20.5022 238.592 20.5022C237.759 20.5022 237.012 20.677 236.354 21.0265C235.695 21.3761 235.137 21.8534 234.68 22.4584C234.236 23.0634 233.893 23.7625 233.651 24.5558C233.409 25.349 233.288 26.1961 233.288 27.0969Z" fill="white"/>
</svg>
